M48
;DRILL file {Pcbnew (2013-07-07 BZR 4022)-stable} date 03-03-2014 12:21:21 AM
;FORMAT={3:3/ absolute / metric / suppress leading zeros}
FMAT,2
METRIC,TZ
T1C0.399
T2C0.813
%
G90
G05
M71
T1
X3366Y13018
X3429Y12002
X3429Y8509
X3429Y7557
X4318Y13144
X4382Y12002
X4382Y8573
X4382Y7620
X4704Y15171
X4735Y18555
X6525Y16888
X6668Y2985
X7366Y12256
X7366Y11240
X7366Y10287
X7366Y9335
X7366Y8255
X7747Y13843
X7874Y16891
X8128Y12827
X8128Y11811
X8128Y10795
X8128Y9779
X8128Y8763
X8128Y7747
X8128Y6731
X8209Y18463
X8763Y2286
X8954Y12383
X8954Y11303
X8954Y10287
X8954Y9081
X8954Y8191
X8954Y7302
X8954Y6223
X9398Y14605
X9817Y13861
X9906Y10731
X9906Y9652
X10287Y2667
X10632Y18509
X12636Y11303
X12873Y16393
X13208Y18034
T2
X1397Y19177
X1397Y16637
X1397Y14097
X1397Y11557
X1397Y9017
X1397Y6477
X1397Y3937
X1397Y1397
X14097Y19177
X14097Y16637
X14097Y14097
X14097Y11557
X14097Y9017
X14097Y6477
X14097Y3937
X14097Y1397
T0
M30
