G04 (created by PCBNEW (2013-07-07 BZR 4022)-stable) date 03-03-2014 12:21:00 AM*
%MOIN*%
G04 Gerber Fmt 3.4, Leading zero omitted, Abs format*
%FSLAX34Y34*%
G01*
G70*
G90*
G04 APERTURE LIST*
%ADD10C,0.00590551*%
%ADD11C,0.005*%
%ADD12R,0.0579X0.0165*%
%ADD13R,0.0984X0.1701*%
%ADD14R,0.055X0.035*%
%ADD15R,0.0394X0.0374*%
%ADD16R,0.0374X0.0394*%
%ADD17R,0.0453X0.0709*%
%ADD18R,0.05X0.04*%
%ADD19R,0.06X0.065*%
G04 APERTURE END LIST*
G54D10*
G54D11*
X100Y50D02*
X100Y8050D01*
X6050Y50D02*
X100Y50D01*
X6050Y8050D02*
X6050Y50D01*
X100Y8050D02*
X6050Y8050D01*
G54D12*
X4452Y3922D03*
X4452Y4178D03*
X4452Y4434D03*
X4452Y4690D03*
X2250Y3158D03*
X4452Y3154D03*
X4452Y3410D03*
X4452Y3666D03*
X2248Y4946D03*
X2248Y4690D03*
X2248Y4434D03*
X2248Y4178D03*
X2248Y3922D03*
X2248Y3666D03*
X4452Y4946D03*
X2250Y3410D03*
X4452Y2898D03*
X4452Y5202D03*
X2248Y5202D03*
X2248Y2898D03*
X4452Y2643D03*
X4452Y5457D03*
X2248Y5457D03*
X2248Y2643D03*
G54D13*
X3225Y4075D03*
G54D14*
X1345Y2570D03*
X1345Y1820D03*
X1395Y5605D03*
X1395Y6355D03*
G54D15*
X4700Y7465D03*
X4700Y6835D03*
G54D16*
X2865Y1900D03*
X2235Y1900D03*
X4135Y6000D03*
X4765Y6000D03*
G54D15*
X1400Y7035D03*
X1400Y7665D03*
G54D17*
X1509Y550D03*
X2691Y550D03*
G54D16*
X2115Y1300D03*
X1485Y1300D03*
G54D15*
X4450Y1865D03*
X4450Y1235D03*
G54D16*
X2915Y5950D03*
X2285Y5950D03*
X4085Y550D03*
X4715Y550D03*
G54D15*
X3600Y2015D03*
X3600Y1385D03*
G54D18*
X3750Y6825D03*
G54D19*
X2450Y7275D03*
G54D18*
X3750Y7725D03*
M02*
