G75*
G70*
%OFA0B0*%
%FSLAX24Y24*%
%IPPOS*%
%LPD*%
%AMOC8*
5,1,8,0,0,1.08239X$1,22.5*
%
%ADD10C,0.0160*%
%ADD11C,0.0060*%
%ADD12C,0.0120*%
%ADD13C,0.0090*%
%ADD14C,0.0080*%
D10*
X001050Y001797D02*
X001052Y001848D01*
X001058Y001899D01*
X001068Y001949D01*
X001081Y001998D01*
X001099Y002046D01*
X001120Y002092D01*
X001145Y002137D01*
X001173Y002180D01*
X001204Y002220D01*
X001238Y002258D01*
X001275Y002293D01*
X001315Y002325D01*
X001357Y002354D01*
X001401Y002379D01*
X001447Y002401D01*
X001495Y002420D01*
X001544Y002434D01*
X001594Y002445D01*
X001644Y002452D01*
X001695Y002455D01*
X001746Y002454D01*
X001797Y002449D01*
X001847Y002440D01*
X001897Y002427D01*
X001945Y002411D01*
X001992Y002391D01*
X002037Y002367D01*
X002080Y002340D01*
X002121Y002309D01*
X002160Y002276D01*
X002195Y002239D01*
X002228Y002200D01*
X002258Y002159D01*
X002284Y002115D01*
X002307Y002069D01*
X002326Y002022D01*
X002342Y001973D01*
X002354Y001924D01*
X002362Y001873D01*
X002366Y001823D01*
X002366Y001771D01*
X002362Y001721D01*
X002354Y001670D01*
X002342Y001621D01*
X002326Y001572D01*
X002307Y001525D01*
X002284Y001479D01*
X002258Y001435D01*
X002228Y001394D01*
X002195Y001355D01*
X002160Y001318D01*
X002121Y001285D01*
X002080Y001254D01*
X002037Y001227D01*
X001992Y001203D01*
X001945Y001183D01*
X001897Y001167D01*
X001847Y001154D01*
X001797Y001145D01*
X001746Y001140D01*
X001695Y001139D01*
X001644Y001142D01*
X001594Y001149D01*
X001544Y001160D01*
X001495Y001174D01*
X001447Y001193D01*
X001401Y001215D01*
X001357Y001240D01*
X001315Y001269D01*
X001275Y001301D01*
X001238Y001336D01*
X001204Y001374D01*
X001173Y001414D01*
X001145Y001457D01*
X001120Y001502D01*
X001099Y001548D01*
X001081Y001596D01*
X001068Y001645D01*
X001058Y001695D01*
X001052Y001746D01*
X001050Y001797D01*
X003472Y002942D02*
X082212Y002942D01*
X082212Y082863D01*
X003472Y082863D01*
X003472Y002942D01*
X004259Y004123D02*
X008196Y011209D01*
X012133Y004123D01*
X004259Y004123D01*
X006621Y004910D02*
X009771Y004910D01*
X008983Y005304D02*
X009022Y005345D01*
X009058Y005389D01*
X009091Y005436D01*
X009121Y005485D01*
X009147Y005535D01*
X009170Y005588D01*
X009189Y005641D01*
X009204Y005696D01*
X009216Y005752D01*
X009224Y005809D01*
X009228Y005865D01*
X009228Y005923D01*
X009224Y005979D01*
X009216Y006036D01*
X009204Y006092D01*
X009189Y006147D01*
X009170Y006200D01*
X009147Y006253D01*
X009121Y006303D01*
X009091Y006352D01*
X009058Y006399D01*
X009022Y006443D01*
X008983Y006484D01*
X008195Y006484D02*
X008151Y006531D01*
X008109Y006581D01*
X008070Y006633D01*
X008035Y006687D01*
X008002Y006743D01*
X007973Y006801D01*
X007948Y006861D01*
X007926Y006922D01*
X007907Y006984D01*
X007892Y007047D01*
X007881Y007111D01*
X007873Y007175D01*
X007869Y007240D01*
X007869Y007304D01*
X007873Y007369D01*
X007881Y007433D01*
X007892Y007497D01*
X007907Y007560D01*
X007926Y007622D01*
X007948Y007683D01*
X007973Y007743D01*
X008002Y007801D01*
X008035Y007857D01*
X008070Y007911D01*
X008109Y007963D01*
X008151Y008013D01*
X008195Y008060D01*
X007408Y008060D02*
X007364Y008013D01*
X007322Y007963D01*
X007283Y007911D01*
X007248Y007857D01*
X007215Y007801D01*
X007186Y007743D01*
X007161Y007683D01*
X007139Y007622D01*
X007120Y007560D01*
X007105Y007497D01*
X007094Y007433D01*
X007086Y007369D01*
X007082Y007304D01*
X007082Y007240D01*
X007086Y007175D01*
X007094Y007111D01*
X007105Y007047D01*
X007120Y006984D01*
X007139Y006922D01*
X007161Y006861D01*
X007186Y006801D01*
X007215Y006743D01*
X007248Y006687D01*
X007283Y006633D01*
X007322Y006581D01*
X007364Y006531D01*
X007408Y006484D01*
X008196Y006484D02*
X008235Y006443D01*
X008271Y006399D01*
X008304Y006352D01*
X008334Y006303D01*
X008360Y006253D01*
X008383Y006200D01*
X008402Y006147D01*
X008417Y006092D01*
X008429Y006036D01*
X008437Y005979D01*
X008441Y005923D01*
X008441Y005865D01*
X008437Y005809D01*
X008429Y005752D01*
X008417Y005696D01*
X008402Y005641D01*
X008383Y005588D01*
X008360Y005535D01*
X008334Y005485D01*
X008304Y005436D01*
X008271Y005389D01*
X008235Y005345D01*
X008196Y005304D01*
X007408Y005304D02*
X007447Y005345D01*
X007483Y005389D01*
X007516Y005436D01*
X007546Y005485D01*
X007572Y005535D01*
X007595Y005588D01*
X007614Y005641D01*
X007629Y005696D01*
X007641Y005752D01*
X007649Y005809D01*
X007653Y005865D01*
X007653Y005923D01*
X007649Y005979D01*
X007641Y006036D01*
X007629Y006092D01*
X007614Y006147D01*
X007595Y006200D01*
X007572Y006253D01*
X007546Y006303D01*
X007516Y006352D01*
X007483Y006399D01*
X007447Y006443D01*
X007408Y006484D01*
X008983Y006484D02*
X008939Y006531D01*
X008897Y006581D01*
X008858Y006633D01*
X008823Y006687D01*
X008790Y006743D01*
X008761Y006801D01*
X008736Y006861D01*
X008714Y006922D01*
X008695Y006984D01*
X008680Y007047D01*
X008669Y007111D01*
X008661Y007175D01*
X008657Y007240D01*
X008657Y007304D01*
X008661Y007369D01*
X008669Y007433D01*
X008680Y007497D01*
X008695Y007560D01*
X008714Y007622D01*
X008736Y007683D01*
X008761Y007743D01*
X008790Y007801D01*
X008823Y007857D01*
X008858Y007911D01*
X008897Y007963D01*
X008939Y008013D01*
X008983Y008060D01*
X009764Y026644D02*
X010378Y026644D01*
X010685Y026951D01*
X011299Y026644D02*
X011299Y027871D01*
X011913Y028485D01*
X012526Y027871D01*
X012526Y026644D01*
X013140Y026951D02*
X013447Y026644D01*
X014061Y026644D01*
X014368Y026951D01*
X014368Y028485D01*
X014982Y028485D02*
X016210Y028485D01*
X016823Y028485D02*
X017437Y028485D01*
X017130Y028485D02*
X017130Y026644D01*
X016823Y026644D02*
X017437Y026644D01*
X018051Y026951D02*
X018051Y028178D01*
X018358Y028485D01*
X018972Y028485D01*
X019279Y028178D01*
X019279Y026951D01*
X018972Y026644D01*
X018358Y026644D01*
X018051Y026951D01*
X019893Y026644D02*
X019893Y028485D01*
X021120Y026644D01*
X021120Y028485D01*
X021734Y027871D02*
X021734Y027565D01*
X022041Y027565D01*
X022041Y027871D01*
X021734Y027871D01*
X021734Y026951D02*
X021734Y026644D01*
X022041Y026644D01*
X022041Y026951D01*
X021734Y026951D01*
X015596Y026644D02*
X015596Y028485D01*
X013140Y028485D02*
X013140Y026951D01*
X012526Y027565D02*
X011299Y027565D01*
X010685Y028178D02*
X010378Y028485D01*
X009764Y028485D01*
X009457Y028178D01*
X009457Y026951D01*
X009764Y026644D01*
X033237Y032667D02*
X034157Y032667D01*
X034464Y032974D01*
X034464Y034202D01*
X034157Y034509D01*
X033237Y034509D01*
X033237Y032667D01*
X035078Y032974D02*
X035385Y032667D01*
X035999Y032667D01*
X036306Y032974D01*
X036306Y034202D01*
X035999Y034509D01*
X035385Y034509D01*
X035078Y034202D01*
X035078Y032974D01*
X038761Y032667D02*
X038761Y034509D01*
X039989Y032667D01*
X039989Y034509D01*
X040603Y034202D02*
X040603Y032974D01*
X040910Y032667D01*
X041524Y032667D01*
X041831Y032974D01*
X041831Y034202D01*
X041524Y034509D01*
X040910Y034509D01*
X040603Y034202D01*
X042445Y034509D02*
X043672Y034509D01*
X043058Y034509D02*
X043058Y032667D01*
X046128Y034509D02*
X047355Y034509D01*
X046742Y034509D02*
X046742Y032667D01*
X047969Y032974D02*
X047969Y034202D01*
X048276Y034509D01*
X048890Y034509D01*
X049197Y034202D01*
X049197Y032974D01*
X048890Y032667D01*
X048276Y032667D01*
X047969Y032974D01*
X049811Y032974D02*
X050118Y032667D01*
X050732Y032667D01*
X051039Y032974D01*
X051039Y034509D01*
X051652Y034202D02*
X051652Y032974D01*
X051959Y032667D01*
X052573Y032667D01*
X052880Y032974D01*
X053494Y032667D02*
X053494Y034509D01*
X052880Y034202D02*
X052573Y034509D01*
X051959Y034509D01*
X051652Y034202D01*
X049811Y034509D02*
X049811Y032974D01*
X053494Y033588D02*
X054722Y033588D01*
X055336Y033588D02*
X055336Y034816D01*
X054722Y034509D02*
X054722Y032667D01*
X055336Y032667D02*
X055336Y032974D01*
X050899Y037392D02*
X049671Y037392D01*
X049671Y039233D01*
X050899Y039233D01*
X050285Y038313D02*
X049671Y038313D01*
X049057Y037392D02*
X049057Y039233D01*
X047829Y039233D02*
X047829Y037392D01*
X047216Y037699D02*
X047216Y038926D01*
X046909Y039233D01*
X046295Y039233D01*
X045988Y038926D01*
X045988Y037699D01*
X046295Y037392D01*
X046909Y037392D01*
X047216Y037699D01*
X047829Y039233D02*
X049057Y037392D01*
X045374Y037392D02*
X044146Y037392D01*
X044146Y037699D01*
X045374Y038926D01*
X045374Y039233D01*
X044146Y039233D01*
X041691Y039233D02*
X040463Y039233D01*
X041077Y039233D02*
X041077Y037392D01*
X039849Y037699D02*
X039849Y038926D01*
X039542Y039233D01*
X038929Y039233D01*
X038622Y038926D01*
X038622Y037699D01*
X038929Y037392D01*
X039542Y037392D01*
X039849Y037699D01*
X038008Y037392D02*
X038008Y039233D01*
X038008Y038313D02*
X036780Y038313D01*
X036780Y039233D02*
X036780Y037392D01*
X033629Y043375D02*
X043078Y059517D01*
X052133Y043375D01*
X033629Y043375D01*
X037566Y044950D02*
X048196Y044950D01*
X044594Y045894D02*
X044695Y045981D01*
X044792Y046073D01*
X044884Y046169D01*
X044972Y046269D01*
X045054Y046373D01*
X045132Y046481D01*
X045205Y046593D01*
X045272Y046708D01*
X045333Y046826D01*
X045389Y046947D01*
X045439Y047070D01*
X045483Y047196D01*
X045521Y047324D01*
X045553Y047453D01*
X045579Y047584D01*
X045599Y047715D01*
X045612Y047848D01*
X045619Y047981D01*
X045619Y048114D01*
X045614Y048247D01*
X045602Y048380D01*
X045583Y048512D01*
X045559Y048643D01*
X045528Y048772D01*
X045491Y048900D01*
X045448Y049026D01*
X045399Y049150D01*
X045344Y049271D01*
X045284Y049390D01*
X045218Y049506D01*
X045146Y049618D01*
X045069Y049727D01*
X044988Y049832D01*
X042999Y049733D02*
X042911Y049848D01*
X042829Y049967D01*
X042753Y050090D01*
X042682Y050217D01*
X042618Y050346D01*
X042560Y050479D01*
X042508Y050614D01*
X042463Y050751D01*
X042424Y050890D01*
X042392Y051031D01*
X042367Y051174D01*
X042348Y051317D01*
X042337Y051462D01*
X042332Y051606D01*
X042334Y051751D01*
X042343Y051895D01*
X042359Y052039D01*
X042382Y052182D01*
X042411Y052323D01*
X042448Y052463D01*
X042490Y052602D01*
X042540Y052737D01*
X042596Y052871D01*
X042658Y053002D01*
X042726Y053129D01*
X042800Y053253D01*
X042880Y053374D01*
X042966Y053490D01*
X043057Y053603D01*
X043153Y053711D01*
X043254Y053814D01*
X043361Y053912D01*
X043471Y054005D01*
X041898Y054005D02*
X041778Y053917D01*
X041662Y053825D01*
X041552Y053727D01*
X041445Y053623D01*
X041344Y053515D01*
X041249Y053402D01*
X041158Y053285D01*
X041074Y053163D01*
X040995Y053038D01*
X040922Y052909D01*
X040856Y052776D01*
X040796Y052641D01*
X040742Y052503D01*
X040695Y052362D01*
X040655Y052220D01*
X040621Y052075D01*
X040595Y051930D01*
X040575Y051783D01*
X040563Y051635D01*
X040557Y051487D01*
X040559Y051339D01*
X040567Y051191D01*
X040583Y051044D01*
X040606Y050898D01*
X040635Y050752D01*
X040672Y050609D01*
X040715Y050467D01*
X040765Y050328D01*
X040821Y050191D01*
X040884Y050057D01*
X040954Y049926D01*
X041029Y049798D01*
X041110Y049675D01*
X043000Y049733D02*
X043081Y049628D01*
X043158Y049519D01*
X043230Y049407D01*
X043296Y049291D01*
X043356Y049172D01*
X043411Y049051D01*
X043460Y048927D01*
X043503Y048801D01*
X043540Y048673D01*
X043571Y048544D01*
X043595Y048413D01*
X043614Y048281D01*
X043626Y048148D01*
X043631Y048015D01*
X043631Y047882D01*
X043624Y047749D01*
X043611Y047616D01*
X043591Y047485D01*
X043565Y047354D01*
X043533Y047225D01*
X043495Y047097D01*
X043451Y046971D01*
X043401Y046848D01*
X043345Y046727D01*
X043284Y046609D01*
X043217Y046494D01*
X043144Y046382D01*
X043066Y046274D01*
X042984Y046170D01*
X042896Y046070D01*
X042804Y045974D01*
X042707Y045882D01*
X042606Y045795D01*
X040716Y045736D02*
X040817Y045823D01*
X040914Y045915D01*
X041006Y046011D01*
X041094Y046111D01*
X041176Y046215D01*
X041254Y046323D01*
X041327Y046435D01*
X041394Y046550D01*
X041455Y046668D01*
X041511Y046789D01*
X041561Y046912D01*
X041605Y047038D01*
X041643Y047166D01*
X041675Y047295D01*
X041701Y047426D01*
X041721Y047557D01*
X041734Y047690D01*
X041741Y047823D01*
X041741Y047956D01*
X041736Y048089D01*
X041724Y048222D01*
X041705Y048354D01*
X041681Y048485D01*
X041650Y048614D01*
X041613Y048742D01*
X041570Y048868D01*
X041521Y048992D01*
X041466Y049113D01*
X041406Y049232D01*
X041340Y049348D01*
X041268Y049460D01*
X041191Y049569D01*
X041110Y049674D01*
X044988Y049832D02*
X044890Y049938D01*
X044797Y050049D01*
X044709Y050165D01*
X044627Y050284D01*
X044552Y050408D01*
X044482Y050535D01*
X044419Y050665D01*
X044362Y050798D01*
X044312Y050934D01*
X044268Y051072D01*
X044232Y051213D01*
X044202Y051354D01*
X044179Y051497D01*
X044163Y051641D01*
X044155Y051786D01*
X044153Y051931D01*
X044159Y052075D01*
X044172Y052220D01*
X044191Y052363D01*
X044218Y052506D01*
X044252Y052646D01*
X044292Y052785D01*
X044340Y052922D01*
X044394Y053057D01*
X044454Y053188D01*
X044521Y053317D01*
X044595Y053442D01*
X044674Y053563D01*
X044759Y053680D01*
X044850Y053793D01*
X044946Y053901D01*
X045047Y054005D01*
X046742Y062943D02*
X046742Y064785D01*
X047355Y064785D02*
X046128Y064785D01*
X047969Y064478D02*
X047969Y063250D01*
X048276Y062943D01*
X048890Y062943D01*
X049197Y063250D01*
X049197Y064478D01*
X048890Y064785D01*
X048276Y064785D01*
X047969Y064478D01*
X049811Y064785D02*
X049811Y063250D01*
X050118Y062943D01*
X050732Y062943D01*
X051039Y063250D01*
X051039Y064785D01*
X051652Y064478D02*
X051652Y063250D01*
X051959Y062943D01*
X052573Y062943D01*
X052880Y063250D01*
X053494Y062943D02*
X053494Y064785D01*
X052880Y064478D02*
X052573Y064785D01*
X051959Y064785D01*
X051652Y064478D01*
X053494Y063864D02*
X054722Y063864D01*
X055336Y063864D02*
X055336Y065091D01*
X054722Y064785D02*
X054722Y062943D01*
X055336Y062943D02*
X055336Y063250D01*
X050899Y069242D02*
X049671Y069242D01*
X049671Y071084D01*
X050899Y071084D01*
X050285Y070163D02*
X049671Y070163D01*
X049057Y069242D02*
X049057Y071084D01*
X047829Y071084D02*
X047829Y069242D01*
X047216Y069549D02*
X047216Y070777D01*
X046909Y071084D01*
X046295Y071084D01*
X045988Y070777D01*
X045988Y069549D01*
X046295Y069242D01*
X046909Y069242D01*
X047216Y069549D01*
X047829Y071084D02*
X049057Y069242D01*
X045374Y069242D02*
X044146Y069242D01*
X044146Y069549D01*
X045374Y070777D01*
X045374Y071084D01*
X044146Y071084D01*
X041691Y071084D02*
X040463Y071084D01*
X041077Y071084D02*
X041077Y069242D01*
X039849Y069549D02*
X039849Y070777D01*
X039542Y071084D01*
X038929Y071084D01*
X038622Y070777D01*
X038622Y069549D01*
X038929Y069242D01*
X039542Y069242D01*
X039849Y069549D01*
X038008Y069242D02*
X038008Y071084D01*
X038008Y070163D02*
X036780Y070163D01*
X036780Y069242D02*
X036780Y071084D01*
X035999Y064785D02*
X035385Y064785D01*
X035078Y064478D01*
X035078Y063250D01*
X035385Y062943D01*
X035999Y062943D01*
X036306Y063250D01*
X036306Y064478D01*
X035999Y064785D01*
X034464Y064478D02*
X034464Y063250D01*
X034157Y062943D01*
X033237Y062943D01*
X033237Y064785D01*
X034157Y064785D01*
X034464Y064478D01*
X038761Y064785D02*
X038761Y062943D01*
X039989Y062943D02*
X039989Y064785D01*
X040603Y064478D02*
X040603Y063250D01*
X040910Y062943D01*
X041524Y062943D01*
X041831Y063250D01*
X041831Y064478D01*
X041524Y064785D01*
X040910Y064785D01*
X040603Y064478D01*
X039989Y062943D02*
X038761Y064785D01*
X042445Y064785D02*
X043672Y064785D01*
X043058Y064785D02*
X043058Y062943D01*
X042062Y078906D02*
X042062Y080747D01*
X042983Y080747D01*
X043289Y080440D01*
X043289Y079827D01*
X042983Y079520D01*
X042062Y079520D01*
X041448Y079520D02*
X041448Y080440D01*
X041141Y080747D01*
X040527Y080747D01*
X040527Y080133D02*
X040220Y079827D01*
X040527Y079520D01*
X041448Y079520D01*
X041448Y080133D02*
X040527Y080133D01*
X039606Y080440D02*
X039606Y081054D01*
X039299Y081361D01*
X038379Y081361D01*
X038379Y079520D01*
X038379Y080133D02*
X039299Y080133D01*
X039606Y080440D01*
X038992Y080133D02*
X039606Y079520D01*
X037765Y079827D02*
X037458Y079520D01*
X036537Y079520D01*
X036537Y078906D02*
X036537Y080747D01*
X037458Y080747D01*
X037765Y080440D01*
X037765Y079827D01*
X035923Y080133D02*
X034695Y080133D01*
X034695Y079827D02*
X034695Y080440D01*
X035002Y080747D01*
X035616Y080747D01*
X035923Y080440D01*
X035923Y080133D01*
X035616Y079520D02*
X035002Y079520D01*
X034695Y079827D01*
X034082Y079520D02*
X033468Y080133D01*
X033775Y080133D02*
X032854Y080133D01*
X032854Y079520D02*
X032854Y081361D01*
X033775Y081361D01*
X034082Y081054D01*
X034082Y080440D01*
X033775Y080133D01*
X032240Y079827D02*
X032240Y079520D01*
X031933Y079520D01*
X031933Y079827D01*
X032240Y079827D01*
X031319Y079827D02*
X031012Y079520D01*
X030705Y079827D01*
X030398Y079520D01*
X030092Y079827D01*
X030092Y080747D01*
X029478Y080747D02*
X029478Y079827D01*
X029171Y079520D01*
X028864Y079827D01*
X028557Y079520D01*
X028250Y079827D01*
X028250Y080747D01*
X027636Y080747D02*
X027636Y079827D01*
X027329Y079520D01*
X027022Y079827D01*
X026715Y079520D01*
X026408Y079827D01*
X026408Y080747D01*
X031319Y080747D02*
X031319Y079827D01*
X043903Y080440D02*
X045131Y080440D01*
X045745Y079520D02*
X046359Y079520D01*
X046052Y079520D02*
X046052Y081361D01*
X045745Y081361D02*
X046359Y081361D01*
X046973Y080747D02*
X047893Y080747D01*
X048200Y080440D01*
X048200Y079520D01*
X048814Y079827D02*
X048814Y080440D01*
X049121Y080747D01*
X050042Y080747D01*
X050656Y080747D02*
X050963Y080747D01*
X050963Y079520D01*
X050656Y079520D02*
X051270Y079520D01*
X051883Y079827D02*
X052190Y080133D01*
X053111Y080133D01*
X053111Y080440D02*
X053111Y079520D01*
X052190Y079520D01*
X051883Y079827D01*
X052190Y080747D02*
X052804Y080747D01*
X053111Y080440D01*
X053725Y079827D02*
X053725Y079520D01*
X054032Y079520D01*
X054032Y079827D01*
X053725Y079827D01*
X054646Y079827D02*
X054953Y079520D01*
X055874Y079520D01*
X056487Y079827D02*
X056794Y079520D01*
X057408Y079520D01*
X057715Y079827D01*
X057715Y080440D01*
X057408Y080747D01*
X056794Y080747D01*
X056487Y080440D01*
X056487Y079827D01*
X055874Y080747D02*
X054953Y080747D01*
X054646Y080440D01*
X054646Y079827D01*
X050963Y081361D02*
X050963Y081668D01*
X050042Y081361D02*
X050042Y079520D01*
X049121Y079520D01*
X048814Y079827D01*
X046973Y079520D02*
X046973Y080747D01*
X058329Y080747D02*
X058329Y079520D01*
X058943Y079520D02*
X058943Y080440D01*
X059250Y080747D01*
X059557Y080440D01*
X059557Y079520D01*
X058943Y080440D02*
X058636Y080747D01*
X058329Y080747D01*
X073550Y075383D02*
X077487Y082469D01*
X081424Y075383D01*
X073550Y075383D01*
X075913Y076170D02*
X079062Y076170D01*
X078274Y076564D02*
X078313Y076605D01*
X078349Y076649D01*
X078382Y076696D01*
X078412Y076745D01*
X078438Y076795D01*
X078461Y076848D01*
X078480Y076901D01*
X078495Y076956D01*
X078507Y077012D01*
X078515Y077069D01*
X078519Y077125D01*
X078519Y077183D01*
X078515Y077239D01*
X078507Y077296D01*
X078495Y077352D01*
X078480Y077407D01*
X078461Y077460D01*
X078438Y077513D01*
X078412Y077563D01*
X078382Y077612D01*
X078349Y077659D01*
X078313Y077703D01*
X078274Y077744D01*
X077487Y077744D02*
X077443Y077791D01*
X077401Y077841D01*
X077362Y077893D01*
X077327Y077947D01*
X077294Y078003D01*
X077265Y078061D01*
X077240Y078121D01*
X077218Y078182D01*
X077199Y078244D01*
X077184Y078307D01*
X077173Y078371D01*
X077165Y078435D01*
X077161Y078500D01*
X077161Y078564D01*
X077165Y078629D01*
X077173Y078693D01*
X077184Y078757D01*
X077199Y078820D01*
X077218Y078882D01*
X077240Y078943D01*
X077265Y079003D01*
X077294Y079061D01*
X077327Y079117D01*
X077362Y079171D01*
X077401Y079223D01*
X077443Y079273D01*
X077487Y079320D01*
X076699Y079320D02*
X076655Y079273D01*
X076613Y079223D01*
X076574Y079171D01*
X076539Y079117D01*
X076506Y079061D01*
X076477Y079003D01*
X076452Y078943D01*
X076430Y078882D01*
X076411Y078820D01*
X076396Y078757D01*
X076385Y078693D01*
X076377Y078629D01*
X076373Y078564D01*
X076373Y078500D01*
X076377Y078435D01*
X076385Y078371D01*
X076396Y078307D01*
X076411Y078244D01*
X076430Y078182D01*
X076452Y078121D01*
X076477Y078061D01*
X076506Y078003D01*
X076539Y077947D01*
X076574Y077893D01*
X076613Y077841D01*
X076655Y077791D01*
X076699Y077744D01*
X077487Y077744D02*
X077526Y077703D01*
X077562Y077659D01*
X077595Y077612D01*
X077625Y077563D01*
X077651Y077513D01*
X077674Y077460D01*
X077693Y077407D01*
X077708Y077352D01*
X077720Y077296D01*
X077728Y077239D01*
X077732Y077183D01*
X077732Y077125D01*
X077728Y077069D01*
X077720Y077012D01*
X077708Y076956D01*
X077693Y076901D01*
X077674Y076848D01*
X077651Y076795D01*
X077625Y076745D01*
X077595Y076696D01*
X077562Y076649D01*
X077526Y076605D01*
X077487Y076564D01*
X076699Y076564D02*
X076738Y076605D01*
X076774Y076649D01*
X076807Y076696D01*
X076837Y076745D01*
X076863Y076795D01*
X076886Y076848D01*
X076905Y076901D01*
X076920Y076956D01*
X076932Y077012D01*
X076940Y077069D01*
X076944Y077125D01*
X076944Y077183D01*
X076940Y077239D01*
X076932Y077296D01*
X076920Y077352D01*
X076905Y077407D01*
X076886Y077460D01*
X076863Y077513D01*
X076837Y077563D01*
X076807Y077612D01*
X076774Y077659D01*
X076738Y077703D01*
X076699Y077744D01*
X078274Y077744D02*
X078230Y077791D01*
X078188Y077841D01*
X078149Y077893D01*
X078114Y077947D01*
X078081Y078003D01*
X078052Y078061D01*
X078027Y078121D01*
X078005Y078182D01*
X077986Y078244D01*
X077971Y078307D01*
X077960Y078371D01*
X077952Y078435D01*
X077948Y078500D01*
X077948Y078564D01*
X077952Y078629D01*
X077960Y078693D01*
X077971Y078757D01*
X077986Y078820D01*
X078005Y078882D01*
X078027Y078943D01*
X078052Y079003D01*
X078081Y079061D01*
X078114Y079117D01*
X078149Y079171D01*
X078188Y079223D01*
X078230Y079273D01*
X078274Y079320D01*
X083342Y084076D02*
X083344Y084127D01*
X083350Y084178D01*
X083360Y084228D01*
X083373Y084277D01*
X083391Y084325D01*
X083412Y084371D01*
X083437Y084416D01*
X083465Y084459D01*
X083496Y084499D01*
X083530Y084537D01*
X083567Y084572D01*
X083607Y084604D01*
X083649Y084633D01*
X083693Y084658D01*
X083739Y084680D01*
X083787Y084699D01*
X083836Y084713D01*
X083886Y084724D01*
X083936Y084731D01*
X083987Y084734D01*
X084038Y084733D01*
X084089Y084728D01*
X084139Y084719D01*
X084189Y084706D01*
X084237Y084690D01*
X084284Y084670D01*
X084329Y084646D01*
X084372Y084619D01*
X084413Y084588D01*
X084452Y084555D01*
X084487Y084518D01*
X084520Y084479D01*
X084550Y084438D01*
X084576Y084394D01*
X084599Y084348D01*
X084618Y084301D01*
X084634Y084252D01*
X084646Y084203D01*
X084654Y084152D01*
X084658Y084102D01*
X084658Y084050D01*
X084654Y084000D01*
X084646Y083949D01*
X084634Y083900D01*
X084618Y083851D01*
X084599Y083804D01*
X084576Y083758D01*
X084550Y083714D01*
X084520Y083673D01*
X084487Y083634D01*
X084452Y083597D01*
X084413Y083564D01*
X084372Y083533D01*
X084329Y083506D01*
X084284Y083482D01*
X084237Y083462D01*
X084189Y083446D01*
X084139Y083433D01*
X084089Y083424D01*
X084038Y083419D01*
X083987Y083418D01*
X083936Y083421D01*
X083886Y083428D01*
X083836Y083439D01*
X083787Y083453D01*
X083739Y083472D01*
X083693Y083494D01*
X083649Y083519D01*
X083607Y083548D01*
X083567Y083580D01*
X083530Y083615D01*
X083496Y083653D01*
X083465Y083693D01*
X083437Y083736D01*
X083412Y083781D01*
X083391Y083827D01*
X083373Y083875D01*
X083360Y083924D01*
X083350Y083974D01*
X083344Y084025D01*
X083342Y084076D01*
X012133Y074989D02*
X008196Y082076D01*
X004259Y074989D01*
X012133Y074989D01*
X009771Y075776D02*
X006621Y075776D01*
X007408Y076171D02*
X007447Y076212D01*
X007483Y076256D01*
X007516Y076303D01*
X007546Y076352D01*
X007572Y076402D01*
X007595Y076455D01*
X007614Y076508D01*
X007629Y076563D01*
X007641Y076619D01*
X007649Y076676D01*
X007653Y076732D01*
X007653Y076790D01*
X007649Y076846D01*
X007641Y076903D01*
X007629Y076959D01*
X007614Y077014D01*
X007595Y077067D01*
X007572Y077120D01*
X007546Y077170D01*
X007516Y077219D01*
X007483Y077266D01*
X007447Y077310D01*
X007408Y077351D01*
X008196Y077351D02*
X008235Y077310D01*
X008271Y077266D01*
X008304Y077219D01*
X008334Y077170D01*
X008360Y077120D01*
X008383Y077067D01*
X008402Y077014D01*
X008417Y076959D01*
X008429Y076903D01*
X008437Y076846D01*
X008441Y076790D01*
X008441Y076732D01*
X008437Y076676D01*
X008429Y076619D01*
X008417Y076563D01*
X008402Y076508D01*
X008383Y076455D01*
X008360Y076402D01*
X008334Y076352D01*
X008304Y076303D01*
X008271Y076256D01*
X008235Y076212D01*
X008196Y076171D01*
X008983Y076171D02*
X009022Y076212D01*
X009058Y076256D01*
X009091Y076303D01*
X009121Y076352D01*
X009147Y076402D01*
X009170Y076455D01*
X009189Y076508D01*
X009204Y076563D01*
X009216Y076619D01*
X009224Y076676D01*
X009228Y076732D01*
X009228Y076790D01*
X009224Y076846D01*
X009216Y076903D01*
X009204Y076959D01*
X009189Y077014D01*
X009170Y077067D01*
X009147Y077120D01*
X009121Y077170D01*
X009091Y077219D01*
X009058Y077266D01*
X009022Y077310D01*
X008983Y077351D01*
X008195Y077351D02*
X008151Y077398D01*
X008109Y077448D01*
X008070Y077500D01*
X008035Y077554D01*
X008002Y077610D01*
X007973Y077668D01*
X007948Y077728D01*
X007926Y077789D01*
X007907Y077851D01*
X007892Y077914D01*
X007881Y077978D01*
X007873Y078042D01*
X007869Y078107D01*
X007869Y078171D01*
X007873Y078236D01*
X007881Y078300D01*
X007892Y078364D01*
X007907Y078427D01*
X007926Y078489D01*
X007948Y078550D01*
X007973Y078610D01*
X008002Y078668D01*
X008035Y078724D01*
X008070Y078778D01*
X008109Y078830D01*
X008151Y078880D01*
X008195Y078927D01*
X007408Y078927D02*
X007364Y078880D01*
X007322Y078830D01*
X007283Y078778D01*
X007248Y078724D01*
X007215Y078668D01*
X007186Y078610D01*
X007161Y078550D01*
X007139Y078489D01*
X007120Y078427D01*
X007105Y078364D01*
X007094Y078300D01*
X007086Y078236D01*
X007082Y078171D01*
X007082Y078107D01*
X007086Y078042D01*
X007094Y077978D01*
X007105Y077914D01*
X007120Y077851D01*
X007139Y077789D01*
X007161Y077728D01*
X007186Y077668D01*
X007215Y077610D01*
X007248Y077554D01*
X007283Y077500D01*
X007322Y077448D01*
X007364Y077398D01*
X007408Y077351D01*
X008983Y077351D02*
X008939Y077398D01*
X008897Y077448D01*
X008858Y077500D01*
X008823Y077554D01*
X008790Y077610D01*
X008761Y077668D01*
X008736Y077728D01*
X008714Y077789D01*
X008695Y077851D01*
X008680Y077914D01*
X008669Y077978D01*
X008661Y078042D01*
X008657Y078107D01*
X008657Y078171D01*
X008661Y078236D01*
X008669Y078300D01*
X008680Y078364D01*
X008695Y078427D01*
X008714Y078489D01*
X008736Y078550D01*
X008761Y078610D01*
X008790Y078668D01*
X008823Y078724D01*
X008858Y078778D01*
X008897Y078830D01*
X008939Y078880D01*
X008983Y078927D01*
X001038Y084083D02*
X001040Y084134D01*
X001046Y084185D01*
X001056Y084235D01*
X001069Y084284D01*
X001087Y084332D01*
X001108Y084378D01*
X001133Y084423D01*
X001161Y084466D01*
X001192Y084506D01*
X001226Y084544D01*
X001263Y084579D01*
X001303Y084611D01*
X001345Y084640D01*
X001389Y084665D01*
X001435Y084687D01*
X001483Y084706D01*
X001532Y084720D01*
X001582Y084731D01*
X001632Y084738D01*
X001683Y084741D01*
X001734Y084740D01*
X001785Y084735D01*
X001835Y084726D01*
X001885Y084713D01*
X001933Y084697D01*
X001980Y084677D01*
X002025Y084653D01*
X002068Y084626D01*
X002109Y084595D01*
X002148Y084562D01*
X002183Y084525D01*
X002216Y084486D01*
X002246Y084445D01*
X002272Y084401D01*
X002295Y084355D01*
X002314Y084308D01*
X002330Y084259D01*
X002342Y084210D01*
X002350Y084159D01*
X002354Y084109D01*
X002354Y084057D01*
X002350Y084007D01*
X002342Y083956D01*
X002330Y083907D01*
X002314Y083858D01*
X002295Y083811D01*
X002272Y083765D01*
X002246Y083721D01*
X002216Y083680D01*
X002183Y083641D01*
X002148Y083604D01*
X002109Y083571D01*
X002068Y083540D01*
X002025Y083513D01*
X001980Y083489D01*
X001933Y083469D01*
X001885Y083453D01*
X001835Y083440D01*
X001785Y083431D01*
X001734Y083426D01*
X001683Y083425D01*
X001632Y083428D01*
X001582Y083435D01*
X001532Y083446D01*
X001483Y083460D01*
X001435Y083479D01*
X001389Y083501D01*
X001345Y083526D01*
X001303Y083555D01*
X001263Y083587D01*
X001226Y083622D01*
X001192Y083660D01*
X001161Y083700D01*
X001133Y083743D01*
X001108Y083788D01*
X001087Y083834D01*
X001069Y083882D01*
X001056Y083931D01*
X001046Y083981D01*
X001040Y084032D01*
X001038Y084083D01*
X077094Y011209D02*
X081031Y004123D01*
X073157Y004123D01*
X077094Y011209D01*
X076306Y008060D02*
X076262Y008013D01*
X076220Y007963D01*
X076181Y007911D01*
X076146Y007857D01*
X076113Y007801D01*
X076084Y007743D01*
X076059Y007683D01*
X076037Y007622D01*
X076018Y007560D01*
X076003Y007497D01*
X075992Y007433D01*
X075984Y007369D01*
X075980Y007304D01*
X075980Y007240D01*
X075984Y007175D01*
X075992Y007111D01*
X076003Y007047D01*
X076018Y006984D01*
X076037Y006922D01*
X076059Y006861D01*
X076084Y006801D01*
X076113Y006743D01*
X076146Y006687D01*
X076181Y006633D01*
X076220Y006581D01*
X076262Y006531D01*
X076306Y006484D01*
X077093Y006484D02*
X077132Y006443D01*
X077168Y006399D01*
X077201Y006352D01*
X077231Y006303D01*
X077257Y006253D01*
X077280Y006200D01*
X077299Y006147D01*
X077314Y006092D01*
X077326Y006036D01*
X077334Y005979D01*
X077338Y005923D01*
X077338Y005865D01*
X077334Y005809D01*
X077326Y005752D01*
X077314Y005696D01*
X077299Y005641D01*
X077280Y005588D01*
X077257Y005535D01*
X077231Y005485D01*
X077201Y005436D01*
X077168Y005389D01*
X077132Y005345D01*
X077093Y005304D01*
X077881Y005304D02*
X077920Y005345D01*
X077956Y005389D01*
X077989Y005436D01*
X078019Y005485D01*
X078045Y005535D01*
X078068Y005588D01*
X078087Y005641D01*
X078102Y005696D01*
X078114Y005752D01*
X078122Y005809D01*
X078126Y005865D01*
X078126Y005923D01*
X078122Y005979D01*
X078114Y006036D01*
X078102Y006092D01*
X078087Y006147D01*
X078068Y006200D01*
X078045Y006253D01*
X078019Y006303D01*
X077989Y006352D01*
X077956Y006399D01*
X077920Y006443D01*
X077881Y006484D01*
X077093Y006484D02*
X077049Y006531D01*
X077007Y006581D01*
X076968Y006633D01*
X076933Y006687D01*
X076900Y006743D01*
X076871Y006801D01*
X076846Y006861D01*
X076824Y006922D01*
X076805Y006984D01*
X076790Y007047D01*
X076779Y007111D01*
X076771Y007175D01*
X076767Y007240D01*
X076767Y007304D01*
X076771Y007369D01*
X076779Y007433D01*
X076790Y007497D01*
X076805Y007560D01*
X076824Y007622D01*
X076846Y007683D01*
X076871Y007743D01*
X076900Y007801D01*
X076933Y007857D01*
X076968Y007911D01*
X077007Y007963D01*
X077049Y008013D01*
X077093Y008060D01*
X077881Y008060D02*
X077837Y008013D01*
X077795Y007963D01*
X077756Y007911D01*
X077721Y007857D01*
X077688Y007801D01*
X077659Y007743D01*
X077634Y007683D01*
X077612Y007622D01*
X077593Y007560D01*
X077578Y007497D01*
X077567Y007433D01*
X077559Y007369D01*
X077555Y007304D01*
X077555Y007240D01*
X077559Y007175D01*
X077567Y007111D01*
X077578Y007047D01*
X077593Y006984D01*
X077612Y006922D01*
X077634Y006861D01*
X077659Y006801D01*
X077688Y006743D01*
X077721Y006687D01*
X077756Y006633D01*
X077795Y006581D01*
X077837Y006531D01*
X077881Y006484D01*
X078669Y004910D02*
X075519Y004910D01*
X076306Y005304D02*
X076345Y005345D01*
X076381Y005389D01*
X076414Y005436D01*
X076444Y005485D01*
X076470Y005535D01*
X076493Y005588D01*
X076512Y005641D01*
X076527Y005696D01*
X076539Y005752D01*
X076547Y005809D01*
X076551Y005865D01*
X076551Y005923D01*
X076547Y005979D01*
X076539Y006036D01*
X076527Y006092D01*
X076512Y006147D01*
X076493Y006200D01*
X076470Y006253D01*
X076444Y006303D01*
X076414Y006352D01*
X076381Y006399D01*
X076345Y006443D01*
X076306Y006484D01*
X083332Y001815D02*
X083334Y001866D01*
X083340Y001917D01*
X083350Y001967D01*
X083363Y002016D01*
X083381Y002064D01*
X083402Y002110D01*
X083427Y002155D01*
X083455Y002198D01*
X083486Y002238D01*
X083520Y002276D01*
X083557Y002311D01*
X083597Y002343D01*
X083639Y002372D01*
X083683Y002397D01*
X083729Y002419D01*
X083777Y002438D01*
X083826Y002452D01*
X083876Y002463D01*
X083926Y002470D01*
X083977Y002473D01*
X084028Y002472D01*
X084079Y002467D01*
X084129Y002458D01*
X084179Y002445D01*
X084227Y002429D01*
X084274Y002409D01*
X084319Y002385D01*
X084362Y002358D01*
X084403Y002327D01*
X084442Y002294D01*
X084477Y002257D01*
X084510Y002218D01*
X084540Y002177D01*
X084566Y002133D01*
X084589Y002087D01*
X084608Y002040D01*
X084624Y001991D01*
X084636Y001942D01*
X084644Y001891D01*
X084648Y001841D01*
X084648Y001789D01*
X084644Y001739D01*
X084636Y001688D01*
X084624Y001639D01*
X084608Y001590D01*
X084589Y001543D01*
X084566Y001497D01*
X084540Y001453D01*
X084510Y001412D01*
X084477Y001373D01*
X084442Y001336D01*
X084403Y001303D01*
X084362Y001272D01*
X084319Y001245D01*
X084274Y001221D01*
X084227Y001201D01*
X084179Y001185D01*
X084129Y001172D01*
X084079Y001163D01*
X084028Y001158D01*
X083977Y001157D01*
X083926Y001160D01*
X083876Y001167D01*
X083826Y001178D01*
X083777Y001192D01*
X083729Y001211D01*
X083683Y001233D01*
X083639Y001258D01*
X083597Y001287D01*
X083557Y001319D01*
X083520Y001354D01*
X083486Y001392D01*
X083455Y001432D01*
X083427Y001475D01*
X083402Y001520D01*
X083381Y001566D01*
X083363Y001614D01*
X083350Y001663D01*
X083340Y001713D01*
X083334Y001764D01*
X083332Y001815D01*
X042051Y001806D02*
X042053Y001862D01*
X042059Y001918D01*
X042069Y001973D01*
X042082Y002028D01*
X042100Y002081D01*
X042121Y002133D01*
X042145Y002184D01*
X042173Y002233D01*
X042205Y002279D01*
X042239Y002323D01*
X042277Y002365D01*
X042317Y002404D01*
X042360Y002440D01*
X042406Y002473D01*
X042453Y002503D01*
X042503Y002530D01*
X042554Y002552D01*
X042607Y002572D01*
X042661Y002587D01*
X042716Y002599D01*
X042772Y002607D01*
X042828Y002611D01*
X042884Y002611D01*
X042940Y002607D01*
X042996Y002599D01*
X043051Y002587D01*
X043105Y002572D01*
X043158Y002552D01*
X043209Y002530D01*
X043258Y002503D01*
X043306Y002473D01*
X043352Y002440D01*
X043395Y002404D01*
X043435Y002365D01*
X043473Y002323D01*
X043507Y002279D01*
X043539Y002233D01*
X043567Y002184D01*
X043591Y002133D01*
X043612Y002081D01*
X043630Y002028D01*
X043643Y001973D01*
X043653Y001918D01*
X043659Y001862D01*
X043661Y001806D01*
X043659Y001750D01*
X043653Y001694D01*
X043643Y001639D01*
X043630Y001584D01*
X043612Y001531D01*
X043591Y001479D01*
X043567Y001428D01*
X043539Y001379D01*
X043507Y001333D01*
X043473Y001289D01*
X043435Y001247D01*
X043395Y001208D01*
X043352Y001172D01*
X043306Y001139D01*
X043259Y001109D01*
X043209Y001082D01*
X043158Y001060D01*
X043105Y001040D01*
X043051Y001025D01*
X042996Y001013D01*
X042940Y001005D01*
X042884Y001001D01*
X042828Y001001D01*
X042772Y001005D01*
X042716Y001013D01*
X042661Y001025D01*
X042607Y001040D01*
X042554Y001060D01*
X042503Y001082D01*
X042453Y001109D01*
X042406Y001139D01*
X042360Y001172D01*
X042317Y001208D01*
X042277Y001247D01*
X042239Y001289D01*
X042205Y001333D01*
X042173Y001379D01*
X042145Y001428D01*
X042121Y001479D01*
X042100Y001531D01*
X042082Y001584D01*
X042069Y001639D01*
X042059Y001694D01*
X042053Y001750D01*
X042051Y001806D01*
D11*
X002799Y007585D02*
X002799Y007707D01*
X002677Y007828D01*
X002070Y007828D01*
X002070Y007464D01*
X002192Y007343D01*
X002434Y007343D01*
X002556Y007464D01*
X002556Y007828D01*
X002556Y008068D02*
X002070Y008068D01*
X002070Y008432D01*
X002192Y008553D01*
X002556Y008553D01*
X002556Y007102D02*
X002556Y006859D01*
X002556Y006981D02*
X002070Y006981D01*
X002070Y006859D01*
X002070Y006620D02*
X002070Y006256D01*
X002192Y006134D01*
X002313Y006256D01*
X002313Y006498D01*
X002434Y006620D01*
X002556Y006498D01*
X002556Y006134D01*
X002313Y005895D02*
X002313Y005409D01*
X002192Y005409D02*
X002070Y005531D01*
X002070Y005773D01*
X002192Y005895D01*
X002313Y005895D01*
X002556Y005773D02*
X002556Y005531D01*
X002434Y005409D01*
X002192Y005409D01*
X002434Y005170D02*
X001949Y005170D01*
X001828Y005048D01*
X001828Y004684D01*
X002556Y004684D01*
X002556Y005048D01*
X002434Y005170D01*
X001828Y006981D02*
X001706Y006981D01*
X001828Y009518D02*
X002556Y009518D01*
X002556Y009882D01*
X002434Y010003D01*
X002192Y010003D01*
X002070Y009882D01*
X002070Y009518D01*
X002070Y010243D02*
X002434Y010243D01*
X002556Y010364D01*
X002556Y010728D01*
X002677Y010728D02*
X002070Y010728D01*
X002070Y010968D02*
X002192Y010968D01*
X002192Y011089D01*
X002070Y011089D01*
X002070Y010968D01*
X002434Y010968D02*
X002556Y010968D01*
X002556Y011089D01*
X002434Y011089D01*
X002434Y010968D01*
X002677Y010728D02*
X002799Y010607D01*
X002799Y010486D01*
X002434Y012055D02*
X002556Y012177D01*
X002556Y012298D01*
X002434Y012419D01*
X001828Y012419D01*
X001828Y012298D02*
X001828Y012541D01*
X002070Y012902D02*
X002192Y012780D01*
X002434Y012780D01*
X002556Y012902D01*
X002556Y013144D01*
X002434Y013266D01*
X002192Y013266D01*
X002070Y013144D01*
X002070Y012902D01*
X002192Y013506D02*
X002070Y013627D01*
X002070Y013991D01*
X002192Y014231D02*
X002070Y014352D01*
X002070Y014595D01*
X002192Y014716D01*
X002313Y014716D01*
X002313Y014231D01*
X002434Y014231D02*
X002192Y014231D01*
X002434Y014231D02*
X002556Y014352D01*
X002556Y014595D01*
X002556Y015077D02*
X001949Y015077D01*
X001828Y015198D01*
X002192Y015198D02*
X002192Y014956D01*
X002434Y013991D02*
X002313Y013870D01*
X002313Y013627D01*
X002192Y013506D01*
X002556Y013506D02*
X002556Y013870D01*
X002434Y013991D01*
X002313Y016164D02*
X002313Y016528D01*
X002192Y016649D01*
X001949Y016649D01*
X001828Y016528D01*
X001828Y016164D01*
X002556Y016164D01*
X002556Y016889D02*
X002070Y016889D01*
X002070Y017132D02*
X002070Y017253D01*
X002070Y017132D02*
X002313Y016889D01*
X002434Y017493D02*
X002556Y017615D01*
X002556Y017979D01*
X002070Y017979D01*
X002192Y018218D02*
X002070Y018340D01*
X002070Y018704D01*
X002313Y018582D02*
X002313Y018340D01*
X002192Y018218D01*
X002556Y018218D02*
X002556Y018582D01*
X002434Y018704D01*
X002313Y018582D01*
X002434Y018943D02*
X002313Y019065D01*
X002313Y019429D01*
X002192Y019429D02*
X002556Y019429D01*
X002556Y019065D01*
X002434Y018943D01*
X002070Y019065D02*
X002070Y019307D01*
X002192Y019429D01*
X002070Y020393D02*
X002070Y020757D01*
X002192Y020879D01*
X002434Y020879D01*
X002556Y020757D01*
X002556Y020393D01*
X002799Y020393D02*
X002070Y020393D01*
X002070Y021118D02*
X002556Y021118D01*
X002313Y021118D02*
X002070Y021361D01*
X002070Y021482D01*
X002070Y021722D02*
X002434Y021722D01*
X002556Y021844D01*
X002556Y022208D01*
X002070Y022208D01*
X002192Y022448D02*
X002070Y022569D01*
X002070Y022933D01*
X002313Y022812D02*
X002313Y022569D01*
X002192Y022448D01*
X002556Y022448D02*
X002556Y022812D01*
X002434Y022933D01*
X002313Y022812D01*
X002434Y023173D02*
X002313Y023294D01*
X002313Y023658D01*
X002192Y023658D02*
X002556Y023658D01*
X002556Y023294D01*
X002434Y023173D01*
X002070Y023294D02*
X002070Y023537D01*
X002192Y023658D01*
X002192Y023898D02*
X002070Y024019D01*
X002070Y024383D01*
X001828Y024383D02*
X002556Y024383D01*
X002556Y024019D01*
X002434Y023898D01*
X002192Y023898D01*
X002799Y024623D02*
X002799Y024744D01*
X002677Y024865D01*
X002070Y024865D01*
X001828Y024865D02*
X001706Y024865D01*
X002070Y025227D02*
X002070Y025591D01*
X002313Y025470D02*
X002313Y025227D01*
X002192Y025106D01*
X002070Y025227D01*
X002313Y025470D02*
X002434Y025591D01*
X002556Y025470D01*
X002556Y025106D01*
X002556Y025831D02*
X002556Y025952D01*
X002434Y025952D01*
X002434Y025831D01*
X002556Y025831D01*
X002434Y026194D02*
X002556Y026315D01*
X002556Y026679D01*
X002556Y026919D02*
X002556Y027404D01*
X002799Y027644D02*
X002556Y027886D01*
X002556Y027765D01*
X002434Y027765D01*
X002434Y027886D01*
X002556Y027886D01*
X002070Y027404D02*
X002556Y026919D01*
X002070Y026919D02*
X002070Y027404D01*
X002070Y026679D02*
X002070Y026315D01*
X002192Y026194D01*
X002434Y026194D01*
X002556Y028852D02*
X002070Y028852D01*
X002070Y028973D01*
X002192Y029095D01*
X002070Y029216D01*
X002192Y029337D01*
X002556Y029337D01*
X002556Y029577D02*
X002556Y029820D01*
X002556Y029698D02*
X002070Y029698D01*
X002070Y029577D01*
X001828Y029698D02*
X001706Y029698D01*
X002070Y030060D02*
X002070Y030424D01*
X002192Y030546D01*
X002556Y030546D01*
X002434Y030785D02*
X002556Y030907D01*
X002556Y031149D01*
X002434Y031271D01*
X002192Y031271D01*
X002070Y031149D01*
X002070Y030907D01*
X002192Y030785D01*
X002434Y030785D01*
X002556Y030060D02*
X002070Y030060D01*
X002070Y031510D02*
X002556Y031510D01*
X002313Y031510D02*
X002070Y031753D01*
X002070Y031874D01*
X002434Y032840D02*
X002313Y032961D01*
X002313Y033325D01*
X002192Y033325D02*
X002556Y033325D01*
X002556Y032961D01*
X002434Y032840D01*
X002070Y032961D02*
X002070Y033204D01*
X002192Y033325D01*
X002192Y033565D02*
X002070Y033686D01*
X002070Y034050D01*
X001828Y034050D02*
X002556Y034050D01*
X002556Y033686D01*
X002434Y033565D01*
X002192Y033565D01*
X002192Y034290D02*
X002070Y034411D01*
X002070Y034775D01*
X002070Y035015D02*
X002070Y035136D01*
X002556Y035136D01*
X002556Y035015D02*
X002556Y035257D01*
X002434Y035619D02*
X002556Y035741D01*
X002434Y035619D02*
X001949Y035619D01*
X002070Y035498D02*
X002070Y035741D01*
X002070Y035981D02*
X002070Y036103D01*
X002556Y036103D01*
X002556Y036224D02*
X002556Y035981D01*
X002434Y036465D02*
X002556Y036586D01*
X002556Y036829D01*
X002434Y036950D01*
X002192Y036950D01*
X002070Y036829D01*
X002070Y036586D01*
X002192Y036465D01*
X002434Y036465D01*
X001828Y036103D02*
X001706Y036103D01*
X002070Y037190D02*
X002070Y037554D01*
X002192Y037675D01*
X002556Y037675D01*
X002556Y037915D02*
X002556Y038279D01*
X002434Y038400D01*
X002313Y038279D01*
X002313Y038036D01*
X002192Y037915D01*
X002070Y038036D01*
X002070Y038400D01*
X002070Y039365D02*
X002070Y039729D01*
X002192Y039850D01*
X002434Y039850D01*
X002556Y039729D01*
X002556Y039365D01*
X001828Y039365D01*
X002070Y040090D02*
X002434Y040090D01*
X002556Y040211D01*
X002556Y040575D01*
X002677Y040575D02*
X002070Y040575D01*
X002677Y040575D02*
X002799Y040454D01*
X002799Y040333D01*
X002556Y041783D02*
X001828Y041783D01*
X001828Y042025D02*
X001828Y041540D01*
X002192Y042265D02*
X002434Y042265D01*
X002556Y042386D01*
X002556Y042629D01*
X002434Y042750D01*
X002192Y042750D01*
X002070Y042629D01*
X002070Y042386D01*
X002192Y042265D01*
X002070Y042990D02*
X002070Y043354D01*
X002192Y043475D01*
X002556Y043475D01*
X002434Y043715D02*
X002556Y043836D01*
X002556Y044200D01*
X002677Y044200D02*
X002070Y044200D01*
X002070Y043715D02*
X002434Y043715D01*
X002799Y043958D02*
X002799Y044079D01*
X002677Y044200D01*
X002556Y045165D02*
X002556Y045650D01*
X002434Y045890D02*
X002556Y046011D01*
X002556Y046254D01*
X002434Y046375D01*
X002192Y046375D01*
X002070Y046254D01*
X002070Y046011D01*
X002192Y045890D01*
X002434Y045890D01*
X002434Y046615D02*
X002556Y046736D01*
X002556Y047100D01*
X002556Y047340D02*
X001828Y047340D01*
X002070Y047100D02*
X002070Y046736D01*
X002192Y046615D01*
X002434Y046615D01*
X002313Y047340D02*
X002070Y047704D01*
X002313Y047340D02*
X002556Y047704D01*
X002395Y049035D02*
X002516Y049156D01*
X002516Y049399D01*
X002395Y049520D01*
X002152Y049520D01*
X002152Y049277D01*
X001910Y049035D02*
X002395Y049035D01*
X001910Y049035D02*
X001788Y049156D01*
X001788Y049399D01*
X001910Y049520D01*
X001788Y049760D02*
X001788Y050124D01*
X001910Y050245D01*
X002152Y050245D01*
X002274Y050124D01*
X002274Y049760D01*
X002516Y049760D02*
X001788Y049760D01*
X001788Y050485D02*
X002516Y050485D01*
X002516Y050970D01*
X002516Y051452D02*
X002031Y051695D01*
X001910Y051935D02*
X001788Y052056D01*
X001788Y052299D01*
X001910Y052420D01*
X002031Y052420D01*
X002516Y051935D01*
X002516Y052420D01*
X002516Y053287D02*
X001788Y053287D01*
X002031Y053408D02*
X002031Y053651D01*
X002152Y053772D01*
X002516Y053772D01*
X002395Y054133D02*
X002516Y054254D01*
X002395Y054133D02*
X001910Y054133D01*
X002031Y054012D02*
X002031Y054254D01*
X002031Y054495D02*
X002031Y054738D01*
X001910Y054616D02*
X002395Y054616D01*
X002516Y054738D01*
X002516Y054978D02*
X002516Y055342D01*
X002395Y055464D01*
X002152Y055464D01*
X002031Y055342D01*
X002031Y054978D01*
X002759Y054978D01*
X002516Y055703D02*
X002516Y055825D01*
X002395Y055825D01*
X002395Y055703D01*
X002516Y055703D01*
X002516Y056066D02*
X001788Y056551D01*
X001788Y057276D02*
X002516Y056791D01*
X002395Y057516D02*
X002516Y057637D01*
X002395Y057759D01*
X002516Y057880D01*
X002395Y058001D01*
X002031Y058001D01*
X002031Y058241D02*
X002395Y058241D01*
X002516Y058362D01*
X002395Y058484D01*
X002516Y058605D01*
X002395Y058726D01*
X002031Y058726D01*
X002031Y058966D02*
X002395Y058966D01*
X002516Y059087D01*
X002395Y059209D01*
X002516Y059330D01*
X002395Y059451D01*
X002031Y059451D01*
X002395Y059691D02*
X002395Y059812D01*
X002516Y059812D01*
X002516Y059691D01*
X002395Y059691D01*
X002274Y060054D02*
X002031Y060296D01*
X002031Y060418D01*
X002152Y060658D02*
X002031Y060779D01*
X002031Y061022D01*
X002152Y061143D01*
X002274Y061143D01*
X002274Y060658D01*
X002395Y060658D02*
X002152Y060658D01*
X002395Y060658D02*
X002516Y060779D01*
X002516Y061022D01*
X002516Y061383D02*
X002516Y061747D01*
X002395Y061868D01*
X002152Y061868D01*
X002031Y061747D01*
X002031Y061383D01*
X002759Y061383D01*
X002516Y062108D02*
X002031Y062108D01*
X002031Y062351D02*
X002031Y062472D01*
X002031Y062351D02*
X002274Y062108D01*
X002395Y062712D02*
X002274Y062833D01*
X002274Y063197D01*
X002152Y063197D02*
X002516Y063197D01*
X002516Y062833D01*
X002395Y062712D01*
X002031Y062833D02*
X002031Y063076D01*
X002152Y063197D01*
X002031Y063437D02*
X002031Y063801D01*
X002152Y063922D01*
X002395Y063922D01*
X002516Y063801D01*
X002516Y063437D01*
X002759Y063437D02*
X002031Y063437D01*
X002395Y064162D02*
X002395Y064283D01*
X002516Y064283D01*
X002516Y064162D01*
X002395Y064162D01*
X002395Y064525D02*
X002516Y064646D01*
X002516Y064889D01*
X002395Y065010D01*
X002152Y065010D01*
X002031Y064889D01*
X002031Y064646D01*
X002152Y064525D01*
X002395Y064525D01*
X002274Y065250D02*
X002031Y065492D01*
X002031Y065614D01*
X002152Y065854D02*
X002395Y065854D01*
X002516Y065975D01*
X002516Y066339D01*
X002638Y066339D02*
X002031Y066339D01*
X002031Y065975D01*
X002152Y065854D01*
X002031Y065250D02*
X002516Y065250D01*
X002759Y066097D02*
X002759Y066218D01*
X002638Y066339D01*
X002516Y066579D02*
X001788Y067064D01*
X002031Y067304D02*
X002395Y067304D01*
X002516Y067425D01*
X002395Y067547D01*
X002516Y067668D01*
X002395Y067789D01*
X002031Y067789D01*
X002031Y068029D02*
X002031Y068150D01*
X002516Y068150D01*
X002516Y068029D02*
X002516Y068272D01*
X002516Y068512D02*
X001788Y068512D01*
X001788Y068150D02*
X001667Y068150D01*
X002274Y068512D02*
X002031Y068876D01*
X002031Y069116D02*
X002031Y069238D01*
X002516Y069238D01*
X002516Y069359D02*
X002516Y069116D01*
X002516Y068876D02*
X002274Y068512D01*
X001788Y069238D02*
X001667Y069238D01*
X001788Y070085D02*
X002516Y069600D01*
X002516Y070325D02*
X001788Y070325D01*
X001788Y070689D01*
X001910Y070810D01*
X002152Y070810D01*
X002274Y070689D01*
X002274Y070325D01*
X002395Y071050D02*
X002516Y071171D01*
X002516Y071414D01*
X002395Y071535D01*
X002516Y071775D02*
X002516Y072139D01*
X002395Y072260D01*
X002274Y072260D01*
X002152Y072139D01*
X002152Y071775D01*
X001910Y071535D02*
X001788Y071414D01*
X001788Y071171D01*
X001910Y071050D01*
X002395Y071050D01*
X002516Y071775D02*
X001788Y071775D01*
X001788Y072139D01*
X001910Y072260D01*
X002031Y072260D01*
X002152Y072139D01*
X002638Y072500D02*
X002638Y072985D01*
X002516Y073225D02*
X001788Y073225D01*
X002152Y073225D02*
X002152Y073710D01*
X002152Y073950D02*
X002031Y074071D01*
X002031Y074314D01*
X002152Y074435D01*
X002274Y074435D01*
X002274Y073950D01*
X002395Y073950D02*
X002152Y073950D01*
X002395Y073950D02*
X002516Y074071D01*
X002516Y074314D01*
X002395Y074675D02*
X002274Y074796D01*
X002274Y075160D01*
X002152Y075160D02*
X002516Y075160D01*
X002516Y074796D01*
X002395Y074675D01*
X002031Y074796D02*
X002031Y075039D01*
X002152Y075160D01*
X002031Y075400D02*
X002031Y075643D01*
X001910Y075521D02*
X002395Y075521D01*
X002516Y075643D01*
X002516Y075883D02*
X002516Y076247D01*
X002395Y076369D01*
X002152Y076369D01*
X002031Y076247D01*
X002031Y075883D01*
X001788Y075883D02*
X002516Y075883D01*
X002395Y076608D02*
X002152Y076608D01*
X002031Y076730D01*
X002031Y076972D01*
X002152Y077094D01*
X002274Y077094D01*
X002274Y076608D01*
X002395Y076608D02*
X002516Y076730D01*
X002516Y076972D01*
X002395Y077333D02*
X002152Y077333D01*
X002031Y077455D01*
X002031Y077819D01*
X001788Y077819D02*
X002516Y077819D01*
X002516Y077455D01*
X002395Y077333D01*
X002638Y078058D02*
X002638Y078544D01*
X002516Y078784D02*
X001788Y078784D01*
X002031Y079026D01*
X001788Y079269D01*
X002516Y079269D01*
X002516Y079509D02*
X001788Y079509D01*
X002152Y079630D02*
X002516Y079994D01*
X002516Y080234D02*
X002031Y080719D01*
X001910Y080719D01*
X001788Y080598D01*
X001788Y080355D01*
X001910Y080234D01*
X001788Y079994D02*
X002274Y079509D01*
X002516Y080234D02*
X002516Y080719D01*
X000350Y084083D02*
X000352Y084156D01*
X000358Y084229D01*
X000368Y084301D01*
X000382Y084373D01*
X000399Y084444D01*
X000421Y084514D01*
X000446Y084583D01*
X000475Y084650D01*
X000507Y084715D01*
X000543Y084779D01*
X000583Y084841D01*
X000625Y084900D01*
X000671Y084957D01*
X000720Y085011D01*
X000772Y085063D01*
X000826Y085112D01*
X000883Y085158D01*
X000942Y085200D01*
X001004Y085240D01*
X001068Y085276D01*
X001133Y085308D01*
X001200Y085337D01*
X001269Y085362D01*
X001339Y085384D01*
X001410Y085401D01*
X001482Y085415D01*
X001554Y085425D01*
X001627Y085431D01*
X001700Y085433D01*
X001773Y085431D01*
X001846Y085425D01*
X001918Y085415D01*
X001990Y085401D01*
X002061Y085384D01*
X002131Y085362D01*
X002200Y085337D01*
X002267Y085308D01*
X002332Y085276D01*
X002396Y085240D01*
X002458Y085200D01*
X002517Y085158D01*
X002574Y085112D01*
X002628Y085063D01*
X002680Y085011D01*
X002729Y084957D01*
X002775Y084900D01*
X002817Y084841D01*
X002857Y084779D01*
X002893Y084715D01*
X002925Y084650D01*
X002954Y084583D01*
X002979Y084514D01*
X003001Y084444D01*
X003018Y084373D01*
X003032Y084301D01*
X003042Y084229D01*
X003048Y084156D01*
X003050Y084083D01*
X003048Y084010D01*
X003042Y083937D01*
X003032Y083865D01*
X003018Y083793D01*
X003001Y083722D01*
X002979Y083652D01*
X002954Y083583D01*
X002925Y083516D01*
X002893Y083451D01*
X002857Y083387D01*
X002817Y083325D01*
X002775Y083266D01*
X002729Y083209D01*
X002680Y083155D01*
X002628Y083103D01*
X002574Y083054D01*
X002517Y083008D01*
X002458Y082966D01*
X002396Y082926D01*
X002332Y082890D01*
X002267Y082858D01*
X002200Y082829D01*
X002131Y082804D01*
X002061Y082782D01*
X001990Y082765D01*
X001918Y082751D01*
X001846Y082741D01*
X001773Y082735D01*
X001700Y082733D01*
X001627Y082735D01*
X001554Y082741D01*
X001482Y082751D01*
X001410Y082765D01*
X001339Y082782D01*
X001269Y082804D01*
X001200Y082829D01*
X001133Y082858D01*
X001068Y082890D01*
X001004Y082926D01*
X000942Y082966D01*
X000883Y083008D01*
X000826Y083054D01*
X000772Y083103D01*
X000720Y083155D01*
X000671Y083209D01*
X000625Y083266D01*
X000583Y083325D01*
X000543Y083387D01*
X000507Y083451D01*
X000475Y083516D01*
X000446Y083583D01*
X000421Y083652D01*
X000399Y083722D01*
X000382Y083793D01*
X000368Y083865D01*
X000358Y083937D01*
X000352Y084010D01*
X000350Y084083D01*
X001788Y073710D02*
X002516Y073710D01*
X002516Y060054D02*
X002031Y060054D01*
X002031Y057516D02*
X002395Y057516D01*
X002152Y055825D02*
X002152Y055703D01*
X002031Y055703D01*
X002031Y055825D01*
X002152Y055825D01*
X002031Y053408D02*
X002152Y053287D01*
X002516Y051452D02*
X002031Y051210D01*
X001828Y045165D02*
X002556Y045165D01*
X002556Y042990D02*
X002070Y042990D01*
X002070Y037190D02*
X002556Y037190D01*
X001828Y035136D02*
X001706Y035136D01*
X001828Y034775D02*
X002556Y034775D01*
X002556Y034411D01*
X002434Y034290D01*
X002192Y034290D01*
X002192Y029095D02*
X002556Y029095D01*
X002434Y017493D02*
X002070Y017493D01*
X000350Y001800D02*
X000352Y001873D01*
X000358Y001946D01*
X000368Y002018D01*
X000382Y002090D01*
X000399Y002161D01*
X000421Y002231D01*
X000446Y002300D01*
X000475Y002367D01*
X000507Y002432D01*
X000543Y002496D01*
X000583Y002558D01*
X000625Y002617D01*
X000671Y002674D01*
X000720Y002728D01*
X000772Y002780D01*
X000826Y002829D01*
X000883Y002875D01*
X000942Y002917D01*
X001004Y002957D01*
X001068Y002993D01*
X001133Y003025D01*
X001200Y003054D01*
X001269Y003079D01*
X001339Y003101D01*
X001410Y003118D01*
X001482Y003132D01*
X001554Y003142D01*
X001627Y003148D01*
X001700Y003150D01*
X001773Y003148D01*
X001846Y003142D01*
X001918Y003132D01*
X001990Y003118D01*
X002061Y003101D01*
X002131Y003079D01*
X002200Y003054D01*
X002267Y003025D01*
X002332Y002993D01*
X002396Y002957D01*
X002458Y002917D01*
X002517Y002875D01*
X002574Y002829D01*
X002628Y002780D01*
X002680Y002728D01*
X002729Y002674D01*
X002775Y002617D01*
X002817Y002558D01*
X002857Y002496D01*
X002893Y002432D01*
X002925Y002367D01*
X002954Y002300D01*
X002979Y002231D01*
X003001Y002161D01*
X003018Y002090D01*
X003032Y002018D01*
X003042Y001946D01*
X003048Y001873D01*
X003050Y001800D01*
X003048Y001727D01*
X003042Y001654D01*
X003032Y001582D01*
X003018Y001510D01*
X003001Y001439D01*
X002979Y001369D01*
X002954Y001300D01*
X002925Y001233D01*
X002893Y001168D01*
X002857Y001104D01*
X002817Y001042D01*
X002775Y000983D01*
X002729Y000926D01*
X002680Y000872D01*
X002628Y000820D01*
X002574Y000771D01*
X002517Y000725D01*
X002458Y000683D01*
X002396Y000643D01*
X002332Y000607D01*
X002267Y000575D01*
X002200Y000546D01*
X002131Y000521D01*
X002061Y000499D01*
X001990Y000482D01*
X001918Y000468D01*
X001846Y000458D01*
X001773Y000452D01*
X001700Y000450D01*
X001627Y000452D01*
X001554Y000458D01*
X001482Y000468D01*
X001410Y000482D01*
X001339Y000499D01*
X001269Y000521D01*
X001200Y000546D01*
X001133Y000575D01*
X001068Y000607D01*
X001004Y000643D01*
X000942Y000683D01*
X000883Y000725D01*
X000826Y000771D01*
X000772Y000820D01*
X000720Y000872D01*
X000671Y000926D01*
X000625Y000983D01*
X000583Y001042D01*
X000543Y001104D01*
X000507Y001168D01*
X000475Y001233D01*
X000446Y001300D01*
X000421Y001369D01*
X000399Y001439D01*
X000382Y001510D01*
X000368Y001582D01*
X000358Y001654D01*
X000352Y001727D01*
X000350Y001800D01*
X082633Y001800D02*
X082635Y001873D01*
X082641Y001946D01*
X082651Y002018D01*
X082665Y002090D01*
X082682Y002161D01*
X082704Y002231D01*
X082729Y002300D01*
X082758Y002367D01*
X082790Y002432D01*
X082826Y002496D01*
X082866Y002558D01*
X082908Y002617D01*
X082954Y002674D01*
X083003Y002728D01*
X083055Y002780D01*
X083109Y002829D01*
X083166Y002875D01*
X083225Y002917D01*
X083287Y002957D01*
X083351Y002993D01*
X083416Y003025D01*
X083483Y003054D01*
X083552Y003079D01*
X083622Y003101D01*
X083693Y003118D01*
X083765Y003132D01*
X083837Y003142D01*
X083910Y003148D01*
X083983Y003150D01*
X084056Y003148D01*
X084129Y003142D01*
X084201Y003132D01*
X084273Y003118D01*
X084344Y003101D01*
X084414Y003079D01*
X084483Y003054D01*
X084550Y003025D01*
X084615Y002993D01*
X084679Y002957D01*
X084741Y002917D01*
X084800Y002875D01*
X084857Y002829D01*
X084911Y002780D01*
X084963Y002728D01*
X085012Y002674D01*
X085058Y002617D01*
X085100Y002558D01*
X085140Y002496D01*
X085176Y002432D01*
X085208Y002367D01*
X085237Y002300D01*
X085262Y002231D01*
X085284Y002161D01*
X085301Y002090D01*
X085315Y002018D01*
X085325Y001946D01*
X085331Y001873D01*
X085333Y001800D01*
X085331Y001727D01*
X085325Y001654D01*
X085315Y001582D01*
X085301Y001510D01*
X085284Y001439D01*
X085262Y001369D01*
X085237Y001300D01*
X085208Y001233D01*
X085176Y001168D01*
X085140Y001104D01*
X085100Y001042D01*
X085058Y000983D01*
X085012Y000926D01*
X084963Y000872D01*
X084911Y000820D01*
X084857Y000771D01*
X084800Y000725D01*
X084741Y000683D01*
X084679Y000643D01*
X084615Y000607D01*
X084550Y000575D01*
X084483Y000546D01*
X084414Y000521D01*
X084344Y000499D01*
X084273Y000482D01*
X084201Y000468D01*
X084129Y000458D01*
X084056Y000452D01*
X083983Y000450D01*
X083910Y000452D01*
X083837Y000458D01*
X083765Y000468D01*
X083693Y000482D01*
X083622Y000499D01*
X083552Y000521D01*
X083483Y000546D01*
X083416Y000575D01*
X083351Y000607D01*
X083287Y000643D01*
X083225Y000683D01*
X083166Y000725D01*
X083109Y000771D01*
X083055Y000820D01*
X083003Y000872D01*
X082954Y000926D01*
X082908Y000983D01*
X082866Y001042D01*
X082826Y001104D01*
X082790Y001168D01*
X082758Y001233D01*
X082729Y001300D01*
X082704Y001369D01*
X082682Y001439D01*
X082665Y001510D01*
X082651Y001582D01*
X082641Y001654D01*
X082635Y001727D01*
X082633Y001800D01*
X082633Y084083D02*
X082635Y084156D01*
X082641Y084229D01*
X082651Y084301D01*
X082665Y084373D01*
X082682Y084444D01*
X082704Y084514D01*
X082729Y084583D01*
X082758Y084650D01*
X082790Y084715D01*
X082826Y084779D01*
X082866Y084841D01*
X082908Y084900D01*
X082954Y084957D01*
X083003Y085011D01*
X083055Y085063D01*
X083109Y085112D01*
X083166Y085158D01*
X083225Y085200D01*
X083287Y085240D01*
X083351Y085276D01*
X083416Y085308D01*
X083483Y085337D01*
X083552Y085362D01*
X083622Y085384D01*
X083693Y085401D01*
X083765Y085415D01*
X083837Y085425D01*
X083910Y085431D01*
X083983Y085433D01*
X084056Y085431D01*
X084129Y085425D01*
X084201Y085415D01*
X084273Y085401D01*
X084344Y085384D01*
X084414Y085362D01*
X084483Y085337D01*
X084550Y085308D01*
X084615Y085276D01*
X084679Y085240D01*
X084741Y085200D01*
X084800Y085158D01*
X084857Y085112D01*
X084911Y085063D01*
X084963Y085011D01*
X085012Y084957D01*
X085058Y084900D01*
X085100Y084841D01*
X085140Y084779D01*
X085176Y084715D01*
X085208Y084650D01*
X085237Y084583D01*
X085262Y084514D01*
X085284Y084444D01*
X085301Y084373D01*
X085315Y084301D01*
X085325Y084229D01*
X085331Y084156D01*
X085333Y084083D01*
X085331Y084010D01*
X085325Y083937D01*
X085315Y083865D01*
X085301Y083793D01*
X085284Y083722D01*
X085262Y083652D01*
X085237Y083583D01*
X085208Y083516D01*
X085176Y083451D01*
X085140Y083387D01*
X085100Y083325D01*
X085058Y083266D01*
X085012Y083209D01*
X084963Y083155D01*
X084911Y083103D01*
X084857Y083054D01*
X084800Y083008D01*
X084741Y082966D01*
X084679Y082926D01*
X084615Y082890D01*
X084550Y082858D01*
X084483Y082829D01*
X084414Y082804D01*
X084344Y082782D01*
X084273Y082765D01*
X084201Y082751D01*
X084129Y082741D01*
X084056Y082735D01*
X083983Y082733D01*
X083910Y082735D01*
X083837Y082741D01*
X083765Y082751D01*
X083693Y082765D01*
X083622Y082782D01*
X083552Y082804D01*
X083483Y082829D01*
X083416Y082858D01*
X083351Y082890D01*
X083287Y082926D01*
X083225Y082966D01*
X083166Y083008D01*
X083109Y083054D01*
X083055Y083103D01*
X083003Y083155D01*
X082954Y083209D01*
X082908Y083266D01*
X082866Y083325D01*
X082826Y083387D01*
X082790Y083451D01*
X082758Y083516D01*
X082729Y083583D01*
X082704Y083652D01*
X082682Y083722D01*
X082665Y083793D01*
X082651Y083865D01*
X082641Y083937D01*
X082635Y084010D01*
X082633Y084083D01*
D12*
X051026Y075704D02*
X051026Y074783D01*
X051026Y075474D02*
X050105Y075474D01*
X050105Y075704D02*
X050105Y074783D01*
X049645Y074783D02*
X049184Y074783D01*
X049414Y074783D02*
X049414Y076164D01*
X049184Y076164D02*
X049645Y076164D01*
X050105Y075704D02*
X050565Y076164D01*
X051026Y075704D01*
X048724Y075934D02*
X048724Y075013D01*
X048494Y074783D01*
X047803Y074783D01*
X047803Y076164D01*
X048494Y076164D01*
X048724Y075934D01*
X047343Y076164D02*
X047343Y074783D01*
X046422Y076164D01*
X046422Y074783D01*
X045961Y074783D02*
X045501Y074783D01*
X045731Y074783D02*
X045731Y076164D01*
X045501Y076164D02*
X045961Y076164D01*
X043659Y076164D02*
X043659Y074783D01*
X042739Y076164D01*
X042739Y074783D01*
X042278Y074783D02*
X041818Y074783D01*
X042048Y074783D02*
X042048Y076164D01*
X041818Y076164D02*
X042278Y076164D01*
X039976Y076164D02*
X039056Y076164D01*
X039056Y074783D01*
X039976Y074783D01*
X039516Y075474D02*
X039056Y075474D01*
X038595Y075013D02*
X038595Y075934D01*
X038365Y076164D01*
X037674Y076164D01*
X037674Y074783D01*
X038365Y074783D01*
X038595Y075013D01*
X037214Y074783D02*
X037214Y075704D01*
X036754Y076164D01*
X036293Y075704D01*
X036293Y074783D01*
X035833Y074783D02*
X035833Y076164D01*
X035372Y075704D01*
X034912Y076164D01*
X034912Y074783D01*
X036293Y075474D02*
X037214Y075474D01*
X032304Y006188D02*
X032304Y005958D01*
X032304Y005497D02*
X032304Y004577D01*
X032074Y004577D02*
X032534Y004577D01*
X032995Y004577D02*
X033455Y004577D01*
X033225Y004577D02*
X033225Y005958D01*
X032995Y005958D01*
X032304Y005497D02*
X032074Y005497D01*
X031613Y005497D02*
X031153Y005497D01*
X031383Y005728D02*
X031383Y004807D01*
X031613Y004577D01*
X030693Y004807D02*
X030463Y004577D01*
X030002Y004577D01*
X029772Y004807D01*
X030002Y005267D02*
X029772Y005497D01*
X029772Y005728D01*
X030002Y005958D01*
X030463Y005958D01*
X030693Y005728D01*
X030463Y005267D02*
X030693Y005037D01*
X030693Y004807D01*
X030463Y005267D02*
X030002Y005267D01*
X027930Y005267D02*
X027700Y005267D01*
X027700Y005497D01*
X027930Y005497D01*
X027930Y005267D01*
X027930Y004807D02*
X027930Y004577D01*
X027700Y004577D01*
X027700Y004807D01*
X027930Y004807D01*
X027240Y004807D02*
X027240Y005267D01*
X026779Y005267D01*
X026319Y004807D02*
X026549Y004577D01*
X027010Y004577D01*
X027240Y004807D01*
X027240Y005728D02*
X027010Y005958D01*
X026549Y005958D01*
X026319Y005728D01*
X026319Y004807D01*
X025859Y004577D02*
X025859Y005958D01*
X024938Y005958D02*
X024938Y004577D01*
X024477Y004577D02*
X024017Y004577D01*
X024247Y004577D02*
X024247Y005958D01*
X024017Y005958D02*
X024477Y005958D01*
X024938Y005958D02*
X025859Y004577D01*
X023557Y004577D02*
X023557Y005958D01*
X022636Y005958D02*
X022636Y004577D01*
X022175Y004577D02*
X021715Y005037D01*
X021945Y005037D02*
X021255Y005037D01*
X021255Y004577D02*
X021255Y005958D01*
X021945Y005958D01*
X022175Y005728D01*
X022175Y005267D01*
X021945Y005037D01*
X022636Y005958D02*
X023557Y004577D01*
X020794Y004577D02*
X020794Y005497D01*
X020334Y005958D01*
X019873Y005497D01*
X019873Y004577D01*
X019413Y004577D02*
X019413Y005958D01*
X019873Y005267D02*
X020794Y005267D01*
X019413Y004577D02*
X018953Y005037D01*
X018492Y004577D01*
X018492Y005958D01*
X033915Y005958D02*
X034146Y005958D01*
X034146Y004577D01*
X034376Y004577D02*
X033915Y004577D01*
X036217Y004577D02*
X036217Y005958D01*
X036448Y005497D02*
X036908Y005497D01*
X037138Y005267D01*
X037138Y004577D01*
X037599Y004807D02*
X037829Y004577D01*
X038289Y004577D01*
X038519Y004807D01*
X038519Y005267D01*
X038289Y005497D01*
X037829Y005497D01*
X037599Y005267D01*
X037599Y004807D01*
X036448Y005497D02*
X036217Y005267D01*
X038980Y005497D02*
X039440Y005497D01*
X039210Y005728D02*
X039210Y004807D01*
X039440Y004577D01*
X041282Y004807D02*
X041512Y005037D01*
X042203Y005037D01*
X042203Y005267D02*
X042203Y004577D01*
X041512Y004577D01*
X041282Y004807D01*
X041512Y005497D02*
X041972Y005497D01*
X042203Y005267D01*
X042663Y005267D02*
X043123Y005267D01*
X042893Y005728D02*
X043123Y005958D01*
X042893Y005728D02*
X042893Y004577D01*
X043814Y004807D02*
X043814Y005728D01*
X043584Y005497D02*
X044044Y005497D01*
X044505Y005267D02*
X044735Y005497D01*
X045195Y005497D01*
X045425Y005267D01*
X045425Y005037D01*
X044505Y005037D01*
X044505Y004807D02*
X044505Y005267D01*
X044505Y004807D02*
X044735Y004577D01*
X045195Y004577D01*
X045886Y004577D02*
X045886Y005497D01*
X045886Y005037D02*
X046346Y005497D01*
X046576Y005497D01*
X048418Y005958D02*
X048418Y004577D01*
X049339Y004577D01*
X049799Y004577D02*
X049799Y005958D01*
X050720Y005958D01*
X051180Y005958D02*
X051871Y005958D01*
X052101Y005728D01*
X052101Y004807D01*
X051871Y004577D01*
X051180Y004577D01*
X051180Y005958D01*
X050259Y005267D02*
X049799Y005267D01*
X049799Y004577D02*
X050720Y004577D01*
X053943Y004807D02*
X054173Y004577D01*
X054863Y004577D01*
X054863Y004346D02*
X054863Y005497D01*
X054173Y005497D01*
X053943Y005267D01*
X053943Y004807D01*
X054403Y004116D02*
X054633Y004116D01*
X054863Y004346D01*
X055324Y004807D02*
X055554Y004577D01*
X056014Y004577D01*
X056245Y004807D01*
X056245Y005267D01*
X056014Y005497D01*
X055554Y005497D01*
X055324Y005267D01*
X055324Y004807D01*
X056705Y004807D02*
X056705Y005267D01*
X056935Y005497D01*
X057396Y005497D01*
X057626Y005267D01*
X057626Y005037D01*
X056705Y005037D01*
X056705Y004807D02*
X056935Y004577D01*
X057396Y004577D01*
X058086Y004577D02*
X058777Y004577D01*
X059007Y004807D01*
X058777Y005037D01*
X058316Y005037D01*
X058086Y005267D01*
X058316Y005497D01*
X059007Y005497D01*
X060848Y005267D02*
X060848Y004807D01*
X061079Y004577D01*
X061539Y004577D01*
X061769Y004807D01*
X061769Y005267D01*
X061539Y005497D01*
X061079Y005497D01*
X060848Y005267D01*
X062230Y005497D02*
X062230Y004807D01*
X062460Y004577D01*
X063150Y004577D01*
X063150Y005497D01*
X063611Y005497D02*
X064071Y005497D01*
X063841Y005728D02*
X063841Y004807D01*
X064071Y004577D01*
X064532Y004577D02*
X064532Y004807D01*
X064532Y005267D02*
X064532Y006188D01*
X044044Y004577D02*
X043814Y004807D01*
D13*
X033379Y014010D02*
X033379Y014192D01*
X033379Y014556D02*
X033379Y015284D01*
X032838Y014738D02*
X033020Y014556D01*
X033020Y014010D01*
X032292Y014010D02*
X032292Y014738D01*
X032838Y014738D01*
X031932Y014556D02*
X031932Y014374D01*
X031204Y014374D01*
X031204Y014192D02*
X031204Y014556D01*
X031386Y014738D01*
X031750Y014738D01*
X031932Y014556D01*
X031750Y014010D02*
X031386Y014010D01*
X031204Y014192D01*
X030844Y014738D02*
X030662Y014738D01*
X030298Y014374D01*
X030298Y014010D02*
X030298Y014738D01*
X029938Y014738D02*
X029392Y014738D01*
X029210Y014556D01*
X029210Y014192D01*
X029392Y014010D01*
X029938Y014010D01*
X029938Y015102D01*
X028667Y015102D02*
X028667Y014010D01*
X028485Y014010D02*
X028849Y014010D01*
X028124Y014010D02*
X027760Y014010D01*
X027942Y014010D02*
X027942Y014738D01*
X027760Y014738D01*
X027401Y014556D02*
X027401Y014010D01*
X027401Y014556D02*
X027219Y014738D01*
X026855Y014738D01*
X026673Y014556D01*
X026313Y014738D02*
X025767Y014738D01*
X025585Y014556D01*
X025585Y014192D01*
X025767Y014010D01*
X026313Y014010D01*
X026673Y014010D02*
X026673Y015102D01*
X027942Y015102D02*
X027942Y015284D01*
X028485Y015102D02*
X028667Y015102D01*
X028488Y017160D02*
X028124Y017160D01*
X027942Y017342D01*
X027942Y017706D01*
X028124Y017888D01*
X028488Y017888D01*
X028670Y017706D01*
X028670Y017524D01*
X027942Y017524D01*
X027581Y017888D02*
X027217Y017888D01*
X027399Y018070D02*
X027399Y017342D01*
X027581Y017160D01*
X026856Y017160D02*
X026674Y017342D01*
X026674Y018070D01*
X026492Y017888D02*
X026856Y017888D01*
X026132Y017706D02*
X026132Y017160D01*
X025586Y017160D01*
X025404Y017342D01*
X025586Y017524D01*
X026132Y017524D01*
X026132Y017706D02*
X025950Y017888D01*
X025586Y017888D01*
X025044Y017706D02*
X025044Y017160D01*
X025044Y017706D02*
X024862Y017888D01*
X024316Y017888D01*
X024316Y017160D01*
X023957Y017160D02*
X023957Y017888D01*
X023957Y017160D02*
X023411Y017160D01*
X023229Y017342D01*
X023229Y017888D01*
X021782Y017706D02*
X021782Y017524D01*
X021054Y017524D01*
X021054Y017706D02*
X021236Y017888D01*
X021600Y017888D01*
X021782Y017706D01*
X021600Y017160D02*
X021236Y017160D01*
X021054Y017342D01*
X021054Y017706D01*
X020694Y017888D02*
X020330Y017160D01*
X019966Y017888D01*
X019607Y017706D02*
X019607Y017160D01*
X019061Y017160D01*
X018879Y017342D01*
X019061Y017524D01*
X019607Y017524D01*
X019607Y017706D02*
X019425Y017888D01*
X019061Y017888D01*
X018519Y017706D02*
X018519Y017524D01*
X017791Y017524D01*
X017791Y017706D02*
X017973Y017888D01*
X018337Y017888D01*
X018519Y017706D01*
X018337Y017160D02*
X017973Y017160D01*
X017791Y017342D01*
X017791Y017706D01*
X017430Y017160D02*
X017066Y017160D01*
X017248Y017160D02*
X017248Y018252D01*
X017066Y018252D01*
X015618Y017888D02*
X015254Y017888D01*
X015436Y018070D02*
X015436Y017342D01*
X015618Y017160D01*
X014894Y017342D02*
X014894Y017706D01*
X014712Y017888D01*
X014348Y017888D01*
X014166Y017706D01*
X014166Y017342D01*
X014348Y017160D01*
X014712Y017160D01*
X014894Y017342D01*
X013807Y017160D02*
X013807Y017706D01*
X013625Y017888D01*
X013078Y017888D01*
X013078Y017160D01*
X011631Y017342D02*
X011631Y017706D01*
X011449Y017888D01*
X011085Y017888D01*
X010903Y017706D01*
X010903Y017342D01*
X011085Y017160D01*
X011449Y017160D01*
X011631Y017342D01*
X010544Y017342D02*
X010544Y018070D01*
X010362Y018252D01*
X009816Y018252D01*
X009816Y017160D01*
X010362Y017160D01*
X010544Y017342D01*
X010544Y015102D02*
X009816Y014374D01*
X009998Y014556D02*
X010544Y014010D01*
X010903Y014192D02*
X010903Y014556D01*
X011085Y014738D01*
X011449Y014738D01*
X011631Y014556D01*
X011631Y014374D01*
X010903Y014374D01*
X010903Y014192D02*
X011085Y014010D01*
X011449Y014010D01*
X011991Y014192D02*
X011991Y014556D01*
X012173Y014738D01*
X012537Y014738D01*
X012719Y014556D01*
X012719Y014374D01*
X011991Y014374D01*
X011991Y014192D02*
X012173Y014010D01*
X012537Y014010D01*
X013078Y014010D02*
X013625Y014010D01*
X013807Y014192D01*
X013807Y014556D01*
X013625Y014738D01*
X013078Y014738D01*
X013078Y013646D01*
X015254Y014192D02*
X015436Y014374D01*
X015982Y014374D01*
X015982Y014556D02*
X015982Y014010D01*
X015436Y014010D01*
X015254Y014192D01*
X015436Y014738D02*
X015800Y014738D01*
X015982Y014556D01*
X016341Y014738D02*
X016341Y014192D01*
X016523Y014010D01*
X016705Y014192D01*
X016887Y014010D01*
X017069Y014192D01*
X017069Y014738D01*
X017611Y014738D02*
X017975Y014738D01*
X018157Y014556D01*
X018157Y014010D01*
X017611Y014010D01*
X017429Y014192D01*
X017611Y014374D01*
X018157Y014374D01*
X018516Y014192D02*
X018698Y014010D01*
X019244Y014010D01*
X019244Y013828D02*
X019062Y013646D01*
X018880Y013646D01*
X019244Y013828D02*
X019244Y014738D01*
X018516Y014738D02*
X018516Y014192D01*
X020691Y014556D02*
X021055Y014556D01*
X021416Y014374D02*
X021780Y014738D01*
X021962Y014738D01*
X022323Y014556D02*
X022323Y014192D01*
X022505Y014010D01*
X022869Y014010D01*
X023051Y014192D01*
X023051Y014556D01*
X022869Y014738D01*
X022505Y014738D01*
X022323Y014556D01*
X023410Y014738D02*
X023592Y014738D01*
X023774Y014556D01*
X023956Y014738D01*
X024138Y014556D01*
X024138Y014010D01*
X023774Y014010D02*
X023774Y014556D01*
X023410Y014738D02*
X023410Y014010D01*
X021416Y014010D02*
X021416Y014738D01*
X021055Y015102D02*
X020873Y014920D01*
X020873Y014010D01*
X021055Y020310D02*
X020873Y020492D01*
X020873Y021220D01*
X020691Y021038D02*
X021055Y021038D01*
X021416Y020856D02*
X021598Y021038D01*
X021962Y021038D01*
X022144Y020856D01*
X022144Y020674D01*
X021416Y020674D01*
X021416Y020492D02*
X021416Y020856D01*
X021416Y020492D02*
X021598Y020310D01*
X021962Y020310D01*
X022504Y020310D02*
X022504Y021038D01*
X022868Y021038D02*
X023050Y021038D01*
X022868Y021038D02*
X022504Y020674D01*
X024498Y021038D02*
X024498Y019946D01*
X024498Y020310D02*
X025044Y020310D01*
X025226Y020492D01*
X025226Y020856D01*
X025044Y021038D01*
X024498Y021038D01*
X025585Y020856D02*
X025585Y020492D01*
X025767Y020310D01*
X026131Y020310D01*
X026313Y020492D01*
X026313Y020856D01*
X026131Y021038D01*
X025767Y021038D01*
X025585Y020856D01*
X026673Y021038D02*
X026673Y020492D01*
X026855Y020310D01*
X027037Y020492D01*
X027219Y020310D01*
X027401Y020492D01*
X027401Y021038D01*
X027760Y020856D02*
X027760Y020492D01*
X027942Y020310D01*
X028306Y020310D01*
X028488Y020674D02*
X027760Y020674D01*
X027760Y020856D02*
X027942Y021038D01*
X028306Y021038D01*
X028488Y020856D01*
X028488Y020674D01*
X028848Y020674D02*
X029212Y021038D01*
X029394Y021038D01*
X029754Y020856D02*
X029936Y021038D01*
X030300Y021038D01*
X030482Y020856D01*
X030482Y020674D01*
X029754Y020674D01*
X029754Y020492D02*
X029754Y020856D01*
X029754Y020492D02*
X029936Y020310D01*
X030300Y020310D01*
X030842Y020492D02*
X030842Y020856D01*
X031024Y021038D01*
X031570Y021038D01*
X031570Y021402D02*
X031570Y020310D01*
X031024Y020310D01*
X030842Y020492D01*
X028848Y020310D02*
X028848Y021038D01*
X029030Y023065D02*
X029212Y023247D01*
X029394Y023065D01*
X029576Y023247D01*
X029576Y023793D01*
X029935Y023611D02*
X030117Y023793D01*
X030481Y023793D01*
X030663Y023611D01*
X030663Y023429D01*
X029935Y023429D01*
X029935Y023247D02*
X029935Y023611D01*
X029935Y023247D02*
X030117Y023065D01*
X030481Y023065D01*
X031023Y023065D02*
X031023Y023793D01*
X031023Y023429D02*
X031387Y023793D01*
X031569Y023793D01*
X033017Y023611D02*
X033017Y023247D01*
X033199Y023065D01*
X033563Y023065D01*
X033745Y023247D01*
X033745Y023611D01*
X033563Y023793D01*
X033199Y023793D01*
X033017Y023611D01*
X034104Y023611D02*
X034468Y023611D01*
X034829Y023611D02*
X035193Y023611D01*
X035011Y023976D02*
X035011Y023065D01*
X034286Y023065D02*
X034286Y023976D01*
X034468Y024158D01*
X035011Y023976D02*
X035193Y024158D01*
X036642Y023793D02*
X037006Y023793D01*
X036824Y023976D02*
X036824Y023247D01*
X037006Y023065D01*
X037367Y023065D02*
X037367Y024158D01*
X037549Y023793D02*
X037913Y023793D01*
X038095Y023611D01*
X038095Y023065D01*
X038454Y023247D02*
X038454Y023611D01*
X038637Y023793D01*
X039001Y023793D01*
X039183Y023611D01*
X039183Y023429D01*
X038454Y023429D01*
X038454Y023247D02*
X038637Y023065D01*
X039001Y023065D01*
X037549Y023793D02*
X037367Y023611D01*
X035554Y021584D02*
X035554Y020856D01*
X035193Y020856D02*
X034829Y020856D01*
X034468Y020856D02*
X034104Y020856D01*
X033745Y020856D02*
X033563Y021038D01*
X033199Y021038D01*
X033017Y020856D01*
X033017Y020492D01*
X033199Y020310D01*
X033563Y020310D01*
X033745Y020492D01*
X033745Y020856D01*
X034286Y021220D02*
X034286Y020310D01*
X035011Y020310D02*
X035011Y021220D01*
X035193Y021402D01*
X034468Y021402D02*
X034286Y021220D01*
X035554Y020492D02*
X035554Y020310D01*
X033379Y018434D02*
X033379Y017706D01*
X033379Y017342D02*
X033379Y017160D01*
X033020Y017160D02*
X032474Y017160D01*
X032292Y017342D01*
X032292Y017706D01*
X032474Y017888D01*
X033020Y017888D01*
X033020Y018252D02*
X033020Y017160D01*
X031932Y017524D02*
X031204Y017524D01*
X031204Y017706D02*
X031386Y017888D01*
X031750Y017888D01*
X031932Y017706D01*
X031932Y017524D01*
X031750Y017160D02*
X031386Y017160D01*
X031204Y017342D01*
X031204Y017706D01*
X030845Y017888D02*
X030299Y017888D01*
X030117Y017706D01*
X030117Y017342D01*
X030299Y017160D01*
X030845Y017160D01*
X030845Y018252D01*
X029757Y017706D02*
X029757Y017160D01*
X029757Y017706D02*
X029575Y017888D01*
X029029Y017888D01*
X029029Y017160D01*
X029030Y023065D02*
X028848Y023247D01*
X028848Y023793D01*
X028488Y023611D02*
X028306Y023793D01*
X027942Y023793D01*
X027760Y023611D01*
X027760Y023247D01*
X027942Y023065D01*
X028306Y023065D01*
X028488Y023247D01*
X028488Y023611D01*
X027401Y023611D02*
X027401Y023247D01*
X027219Y023065D01*
X026673Y023065D01*
X026673Y022701D02*
X026673Y023793D01*
X027219Y023793D01*
X027401Y023611D01*
X025224Y023247D02*
X025224Y023065D01*
X025042Y023065D01*
X025042Y023247D01*
X025224Y023247D01*
X025224Y023065D02*
X024860Y022701D01*
X024501Y022883D02*
X024501Y023793D01*
X023955Y023793D01*
X023773Y023611D01*
X023773Y023247D01*
X023955Y023065D01*
X024501Y023065D01*
X024501Y022883D02*
X024319Y022701D01*
X024137Y022701D01*
X023413Y023065D02*
X023413Y023611D01*
X023231Y023793D01*
X022685Y023793D01*
X022685Y023065D01*
X022324Y023065D02*
X021960Y023065D01*
X022142Y023065D02*
X022142Y023793D01*
X021960Y023793D01*
X021601Y023611D02*
X021601Y023065D01*
X021601Y023611D02*
X021419Y023793D01*
X021055Y023793D01*
X020873Y023611D01*
X020513Y023793D02*
X019967Y023793D01*
X019785Y023611D01*
X019785Y023247D01*
X019967Y023065D01*
X020513Y023065D01*
X020873Y023065D02*
X020873Y024158D01*
X022142Y024158D02*
X022142Y024340D01*
X019425Y023793D02*
X019425Y023065D01*
X018879Y023065D01*
X018697Y023247D01*
X018697Y023793D01*
X018338Y023611D02*
X018156Y023793D01*
X017792Y023793D01*
X017610Y023611D01*
X017610Y023247D01*
X017792Y023065D01*
X018156Y023065D01*
X018338Y023247D01*
X018338Y023611D01*
X017249Y023793D02*
X016885Y023793D01*
X017067Y023976D02*
X017067Y023247D01*
X017249Y023065D01*
X017248Y021220D02*
X017248Y020492D01*
X017430Y020310D01*
X017430Y021038D02*
X017066Y021038D01*
X016707Y020856D02*
X016525Y021038D01*
X016161Y021038D01*
X015979Y020856D01*
X015979Y020492D01*
X016161Y020310D01*
X016525Y020310D01*
X016707Y020492D01*
X016707Y020856D01*
X015619Y020856D02*
X015619Y020310D01*
X015619Y020856D02*
X015437Y021038D01*
X015073Y021038D01*
X014891Y020856D01*
X014891Y021402D02*
X014891Y020310D01*
X013443Y020310D02*
X013078Y020310D01*
X013260Y020310D02*
X013260Y021402D01*
X013078Y021402D01*
X012535Y021402D02*
X012535Y020310D01*
X012353Y020310D02*
X012717Y020310D01*
X011992Y020310D02*
X011628Y020310D01*
X011810Y020310D02*
X011810Y021038D01*
X011628Y021038D01*
X011267Y021038D02*
X010903Y021038D01*
X011085Y021220D02*
X011085Y020492D01*
X011267Y020310D01*
X010544Y020492D02*
X010544Y020674D01*
X010362Y020856D01*
X009998Y020856D01*
X009816Y021038D01*
X009816Y021220D01*
X009998Y021402D01*
X010362Y021402D01*
X010544Y021220D01*
X010544Y020492D02*
X010362Y020310D01*
X009998Y020310D01*
X009816Y020492D01*
X011810Y021402D02*
X011810Y021584D01*
X012353Y021402D02*
X012535Y021402D01*
X012173Y023065D02*
X012173Y023976D01*
X012355Y024158D01*
X012355Y023611D02*
X011991Y023611D01*
X011631Y023611D02*
X011631Y023429D01*
X010903Y023429D01*
X010903Y023247D02*
X010903Y023611D01*
X011085Y023793D01*
X011449Y023793D01*
X011631Y023611D01*
X011449Y023065D02*
X011085Y023065D01*
X010903Y023247D01*
X010544Y023247D02*
X010362Y023065D01*
X009816Y023065D01*
X009816Y024158D01*
X010362Y024158D01*
X010544Y023976D01*
X010544Y023793D01*
X010362Y023611D01*
X009816Y023611D01*
X010362Y023611D02*
X010544Y023429D01*
X010544Y023247D01*
X012716Y023247D02*
X012898Y023065D01*
X013262Y023065D01*
X013444Y023247D01*
X013444Y023611D01*
X013262Y023793D01*
X012898Y023793D01*
X012716Y023611D01*
X012716Y023247D01*
X013804Y023065D02*
X013804Y023793D01*
X013804Y023429D02*
X014168Y023793D01*
X014350Y023793D01*
X014710Y023611D02*
X014892Y023793D01*
X015256Y023793D01*
X015438Y023611D01*
X015438Y023429D01*
X014710Y023429D01*
X014710Y023247D02*
X014710Y023611D01*
X014710Y023247D02*
X014892Y023065D01*
X015256Y023065D01*
X019061Y021038D02*
X019425Y021038D01*
X019607Y020856D01*
X019607Y020310D01*
X019061Y020310D01*
X018879Y020492D01*
X019061Y020674D01*
X019607Y020674D01*
X019966Y020856D02*
X020330Y020856D01*
X020148Y021220D02*
X020330Y021402D01*
X020148Y021220D02*
X020148Y020310D01*
X009816Y015102D02*
X009816Y014010D01*
X040630Y023065D02*
X040630Y024158D01*
X040812Y023793D02*
X041176Y023793D01*
X041358Y023611D01*
X041358Y023065D01*
X041717Y023247D02*
X041899Y023065D01*
X042263Y023065D01*
X042445Y023429D02*
X041717Y023429D01*
X041717Y023247D02*
X041717Y023611D01*
X041899Y023793D01*
X042263Y023793D01*
X042445Y023611D01*
X042445Y023429D01*
X042805Y023247D02*
X042987Y023429D01*
X043533Y023429D01*
X043533Y023611D02*
X043533Y023065D01*
X042987Y023065D01*
X042805Y023247D01*
X042987Y023793D02*
X043351Y023793D01*
X043533Y023611D01*
X043892Y023793D02*
X044256Y023793D01*
X044074Y023976D02*
X044074Y023247D01*
X044256Y023065D01*
X044617Y023065D02*
X045163Y023065D01*
X045345Y023247D01*
X045345Y023611D01*
X045163Y023793D01*
X044617Y023793D01*
X044617Y024158D02*
X044617Y023065D01*
X045705Y023247D02*
X045705Y023611D01*
X045887Y023793D01*
X046251Y023793D01*
X046433Y023611D01*
X046433Y023429D01*
X045705Y023429D01*
X045705Y023247D02*
X045887Y023065D01*
X046251Y023065D01*
X046792Y023247D02*
X046792Y023611D01*
X046974Y023793D01*
X047520Y023793D01*
X047520Y024158D02*
X047520Y023065D01*
X046974Y023065D01*
X046792Y023247D01*
X048967Y023247D02*
X049149Y023065D01*
X049695Y023065D01*
X049695Y023611D01*
X049513Y023793D01*
X049149Y023793D01*
X049149Y023429D02*
X049695Y023429D01*
X050055Y023065D02*
X050055Y023793D01*
X050601Y023793D01*
X050783Y023611D01*
X050783Y023065D01*
X051142Y023247D02*
X051325Y023065D01*
X051871Y023065D01*
X051871Y024158D01*
X051871Y023793D02*
X051325Y023793D01*
X051142Y023611D01*
X051142Y023247D01*
X049149Y023429D02*
X048967Y023247D01*
X053318Y023247D02*
X053500Y023065D01*
X053682Y023247D01*
X053864Y023065D01*
X054046Y023247D01*
X054046Y023793D01*
X054587Y023793D02*
X054951Y023793D01*
X055133Y023611D01*
X055133Y023065D01*
X054587Y023065D01*
X054405Y023247D01*
X054587Y023429D01*
X055133Y023429D01*
X055493Y023065D02*
X055857Y023065D01*
X055675Y023065D02*
X055675Y023793D01*
X055493Y023793D01*
X055675Y024158D02*
X055675Y024340D01*
X056218Y023793D02*
X056582Y023793D01*
X056400Y023976D02*
X056400Y023247D01*
X056582Y023065D01*
X058030Y023247D02*
X058212Y023429D01*
X058758Y023429D01*
X058758Y023611D02*
X058758Y023065D01*
X058212Y023065D01*
X058030Y023247D01*
X058212Y023793D02*
X058576Y023793D01*
X058758Y023611D01*
X059118Y023793D02*
X059482Y023793D01*
X059300Y023976D02*
X059300Y023247D01*
X059482Y023065D01*
X060930Y023065D02*
X061294Y023065D01*
X061112Y023065D02*
X061112Y024158D01*
X060930Y024158D01*
X061655Y023611D02*
X061837Y023793D01*
X062201Y023793D01*
X062383Y023611D01*
X062383Y023429D01*
X061655Y023429D01*
X061655Y023247D02*
X061655Y023611D01*
X061655Y023247D02*
X061837Y023065D01*
X062201Y023065D01*
X062743Y023247D02*
X062925Y023429D01*
X063471Y023429D01*
X063471Y023611D02*
X063471Y023065D01*
X062925Y023065D01*
X062743Y023247D01*
X062925Y023793D02*
X063289Y023793D01*
X063471Y023611D01*
X063830Y023611D02*
X064013Y023793D01*
X064559Y023793D01*
X064918Y023793D02*
X065282Y023793D01*
X065100Y023976D02*
X065100Y023247D01*
X065282Y023065D01*
X064559Y023247D02*
X064377Y023429D01*
X064013Y023429D01*
X063830Y023611D01*
X063830Y023065D02*
X064377Y023065D01*
X064559Y023247D01*
X066731Y023065D02*
X067459Y023065D01*
X067095Y023065D02*
X067095Y024158D01*
X066731Y023793D01*
X067818Y023976D02*
X068000Y024158D01*
X068364Y024158D01*
X068546Y023976D01*
X067818Y023247D01*
X068000Y023065D01*
X068364Y023065D01*
X068546Y023247D01*
X068546Y023976D01*
X067818Y023976D02*
X067818Y023247D01*
X069993Y023065D02*
X069993Y023793D01*
X070175Y023793D01*
X070357Y023611D01*
X070539Y023793D01*
X070721Y023611D01*
X070721Y023065D01*
X071081Y023065D02*
X071445Y023065D01*
X071263Y023065D02*
X071263Y023793D01*
X071081Y023793D01*
X071263Y024158D02*
X071263Y024340D01*
X071806Y023793D02*
X072352Y023793D01*
X072534Y023611D01*
X072534Y023065D01*
X072893Y023247D02*
X073075Y023065D01*
X073621Y023065D01*
X073621Y023793D01*
X073981Y023793D02*
X074345Y023793D01*
X074163Y023976D02*
X074163Y023247D01*
X074345Y023065D01*
X074706Y023247D02*
X074706Y023611D01*
X074888Y023793D01*
X075252Y023793D01*
X075434Y023611D01*
X075434Y023429D01*
X074706Y023429D01*
X074706Y023247D02*
X074888Y023065D01*
X075252Y023065D01*
X075793Y023065D02*
X076339Y023065D01*
X076521Y023247D01*
X076339Y023429D01*
X075975Y023429D01*
X075793Y023611D01*
X075975Y023793D01*
X076521Y023793D01*
X076881Y023611D02*
X076881Y024340D01*
X076881Y023247D02*
X076881Y023065D01*
X072893Y023247D02*
X072893Y023793D01*
X071806Y023793D02*
X071806Y023065D01*
X070357Y023065D02*
X070357Y023611D01*
X053318Y023793D02*
X053318Y023247D01*
X040812Y023793D02*
X040630Y023611D01*
D14*
X001070Y001800D02*
X001072Y001850D01*
X001078Y001900D01*
X001088Y001949D01*
X001102Y001997D01*
X001119Y002044D01*
X001140Y002089D01*
X001165Y002133D01*
X001193Y002174D01*
X001225Y002213D01*
X001259Y002250D01*
X001296Y002284D01*
X001336Y002314D01*
X001378Y002341D01*
X001422Y002365D01*
X001468Y002386D01*
X001515Y002402D01*
X001563Y002415D01*
X001613Y002424D01*
X001662Y002429D01*
X001713Y002430D01*
X001763Y002427D01*
X001812Y002420D01*
X001861Y002409D01*
X001909Y002394D01*
X001955Y002376D01*
X002000Y002354D01*
X002043Y002328D01*
X002084Y002299D01*
X002123Y002267D01*
X002159Y002232D01*
X002191Y002194D01*
X002221Y002154D01*
X002248Y002111D01*
X002271Y002067D01*
X002290Y002021D01*
X002306Y001973D01*
X002318Y001924D01*
X002326Y001875D01*
X002330Y001825D01*
X002330Y001775D01*
X002326Y001725D01*
X002318Y001676D01*
X002306Y001627D01*
X002290Y001579D01*
X002271Y001533D01*
X002248Y001489D01*
X002221Y001446D01*
X002191Y001406D01*
X002159Y001368D01*
X002123Y001333D01*
X002084Y001301D01*
X002043Y001272D01*
X002000Y001246D01*
X001955Y001224D01*
X001909Y001206D01*
X001861Y001191D01*
X001812Y001180D01*
X001763Y001173D01*
X001713Y001170D01*
X001662Y001171D01*
X001613Y001176D01*
X001563Y001185D01*
X001515Y001198D01*
X001468Y001214D01*
X001422Y001235D01*
X001378Y001259D01*
X001336Y001286D01*
X001296Y001316D01*
X001259Y001350D01*
X001225Y001387D01*
X001193Y001426D01*
X001165Y001467D01*
X001140Y001511D01*
X001119Y001556D01*
X001102Y001603D01*
X001088Y001651D01*
X001078Y001700D01*
X001072Y001750D01*
X001070Y001800D01*
X028461Y077168D02*
X028461Y078073D01*
X028913Y078073D01*
X029064Y077922D01*
X029064Y077621D01*
X028913Y077470D01*
X028461Y077470D01*
X028158Y077470D02*
X028008Y077621D01*
X028008Y078224D01*
X028158Y078073D02*
X027857Y078073D01*
X027554Y078073D02*
X027253Y078073D01*
X027403Y078224D02*
X027403Y077621D01*
X027554Y077470D01*
X026950Y077470D02*
X026950Y077922D01*
X026799Y078073D01*
X026497Y078073D01*
X026346Y077922D01*
X026346Y077470D02*
X026346Y078375D01*
X029367Y078073D02*
X029367Y077922D01*
X029518Y077922D01*
X029518Y078073D01*
X029367Y078073D01*
X029367Y077621D02*
X029367Y077470D01*
X029518Y077470D01*
X029518Y077621D01*
X029367Y077621D01*
X029820Y077470D02*
X030424Y078375D01*
X031330Y078375D02*
X030727Y077470D01*
X031633Y077621D02*
X031633Y078073D01*
X031633Y077621D02*
X031784Y077470D01*
X031935Y077621D01*
X032085Y077470D01*
X032236Y077621D01*
X032236Y078073D01*
X032539Y078073D02*
X032539Y077621D01*
X032690Y077470D01*
X032841Y077621D01*
X032992Y077470D01*
X033143Y077621D01*
X033143Y078073D01*
X033446Y078073D02*
X033446Y077621D01*
X033596Y077470D01*
X033747Y077621D01*
X033898Y077470D01*
X034049Y077621D01*
X034049Y078073D01*
X034352Y077621D02*
X034503Y077621D01*
X034503Y077470D01*
X034352Y077470D01*
X034352Y077621D01*
X034805Y077772D02*
X035107Y078073D01*
X035257Y078073D01*
X035560Y077922D02*
X035711Y078073D01*
X036013Y078073D01*
X036164Y077922D01*
X036164Y077772D01*
X035560Y077772D01*
X035560Y077922D02*
X035560Y077621D01*
X035711Y077470D01*
X036013Y077470D01*
X036466Y077470D02*
X036919Y077470D01*
X037070Y077621D01*
X037070Y077922D01*
X036919Y078073D01*
X036466Y078073D01*
X036466Y077168D01*
X037373Y077470D02*
X037373Y078073D01*
X037373Y077772D02*
X037674Y078073D01*
X037825Y078073D01*
X038279Y078073D02*
X038581Y078073D01*
X038731Y077922D01*
X038731Y077470D01*
X038279Y077470D01*
X038128Y077621D01*
X038279Y077772D01*
X038731Y077772D01*
X039034Y078073D02*
X039034Y077168D01*
X039034Y077470D02*
X039487Y077470D01*
X039638Y077621D01*
X039638Y077922D01*
X039487Y078073D01*
X039034Y078073D01*
X039941Y077621D02*
X040091Y077621D01*
X040091Y077470D01*
X039941Y077470D01*
X039941Y077621D01*
X040394Y077621D02*
X040545Y077470D01*
X040846Y077470D01*
X040997Y077621D01*
X040997Y077922D01*
X040846Y078073D01*
X040545Y078073D01*
X040394Y077922D01*
X040394Y077621D01*
X041300Y077772D02*
X041602Y078073D01*
X041753Y078073D01*
X042055Y077922D02*
X042055Y077621D01*
X042206Y077470D01*
X042659Y077470D01*
X042659Y077319D02*
X042659Y078073D01*
X042206Y078073D01*
X042055Y077922D01*
X041300Y078073D02*
X041300Y077470D01*
X042357Y077168D02*
X042508Y077168D01*
X042659Y077319D01*
X042962Y077470D02*
X043565Y078375D01*
X043868Y078073D02*
X043868Y077621D01*
X044019Y077470D01*
X044169Y077621D01*
X044320Y077470D01*
X044471Y077621D01*
X044471Y078073D01*
X044774Y078073D02*
X044925Y078073D01*
X044925Y077470D01*
X044774Y077470D02*
X045076Y077470D01*
X045378Y077470D02*
X045378Y078375D01*
X044925Y078375D02*
X044925Y078526D01*
X045378Y077772D02*
X045831Y078073D01*
X046134Y078073D02*
X046284Y078073D01*
X046284Y077470D01*
X046134Y077470D02*
X046435Y077470D01*
X046738Y077470D02*
X047341Y078375D01*
X047644Y078375D02*
X048097Y078375D01*
X048247Y078224D01*
X048247Y077922D01*
X048097Y077772D01*
X047644Y077772D01*
X047644Y077470D02*
X047644Y078375D01*
X048550Y078224D02*
X048550Y077621D01*
X048701Y077470D01*
X049003Y077470D01*
X049154Y077621D01*
X049457Y077470D02*
X049909Y077470D01*
X050060Y077621D01*
X050060Y077772D01*
X049909Y077922D01*
X049457Y077922D01*
X049154Y078224D02*
X049003Y078375D01*
X048701Y078375D01*
X048550Y078224D01*
X049457Y078375D02*
X049457Y077470D01*
X049909Y077922D02*
X050060Y078073D01*
X050060Y078224D01*
X049909Y078375D01*
X049457Y078375D01*
X050363Y077319D02*
X050966Y077319D01*
X051269Y077470D02*
X051269Y078375D01*
X051269Y077922D02*
X051873Y077922D01*
X052175Y077922D02*
X052326Y078073D01*
X052628Y078073D01*
X052779Y077922D01*
X052779Y077772D01*
X052175Y077772D01*
X052175Y077922D02*
X052175Y077621D01*
X052326Y077470D01*
X052628Y077470D01*
X053082Y077621D02*
X053233Y077772D01*
X053685Y077772D01*
X053685Y077922D02*
X053685Y077470D01*
X053233Y077470D01*
X053082Y077621D01*
X053233Y078073D02*
X053534Y078073D01*
X053685Y077922D01*
X053988Y078073D02*
X054290Y078073D01*
X054139Y078224D02*
X054139Y077621D01*
X054290Y077470D01*
X054592Y077470D02*
X055045Y077470D01*
X055196Y077621D01*
X055196Y077922D01*
X055045Y078073D01*
X054592Y078073D01*
X054592Y078375D02*
X054592Y077470D01*
X055498Y077621D02*
X055498Y077922D01*
X055649Y078073D01*
X055951Y078073D01*
X056102Y077922D01*
X056102Y077772D01*
X055498Y077772D01*
X055498Y077621D02*
X055649Y077470D01*
X055951Y077470D01*
X056405Y077621D02*
X056405Y077922D01*
X056556Y078073D01*
X057008Y078073D01*
X057008Y078375D02*
X057008Y077470D01*
X056556Y077470D01*
X056405Y077621D01*
X057311Y077319D02*
X057914Y077319D01*
X058217Y077470D02*
X058217Y078375D01*
X058519Y078073D01*
X058821Y078375D01*
X058821Y077470D01*
X059124Y077470D02*
X059124Y078375D01*
X059274Y077922D02*
X059727Y077470D01*
X060030Y077470D02*
X060633Y078073D01*
X060633Y078224D01*
X060482Y078375D01*
X060181Y078375D01*
X060030Y078224D01*
X059727Y078375D02*
X059124Y077772D01*
X060030Y077470D02*
X060633Y077470D01*
X051873Y077470D02*
X051873Y078375D01*
X046284Y078375D02*
X046284Y078526D01*
X045831Y077470D02*
X045378Y077772D01*
X034805Y077470D02*
X034805Y078073D01*
X001070Y084083D02*
X001072Y084133D01*
X001078Y084183D01*
X001088Y084232D01*
X001102Y084280D01*
X001119Y084327D01*
X001140Y084372D01*
X001165Y084416D01*
X001193Y084457D01*
X001225Y084496D01*
X001259Y084533D01*
X001296Y084567D01*
X001336Y084597D01*
X001378Y084624D01*
X001422Y084648D01*
X001468Y084669D01*
X001515Y084685D01*
X001563Y084698D01*
X001613Y084707D01*
X001662Y084712D01*
X001713Y084713D01*
X001763Y084710D01*
X001812Y084703D01*
X001861Y084692D01*
X001909Y084677D01*
X001955Y084659D01*
X002000Y084637D01*
X002043Y084611D01*
X002084Y084582D01*
X002123Y084550D01*
X002159Y084515D01*
X002191Y084477D01*
X002221Y084437D01*
X002248Y084394D01*
X002271Y084350D01*
X002290Y084304D01*
X002306Y084256D01*
X002318Y084207D01*
X002326Y084158D01*
X002330Y084108D01*
X002330Y084058D01*
X002326Y084008D01*
X002318Y083959D01*
X002306Y083910D01*
X002290Y083862D01*
X002271Y083816D01*
X002248Y083772D01*
X002221Y083729D01*
X002191Y083689D01*
X002159Y083651D01*
X002123Y083616D01*
X002084Y083584D01*
X002043Y083555D01*
X002000Y083529D01*
X001955Y083507D01*
X001909Y083489D01*
X001861Y083474D01*
X001812Y083463D01*
X001763Y083456D01*
X001713Y083453D01*
X001662Y083454D01*
X001613Y083459D01*
X001563Y083468D01*
X001515Y083481D01*
X001468Y083497D01*
X001422Y083518D01*
X001378Y083542D01*
X001336Y083569D01*
X001296Y083599D01*
X001259Y083633D01*
X001225Y083670D01*
X001193Y083709D01*
X001165Y083750D01*
X001140Y083794D01*
X001119Y083839D01*
X001102Y083886D01*
X001088Y083934D01*
X001078Y083983D01*
X001072Y084033D01*
X001070Y084083D01*
X083353Y084083D02*
X083355Y084133D01*
X083361Y084183D01*
X083371Y084232D01*
X083385Y084280D01*
X083402Y084327D01*
X083423Y084372D01*
X083448Y084416D01*
X083476Y084457D01*
X083508Y084496D01*
X083542Y084533D01*
X083579Y084567D01*
X083619Y084597D01*
X083661Y084624D01*
X083705Y084648D01*
X083751Y084669D01*
X083798Y084685D01*
X083846Y084698D01*
X083896Y084707D01*
X083945Y084712D01*
X083996Y084713D01*
X084046Y084710D01*
X084095Y084703D01*
X084144Y084692D01*
X084192Y084677D01*
X084238Y084659D01*
X084283Y084637D01*
X084326Y084611D01*
X084367Y084582D01*
X084406Y084550D01*
X084442Y084515D01*
X084474Y084477D01*
X084504Y084437D01*
X084531Y084394D01*
X084554Y084350D01*
X084573Y084304D01*
X084589Y084256D01*
X084601Y084207D01*
X084609Y084158D01*
X084613Y084108D01*
X084613Y084058D01*
X084609Y084008D01*
X084601Y083959D01*
X084589Y083910D01*
X084573Y083862D01*
X084554Y083816D01*
X084531Y083772D01*
X084504Y083729D01*
X084474Y083689D01*
X084442Y083651D01*
X084406Y083616D01*
X084367Y083584D01*
X084326Y083555D01*
X084283Y083529D01*
X084238Y083507D01*
X084192Y083489D01*
X084144Y083474D01*
X084095Y083463D01*
X084046Y083456D01*
X083996Y083453D01*
X083945Y083454D01*
X083896Y083459D01*
X083846Y083468D01*
X083798Y083481D01*
X083751Y083497D01*
X083705Y083518D01*
X083661Y083542D01*
X083619Y083569D01*
X083579Y083599D01*
X083542Y083633D01*
X083508Y083670D01*
X083476Y083709D01*
X083448Y083750D01*
X083423Y083794D01*
X083402Y083839D01*
X083385Y083886D01*
X083371Y083934D01*
X083361Y083983D01*
X083355Y084033D01*
X083353Y084083D01*
X083353Y001800D02*
X083355Y001850D01*
X083361Y001900D01*
X083371Y001949D01*
X083385Y001997D01*
X083402Y002044D01*
X083423Y002089D01*
X083448Y002133D01*
X083476Y002174D01*
X083508Y002213D01*
X083542Y002250D01*
X083579Y002284D01*
X083619Y002314D01*
X083661Y002341D01*
X083705Y002365D01*
X083751Y002386D01*
X083798Y002402D01*
X083846Y002415D01*
X083896Y002424D01*
X083945Y002429D01*
X083996Y002430D01*
X084046Y002427D01*
X084095Y002420D01*
X084144Y002409D01*
X084192Y002394D01*
X084238Y002376D01*
X084283Y002354D01*
X084326Y002328D01*
X084367Y002299D01*
X084406Y002267D01*
X084442Y002232D01*
X084474Y002194D01*
X084504Y002154D01*
X084531Y002111D01*
X084554Y002067D01*
X084573Y002021D01*
X084589Y001973D01*
X084601Y001924D01*
X084609Y001875D01*
X084613Y001825D01*
X084613Y001775D01*
X084609Y001725D01*
X084601Y001676D01*
X084589Y001627D01*
X084573Y001579D01*
X084554Y001533D01*
X084531Y001489D01*
X084504Y001446D01*
X084474Y001406D01*
X084442Y001368D01*
X084406Y001333D01*
X084367Y001301D01*
X084326Y001272D01*
X084283Y001246D01*
X084238Y001224D01*
X084192Y001206D01*
X084144Y001191D01*
X084095Y001180D01*
X084046Y001173D01*
X083996Y001170D01*
X083945Y001171D01*
X083896Y001176D01*
X083846Y001185D01*
X083798Y001198D01*
X083751Y001214D01*
X083705Y001235D01*
X083661Y001259D01*
X083619Y001286D01*
X083579Y001316D01*
X083542Y001350D01*
X083508Y001387D01*
X083476Y001426D01*
X083448Y001467D01*
X083423Y001511D01*
X083402Y001556D01*
X083385Y001603D01*
X083371Y001651D01*
X083361Y001700D01*
X083355Y001750D01*
X083353Y001800D01*
M02*
