G75*
G70*
%OFA0B0*%
%FSLAX24Y24*%
%IPPOS*%
%LPD*%
%AMOC8*
5,1,8,0,0,1.08239X$1,22.5*
%
%ADD10R,0.0583X0.0630*%
%ADD11R,0.0583X0.0634*%
%ADD12R,0.0850X0.1772*%
%ADD13R,0.0594X0.0756*%
%ADD14R,0.0618X0.0756*%
%ADD15R,0.0480X0.0575*%
%ADD16R,0.0508X0.0587*%
%ADD17R,0.0508X0.0665*%
%ADD18R,0.0524X0.0654*%
%ADD19R,0.0535X0.0697*%
%ADD20R,0.0512X0.0685*%
%ADD21R,0.9583X0.1610*%
%ADD22R,0.9606X0.1646*%
%ADD23C,0.0433*%
%ADD24C,0.1772*%
%ADD25C,0.1299*%
%ADD26C,0.0120*%
%ADD27C,0.0500*%
%ADD28C,0.0660*%
%ADD29C,0.0160*%
%ADD30C,0.1500*%
D10*
X039092Y003176D03*
D11*
X038273Y003178D03*
D12*
G36*
X047660Y004085D02*
X047665Y003236D01*
X045894Y003227D01*
X045889Y004076D01*
X047660Y004085D01*
G37*
D13*
X040074Y003664D03*
X040074Y002751D03*
D14*
X040992Y002751D03*
X040992Y003664D03*
D15*
X038289Y003180D03*
D16*
X039090Y003186D03*
D17*
X040078Y003658D03*
D18*
X041000Y003644D03*
D19*
X040080Y002737D03*
D20*
X040990Y002739D03*
D21*
X031958Y003190D03*
D22*
X051454Y003156D03*
D23*
X003078Y002863D02*
X002212Y003493D01*
X002212Y003572D02*
X003157Y002784D01*
X003196Y004674D02*
X082015Y004674D01*
X082015Y005186D01*
X003708Y005186D01*
X003708Y005698D01*
X082015Y005698D01*
X082015Y006209D01*
X003708Y006209D01*
X003708Y006721D01*
X082015Y006721D01*
X082015Y007233D01*
X003708Y007233D01*
X003708Y007745D01*
X082015Y007745D01*
X082015Y008257D01*
X003708Y008257D01*
X003708Y008769D01*
X082015Y008769D01*
X082015Y009280D01*
X003708Y009280D01*
X003708Y009792D01*
X082015Y009792D01*
X082015Y010304D01*
X003708Y010304D01*
X003708Y010816D01*
X082015Y010816D01*
X082015Y011328D01*
X003708Y011328D01*
X003708Y011839D01*
X082015Y011839D01*
X082015Y012351D01*
X003708Y012351D01*
X003708Y012863D01*
X082015Y012863D01*
X082015Y013375D01*
X003708Y013375D01*
X003708Y013887D01*
X082015Y013887D01*
X082015Y014398D01*
X003708Y014398D01*
X003708Y014910D01*
X082015Y014910D01*
X082015Y015422D01*
X003708Y015422D01*
X003708Y015934D01*
X082015Y015934D01*
X082015Y016446D01*
X003708Y016446D01*
X003708Y016957D01*
X082015Y016957D01*
X082015Y017469D01*
X003708Y017469D01*
X003708Y017981D01*
X082015Y017981D01*
X082015Y018493D01*
X003708Y018493D01*
X003708Y019005D01*
X082015Y019005D01*
X082015Y019517D01*
X003708Y019517D01*
X003708Y020028D01*
X082015Y020028D01*
X082015Y020540D01*
X003708Y020540D01*
X003708Y021052D01*
X082015Y021052D01*
X082015Y021564D01*
X003708Y021564D01*
X003708Y022076D01*
X082015Y022076D01*
X082015Y022587D01*
X003708Y022587D01*
X003708Y023099D01*
X082015Y023099D01*
X082015Y023611D01*
X003708Y023611D01*
X003708Y024123D01*
X082527Y024123D01*
X082015Y024635D02*
X082015Y025146D01*
X003708Y025146D01*
X003708Y025658D01*
X082015Y025658D01*
X082015Y026170D01*
X003708Y026170D01*
X003708Y026682D01*
X082015Y026682D01*
X082015Y027194D01*
X003708Y027194D01*
X003708Y027706D01*
X082015Y027706D01*
X082015Y028217D01*
X003708Y028217D01*
X003708Y028729D01*
X082015Y028729D01*
X082015Y029241D01*
X003708Y029241D01*
X003708Y029753D01*
X082015Y029753D01*
X082015Y030265D01*
X003708Y030265D01*
X003708Y030776D01*
X082015Y030776D01*
X082015Y031288D01*
X003708Y031288D01*
X003708Y031800D01*
X082015Y031800D01*
X082015Y032312D01*
X003708Y032312D01*
X003708Y032824D01*
X082015Y032824D01*
X082015Y033335D01*
X003708Y033335D01*
X003708Y033847D01*
X082015Y033847D01*
X082015Y034359D01*
X003708Y034359D01*
X003708Y034871D01*
X082015Y034871D01*
X082015Y035383D01*
X003708Y035383D01*
X003708Y035894D01*
X082015Y035894D01*
X082015Y036406D01*
X003708Y036406D01*
X003708Y036918D01*
X082015Y036918D01*
X082015Y037430D01*
X003708Y037430D01*
X003708Y037942D01*
X082015Y037942D01*
X082015Y038454D01*
X003708Y038454D01*
X003708Y038965D01*
X082015Y038965D01*
X082015Y039477D01*
X003708Y039477D01*
X003708Y039989D01*
X082015Y039989D01*
X082015Y040501D01*
X003708Y040501D01*
X003708Y041013D01*
X082015Y041013D01*
X082015Y041524D01*
X044495Y041524D01*
X044495Y042036D01*
X082015Y042036D01*
X082015Y042548D01*
X044495Y042548D01*
X044495Y043060D01*
X045046Y043060D01*
X081464Y043060D01*
X082015Y043060D01*
X082015Y043572D01*
X081464Y043572D01*
X044535Y043572D01*
X043983Y043572D01*
X043983Y041524D01*
X003708Y041524D01*
X003708Y042036D01*
X042094Y042036D01*
X041818Y042548D01*
X003708Y042548D01*
X003708Y043060D01*
X041818Y043060D01*
X042094Y043572D01*
X003708Y043572D01*
X003708Y044083D01*
X082527Y044083D01*
X082015Y044595D02*
X082015Y045107D01*
X003708Y045107D01*
X003708Y045619D01*
X082015Y045619D01*
X082015Y046131D01*
X003708Y046131D01*
X003708Y046643D01*
X082015Y046643D01*
X082015Y047154D01*
X003708Y047154D01*
X003708Y047666D01*
X082015Y047666D01*
X082015Y048178D01*
X003708Y048178D01*
X003708Y048690D01*
X082015Y048690D01*
X082015Y049202D01*
X003708Y049202D01*
X003708Y049713D01*
X082015Y049713D01*
X082015Y050225D01*
X003708Y050225D01*
X003708Y050737D01*
X082015Y050737D01*
X082015Y051249D01*
X003708Y051249D01*
X003708Y051761D01*
X082015Y051761D01*
X082015Y052272D01*
X003708Y052272D01*
X003708Y052784D01*
X082015Y052784D01*
X082015Y053296D01*
X003708Y053296D01*
X003708Y053808D01*
X082015Y053808D01*
X082015Y054320D01*
X003708Y054320D01*
X003708Y054831D01*
X082015Y054831D01*
X082015Y055343D01*
X003708Y055343D01*
X003708Y055855D01*
X082015Y055855D01*
X082015Y056367D01*
X003708Y056367D01*
X003708Y056879D01*
X082015Y056879D01*
X082015Y057391D01*
X003708Y057391D01*
X003708Y057902D01*
X082015Y057902D01*
X082015Y058414D01*
X003708Y058414D01*
X003708Y058926D01*
X082015Y058926D01*
X082015Y059438D01*
X003708Y059438D01*
X003708Y059950D01*
X082015Y059950D01*
X082015Y060461D01*
X003708Y060461D01*
X003708Y060973D01*
X082015Y060973D01*
X082015Y061485D01*
X003708Y061485D01*
X003708Y061997D01*
X082015Y061997D01*
X082015Y062509D01*
X003708Y062509D01*
X003708Y063020D01*
X082015Y063020D01*
X082015Y063532D01*
X003708Y063532D01*
X003708Y064044D01*
X082527Y064044D01*
X082015Y064556D02*
X003196Y064556D01*
X003708Y065068D02*
X003708Y065580D01*
X082015Y065580D01*
X082015Y066091D01*
X003708Y066091D01*
X003708Y066603D01*
X082015Y066603D01*
X082015Y067115D01*
X003708Y067115D01*
X003708Y067627D01*
X082015Y067627D01*
X082015Y068139D01*
X003708Y068139D01*
X003708Y068650D01*
X082015Y068650D01*
X082015Y069162D01*
X003708Y069162D01*
X003708Y069674D01*
X082015Y069674D01*
X082015Y070186D01*
X003708Y070186D01*
X003708Y070698D01*
X082015Y070698D01*
X082015Y071209D01*
X003708Y071209D01*
X003708Y071721D01*
X082015Y071721D01*
X082015Y072233D01*
X003708Y072233D01*
X003708Y072745D01*
X082015Y072745D01*
X082015Y073257D01*
X003708Y073257D01*
X003708Y073769D01*
X082015Y073769D01*
X082015Y074280D01*
X003708Y074280D01*
X003708Y074792D01*
X082015Y074792D01*
X082015Y075304D01*
X003708Y075304D01*
X003708Y075816D01*
X082015Y075816D01*
X082015Y076328D01*
X003708Y076328D01*
X003708Y076839D01*
X082015Y076839D01*
X082015Y077351D01*
X003708Y077351D01*
X003708Y077863D01*
X082015Y077863D01*
X082015Y078375D01*
X003708Y078375D01*
X003708Y078887D01*
X082015Y078887D01*
X082015Y079398D01*
X003708Y079398D01*
X003708Y079910D01*
X082015Y079910D01*
X082015Y080422D01*
X003708Y080422D01*
X003708Y080934D01*
X082015Y080934D01*
X082015Y081446D01*
X003708Y081446D01*
X003708Y081957D01*
X082015Y081957D01*
X082015Y082469D01*
X003708Y082469D01*
X003708Y082981D01*
X003728Y082997D02*
X081913Y082989D01*
X081936Y082981D02*
X081936Y083493D01*
X081944Y083501D02*
X003637Y083497D01*
X003629Y083493D02*
X003629Y084005D01*
X003649Y084001D02*
X082298Y083997D01*
X082251Y084005D02*
X082369Y083887D01*
X082645Y082981D01*
X082015Y065068D02*
X082015Y064556D01*
X082015Y065068D02*
X003708Y065068D01*
X003196Y044595D02*
X082015Y044595D01*
X082015Y024635D02*
X003196Y024635D01*
D24*
X002291Y004162D02*
X002291Y064595D01*
X003669Y003178D02*
X036936Y003178D01*
X046779Y003178D02*
X082094Y003178D01*
X083393Y004044D02*
X083393Y081721D01*
D25*
X003669Y003178D02*
X002291Y004162D01*
D26*
X041310Y003686D02*
X041625Y003686D01*
X041625Y003253D01*
X041625Y003213D02*
X041625Y002780D01*
X041625Y002772D02*
X041310Y002772D01*
X082153Y084143D02*
X082154Y084153D01*
X082158Y084163D01*
X082164Y084171D01*
X082173Y084177D01*
X082182Y084181D01*
X082192Y084182D01*
D27*
X083196Y081918D02*
X082999Y081721D01*
X082999Y081524D01*
D28*
X082920Y081564D02*
X082645Y082981D01*
D29*
X046466Y003987D02*
X046454Y003975D01*
X041927Y003975D01*
X041600Y003648D01*
X041580Y003648D01*
X041576Y003664D02*
X041317Y003664D01*
X041576Y003664D02*
X041576Y002802D01*
X041572Y002802D01*
X041576Y002751D02*
X041317Y002751D01*
X039911Y002719D02*
X039584Y002719D01*
X039580Y002770D02*
X039580Y003199D01*
X039584Y003180D02*
X039584Y003625D01*
X039584Y003633D02*
X039911Y003633D01*
X039588Y003180D02*
X039584Y003180D01*
X039273Y003180D01*
X038084Y003168D02*
X038084Y003172D01*
X037785Y003172D01*
D30*
X082094Y003178D02*
X083393Y004044D01*
M02*
