G75*
G70*
%OFA0B0*%
%FSLAX24Y24*%
%IPPOS*%
%LPD*%
%AMOC8*
5,1,8,0,0,1.08239X$1,22.5*
%
%ADD10C,0.0560*%
%ADD11C,0.0400*%
%ADD12C,0.0160*%
%ADD13C,0.0270*%
%ADD14C,0.0200*%
%ADD15C,0.0450*%
%ADD16C,0.0100*%
D10*
X000663Y000650D03*
X001663Y000650D03*
X002663Y000650D03*
X003663Y000650D03*
X004663Y000650D03*
X005663Y000650D03*
X006663Y000650D03*
X007663Y000650D03*
X007663Y005650D03*
X006663Y005650D03*
X005663Y005650D03*
X004663Y005650D03*
X003663Y005650D03*
X002663Y005650D03*
X001663Y005650D03*
X000663Y005650D03*
D11*
X002463Y003850D01*
X003363Y003850D01*
X004963Y003850D01*
D12*
X002463Y003850D02*
X001863Y003250D01*
X001863Y002550D01*
D13*
X001863Y002550D03*
X001163Y001550D03*
X001163Y001150D03*
X003363Y003850D03*
X003463Y004700D03*
X004863Y004700D03*
X004963Y003850D03*
X006413Y002450D03*
X005913Y001350D03*
D14*
X006413Y002450D02*
X006413Y005400D01*
X006663Y005650D01*
D15*
X004563Y003050D03*
X004163Y003050D03*
X003763Y003050D03*
X003763Y002650D03*
X004163Y002650D03*
X004563Y002650D03*
X004563Y002250D03*
X004163Y002250D03*
X003763Y002250D03*
D16*
X002311Y003401D02*
X006183Y003401D01*
X006183Y003302D02*
X002212Y003302D01*
X002114Y003204D02*
X006183Y003204D01*
X006183Y003105D02*
X002073Y003105D01*
X002073Y003163D02*
X002073Y002715D01*
X002088Y002700D01*
X002128Y002603D01*
X002128Y002497D01*
X002088Y002400D01*
X002013Y002325D01*
X001916Y002285D01*
X001811Y002285D01*
X001713Y002325D01*
X001639Y002400D01*
X001598Y002497D01*
X001598Y002603D01*
X001639Y002700D01*
X001653Y002715D01*
X001653Y003337D01*
X002081Y003765D01*
X000607Y005240D01*
X000582Y005240D01*
X000431Y005302D01*
X000316Y005418D01*
X000313Y005424D01*
X000313Y000876D01*
X000316Y000882D01*
X000431Y000998D01*
X000582Y001060D01*
X000745Y001060D01*
X000896Y000998D01*
X001011Y000882D01*
X001073Y000732D01*
X001073Y000568D01*
X001011Y000418D01*
X000896Y000302D01*
X000890Y000300D01*
X001437Y000300D01*
X001431Y000302D01*
X001316Y000418D01*
X001253Y000568D01*
X001253Y000732D01*
X001316Y000882D01*
X001431Y000998D01*
X001582Y001060D01*
X001745Y001060D01*
X001896Y000998D01*
X002011Y000882D01*
X002073Y000732D01*
X002073Y000568D01*
X002011Y000418D01*
X001896Y000302D01*
X001890Y000300D01*
X002437Y000300D01*
X002431Y000302D01*
X002316Y000418D01*
X002253Y000568D01*
X002253Y000732D01*
X002316Y000882D01*
X002431Y000998D01*
X002582Y001060D01*
X002745Y001060D01*
X002896Y000998D01*
X003011Y000882D01*
X003073Y000732D01*
X003073Y000568D01*
X003011Y000418D01*
X002896Y000302D01*
X002890Y000300D01*
X003437Y000300D01*
X003431Y000302D01*
X003316Y000418D01*
X003253Y000568D01*
X003253Y000732D01*
X003316Y000882D01*
X003431Y000998D01*
X003582Y001060D01*
X003745Y001060D01*
X003896Y000998D01*
X004011Y000882D01*
X004073Y000732D01*
X004073Y000568D01*
X004011Y000418D01*
X003896Y000302D01*
X003890Y000300D01*
X004437Y000300D01*
X004431Y000302D01*
X004316Y000418D01*
X004253Y000568D01*
X004253Y000732D01*
X004316Y000882D01*
X004431Y000998D01*
X004582Y001060D01*
X004745Y001060D01*
X004896Y000998D01*
X005011Y000882D01*
X005073Y000732D01*
X005073Y000568D01*
X005011Y000418D01*
X004896Y000302D01*
X004890Y000300D01*
X005437Y000300D01*
X005431Y000302D01*
X005316Y000418D01*
X005253Y000568D01*
X005253Y000732D01*
X005316Y000882D01*
X005431Y000998D01*
X005582Y001060D01*
X005745Y001060D01*
X005896Y000998D01*
X006011Y000882D01*
X006073Y000732D01*
X006073Y000568D01*
X006011Y000418D01*
X005896Y000302D01*
X005890Y000300D01*
X006437Y000300D01*
X006431Y000302D01*
X006316Y000418D01*
X006253Y000568D01*
X006253Y000732D01*
X006316Y000882D01*
X006431Y000998D01*
X006582Y001060D01*
X006745Y001060D01*
X006896Y000998D01*
X007011Y000882D01*
X007073Y000732D01*
X007073Y000568D01*
X007011Y000418D01*
X006896Y000302D01*
X006890Y000300D01*
X007437Y000300D01*
X007431Y000302D01*
X007316Y000418D01*
X007253Y000568D01*
X007253Y000732D01*
X007316Y000882D01*
X007431Y000998D01*
X007582Y001060D01*
X007745Y001060D01*
X007896Y000998D01*
X008011Y000882D01*
X008013Y000876D01*
X008013Y005650D01*
X008007Y005718D01*
X007954Y005844D01*
X007858Y005941D01*
X007732Y005993D01*
X007663Y006000D01*
X006890Y006000D01*
X006896Y005998D01*
X007011Y005882D01*
X007073Y005732D01*
X007073Y005568D01*
X008013Y005568D01*
X008012Y005666D02*
X007073Y005666D01*
X007073Y005568D02*
X007011Y005418D01*
X006896Y005302D01*
X006745Y005240D01*
X006643Y005240D01*
X006643Y002587D01*
X006678Y002503D01*
X006678Y002397D01*
X006638Y002300D01*
X006563Y002225D01*
X006466Y002185D01*
X006361Y002185D01*
X006263Y002225D01*
X006189Y002300D01*
X006148Y002397D01*
X006148Y002503D01*
X006183Y002587D01*
X006183Y005495D01*
X006254Y005566D01*
X006253Y005568D01*
X006253Y005732D01*
X006316Y005882D01*
X006431Y005998D01*
X006437Y006000D01*
X005890Y006000D01*
X005896Y005998D01*
X006011Y005882D01*
X006073Y005732D01*
X006073Y005568D01*
X006254Y005568D01*
X006253Y005666D02*
X006073Y005666D01*
X006073Y005568D02*
X006011Y005418D01*
X005896Y005302D01*
X005745Y005240D01*
X005582Y005240D01*
X005431Y005302D01*
X005316Y005418D01*
X005253Y005568D01*
X005253Y005732D01*
X005316Y005882D01*
X005431Y005998D01*
X005437Y006000D01*
X004890Y006000D01*
X004896Y005998D01*
X005011Y005882D01*
X005073Y005732D01*
X005073Y005568D01*
X005254Y005568D01*
X005253Y005666D02*
X005073Y005666D01*
X005073Y005568D02*
X005011Y005418D01*
X004896Y005302D01*
X004745Y005240D01*
X004582Y005240D01*
X004431Y005302D01*
X004316Y005418D01*
X004253Y005568D01*
X004253Y005732D01*
X004316Y005882D01*
X004431Y005998D01*
X004437Y006000D01*
X003890Y006000D01*
X003896Y005998D01*
X004011Y005882D01*
X004073Y005732D01*
X004073Y005568D01*
X004254Y005568D01*
X004253Y005666D02*
X004073Y005666D01*
X004073Y005568D02*
X004011Y005418D01*
X003896Y005302D01*
X003745Y005240D01*
X003582Y005240D01*
X003431Y005302D01*
X003316Y005418D01*
X003253Y005568D01*
X003253Y005732D01*
X003316Y005882D01*
X003431Y005998D01*
X003437Y006000D01*
X002890Y006000D01*
X002896Y005998D01*
X003011Y005882D01*
X003073Y005732D01*
X003073Y005568D01*
X003254Y005568D01*
X003253Y005666D02*
X003073Y005666D01*
X003073Y005568D02*
X003011Y005418D01*
X002896Y005302D01*
X002745Y005240D01*
X002582Y005240D01*
X002431Y005302D01*
X002316Y005418D01*
X002253Y005568D01*
X002253Y005732D01*
X002316Y005882D01*
X002431Y005998D01*
X002437Y006000D01*
X000890Y006000D01*
X000896Y005998D01*
X001011Y005882D01*
X001073Y005732D01*
X001073Y005707D01*
X002600Y004180D01*
X005029Y004180D01*
X005150Y004130D01*
X005243Y004037D01*
X005293Y003916D01*
X005293Y003784D01*
X005243Y003663D01*
X005150Y003570D01*
X005029Y003520D01*
X002430Y003520D01*
X002073Y003163D01*
X002073Y003007D02*
X006183Y003007D01*
X006183Y002908D02*
X002073Y002908D01*
X002073Y002810D02*
X006183Y002810D01*
X006183Y002711D02*
X002077Y002711D01*
X002124Y002613D02*
X006183Y002613D01*
X006153Y002514D02*
X002128Y002514D01*
X002094Y002416D02*
X006148Y002416D01*
X006182Y002317D02*
X001993Y002317D01*
X001733Y002317D02*
X000313Y002317D01*
X000313Y002219D02*
X006280Y002219D01*
X006547Y002219D02*
X008013Y002219D01*
X008013Y002317D02*
X006645Y002317D01*
X006678Y002416D02*
X008013Y002416D01*
X008013Y002514D02*
X006674Y002514D01*
X006643Y002613D02*
X008013Y002613D01*
X008013Y002711D02*
X006643Y002711D01*
X006643Y002810D02*
X008013Y002810D01*
X008013Y002908D02*
X006643Y002908D01*
X006643Y003007D02*
X008013Y003007D01*
X008013Y003105D02*
X006643Y003105D01*
X006643Y003204D02*
X008013Y003204D01*
X008013Y003302D02*
X006643Y003302D01*
X006643Y003401D02*
X008013Y003401D01*
X008013Y003499D02*
X006643Y003499D01*
X006643Y003598D02*
X008013Y003598D01*
X008013Y003696D02*
X006643Y003696D01*
X006643Y003795D02*
X008013Y003795D01*
X008013Y003893D02*
X006643Y003893D01*
X006643Y003992D02*
X008013Y003992D01*
X008013Y004090D02*
X006643Y004090D01*
X006643Y004189D02*
X008013Y004189D01*
X008013Y004287D02*
X006643Y004287D01*
X006643Y004386D02*
X008013Y004386D01*
X008013Y004484D02*
X006643Y004484D01*
X006643Y004583D02*
X008013Y004583D01*
X008013Y004681D02*
X006643Y004681D01*
X006643Y004780D02*
X008013Y004780D01*
X008013Y004878D02*
X006643Y004878D01*
X006643Y004977D02*
X008013Y004977D01*
X008013Y005075D02*
X006643Y005075D01*
X006643Y005174D02*
X008013Y005174D01*
X008013Y005272D02*
X006822Y005272D01*
X006964Y005371D02*
X008013Y005371D01*
X008013Y005469D02*
X007032Y005469D01*
X007060Y005765D02*
X007987Y005765D01*
X007936Y005863D02*
X007019Y005863D01*
X006932Y005962D02*
X007808Y005962D01*
X006395Y005962D02*
X005932Y005962D01*
X006019Y005863D02*
X006308Y005863D01*
X006267Y005765D02*
X006060Y005765D01*
X006032Y005469D02*
X006183Y005469D01*
X006183Y005371D02*
X005964Y005371D01*
X005822Y005272D02*
X006183Y005272D01*
X006183Y005174D02*
X001607Y005174D01*
X001508Y005272D02*
X002504Y005272D01*
X002363Y005371D02*
X001410Y005371D01*
X001311Y005469D02*
X002295Y005469D01*
X002254Y005568D02*
X001213Y005568D01*
X001114Y005666D02*
X002253Y005666D01*
X002267Y005765D02*
X001060Y005765D01*
X001019Y005863D02*
X002308Y005863D01*
X002395Y005962D02*
X000932Y005962D01*
X000363Y005371D02*
X000313Y005371D01*
X000313Y005272D02*
X000504Y005272D01*
X000673Y005174D02*
X000313Y005174D01*
X000313Y005075D02*
X000772Y005075D01*
X000870Y004977D02*
X000313Y004977D01*
X000313Y004878D02*
X000969Y004878D01*
X001067Y004780D02*
X000313Y004780D01*
X000313Y004681D02*
X001166Y004681D01*
X001264Y004583D02*
X000313Y004583D01*
X000313Y004484D02*
X001363Y004484D01*
X001461Y004386D02*
X000313Y004386D01*
X000313Y004287D02*
X001560Y004287D01*
X001658Y004189D02*
X000313Y004189D01*
X000313Y004090D02*
X001757Y004090D01*
X001855Y003992D02*
X000313Y003992D01*
X000313Y003893D02*
X001954Y003893D01*
X002052Y003795D02*
X000313Y003795D01*
X000313Y003696D02*
X002012Y003696D01*
X001914Y003598D02*
X000313Y003598D01*
X000313Y003499D02*
X001815Y003499D01*
X001717Y003401D02*
X000313Y003401D01*
X000313Y003302D02*
X001653Y003302D01*
X001653Y003204D02*
X000313Y003204D01*
X000313Y003105D02*
X001653Y003105D01*
X001653Y003007D02*
X000313Y003007D01*
X000313Y002908D02*
X001653Y002908D01*
X001653Y002810D02*
X000313Y002810D01*
X000313Y002711D02*
X001650Y002711D01*
X001602Y002613D02*
X000313Y002613D01*
X000313Y002514D02*
X001598Y002514D01*
X001632Y002416D02*
X000313Y002416D01*
X000313Y002120D02*
X008013Y002120D01*
X008013Y002022D02*
X000313Y002022D01*
X000313Y001923D02*
X008013Y001923D01*
X008013Y001825D02*
X000313Y001825D01*
X000313Y001726D02*
X008013Y001726D01*
X008013Y001628D02*
X000313Y001628D01*
X000313Y001529D02*
X008013Y001529D01*
X008013Y001431D02*
X000313Y001431D01*
X000313Y001332D02*
X008013Y001332D01*
X008013Y001234D02*
X000313Y001234D01*
X000313Y001135D02*
X008013Y001135D01*
X008013Y001037D02*
X007802Y001037D01*
X007955Y000938D02*
X008013Y000938D01*
X007525Y001037D02*
X006802Y001037D01*
X006955Y000938D02*
X007372Y000938D01*
X007298Y000840D02*
X007029Y000840D01*
X007069Y000741D02*
X007257Y000741D01*
X007253Y000643D02*
X007073Y000643D01*
X007063Y000544D02*
X007263Y000544D01*
X007304Y000446D02*
X007022Y000446D01*
X006940Y000347D02*
X007387Y000347D01*
X006525Y001037D02*
X005802Y001037D01*
X005955Y000938D02*
X006372Y000938D01*
X006298Y000840D02*
X006029Y000840D01*
X006069Y000741D02*
X006257Y000741D01*
X006253Y000643D02*
X006073Y000643D01*
X006063Y000544D02*
X006263Y000544D01*
X006304Y000446D02*
X006022Y000446D01*
X005940Y000347D02*
X006387Y000347D01*
X005525Y001037D02*
X004802Y001037D01*
X004955Y000938D02*
X005372Y000938D01*
X005298Y000840D02*
X005029Y000840D01*
X005069Y000741D02*
X005257Y000741D01*
X005253Y000643D02*
X005073Y000643D01*
X005063Y000544D02*
X005263Y000544D01*
X005304Y000446D02*
X005022Y000446D01*
X004940Y000347D02*
X005387Y000347D01*
X004525Y001037D02*
X003802Y001037D01*
X003955Y000938D02*
X004372Y000938D01*
X004298Y000840D02*
X004029Y000840D01*
X004069Y000741D02*
X004257Y000741D01*
X004253Y000643D02*
X004073Y000643D01*
X004063Y000544D02*
X004263Y000544D01*
X004304Y000446D02*
X004022Y000446D01*
X003940Y000347D02*
X004387Y000347D01*
X003525Y001037D02*
X002802Y001037D01*
X002955Y000938D02*
X003372Y000938D01*
X003298Y000840D02*
X003029Y000840D01*
X003069Y000741D02*
X003257Y000741D01*
X003253Y000643D02*
X003073Y000643D01*
X003063Y000544D02*
X003263Y000544D01*
X003304Y000446D02*
X003022Y000446D01*
X002940Y000347D02*
X003387Y000347D01*
X002525Y001037D02*
X001802Y001037D01*
X001955Y000938D02*
X002372Y000938D01*
X002298Y000840D02*
X002029Y000840D01*
X002069Y000741D02*
X002257Y000741D01*
X002253Y000643D02*
X002073Y000643D01*
X002063Y000544D02*
X002263Y000544D01*
X002304Y000446D02*
X002022Y000446D01*
X001940Y000347D02*
X002387Y000347D01*
X001525Y001037D02*
X000802Y001037D01*
X000955Y000938D02*
X001372Y000938D01*
X001298Y000840D02*
X001029Y000840D01*
X001069Y000741D02*
X001257Y000741D01*
X001253Y000643D02*
X001073Y000643D01*
X001063Y000544D02*
X001263Y000544D01*
X001304Y000446D02*
X001022Y000446D01*
X000940Y000347D02*
X001387Y000347D01*
X000525Y001037D02*
X000313Y001037D01*
X000313Y000938D02*
X000372Y000938D01*
X002409Y003499D02*
X006183Y003499D01*
X006183Y003598D02*
X005178Y003598D01*
X005257Y003696D02*
X006183Y003696D01*
X006183Y003795D02*
X005293Y003795D01*
X005293Y003893D02*
X006183Y003893D01*
X006183Y003992D02*
X005262Y003992D01*
X005190Y004090D02*
X006183Y004090D01*
X006183Y004189D02*
X002592Y004189D01*
X002493Y004287D02*
X006183Y004287D01*
X006183Y004386D02*
X002395Y004386D01*
X002296Y004484D02*
X006183Y004484D01*
X006183Y004583D02*
X002198Y004583D01*
X002099Y004681D02*
X006183Y004681D01*
X006183Y004780D02*
X002001Y004780D01*
X001902Y004878D02*
X006183Y004878D01*
X006183Y004977D02*
X001804Y004977D01*
X001705Y005075D02*
X006183Y005075D01*
X005504Y005272D02*
X004822Y005272D01*
X004964Y005371D02*
X005363Y005371D01*
X005295Y005469D02*
X005032Y005469D01*
X005060Y005765D02*
X005267Y005765D01*
X005308Y005863D02*
X005019Y005863D01*
X004932Y005962D02*
X005395Y005962D01*
X004504Y005272D02*
X003822Y005272D01*
X003964Y005371D02*
X004363Y005371D01*
X004295Y005469D02*
X004032Y005469D01*
X004060Y005765D02*
X004267Y005765D01*
X004308Y005863D02*
X004019Y005863D01*
X003932Y005962D02*
X004395Y005962D01*
X003504Y005272D02*
X002822Y005272D01*
X002964Y005371D02*
X003363Y005371D01*
X003295Y005469D02*
X003032Y005469D01*
X003060Y005765D02*
X003267Y005765D01*
X003308Y005863D02*
X003019Y005863D01*
X002932Y005962D02*
X003395Y005962D01*
M02*
