G75*
G70*
%OFA0B0*%
%FSLAX24Y24*%
%IPPOS*%
%LPD*%
%AMOC8*
5,1,8,0,0,1.08239X$1,22.5*
%
%ADD10R,0.0493X0.0158*%
%ADD11R,0.0158X0.0493*%
%ADD12C,0.0059*%
%ADD13C,0.0600*%
%ADD14R,0.0394X0.0316*%
%ADD15R,0.0316X0.0394*%
%ADD16R,0.0394X0.0434*%
%ADD17R,0.0394X0.0473*%
%ADD18R,0.0512X0.0355*%
%ADD19R,0.0749X0.0670*%
D10*
X003218Y002059D03*
X003218Y002256D03*
X003218Y002453D03*
X003218Y002650D03*
X003218Y002847D03*
X003218Y003044D03*
X003218Y003241D03*
X005108Y003241D03*
X005108Y003044D03*
X005108Y002847D03*
X005108Y002650D03*
X005108Y002453D03*
X005108Y002256D03*
X005108Y002059D03*
D11*
X004754Y001705D03*
X004557Y001705D03*
X004360Y001705D03*
X004163Y001705D03*
X003966Y001705D03*
X003770Y001705D03*
X003573Y001705D03*
X003573Y003595D03*
X003770Y003595D03*
X003966Y003595D03*
X004163Y003595D03*
X004360Y003595D03*
X004557Y003595D03*
X004754Y003595D03*
D12*
X004754Y003241D02*
X004754Y002059D01*
X003573Y002059D01*
X003573Y003142D01*
X003598Y003146D01*
X003621Y003156D01*
X003642Y003172D01*
X003657Y003192D01*
X003667Y003215D01*
X003671Y003241D01*
X004754Y003241D01*
X004754Y003200D02*
X003661Y003200D01*
X003578Y003143D02*
X004754Y003143D01*
X004754Y003085D02*
X003573Y003085D01*
X003573Y003028D02*
X004754Y003028D01*
X004754Y002970D02*
X003573Y002970D01*
X003573Y002913D02*
X004754Y002913D01*
X004754Y002855D02*
X003573Y002855D01*
X003573Y002798D02*
X004754Y002798D01*
X004754Y002740D02*
X003573Y002740D01*
X003573Y002682D02*
X004754Y002682D01*
X004754Y002625D02*
X003573Y002625D01*
X003573Y002567D02*
X004754Y002567D01*
X004754Y002510D02*
X003573Y002510D01*
X003573Y002452D02*
X004754Y002452D01*
X004754Y002395D02*
X003573Y002395D01*
X003573Y002337D02*
X004754Y002337D01*
X004754Y002280D02*
X003573Y002280D01*
X003573Y002222D02*
X004754Y002222D01*
X004754Y002164D02*
X003573Y002164D01*
X003573Y002107D02*
X004754Y002107D01*
D13*
X000663Y000650D03*
X001663Y000650D03*
X002663Y000650D03*
X003663Y000650D03*
X004663Y000650D03*
X005663Y000650D03*
X006663Y000650D03*
X007663Y000650D03*
X007663Y005650D03*
X006663Y005650D03*
X005663Y005650D03*
X004663Y005650D03*
X003663Y005650D03*
X002663Y005650D03*
X001663Y005650D03*
X000663Y005650D03*
D14*
X000763Y002806D03*
X000763Y002294D03*
X002463Y002294D03*
X002463Y002806D03*
X006163Y004144D03*
X006163Y004656D03*
X006263Y002156D03*
X006263Y001644D03*
D15*
X005619Y001350D03*
X005107Y001350D03*
X002869Y001550D03*
X002357Y001550D03*
X001869Y002050D03*
X001357Y002050D03*
X001707Y003900D03*
X002219Y003900D03*
X002219Y004650D03*
X001707Y004650D03*
X006907Y004150D03*
X007419Y004150D03*
D16*
X007484Y003435D03*
X007484Y002765D03*
D17*
X006342Y003100D03*
D18*
X004863Y004296D03*
X004863Y005004D03*
X003463Y005004D03*
X003463Y004296D03*
D19*
X000763Y003749D03*
X000763Y004851D03*
M02*
