G75*
G70*
%OFA0B0*%
%FSLAX24Y24*%
%IPPOS*%
%LPD*%
%AMOC8*
5,1,8,0,0,1.08239X$1,22.5*
%
%ADD10C,0.0070*%
%ADD11C,0.0050*%
D10*
X000573Y001060D02*
X000573Y001173D01*
X000658Y001117D02*
X000658Y001060D01*
X000743Y001060D02*
X000573Y001060D01*
X000743Y001060D02*
X000743Y001173D01*
X000743Y001281D02*
X000573Y001281D01*
X000573Y001394D02*
X000743Y001394D01*
X000687Y001502D02*
X000743Y001559D01*
X000687Y001615D01*
X000573Y001615D01*
X000658Y001615D02*
X000658Y001502D01*
X000687Y001502D02*
X000573Y001502D01*
X000573Y001394D02*
X000743Y001281D01*
X000883Y001025D02*
X000883Y002351D01*
X000743Y002278D02*
X000743Y002165D01*
X000573Y002165D01*
X000573Y002278D01*
X000658Y002222D02*
X000658Y002165D01*
X000573Y002057D02*
X000573Y001944D01*
X000743Y001944D01*
X000715Y001836D02*
X000687Y001836D01*
X000658Y001808D01*
X000658Y001723D01*
X000573Y001723D02*
X000573Y001808D01*
X000602Y001836D01*
X000630Y001836D01*
X000658Y001808D01*
X000715Y001836D02*
X000743Y001808D01*
X000743Y001723D01*
X000573Y001723D01*
X001573Y001615D02*
X001573Y001502D01*
X001573Y001559D02*
X001743Y001559D01*
X001687Y001502D01*
X001715Y001394D02*
X001743Y001366D01*
X001743Y001309D01*
X001715Y001281D01*
X001687Y001281D01*
X001658Y001309D01*
X001658Y001366D01*
X001630Y001394D01*
X001602Y001394D01*
X001573Y001366D01*
X001573Y001309D01*
X001602Y001281D01*
X001573Y001173D02*
X001743Y001173D01*
X001687Y001117D01*
X001743Y001060D01*
X001573Y001060D01*
X002573Y001060D02*
X002743Y001060D01*
X002687Y001117D01*
X002743Y001173D01*
X002573Y001173D01*
X002602Y001281D02*
X002573Y001309D01*
X002573Y001366D01*
X002602Y001394D01*
X002630Y001394D01*
X002658Y001366D01*
X002658Y001309D01*
X002687Y001281D01*
X002715Y001281D01*
X002743Y001309D01*
X002743Y001366D01*
X002715Y001394D01*
X002715Y001502D02*
X002743Y001530D01*
X002743Y001587D01*
X002715Y001615D01*
X002687Y001615D01*
X002573Y001502D01*
X002573Y001615D01*
X003573Y001587D02*
X003573Y001530D01*
X003602Y001502D01*
X003658Y001559D02*
X003658Y001587D01*
X003630Y001615D01*
X003602Y001615D01*
X003573Y001587D01*
X003658Y001587D02*
X003687Y001615D01*
X003715Y001615D01*
X003743Y001587D01*
X003743Y001530D01*
X003715Y001502D01*
X003715Y001394D02*
X003743Y001366D01*
X003743Y001309D01*
X003715Y001281D01*
X003687Y001281D01*
X003658Y001309D01*
X003658Y001366D01*
X003630Y001394D01*
X003602Y001394D01*
X003573Y001366D01*
X003573Y001309D01*
X003602Y001281D01*
X003573Y001173D02*
X003743Y001173D01*
X003687Y001117D01*
X003743Y001060D01*
X003573Y001060D01*
X004573Y001060D02*
X004743Y001060D01*
X004743Y001145D01*
X004715Y001173D01*
X004658Y001173D01*
X004630Y001145D01*
X004630Y001060D01*
X004630Y001117D02*
X004573Y001173D01*
X004573Y001281D02*
X004573Y001394D01*
X004658Y001338D02*
X004658Y001281D01*
X004743Y001281D02*
X004573Y001281D01*
X004743Y001281D02*
X004743Y001394D01*
X004715Y001502D02*
X004687Y001502D01*
X004658Y001530D01*
X004658Y001587D01*
X004630Y001615D01*
X004602Y001615D01*
X004573Y001587D01*
X004573Y001530D01*
X004602Y001502D01*
X004715Y001502D02*
X004743Y001530D01*
X004743Y001587D01*
X004715Y001615D01*
X004743Y001723D02*
X004573Y001723D01*
X004573Y001836D01*
X004658Y001780D02*
X004658Y001723D01*
X004743Y001723D02*
X004743Y001836D01*
X004743Y001944D02*
X004743Y002057D01*
X004743Y002001D02*
X004573Y002001D01*
X004883Y002130D02*
X004883Y001025D01*
X005573Y001088D02*
X005602Y001060D01*
X005573Y001088D02*
X005573Y001145D01*
X005602Y001173D01*
X005630Y001173D01*
X005658Y001145D01*
X005658Y001088D01*
X005687Y001060D01*
X005715Y001060D01*
X005743Y001088D01*
X005743Y001145D01*
X005715Y001173D01*
X005743Y001281D02*
X005573Y001281D01*
X005573Y001394D01*
X005573Y001502D02*
X005573Y001615D01*
X005658Y001559D02*
X005658Y001502D01*
X005743Y001502D02*
X005573Y001502D01*
X005743Y001502D02*
X005743Y001615D01*
X005743Y001723D02*
X005573Y001723D01*
X005573Y001836D01*
X005658Y001780D02*
X005658Y001723D01*
X005743Y001723D02*
X005743Y001836D01*
X005743Y001944D02*
X005743Y002029D01*
X005715Y002057D01*
X005658Y002057D01*
X005630Y002029D01*
X005630Y001944D01*
X005573Y001944D02*
X005743Y001944D01*
X005883Y002130D02*
X005883Y001025D01*
X006573Y001088D02*
X006602Y001060D01*
X006573Y001088D02*
X006573Y001145D01*
X006602Y001173D01*
X006630Y001173D01*
X006658Y001145D01*
X006658Y001088D01*
X006687Y001060D01*
X006715Y001060D01*
X006743Y001088D01*
X006743Y001145D01*
X006715Y001173D01*
X006743Y001281D02*
X006743Y001394D01*
X006743Y001338D02*
X006573Y001338D01*
X006573Y001502D02*
X006573Y001615D01*
X006658Y001559D02*
X006658Y001502D01*
X006743Y001502D02*
X006573Y001502D01*
X006743Y001502D02*
X006743Y001615D01*
X006743Y001723D02*
X006573Y001723D01*
X006630Y001723D02*
X006630Y001808D01*
X006658Y001836D01*
X006715Y001836D01*
X006743Y001808D01*
X006743Y001723D01*
X007573Y001763D02*
X007573Y001649D01*
X007743Y001649D01*
X007743Y001763D01*
X007658Y001706D02*
X007658Y001649D01*
X007658Y001542D02*
X007630Y001513D01*
X007630Y001428D01*
X007573Y001428D02*
X007743Y001428D01*
X007743Y001513D01*
X007715Y001542D01*
X007658Y001542D01*
X007630Y001485D02*
X007573Y001542D01*
X007573Y001338D02*
X007573Y001281D01*
X007573Y001309D02*
X007743Y001309D01*
X007743Y001281D02*
X007743Y001338D01*
X007715Y001173D02*
X007602Y001173D01*
X007573Y001145D01*
X007573Y001060D01*
X007743Y001060D01*
X007743Y001145D01*
X007715Y001173D01*
X007715Y001870D02*
X007602Y001870D01*
X007573Y001899D01*
X007573Y001955D01*
X007602Y001984D01*
X007715Y001984D02*
X007743Y001955D01*
X007743Y001899D01*
X007715Y001870D01*
X007743Y002091D02*
X007743Y002205D01*
X007743Y002148D02*
X007573Y002148D01*
X007573Y002312D02*
X007573Y002369D01*
X007573Y002341D02*
X007743Y002341D01*
X007743Y002369D02*
X007743Y002312D01*
X007715Y002460D02*
X007602Y002460D01*
X007573Y002488D01*
X007573Y002545D01*
X007602Y002573D01*
X007715Y002573D01*
X007743Y002545D01*
X007743Y002488D01*
X007715Y002460D01*
X007743Y002681D02*
X007573Y002681D01*
X007573Y002794D02*
X007743Y002794D01*
X007743Y002681D02*
X007573Y002794D01*
X006615Y004220D02*
X006615Y004333D01*
X006615Y004277D02*
X006558Y004333D01*
X006530Y004333D01*
X006431Y004305D02*
X006431Y004248D01*
X006403Y004220D01*
X006346Y004220D01*
X006318Y004277D02*
X006431Y004277D01*
X006431Y004305D02*
X006403Y004333D01*
X006346Y004333D01*
X006318Y004305D01*
X006318Y004277D01*
X006210Y004333D02*
X006210Y004163D01*
X006210Y004220D02*
X006125Y004220D01*
X006097Y004248D01*
X006097Y004305D01*
X006125Y004333D01*
X006210Y004333D01*
X005989Y004333D02*
X005989Y004220D01*
X005989Y004277D02*
X005932Y004333D01*
X005904Y004333D01*
X005805Y004248D02*
X005776Y004277D01*
X005691Y004277D01*
X005691Y004305D02*
X005691Y004220D01*
X005776Y004220D01*
X005805Y004248D01*
X005776Y004333D02*
X005720Y004333D01*
X005691Y004305D01*
X005584Y004333D02*
X005499Y004333D01*
X005470Y004305D01*
X005470Y004248D01*
X005499Y004220D01*
X005584Y004220D01*
X005584Y004163D02*
X005584Y004333D01*
X005363Y004248D02*
X005363Y004220D01*
X005334Y004220D01*
X005334Y004248D01*
X005363Y004248D01*
X005252Y004248D02*
X005224Y004220D01*
X005167Y004220D01*
X005139Y004248D01*
X005139Y004305D01*
X005167Y004333D01*
X005224Y004333D01*
X005252Y004305D01*
X005252Y004248D01*
X005031Y004220D02*
X005031Y004333D01*
X005031Y004277D02*
X004975Y004333D01*
X004946Y004333D01*
X004847Y004305D02*
X004847Y004248D01*
X004819Y004220D01*
X004734Y004220D01*
X004734Y004192D02*
X004734Y004333D01*
X004819Y004333D01*
X004847Y004305D01*
X004790Y004163D02*
X004762Y004163D01*
X004734Y004192D01*
X004626Y004220D02*
X004513Y004390D01*
X004405Y004333D02*
X004405Y004248D01*
X004377Y004220D01*
X004348Y004248D01*
X004320Y004220D01*
X004292Y004248D01*
X004292Y004333D01*
X004184Y004333D02*
X004156Y004333D01*
X004156Y004220D01*
X004184Y004220D02*
X004128Y004220D01*
X004037Y004220D02*
X004037Y004390D01*
X003952Y004333D02*
X004037Y004277D01*
X003952Y004220D01*
X003853Y004220D02*
X003796Y004220D01*
X003824Y004220D02*
X003824Y004333D01*
X003853Y004333D01*
X003824Y004390D02*
X003824Y004419D01*
X003705Y004220D02*
X003592Y004390D01*
X003484Y004305D02*
X003456Y004333D01*
X003371Y004333D01*
X003399Y004277D02*
X003371Y004248D01*
X003399Y004220D01*
X003484Y004220D01*
X003456Y004277D02*
X003484Y004305D01*
X003456Y004277D02*
X003399Y004277D01*
X003263Y004333D02*
X003207Y004333D01*
X003235Y004362D02*
X003235Y004248D01*
X003207Y004220D01*
X003116Y004248D02*
X003116Y004305D01*
X003088Y004333D01*
X003031Y004333D01*
X003003Y004305D01*
X003003Y004277D01*
X003116Y004277D01*
X003116Y004248D02*
X003088Y004220D01*
X003031Y004220D01*
X002895Y004220D02*
X002810Y004220D01*
X002782Y004248D01*
X002782Y004305D01*
X002810Y004333D01*
X002895Y004333D01*
X002895Y004163D01*
X002674Y004220D02*
X002589Y004220D01*
X002561Y004248D01*
X002589Y004277D01*
X002646Y004277D01*
X002674Y004305D01*
X002646Y004333D01*
X002561Y004333D01*
X002453Y004333D02*
X002396Y004333D01*
X002425Y004362D02*
X002425Y004248D01*
X002396Y004220D01*
X002306Y004220D02*
X002249Y004220D01*
X002277Y004220D02*
X002277Y004333D01*
X002306Y004333D01*
X002277Y004390D02*
X002277Y004419D01*
X002158Y004305D02*
X002130Y004333D01*
X002045Y004333D01*
X001938Y004277D02*
X001852Y004333D01*
X001938Y004277D02*
X001852Y004220D01*
X001938Y004220D02*
X001938Y004390D01*
X002045Y004220D02*
X002130Y004220D01*
X002158Y004248D01*
X002158Y004305D01*
X001753Y004675D02*
X001725Y004647D01*
X001612Y004647D01*
X001583Y004675D01*
X001583Y004732D01*
X001612Y004760D01*
X001668Y004760D01*
X001668Y004704D01*
X001725Y004760D02*
X001753Y004732D01*
X001753Y004675D01*
X001753Y004868D02*
X001583Y004868D01*
X001583Y004981D02*
X001753Y004981D01*
X001753Y005089D02*
X001753Y005174D01*
X001725Y005202D01*
X001612Y005202D01*
X001583Y005174D01*
X001583Y005089D01*
X001753Y005089D01*
X001583Y004981D02*
X001753Y004868D01*
X002583Y004868D02*
X002697Y004981D01*
X002725Y004981D01*
X002753Y004953D01*
X002753Y004896D01*
X002725Y004868D01*
X002583Y004868D02*
X002583Y004981D01*
X002583Y005089D02*
X002583Y005174D01*
X002612Y005202D01*
X002640Y005202D01*
X002668Y005174D01*
X002668Y005089D01*
X002583Y005089D02*
X002753Y005089D01*
X002753Y005174D01*
X002725Y005202D01*
X002697Y005202D01*
X002668Y005174D01*
X003583Y005202D02*
X003697Y005202D01*
X003753Y005146D01*
X003697Y005089D01*
X003583Y005089D01*
X003668Y005089D02*
X003668Y005202D01*
X003697Y004981D02*
X003725Y004981D01*
X003753Y004953D01*
X003753Y004896D01*
X003725Y004868D01*
X003697Y004981D02*
X003583Y004868D01*
X003583Y004981D01*
X004156Y004419D02*
X004156Y004390D01*
X004583Y004868D02*
X004583Y004981D01*
X004583Y004925D02*
X004753Y004925D01*
X004697Y004868D01*
X004697Y005089D02*
X004583Y005089D01*
X004668Y005089D02*
X004668Y005202D01*
X004697Y005202D02*
X004583Y005202D01*
X004697Y005202D02*
X004753Y005146D01*
X004697Y005089D01*
X005583Y005089D02*
X005583Y005174D01*
X005612Y005202D01*
X005640Y005202D01*
X005668Y005174D01*
X005668Y005089D01*
X005583Y005089D02*
X005753Y005089D01*
X005753Y005174D01*
X005725Y005202D01*
X005697Y005202D01*
X005668Y005174D01*
X005583Y004981D02*
X005583Y004868D01*
X005583Y004925D02*
X005753Y004925D01*
X005697Y004868D01*
X006583Y004868D02*
X006583Y004953D01*
X006612Y004981D01*
X006725Y004981D01*
X006753Y004953D01*
X006753Y004868D01*
X006583Y004868D01*
X006640Y004760D02*
X006753Y004760D01*
X006640Y004760D02*
X006583Y004704D01*
X006640Y004647D01*
X006753Y004647D01*
X006753Y005089D02*
X006583Y005089D01*
X006583Y005174D01*
X006612Y005202D01*
X006725Y005202D01*
X006753Y005174D01*
X006753Y005089D01*
X007583Y005089D02*
X007583Y005174D01*
X007612Y005202D01*
X007725Y005202D01*
X007753Y005174D01*
X007753Y005089D01*
X007583Y005089D01*
X007583Y004981D02*
X007753Y004981D01*
X007753Y004868D02*
X007583Y004868D01*
X007612Y004760D02*
X007583Y004732D01*
X007583Y004675D01*
X007612Y004647D01*
X007725Y004647D01*
X007753Y004675D01*
X007753Y004732D01*
X007725Y004760D01*
X007668Y004760D02*
X007668Y004704D01*
X007668Y004760D02*
X007612Y004760D01*
X007753Y004868D02*
X007583Y004981D01*
X000753Y004953D02*
X000753Y004896D01*
X000725Y004868D01*
X000612Y004868D01*
X000583Y004896D01*
X000583Y004953D01*
X000612Y004981D01*
X000725Y004981D01*
X000753Y004953D01*
X000753Y005089D02*
X000753Y005202D01*
X000753Y005146D02*
X000583Y005146D01*
X000583Y004760D02*
X000753Y004760D01*
X000697Y004704D01*
X000753Y004647D01*
X000583Y004647D01*
X000640Y004539D02*
X000753Y004539D01*
X000640Y004539D02*
X000583Y004483D01*
X000640Y004426D01*
X000753Y004426D01*
D11*
X002181Y003870D02*
X002181Y003775D01*
X002244Y003775D02*
X002244Y003870D01*
X002213Y003902D01*
X002181Y003870D01*
X002244Y003870D02*
X002276Y003902D01*
X002308Y003902D01*
X002308Y003775D01*
X002402Y003807D02*
X002402Y003870D01*
X002434Y003902D01*
X002497Y003902D01*
X002529Y003870D01*
X002529Y003807D01*
X002497Y003775D01*
X002434Y003775D01*
X002402Y003807D01*
X002623Y003775D02*
X002718Y003775D01*
X002750Y003807D01*
X002750Y003870D01*
X002718Y003902D01*
X002623Y003902D01*
X002829Y003807D02*
X002829Y003775D01*
X002860Y003775D01*
X002860Y003807D01*
X002829Y003807D01*
X002955Y003838D02*
X003050Y003838D01*
X003081Y003807D01*
X003050Y003775D01*
X002955Y003775D01*
X002955Y003870D01*
X002986Y003902D01*
X003050Y003902D01*
X003197Y003902D02*
X003197Y003775D01*
X003229Y003775D02*
X003165Y003775D01*
X003197Y003902D02*
X003229Y003902D01*
X003197Y003965D02*
X003197Y003997D01*
X003323Y003965D02*
X003323Y003775D01*
X003418Y003775D01*
X003450Y003807D01*
X003450Y003870D01*
X003418Y003902D01*
X003323Y003902D01*
X003544Y003870D02*
X003544Y003775D01*
X003544Y003870D02*
X003576Y003902D01*
X003671Y003902D01*
X003671Y003775D01*
X003755Y003775D02*
X003818Y003775D01*
X003786Y003775D02*
X003786Y003965D01*
X003755Y003965D02*
X003818Y003965D01*
X003912Y003870D02*
X004039Y003870D01*
X004133Y003870D02*
X004133Y003807D01*
X004165Y003775D01*
X004260Y003775D01*
X004260Y003712D02*
X004260Y003902D01*
X004165Y003902D01*
X004133Y003870D01*
X004354Y003870D02*
X004354Y003775D01*
X004449Y003775D01*
X004481Y003807D01*
X004449Y003838D01*
X004354Y003838D01*
X004354Y003870D02*
X004386Y003902D01*
X004449Y003902D01*
X004575Y003933D02*
X004575Y003870D01*
X004607Y003838D01*
X004702Y003838D01*
X004702Y003775D02*
X004702Y003965D01*
X004607Y003965D01*
X004575Y003933D01*
X004639Y003838D02*
X004575Y003775D01*
X004796Y003807D02*
X004828Y003775D01*
X004923Y003775D01*
X004923Y003712D02*
X004923Y003902D01*
X004828Y003902D01*
X004796Y003870D01*
X004796Y003807D01*
X005017Y003838D02*
X005144Y003838D01*
X005144Y003807D02*
X005144Y003870D01*
X005112Y003902D01*
X005049Y003902D01*
X005017Y003870D01*
X005017Y003838D01*
X005049Y003775D02*
X005112Y003775D01*
X005144Y003807D01*
X005238Y003775D02*
X005301Y003838D01*
X005270Y003838D02*
X005365Y003838D01*
X005365Y003775D02*
X005365Y003965D01*
X005270Y003965D01*
X005238Y003933D01*
X005238Y003870D01*
X005270Y003838D01*
X005444Y003807D02*
X005444Y003775D01*
X005475Y003775D01*
X005475Y003807D01*
X005444Y003807D01*
X005570Y003807D02*
X005601Y003775D01*
X005633Y003807D01*
X005665Y003775D01*
X005696Y003807D01*
X005696Y003902D01*
X005570Y003902D02*
X005570Y003807D01*
X005791Y003807D02*
X005822Y003775D01*
X005854Y003807D01*
X005886Y003775D01*
X005917Y003807D01*
X005917Y003902D01*
X006012Y003902D02*
X006012Y003807D01*
X006043Y003775D01*
X006075Y003807D01*
X006107Y003775D01*
X006138Y003807D01*
X006138Y003902D01*
X005791Y003902D02*
X005791Y003807D01*
M02*
