G75*
G70*
%OFA0B0*%
%FSLAX24Y24*%
%IPPOS*%
%LPD*%
%AMOC8*
5,1,8,0,0,1.08239X$1,22.5*
%
%ADD10C,0.0000*%
%ADD11R,0.0453X0.0118*%
%ADD12R,0.0118X0.0453*%
%ADD13R,0.1240X0.1240*%
%ADD14C,0.0560*%
%ADD15R,0.0354X0.0276*%
%ADD16R,0.0276X0.0354*%
%ADD17R,0.0354X0.0394*%
%ADD18R,0.0354X0.0433*%
%ADD19R,0.0472X0.0315*%
%ADD20R,0.0709X0.0630*%
%ADD21C,0.0200*%
%ADD22C,0.0100*%
%ADD23C,0.0300*%
%ADD24C,0.0400*%
%ADD25C,0.0270*%
%ADD26C,0.0450*%
D10*
X000663Y000150D02*
X007663Y000150D01*
X007707Y000152D01*
X007750Y000158D01*
X007792Y000167D01*
X007834Y000180D01*
X007874Y000197D01*
X007913Y000217D01*
X007950Y000240D01*
X007984Y000267D01*
X008017Y000296D01*
X008046Y000329D01*
X008073Y000363D01*
X008096Y000400D01*
X008116Y000439D01*
X008133Y000479D01*
X008146Y000521D01*
X008155Y000563D01*
X008161Y000606D01*
X008163Y000650D01*
X008163Y005650D01*
X008161Y005694D01*
X008155Y005737D01*
X008146Y005779D01*
X008133Y005821D01*
X008116Y005861D01*
X008096Y005900D01*
X008073Y005937D01*
X008046Y005971D01*
X008017Y006004D01*
X007984Y006033D01*
X007950Y006060D01*
X007913Y006083D01*
X007874Y006103D01*
X007834Y006120D01*
X007792Y006133D01*
X007750Y006142D01*
X007707Y006148D01*
X007663Y006150D01*
X000663Y006150D01*
X000619Y006148D01*
X000576Y006142D01*
X000534Y006133D01*
X000492Y006120D01*
X000452Y006103D01*
X000413Y006083D01*
X000376Y006060D01*
X000342Y006033D01*
X000309Y006004D01*
X000280Y005971D01*
X000253Y005937D01*
X000230Y005900D01*
X000210Y005861D01*
X000193Y005821D01*
X000180Y005779D01*
X000171Y005737D01*
X000165Y005694D01*
X000163Y005650D01*
X000163Y000650D01*
X000163Y005650D01*
X000163Y000650D02*
X000165Y000606D01*
X000171Y000563D01*
X000180Y000521D01*
X000193Y000479D01*
X000210Y000439D01*
X000230Y000400D01*
X000253Y000363D01*
X000280Y000329D01*
X000309Y000296D01*
X000342Y000267D01*
X000376Y000240D01*
X000413Y000217D01*
X000452Y000197D01*
X000492Y000180D01*
X000534Y000167D01*
X000576Y000158D01*
X000619Y000152D01*
X000663Y000150D01*
D11*
X003218Y002059D03*
X003218Y002256D03*
X003218Y002453D03*
X003218Y002650D03*
X003218Y002847D03*
X003218Y003044D03*
X003218Y003241D03*
X005108Y003241D03*
X005108Y003044D03*
X005108Y002847D03*
X005108Y002650D03*
X005108Y002453D03*
X005108Y002256D03*
X005108Y002059D03*
D12*
X004754Y001705D03*
X004557Y001705D03*
X004360Y001705D03*
X004163Y001705D03*
X003966Y001705D03*
X003770Y001705D03*
X003573Y001705D03*
X003573Y003595D03*
X003770Y003595D03*
X003966Y003595D03*
X004163Y003595D03*
X004360Y003595D03*
X004557Y003595D03*
X004754Y003595D03*
D13*
X004163Y002650D03*
D14*
X003663Y000650D03*
X002663Y000650D03*
X001663Y000650D03*
X000663Y000650D03*
X004663Y000650D03*
X005663Y000650D03*
X006663Y000650D03*
X007663Y000650D03*
X007663Y005650D03*
X006663Y005650D03*
X005663Y005650D03*
X004663Y005650D03*
X003663Y005650D03*
X002663Y005650D03*
X001663Y005650D03*
X000663Y005650D03*
D15*
X000763Y002806D03*
X000763Y002294D03*
X002463Y002294D03*
X002463Y002806D03*
X006163Y004144D03*
X006163Y004656D03*
X006263Y002156D03*
X006263Y001644D03*
D16*
X005619Y001350D03*
X005107Y001350D03*
X002869Y001550D03*
X002357Y001550D03*
X001869Y002050D03*
X001357Y002050D03*
X001707Y003900D03*
X002219Y003900D03*
X002219Y004650D03*
X001707Y004650D03*
X006907Y004150D03*
X007419Y004150D03*
D17*
X007484Y003435D03*
X007484Y002765D03*
D18*
X006342Y003100D03*
D19*
X004863Y004296D03*
X004863Y005004D03*
X003463Y005004D03*
X003463Y004296D03*
D20*
X000763Y003749D03*
X000763Y004851D03*
D21*
X001707Y004650D02*
X001707Y003900D01*
X001713Y003894D01*
X003363Y003850D02*
X003513Y003700D01*
X003613Y004050D02*
X003463Y004200D01*
X003463Y004296D01*
X004713Y004050D02*
X004863Y004200D01*
X004863Y004296D01*
X004963Y003850D02*
X004813Y003700D01*
D22*
X004759Y003600D01*
X004754Y003595D01*
X004557Y003595D02*
X004557Y003894D01*
X004713Y004050D01*
X004360Y004047D02*
X004363Y004100D01*
X004360Y004047D02*
X004360Y003595D01*
X004171Y003598D02*
X004156Y003598D01*
X004156Y003696D02*
X004171Y003696D01*
X004171Y003795D02*
X004156Y003795D01*
X004156Y003875D02*
X004146Y003884D01*
X004146Y003887D01*
X004163Y003904D01*
X004180Y003887D01*
X004180Y003884D01*
X004171Y003875D01*
X004171Y003315D01*
X004247Y003239D01*
X004752Y003239D01*
X004752Y003128D01*
X004828Y003051D01*
X005388Y003051D01*
X005465Y003128D01*
X005465Y003305D01*
X005601Y003441D01*
X005643Y003544D01*
X005643Y005234D01*
X005649Y005240D01*
X005745Y005240D01*
X005896Y005302D01*
X006011Y005418D01*
X006073Y005568D01*
X006254Y005568D01*
X006253Y005568D02*
X006275Y005516D01*
X005983Y005225D01*
X005983Y004924D01*
X005932Y004924D01*
X005856Y004848D01*
X005856Y004464D01*
X005932Y004388D01*
X006394Y004388D01*
X006470Y004464D01*
X006470Y004470D01*
X006689Y004470D01*
X006709Y004450D01*
X006640Y004381D01*
X006640Y003919D01*
X006716Y003843D01*
X007099Y003843D01*
X007163Y003907D01*
X007228Y003843D01*
X007304Y003843D01*
X007304Y003761D01*
X007253Y003761D01*
X007177Y003685D01*
X007177Y003184D01*
X007253Y003108D01*
X007715Y003108D01*
X007791Y003184D01*
X007791Y003685D01*
X007715Y003761D01*
X007664Y003761D01*
X007664Y003896D01*
X007687Y003919D01*
X007687Y004381D01*
X007611Y004457D01*
X007228Y004457D01*
X007163Y004393D01*
X007099Y004457D01*
X007087Y004457D01*
X007087Y004580D01*
X006943Y004725D01*
X006838Y004830D01*
X006470Y004830D01*
X006470Y004848D01*
X006394Y004924D01*
X006343Y004924D01*
X006343Y005075D01*
X008013Y005075D01*
X008013Y004977D02*
X006343Y004977D01*
X006343Y005075D02*
X006530Y005262D01*
X006582Y005240D01*
X006745Y005240D01*
X006896Y005302D01*
X007011Y005418D01*
X007073Y005568D01*
X008013Y005568D01*
X008013Y005650D02*
X008013Y000876D01*
X008011Y000882D01*
X007896Y000998D01*
X007745Y001060D01*
X007582Y001060D01*
X007530Y001038D01*
X007093Y001475D01*
X007093Y003325D01*
X006988Y003430D01*
X006938Y003480D01*
X006838Y003580D01*
X006788Y003630D01*
X005989Y003630D01*
X005883Y003525D01*
X005392Y003033D01*
X005388Y003036D01*
X004828Y003036D01*
X004752Y002960D01*
X004752Y002734D01*
X004828Y002658D01*
X005388Y002658D01*
X005397Y002667D01*
X005535Y002667D01*
X006035Y003167D01*
X006035Y003047D01*
X005621Y002633D01*
X005397Y002633D01*
X005388Y002642D01*
X004828Y002642D01*
X004752Y002566D01*
X004752Y002061D01*
X003460Y002061D01*
X003384Y001985D01*
X003384Y001885D01*
X002950Y001885D01*
X002922Y001857D01*
X002825Y001857D01*
X002893Y001925D01*
X002993Y002025D01*
X002993Y002067D01*
X003499Y002067D01*
X003575Y002143D01*
X003575Y002763D01*
X003499Y002839D01*
X002938Y002839D01*
X002929Y002830D01*
X002770Y002830D01*
X002770Y002864D01*
X002929Y002864D01*
X002938Y002855D01*
X003499Y002855D01*
X003575Y002931D01*
X003575Y003239D01*
X004079Y003239D01*
X004156Y003315D01*
X004156Y003875D01*
X004152Y003893D02*
X004174Y003893D01*
X003966Y004047D02*
X003963Y004100D01*
X003966Y004047D02*
X003966Y003595D01*
X003770Y003595D02*
X003770Y003894D01*
X003613Y004050D01*
X003513Y003700D02*
X003568Y003600D01*
X003573Y003595D01*
X003213Y003350D02*
X003213Y003246D01*
X003218Y003241D01*
X003218Y003044D02*
X002820Y003044D01*
X002763Y003100D01*
X001569Y003100D01*
X001513Y003044D01*
X000763Y002294D01*
X000763Y000750D01*
X000663Y000650D01*
X000372Y000938D02*
X000313Y000938D01*
X000316Y000882D02*
X000313Y000876D01*
X000313Y004448D01*
X000355Y004406D01*
X001172Y004406D01*
X001248Y004482D01*
X001248Y004571D01*
X001390Y004571D01*
X001440Y004522D01*
X001440Y004419D01*
X001477Y004381D01*
X001477Y004169D01*
X001440Y004131D01*
X001440Y003669D01*
X001516Y003593D01*
X001899Y003593D01*
X001975Y003669D01*
X001975Y004131D01*
X001937Y004169D01*
X001937Y004381D01*
X001975Y004419D01*
X001975Y004565D01*
X001987Y004594D01*
X001987Y004706D01*
X001975Y004735D01*
X001975Y004881D01*
X001899Y004957D01*
X001796Y004957D01*
X001744Y005010D01*
X001665Y005089D01*
X001562Y005131D01*
X001248Y005131D01*
X001248Y005220D01*
X001172Y005296D01*
X001093Y005296D01*
X001093Y005616D01*
X001073Y005664D01*
X001073Y005732D01*
X001011Y005882D01*
X000896Y005998D01*
X000890Y006000D01*
X002437Y006000D01*
X002431Y005998D01*
X002316Y005882D01*
X002253Y005732D01*
X002253Y005568D01*
X002316Y005418D01*
X002431Y005302D01*
X002582Y005240D01*
X002677Y005240D01*
X002683Y005234D01*
X002683Y003544D01*
X002726Y003441D01*
X002862Y003305D01*
X002862Y003256D01*
X002838Y003280D01*
X001495Y003280D01*
X001333Y003118D01*
X000777Y002562D01*
X000532Y002562D01*
X000456Y002486D01*
X000456Y002102D01*
X000532Y002026D01*
X000583Y002026D01*
X000583Y001060D01*
X000582Y001060D01*
X000431Y000998D01*
X000316Y000882D01*
X000313Y001037D02*
X000525Y001037D01*
X000583Y001135D02*
X000313Y001135D01*
X000313Y001234D02*
X000583Y001234D01*
X000583Y001332D02*
X000313Y001332D01*
X000313Y001431D02*
X000583Y001431D01*
X000583Y001529D02*
X000313Y001529D01*
X000313Y001628D02*
X000583Y001628D01*
X000583Y001726D02*
X000313Y001726D01*
X000313Y001825D02*
X000583Y001825D01*
X000583Y001923D02*
X000313Y001923D01*
X000313Y002022D02*
X000583Y002022D01*
X000456Y002120D02*
X000313Y002120D01*
X000313Y002219D02*
X000456Y002219D01*
X000456Y002317D02*
X000313Y002317D01*
X000313Y002416D02*
X000456Y002416D01*
X000484Y002514D02*
X000313Y002514D01*
X000313Y002613D02*
X000827Y002613D01*
X000926Y002711D02*
X000313Y002711D01*
X000313Y002810D02*
X001024Y002810D01*
X001123Y002908D02*
X000313Y002908D01*
X000313Y003007D02*
X001221Y003007D01*
X001320Y003105D02*
X000313Y003105D01*
X000313Y003204D02*
X001418Y003204D01*
X001511Y003598D02*
X000313Y003598D01*
X000313Y003696D02*
X001440Y003696D01*
X001440Y003795D02*
X000313Y003795D01*
X000313Y003893D02*
X001440Y003893D01*
X001440Y003992D02*
X000313Y003992D01*
X000313Y004090D02*
X001440Y004090D01*
X001477Y004189D02*
X000313Y004189D01*
X000313Y004287D02*
X001477Y004287D01*
X001473Y004386D02*
X000313Y004386D01*
X001248Y004484D02*
X001440Y004484D01*
X001942Y004386D02*
X002683Y004386D01*
X002683Y004287D02*
X001937Y004287D01*
X001937Y004189D02*
X002683Y004189D01*
X002683Y004090D02*
X001975Y004090D01*
X001975Y003992D02*
X002683Y003992D01*
X002683Y003893D02*
X001975Y003893D01*
X001975Y003795D02*
X002683Y003795D01*
X002683Y003696D02*
X001975Y003696D01*
X001904Y003598D02*
X002683Y003598D01*
X002702Y003499D02*
X000313Y003499D01*
X000313Y003401D02*
X002767Y003401D01*
X002862Y003302D02*
X000313Y003302D01*
X001177Y002454D02*
X001177Y002357D01*
X001166Y002357D01*
X001090Y002281D01*
X001090Y001819D01*
X001166Y001743D01*
X001549Y001743D01*
X001613Y001807D01*
X001678Y001743D01*
X002061Y001743D01*
X002137Y001819D01*
X002137Y001820D01*
X002640Y001820D01*
X002601Y001781D01*
X002601Y001319D01*
X002640Y001280D01*
X002039Y001280D01*
X001797Y001038D01*
X001745Y001060D01*
X001582Y001060D01*
X001431Y000998D01*
X001316Y000882D01*
X001253Y000732D01*
X001253Y000568D01*
X001316Y000418D01*
X001431Y000302D01*
X001437Y000300D01*
X000890Y000300D01*
X000896Y000302D01*
X001011Y000418D01*
X001073Y000568D01*
X001073Y000732D01*
X001011Y000882D01*
X000943Y000950D01*
X000943Y002026D01*
X000994Y002026D01*
X001070Y002102D01*
X001070Y002347D01*
X001177Y002454D01*
X001177Y002416D02*
X001139Y002416D01*
X001126Y002317D02*
X001070Y002317D01*
X001070Y002219D02*
X001090Y002219D01*
X001090Y002120D02*
X001070Y002120D01*
X001090Y002022D02*
X000943Y002022D01*
X000943Y001923D02*
X001090Y001923D01*
X001090Y001825D02*
X000943Y001825D01*
X000943Y001726D02*
X002601Y001726D01*
X002601Y001628D02*
X000943Y001628D01*
X000943Y001529D02*
X002601Y001529D01*
X002601Y001431D02*
X000943Y001431D01*
X000943Y001332D02*
X002601Y001332D01*
X002869Y001550D02*
X003024Y001705D01*
X003573Y001705D01*
X003770Y001705D02*
X003770Y001406D01*
X003663Y001300D01*
X003163Y001300D01*
X002963Y001100D01*
X002113Y001100D01*
X001663Y000650D01*
X001372Y000938D02*
X000955Y000938D01*
X001029Y000840D02*
X001298Y000840D01*
X001257Y000741D02*
X001069Y000741D01*
X001073Y000643D02*
X001253Y000643D01*
X001263Y000544D02*
X001063Y000544D01*
X001022Y000446D02*
X001304Y000446D01*
X001387Y000347D02*
X000940Y000347D01*
X000943Y001037D02*
X001525Y001037D01*
X001894Y001135D02*
X000943Y001135D01*
X000943Y001234D02*
X001992Y001234D01*
X002663Y000650D02*
X002813Y000650D01*
X003263Y001100D01*
X003763Y001100D01*
X003963Y001300D01*
X003966Y001303D01*
X003966Y001705D01*
X004163Y001705D02*
X004163Y001150D01*
X003663Y000650D01*
X004360Y000953D02*
X004360Y001705D01*
X004557Y001705D02*
X004557Y001406D01*
X004663Y001300D01*
X005057Y001300D01*
X005107Y001350D01*
X005375Y001332D02*
X006083Y001332D01*
X006083Y001325D02*
X005883Y001125D01*
X005797Y001038D01*
X005745Y001060D01*
X005582Y001060D01*
X005431Y000998D01*
X005316Y000882D01*
X005253Y000732D01*
X005253Y000568D01*
X005316Y000418D01*
X005431Y000302D01*
X005437Y000300D01*
X004890Y000300D01*
X004896Y000302D01*
X005011Y000418D01*
X005073Y000568D01*
X005073Y000732D01*
X005011Y000882D01*
X004896Y000998D01*
X004745Y001060D01*
X004582Y001060D01*
X004540Y001043D01*
X004540Y001169D01*
X004589Y001120D01*
X004840Y001120D01*
X004840Y001119D01*
X004916Y001043D01*
X005299Y001043D01*
X005375Y001119D01*
X005375Y001581D01*
X005299Y001657D01*
X004975Y001657D01*
X004988Y001670D01*
X005956Y001670D01*
X005956Y001452D01*
X006032Y001376D01*
X006083Y001376D01*
X006083Y001325D01*
X005978Y001431D02*
X005375Y001431D01*
X005375Y001529D02*
X005956Y001529D01*
X005956Y001628D02*
X005329Y001628D01*
X004913Y001850D02*
X006057Y001850D01*
X006263Y001644D01*
X006263Y001250D01*
X006063Y001050D01*
X005663Y000650D01*
X005372Y000938D02*
X004955Y000938D01*
X005029Y000840D02*
X005298Y000840D01*
X005257Y000741D02*
X005069Y000741D01*
X005073Y000643D02*
X005253Y000643D01*
X005263Y000544D02*
X005063Y000544D01*
X005022Y000446D02*
X005304Y000446D01*
X005387Y000347D02*
X004940Y000347D01*
X004663Y000650D02*
X004360Y000953D01*
X004540Y001135D02*
X004574Y001135D01*
X004802Y001037D02*
X005525Y001037D01*
X005375Y001135D02*
X005894Y001135D01*
X005992Y001234D02*
X005375Y001234D01*
X004768Y001705D02*
X004913Y001850D01*
X004768Y001705D02*
X004754Y001705D01*
X005108Y002059D02*
X006167Y002059D01*
X006263Y002156D01*
X006263Y002300D01*
X006413Y002450D01*
X006263Y002700D02*
X006313Y002750D01*
X006513Y002750D01*
X006713Y002550D01*
X006713Y002500D01*
X006713Y000700D01*
X006663Y000650D01*
X007334Y001234D02*
X008013Y001234D01*
X008013Y001135D02*
X007433Y001135D01*
X007236Y001332D02*
X008013Y001332D01*
X008013Y001431D02*
X007137Y001431D01*
X007093Y001529D02*
X008013Y001529D01*
X008013Y001628D02*
X007093Y001628D01*
X007093Y001726D02*
X008013Y001726D01*
X008013Y001825D02*
X007093Y001825D01*
X007093Y001923D02*
X008013Y001923D01*
X008013Y002022D02*
X007093Y002022D01*
X007093Y002120D02*
X008013Y002120D01*
X008013Y002219D02*
X007093Y002219D01*
X007093Y002317D02*
X008013Y002317D01*
X008013Y002416D02*
X007093Y002416D01*
X007093Y002514D02*
X008013Y002514D01*
X008013Y002613D02*
X007093Y002613D01*
X007093Y002711D02*
X008013Y002711D01*
X008013Y002810D02*
X007093Y002810D01*
X007093Y002908D02*
X008013Y002908D01*
X008013Y003007D02*
X007093Y003007D01*
X007093Y003105D02*
X008013Y003105D01*
X008013Y003204D02*
X007791Y003204D01*
X007791Y003302D02*
X008013Y003302D01*
X008013Y003401D02*
X007791Y003401D01*
X007791Y003499D02*
X008013Y003499D01*
X008013Y003598D02*
X007791Y003598D01*
X007781Y003696D02*
X008013Y003696D01*
X008013Y003795D02*
X007664Y003795D01*
X007664Y003893D02*
X008013Y003893D01*
X008013Y003992D02*
X007687Y003992D01*
X007687Y004090D02*
X008013Y004090D01*
X008013Y004189D02*
X007687Y004189D01*
X007687Y004287D02*
X008013Y004287D01*
X008013Y004386D02*
X007683Y004386D01*
X008013Y004484D02*
X007087Y004484D01*
X007085Y004583D02*
X008013Y004583D01*
X008013Y004681D02*
X006987Y004681D01*
X006888Y004780D02*
X008013Y004780D01*
X008013Y004878D02*
X006440Y004878D01*
X006163Y004656D02*
X006169Y004650D01*
X006763Y004650D01*
X006907Y004506D01*
X006907Y004150D01*
X006640Y004189D02*
X005643Y004189D01*
X005643Y004287D02*
X006640Y004287D01*
X006644Y004386D02*
X005643Y004386D01*
X005643Y004484D02*
X005856Y004484D01*
X005856Y004583D02*
X005643Y004583D01*
X005643Y004681D02*
X005856Y004681D01*
X005856Y004780D02*
X005643Y004780D01*
X005643Y004878D02*
X005887Y004878D01*
X005983Y004977D02*
X005643Y004977D01*
X005643Y005075D02*
X005983Y005075D01*
X005983Y005174D02*
X005643Y005174D01*
X005822Y005272D02*
X006031Y005272D01*
X005964Y005371D02*
X006129Y005371D01*
X006032Y005469D02*
X006228Y005469D01*
X006253Y005568D02*
X006253Y005732D01*
X006316Y005882D01*
X006431Y005998D01*
X006437Y006000D01*
X005890Y006000D01*
X005896Y005998D01*
X006011Y005882D01*
X006073Y005732D01*
X006073Y005568D01*
X006073Y005666D02*
X006253Y005666D01*
X006267Y005765D02*
X006060Y005765D01*
X006019Y005863D02*
X006308Y005863D01*
X006395Y005962D02*
X005932Y005962D01*
X005437Y006000D02*
X005431Y005998D01*
X005316Y005882D01*
X005253Y005732D01*
X005253Y005636D01*
X005205Y005587D01*
X005126Y005509D01*
X005083Y005406D01*
X005083Y004583D01*
X004643Y004583D01*
X004643Y005234D01*
X004649Y005240D01*
X004745Y005240D01*
X004896Y005302D01*
X005011Y005418D01*
X005073Y005568D01*
X005185Y005568D01*
X005073Y005568D02*
X005073Y005732D01*
X005011Y005882D01*
X004896Y005998D01*
X004890Y006000D01*
X005437Y006000D01*
X005395Y005962D02*
X004932Y005962D01*
X005019Y005863D02*
X005308Y005863D01*
X005267Y005765D02*
X005060Y005765D01*
X005073Y005666D02*
X005253Y005666D01*
X005110Y005469D02*
X005032Y005469D01*
X005083Y005371D02*
X004964Y005371D01*
X005083Y005272D02*
X004822Y005272D01*
X004643Y005174D02*
X005083Y005174D01*
X005083Y005075D02*
X004643Y005075D01*
X004643Y004977D02*
X005083Y004977D01*
X005083Y004878D02*
X004643Y004878D01*
X004643Y004780D02*
X005083Y004780D01*
X005083Y004681D02*
X004643Y004681D01*
X003683Y004681D02*
X003243Y004681D01*
X003243Y004780D02*
X003683Y004780D01*
X003683Y004878D02*
X003243Y004878D01*
X003243Y004977D02*
X003683Y004977D01*
X003683Y005075D02*
X003243Y005075D01*
X003243Y005174D02*
X003683Y005174D01*
X003683Y005234D02*
X003683Y004583D01*
X003243Y004583D01*
X003243Y005406D01*
X003201Y005509D01*
X003122Y005587D01*
X003073Y005636D01*
X003073Y005732D01*
X003011Y005882D01*
X002896Y005998D01*
X002890Y006000D01*
X003437Y006000D01*
X003431Y005998D01*
X003316Y005882D01*
X003253Y005732D01*
X003253Y005568D01*
X003316Y005418D01*
X003431Y005302D01*
X003582Y005240D01*
X003677Y005240D01*
X003683Y005234D01*
X003504Y005272D02*
X003243Y005272D01*
X003243Y005371D02*
X003363Y005371D01*
X003295Y005469D02*
X003217Y005469D01*
X003254Y005568D02*
X003142Y005568D01*
X003073Y005666D02*
X003253Y005666D01*
X003267Y005765D02*
X003060Y005765D01*
X003019Y005863D02*
X003308Y005863D01*
X003395Y005962D02*
X002932Y005962D01*
X002395Y005962D02*
X000932Y005962D01*
X001019Y005863D02*
X002308Y005863D01*
X002267Y005765D02*
X001060Y005765D01*
X001073Y005666D02*
X002253Y005666D01*
X002254Y005568D02*
X001093Y005568D01*
X001093Y005469D02*
X002295Y005469D01*
X002363Y005371D02*
X001093Y005371D01*
X001196Y005272D02*
X002504Y005272D01*
X002683Y005174D02*
X001248Y005174D01*
X001678Y005075D02*
X002683Y005075D01*
X002683Y004977D02*
X001777Y004977D01*
X001744Y005010D02*
X001744Y005010D01*
X001975Y004878D02*
X002683Y004878D01*
X002683Y004780D02*
X001975Y004780D01*
X001987Y004681D02*
X002683Y004681D01*
X002683Y004583D02*
X001983Y004583D01*
X001975Y004484D02*
X002683Y004484D01*
X004156Y003499D02*
X004171Y003499D01*
X004171Y003401D02*
X004156Y003401D01*
X004143Y003302D02*
X004184Y003302D01*
X004752Y003204D02*
X003575Y003204D01*
X003575Y003105D02*
X004774Y003105D01*
X004799Y003007D02*
X003575Y003007D01*
X003552Y002908D02*
X004752Y002908D01*
X004752Y002810D02*
X003528Y002810D01*
X003566Y002847D02*
X003218Y002847D01*
X003218Y002650D02*
X002619Y002650D01*
X002463Y002806D01*
X002619Y002450D02*
X002463Y002294D01*
X002619Y002450D02*
X002863Y002450D01*
X002866Y002453D01*
X003218Y002453D01*
X003218Y002256D02*
X002870Y002256D01*
X002813Y002200D01*
X002813Y002100D01*
X002713Y002000D01*
X001919Y002000D01*
X001869Y002050D01*
X001357Y002050D02*
X001357Y002394D01*
X001513Y002550D01*
X001863Y002550D01*
X002891Y001923D02*
X003384Y001923D01*
X003420Y002022D02*
X002989Y002022D01*
X003551Y002120D02*
X004752Y002120D01*
X004752Y002219D02*
X003575Y002219D01*
X003575Y002317D02*
X004752Y002317D01*
X004752Y002416D02*
X003575Y002416D01*
X003575Y002514D02*
X004752Y002514D01*
X004798Y002613D02*
X003575Y002613D01*
X003763Y002650D02*
X003761Y002676D01*
X003756Y002701D01*
X003748Y002725D01*
X003737Y002749D01*
X003722Y002770D01*
X003705Y002789D01*
X003686Y002806D01*
X003665Y002821D01*
X003641Y002832D01*
X003617Y002840D01*
X003592Y002845D01*
X003566Y002847D01*
X003575Y002711D02*
X004775Y002711D01*
X005108Y002847D02*
X005460Y002847D01*
X006063Y003450D01*
X006713Y003450D01*
X006763Y003400D01*
X006863Y003300D01*
X006913Y003250D01*
X006913Y001400D01*
X007663Y000650D01*
X007955Y000938D02*
X008013Y000938D01*
X008013Y001037D02*
X007802Y001037D01*
X006263Y002700D02*
X005820Y002256D01*
X005108Y002256D01*
X005108Y002453D02*
X005696Y002453D01*
X006342Y003100D01*
X006035Y003105D02*
X005973Y003105D01*
X005994Y003007D02*
X005874Y003007D01*
X005896Y002908D02*
X005776Y002908D01*
X005797Y002810D02*
X005677Y002810D01*
X005699Y002711D02*
X005579Y002711D01*
X005464Y003105D02*
X005442Y003105D01*
X005465Y003204D02*
X005562Y003204D01*
X005465Y003302D02*
X005661Y003302D01*
X005759Y003401D02*
X005560Y003401D01*
X005625Y003499D02*
X005858Y003499D01*
X005956Y003598D02*
X005643Y003598D01*
X005643Y003696D02*
X007188Y003696D01*
X007177Y003598D02*
X006820Y003598D01*
X006919Y003499D02*
X007177Y003499D01*
X007177Y003401D02*
X007017Y003401D01*
X007093Y003302D02*
X007177Y003302D01*
X007177Y003204D02*
X007093Y003204D01*
X007484Y003435D02*
X007484Y004085D01*
X007419Y004150D01*
X007177Y003893D02*
X007149Y003893D01*
X007304Y003795D02*
X005643Y003795D01*
X005643Y003893D02*
X006666Y003893D01*
X006640Y003992D02*
X005643Y003992D01*
X005643Y004090D02*
X006640Y004090D01*
X006163Y004656D02*
X006163Y005150D01*
X006663Y005650D01*
X006964Y005371D02*
X008013Y005371D01*
X008013Y005469D02*
X007032Y005469D01*
X007073Y005568D02*
X007073Y005732D01*
X007011Y005882D01*
X006896Y005998D01*
X006890Y006000D01*
X007663Y006000D01*
X007732Y005993D01*
X007858Y005941D01*
X007954Y005844D01*
X008007Y005718D01*
X008013Y005650D01*
X008012Y005666D02*
X007073Y005666D01*
X007060Y005765D02*
X007987Y005765D01*
X007936Y005863D02*
X007019Y005863D01*
X006932Y005962D02*
X007808Y005962D01*
X008013Y005272D02*
X006822Y005272D01*
X006441Y005174D02*
X008013Y005174D01*
X005113Y003350D02*
X005113Y003246D01*
X005108Y003241D01*
D23*
X005113Y003350D02*
X005363Y003600D01*
X005363Y005350D01*
X005663Y005650D01*
X004663Y005650D02*
X004363Y005350D01*
X004363Y004100D01*
X003963Y004100D02*
X003963Y005350D01*
X003663Y005650D01*
X002963Y005350D02*
X002963Y003600D01*
X003213Y003350D01*
X001707Y004650D02*
X001506Y004851D01*
X000763Y004851D01*
X002663Y005650D02*
X002963Y005350D01*
D24*
X000763Y005550D02*
X000763Y004851D01*
X000763Y005550D02*
X000663Y005650D01*
D25*
X003363Y003850D03*
X003463Y004700D03*
X004863Y004700D03*
X004963Y003850D03*
X006413Y002450D03*
X005913Y001350D03*
X001863Y002550D03*
X001163Y001550D03*
X001163Y001150D03*
D26*
X003763Y002250D03*
X004163Y002250D03*
X004563Y002250D03*
X004563Y002650D03*
X004163Y002650D03*
X003763Y002650D03*
X003763Y003050D03*
X004163Y003050D03*
X004563Y003050D03*
M02*
