G75*
G70*
%OFA0B0*%
%FSLAX24Y24*%
%IPPOS*%
%LPD*%
%AMOC8*
5,1,8,0,0,1.08239X$1,22.5*
%
%ADD10R,0.0453X0.0118*%
%ADD11R,0.0118X0.0453*%
%ADD12C,0.0059*%
%ADD13R,0.0354X0.0276*%
%ADD14R,0.0276X0.0354*%
%ADD15R,0.0354X0.0394*%
%ADD16R,0.0354X0.0433*%
%ADD17R,0.0472X0.0315*%
%ADD18R,0.0709X0.0630*%
D10*
X003218Y002059D03*
X003218Y002256D03*
X003218Y002453D03*
X003218Y002650D03*
X003218Y002847D03*
X003218Y003044D03*
X003218Y003241D03*
X005108Y003241D03*
X005108Y003044D03*
X005108Y002847D03*
X005108Y002650D03*
X005108Y002453D03*
X005108Y002256D03*
X005108Y002059D03*
D11*
X004754Y001705D03*
X004557Y001705D03*
X004360Y001705D03*
X004163Y001705D03*
X003966Y001705D03*
X003770Y001705D03*
X003573Y001705D03*
X003573Y003595D03*
X003770Y003595D03*
X003966Y003595D03*
X004163Y003595D03*
X004360Y003595D03*
X004557Y003595D03*
X004754Y003595D03*
D12*
X004715Y003201D02*
X004715Y002099D01*
X003612Y002099D01*
X003612Y003122D01*
X003639Y003134D01*
X003661Y003152D01*
X003679Y003175D01*
X003691Y003201D01*
X004715Y003201D01*
X004715Y003200D02*
X003691Y003200D01*
X003650Y003143D02*
X004715Y003143D01*
X004715Y003085D02*
X003612Y003085D01*
X003612Y003028D02*
X004715Y003028D01*
X004715Y002970D02*
X003612Y002970D01*
X003612Y002913D02*
X004715Y002913D01*
X004715Y002855D02*
X003612Y002855D01*
X003612Y002798D02*
X004715Y002798D01*
X004715Y002740D02*
X003612Y002740D01*
X003612Y002682D02*
X004715Y002682D01*
X004715Y002625D02*
X003612Y002625D01*
X003612Y002567D02*
X004715Y002567D01*
X004715Y002510D02*
X003612Y002510D01*
X003612Y002452D02*
X004715Y002452D01*
X004715Y002395D02*
X003612Y002395D01*
X003612Y002337D02*
X004715Y002337D01*
X004715Y002280D02*
X003612Y002280D01*
X003612Y002222D02*
X004715Y002222D01*
X004715Y002164D02*
X003612Y002164D01*
X003612Y002107D02*
X004715Y002107D01*
D13*
X006263Y002156D03*
X006263Y001644D03*
X006163Y004144D03*
X006163Y004656D03*
X002463Y002806D03*
X002463Y002294D03*
X000763Y002294D03*
X000763Y002806D03*
D14*
X002357Y001550D03*
X002869Y001550D03*
X001869Y002050D03*
X001357Y002050D03*
X001707Y003900D03*
X002219Y003900D03*
X002219Y004650D03*
X001707Y004650D03*
X005107Y001350D03*
X005619Y001350D03*
X006907Y004150D03*
X007419Y004150D03*
D15*
X007484Y003435D03*
X007484Y002765D03*
D16*
X006342Y003100D03*
D17*
X004863Y004296D03*
X004863Y005004D03*
X003463Y005004D03*
X003463Y004296D03*
D18*
X000763Y003749D03*
X000763Y004851D03*
M02*
