%
M48
M72
T01C0.0150
T02C0.0300
T03C0.0350
%
T01
X1163Y1150
X1163Y1550
X1863Y2550
X3363Y3850
X3463Y4700
X4863Y4700
X4963Y3850
X6413Y2450
X5913Y1350
T02
X4563Y2250
X4163Y2250
X3763Y2250
X3763Y2650
X4163Y2650
X4563Y2650
X4563Y3050
X4163Y3050
X3763Y3050
T03
X663Y650
X1663Y650
X2663Y650
X3663Y650
X4663Y650
X5663Y650
X6663Y650
X7663Y650
X7663Y5650
X6663Y5650
X5663Y5650
X4663Y5650
X3663Y5650
X2663Y5650
X1663Y5650
X663Y5650
M30
