G75*
G70*
%OFA0B0*%
%FSLAX24Y24*%
%IPPOS*%
%LPD*%
%AMOC8*
5,1,8,0,0,1.08239X$1,22.5*
%
%ADD10C,0.0080*%
%ADD11C,0.0060*%
%ADD12C,0.0050*%
%ADD13C,0.0040*%
D10*
X003219Y001706D02*
X003219Y001941D01*
X003219Y001706D02*
X003454Y001706D01*
X004873Y001706D02*
X005108Y001706D01*
X005108Y001941D01*
X005453Y001967D02*
X005490Y001930D01*
X005527Y001930D01*
X005563Y001967D01*
X005563Y002040D01*
X005600Y002077D01*
X005637Y002077D01*
X005673Y002040D01*
X005673Y001967D01*
X005637Y001930D01*
X005490Y002077D02*
X005453Y002040D01*
X005453Y001967D01*
X005527Y002206D02*
X005527Y002280D01*
X005490Y002243D02*
X005637Y002243D01*
X005673Y002280D01*
X005637Y002390D02*
X005563Y002390D01*
X005527Y002427D01*
X005527Y002500D01*
X005563Y002537D01*
X005600Y002537D01*
X005600Y002390D01*
X005637Y002390D02*
X005673Y002427D01*
X005673Y002500D01*
X005673Y002667D02*
X005673Y002777D01*
X005637Y002813D01*
X005563Y002813D01*
X005527Y002777D01*
X005527Y002667D01*
X005747Y002667D01*
X005637Y002943D02*
X005673Y002980D01*
X005673Y003053D01*
X005637Y003090D01*
X005600Y003090D01*
X005563Y003053D01*
X005563Y002980D01*
X005527Y002943D01*
X005490Y002943D01*
X005453Y002980D01*
X005453Y003053D01*
X005490Y003090D01*
X005527Y003219D02*
X005527Y003292D01*
X005490Y003256D02*
X005637Y003256D01*
X005673Y003292D01*
X005673Y003403D02*
X005673Y003477D01*
X005673Y003440D02*
X005527Y003440D01*
X005527Y003403D01*
X005453Y003440D02*
X005416Y003440D01*
X005563Y003587D02*
X005637Y003587D01*
X005673Y003624D01*
X005673Y003734D01*
X005673Y003864D02*
X005453Y003864D01*
X005527Y003974D02*
X005600Y003864D01*
X005673Y003974D01*
X005527Y003734D02*
X005527Y003624D01*
X005563Y003587D01*
X005108Y003594D02*
X005108Y003359D01*
X005108Y003594D02*
X004873Y003594D01*
X003454Y003594D02*
X003219Y003594D01*
X003219Y003359D01*
X006283Y003494D02*
X006283Y003730D01*
X007543Y003730D01*
X006283Y002706D02*
X006283Y002470D01*
X007543Y002470D01*
D11*
X006493Y002350D02*
X006493Y002200D01*
X006493Y002350D02*
X006343Y002350D01*
X006183Y002350D02*
X006033Y002350D01*
X006033Y002200D01*
X006033Y001600D02*
X006033Y001450D01*
X006183Y001450D01*
X006343Y001450D02*
X006493Y001450D01*
X006493Y001600D01*
X005813Y001580D02*
X005813Y001430D01*
X005813Y001270D02*
X005813Y001120D01*
X005663Y001120D01*
X005063Y001120D02*
X004913Y001120D01*
X004913Y001270D01*
X004913Y001430D02*
X004913Y001580D01*
X005063Y001580D01*
X005663Y001580D02*
X005813Y001580D01*
X003413Y003400D02*
X003213Y003600D01*
X003173Y004080D02*
X003323Y004080D01*
X003173Y004080D02*
X003173Y004230D01*
X003603Y004080D02*
X003753Y004080D01*
X003753Y004230D01*
X004573Y004230D02*
X004573Y004080D01*
X004723Y004080D01*
X005003Y004080D02*
X005153Y004080D01*
X005153Y004230D01*
X005933Y004100D02*
X005933Y003950D01*
X006083Y003950D01*
X006243Y003950D02*
X006393Y003950D01*
X006393Y004100D01*
X006713Y004070D02*
X006713Y003920D01*
X006863Y003920D01*
X006713Y004230D02*
X006713Y004380D01*
X006863Y004380D01*
X006393Y004700D02*
X006393Y004850D01*
X006243Y004850D01*
X006083Y004850D02*
X005933Y004850D01*
X005933Y004700D01*
X005153Y005070D02*
X005153Y005220D01*
X005003Y005220D01*
X004723Y005220D02*
X004573Y005220D01*
X004573Y005070D01*
X003753Y005070D02*
X003753Y005220D01*
X003603Y005220D01*
X003323Y005220D02*
X003173Y005220D01*
X003173Y005070D01*
X002413Y004880D02*
X002413Y004730D01*
X002413Y004880D02*
X002263Y004880D01*
X002413Y004570D02*
X002413Y004420D01*
X002263Y004420D01*
X002263Y004130D02*
X002413Y004130D01*
X002413Y003980D01*
X002413Y003820D02*
X002413Y003670D01*
X002263Y003670D01*
X001663Y003670D02*
X001513Y003670D01*
X001513Y003820D01*
X001513Y003980D02*
X001513Y004130D01*
X001663Y004130D01*
X001663Y004420D02*
X001513Y004420D01*
X001513Y004570D01*
X001513Y004730D02*
X001513Y004880D01*
X001663Y004880D01*
X001173Y005070D02*
X001173Y005220D01*
X001023Y005220D01*
X000503Y005220D02*
X000353Y005220D01*
X000353Y005070D01*
X000353Y003530D02*
X000353Y003380D01*
X000503Y003380D01*
X000533Y003000D02*
X000533Y002850D01*
X000533Y003000D02*
X000683Y003000D01*
X000853Y003000D02*
X001003Y003000D01*
X001003Y002850D01*
X001023Y003380D02*
X001173Y003380D01*
X001173Y003530D01*
X002233Y003000D02*
X002233Y002850D01*
X002233Y003000D02*
X002383Y003000D01*
X002543Y003000D02*
X002693Y003000D01*
X002693Y002850D01*
X002063Y002280D02*
X001913Y002280D01*
X002063Y002280D02*
X002063Y002130D01*
X002063Y001970D02*
X002063Y001820D01*
X001913Y001820D01*
X002163Y001780D02*
X002163Y001630D01*
X002163Y001470D02*
X002163Y001320D01*
X002313Y001320D01*
X002313Y001780D02*
X002163Y001780D01*
X002233Y002100D02*
X002383Y002100D01*
X002233Y002100D02*
X002233Y002250D01*
X002543Y002100D02*
X002693Y002100D01*
X002693Y002250D01*
X002913Y001780D02*
X003063Y001780D01*
X003063Y001630D01*
X003063Y001470D02*
X003063Y001320D01*
X002913Y001320D01*
X001313Y001820D02*
X001163Y001820D01*
X001163Y001970D01*
X001163Y002130D02*
X001163Y002280D01*
X001313Y002280D01*
X001003Y002250D02*
X001003Y002100D01*
X000853Y002100D01*
X000683Y002100D02*
X000533Y002100D01*
X000533Y002250D01*
X007463Y003920D02*
X007613Y003920D01*
X007613Y004070D01*
X007613Y004230D02*
X007613Y004380D01*
X007463Y004380D01*
D12*
X001493Y001700D02*
X001457Y001700D01*
X001438Y001718D01*
X001438Y001792D01*
X001457Y001810D01*
X001493Y001810D01*
X001512Y001792D01*
X001512Y001718D02*
X001493Y001700D01*
X001586Y001718D02*
X001604Y001700D01*
X001641Y001700D01*
X001659Y001718D01*
X001659Y001737D01*
X001641Y001755D01*
X001586Y001755D01*
X001586Y001718D01*
X001586Y001755D02*
X001622Y001792D01*
X001659Y001810D01*
X001733Y001810D02*
X001806Y001700D01*
X001733Y001700D02*
X001806Y001810D01*
X002438Y001292D02*
X002438Y001218D01*
X002457Y001200D01*
X002493Y001200D01*
X002512Y001218D01*
X002586Y001218D02*
X002586Y001200D01*
X002586Y001218D02*
X002659Y001292D01*
X002659Y001310D01*
X002586Y001310D01*
X002512Y001292D02*
X002493Y001310D01*
X002457Y001310D01*
X002438Y001292D01*
X002733Y001310D02*
X002806Y001200D01*
X002733Y001200D02*
X002806Y001310D01*
X003818Y001325D02*
X003892Y001325D01*
X003892Y001343D02*
X003892Y001270D01*
X003892Y001343D02*
X003855Y001380D01*
X003818Y001343D01*
X003818Y001270D01*
X003966Y001325D02*
X004039Y001325D01*
X004021Y001270D02*
X004021Y001380D01*
X003966Y001325D01*
X004113Y001343D02*
X004131Y001325D01*
X004186Y001325D01*
X004186Y001288D02*
X004186Y001362D01*
X004168Y001380D01*
X004131Y001380D01*
X004113Y001362D01*
X004113Y001343D01*
X004113Y001288D02*
X004131Y001270D01*
X004168Y001270D01*
X004186Y001288D01*
X004260Y001288D02*
X004260Y001307D01*
X004279Y001325D01*
X004315Y001325D01*
X004334Y001307D01*
X004334Y001288D01*
X004315Y001270D01*
X004279Y001270D01*
X004260Y001288D01*
X004279Y001325D02*
X004260Y001343D01*
X004260Y001362D01*
X004279Y001380D01*
X004315Y001380D01*
X004334Y001362D01*
X004334Y001343D01*
X004315Y001325D01*
X004408Y001307D02*
X004426Y001325D01*
X004463Y001325D01*
X004481Y001307D01*
X004481Y001288D01*
X004463Y001270D01*
X004426Y001270D01*
X004408Y001288D01*
X004408Y001307D01*
X004426Y001325D02*
X004408Y001343D01*
X004408Y001362D01*
X004426Y001380D01*
X004463Y001380D01*
X004481Y001362D01*
X004481Y001343D01*
X004463Y001325D01*
X005188Y001110D02*
X005188Y001000D01*
X005188Y001037D02*
X005243Y001037D01*
X005262Y001055D01*
X005262Y001092D01*
X005243Y001110D01*
X005188Y001110D01*
X005225Y001037D02*
X005262Y001000D01*
X005336Y001055D02*
X005409Y001055D01*
X005391Y001000D02*
X005391Y001110D01*
X005336Y001055D01*
X005483Y001000D02*
X005556Y001110D01*
X005483Y001110D02*
X005556Y001000D01*
X005913Y001733D02*
X005913Y001788D01*
X005932Y001806D01*
X005968Y001806D01*
X005987Y001788D01*
X005987Y001733D01*
X006023Y001733D02*
X005913Y001733D01*
X005987Y001770D02*
X006023Y001806D01*
X006005Y001880D02*
X006023Y001899D01*
X006023Y001935D01*
X006005Y001954D01*
X005987Y001954D01*
X005968Y001935D01*
X005968Y001917D01*
X005968Y001935D02*
X005950Y001954D01*
X005932Y001954D01*
X005913Y001935D01*
X005913Y001899D01*
X005932Y001880D01*
X005913Y002028D02*
X006023Y002101D01*
X006023Y002028D02*
X005913Y002101D01*
X005905Y004233D02*
X005832Y004233D01*
X005813Y004251D01*
X005813Y004288D01*
X005832Y004306D01*
X005905Y004306D02*
X005923Y004288D01*
X005923Y004251D01*
X005905Y004233D01*
X005868Y004380D02*
X005868Y004454D01*
X005923Y004435D02*
X005813Y004435D01*
X005868Y004380D01*
X005813Y004528D02*
X005923Y004601D01*
X005923Y004528D02*
X005813Y004601D01*
X006988Y004510D02*
X006988Y004400D01*
X006988Y004437D02*
X007043Y004437D01*
X007062Y004455D01*
X007062Y004492D01*
X007043Y004510D01*
X006988Y004510D01*
X007025Y004437D02*
X007062Y004400D01*
X007136Y004400D02*
X007209Y004400D01*
X007172Y004400D02*
X007172Y004510D01*
X007136Y004473D01*
X007283Y004510D02*
X007356Y004400D01*
X007283Y004400D02*
X007356Y004510D01*
X004573Y004501D02*
X004555Y004483D01*
X004573Y004501D02*
X004573Y004538D01*
X004555Y004556D01*
X004537Y004556D01*
X004518Y004538D01*
X004518Y004501D01*
X004500Y004483D01*
X004482Y004483D01*
X004463Y004501D01*
X004463Y004538D01*
X004482Y004556D01*
X004482Y004630D02*
X004463Y004649D01*
X004463Y004685D01*
X004482Y004704D01*
X004500Y004704D01*
X004573Y004630D01*
X004573Y004704D01*
X004573Y004778D02*
X004463Y004851D01*
X004463Y004778D02*
X004573Y004851D01*
X003873Y004851D02*
X003763Y004778D01*
X003763Y004851D02*
X003873Y004778D01*
X003873Y004704D02*
X003873Y004630D01*
X003873Y004667D02*
X003763Y004667D01*
X003800Y004630D01*
X003782Y004556D02*
X003763Y004538D01*
X003763Y004501D01*
X003782Y004483D01*
X003800Y004483D01*
X003818Y004501D01*
X003818Y004538D01*
X003837Y004556D01*
X003855Y004556D01*
X003873Y004538D01*
X003873Y004501D01*
X003855Y004483D01*
X002156Y004900D02*
X002083Y005010D01*
X002156Y005010D02*
X002083Y004900D01*
X002009Y004900D02*
X001936Y004900D01*
X001972Y004900D02*
X001972Y005010D01*
X001936Y004973D01*
X001862Y004992D02*
X001843Y005010D01*
X001807Y005010D01*
X001788Y004992D01*
X001788Y004918D01*
X001807Y004900D01*
X001843Y004900D01*
X001862Y004918D01*
X000956Y004335D02*
X000883Y004225D01*
X000956Y004225D02*
X000883Y004335D01*
X000809Y004317D02*
X000809Y004298D01*
X000791Y004280D01*
X000809Y004262D01*
X000809Y004243D01*
X000791Y004225D01*
X000754Y004225D01*
X000736Y004243D01*
X000772Y004280D02*
X000791Y004280D01*
X000809Y004317D02*
X000791Y004335D01*
X000754Y004335D01*
X000736Y004317D01*
X000662Y004317D02*
X000643Y004335D01*
X000607Y004335D01*
X000588Y004317D01*
X000588Y004243D01*
X000607Y004225D01*
X000643Y004225D01*
X000662Y004243D01*
X001746Y003632D02*
X001746Y003558D01*
X001765Y003540D01*
X001801Y003540D01*
X001820Y003558D01*
X001820Y003632D02*
X001801Y003650D01*
X001765Y003650D01*
X001746Y003632D01*
X001894Y003632D02*
X001912Y003650D01*
X001949Y003650D01*
X001967Y003632D01*
X001967Y003613D01*
X001894Y003540D01*
X001967Y003540D01*
X002041Y003540D02*
X002114Y003650D01*
X002041Y003650D02*
X002114Y003540D01*
X002113Y002751D02*
X002223Y002678D01*
X002223Y002751D02*
X002113Y002678D01*
X002113Y002604D02*
X002113Y002530D01*
X002168Y002530D01*
X002150Y002567D01*
X002150Y002585D01*
X002168Y002604D01*
X002205Y002604D01*
X002223Y002585D01*
X002223Y002549D01*
X002205Y002530D01*
X002205Y002456D02*
X002223Y002438D01*
X002223Y002401D01*
X002205Y002383D01*
X002132Y002383D01*
X002113Y002401D01*
X002113Y002438D01*
X002132Y002456D01*
X001123Y002456D02*
X001087Y002420D01*
X001087Y002438D02*
X001087Y002383D01*
X001123Y002383D02*
X001013Y002383D01*
X001013Y002438D01*
X001032Y002456D01*
X001068Y002456D01*
X001087Y002438D01*
X001123Y002530D02*
X001050Y002604D01*
X001032Y002604D01*
X001013Y002585D01*
X001013Y002549D01*
X001032Y002530D01*
X001123Y002530D02*
X001123Y002604D01*
X001123Y002678D02*
X001013Y002751D01*
X001013Y002678D02*
X001123Y002751D01*
D13*
X005753Y003322D02*
X005753Y003362D01*
X005767Y003375D01*
X005793Y003375D01*
X005807Y003362D01*
X005807Y003322D01*
X005833Y003322D02*
X005753Y003322D01*
X005807Y003348D02*
X005833Y003375D01*
X005820Y003432D02*
X005793Y003432D01*
X005780Y003446D01*
X005780Y003472D01*
X005793Y003486D01*
X005807Y003486D01*
X005807Y003432D01*
X005820Y003432D02*
X005833Y003446D01*
X005833Y003472D01*
X005780Y003543D02*
X005833Y003569D01*
X005780Y003596D01*
X005767Y003764D02*
X005753Y003777D01*
X005753Y003804D01*
X005767Y003817D01*
X005820Y003764D01*
X005833Y003777D01*
X005833Y003804D01*
X005820Y003817D01*
X005767Y003817D01*
X005767Y003764D02*
X005820Y003764D01*
X005820Y003874D02*
X005820Y003888D01*
X005833Y003888D01*
X005833Y003874D01*
X005820Y003874D01*
X005833Y003929D02*
X005833Y003983D01*
X005833Y003956D02*
X005753Y003956D01*
X005780Y003929D01*
X006813Y003194D02*
X006893Y003141D01*
X006893Y003194D02*
X006813Y003141D01*
X006813Y003057D02*
X006893Y003057D01*
X006893Y003030D02*
X006893Y003084D01*
X006840Y003030D02*
X006813Y003057D01*
X006813Y002973D02*
X006813Y002920D01*
X006813Y002947D02*
X006893Y002947D01*
M02*
