M48
;DRILL file {Pcbnew (2013-07-07 BZR 4022)-stable} date 19-01-2014 11:23:06 PM
;FORMAT={2:4/ absolute / inch / suppress leading zeros}
FMAT,2
INCH,TZ
T1C0.016
T2C0.032
%
G90
G05
M72
T1
X1325Y5125
X1350Y4725
X1350Y3350
X1350Y2975
X1700Y5175
X1725Y4725
X1725Y3375
X1725Y3000
X1852Y5973
X1864Y7305
X2569Y6649
X2625Y1175
X2900Y4825
X2900Y4425
X2900Y4050
X2900Y3675
X2900Y3250
X3050Y5450
X3100Y6650
X3200Y5050
X3200Y4650
X3200Y4250
X3200Y3850
X3200Y3450
X3200Y3050
X3200Y2650
X3232Y7269
X3450Y900
X3525Y4875
X3525Y4450
X3525Y4050
X3525Y3575
X3525Y3225
X3525Y2875
X3525Y2450
X3700Y5750
X3865Y5457
X3900Y4225
X3900Y3800
X4050Y1050
X4186Y7287
X4975Y4450
X5068Y6454
X5200Y7100
T2
X550Y7550
X550Y6550
X550Y5550
X550Y4550
X550Y3550
X550Y2550
X550Y1550
X550Y550
X5550Y7550
X5550Y6550
X5550Y5550
X5550Y4550
X5550Y3550
X5550Y2550
X5550Y1550
X5550Y550
T0
M30
