M48
;Layer_Color=9474304
;FILE_FORMAT=4:4
METRIC,TZ
;TYPE=PLATED
T1F00S00C0.2000
T2F00S00C0.3000
T3F00S00C0.3300
T4F00S00C0.5000
T5F00S00C0.9000
%
T01
X44018Y43912
X71500Y68250
X126000Y63250
X142000Y63000
X138429Y44000
X133768Y97662
X160462Y89474
T02
X13250Y32000
X13500Y55500
X21018Y83912
X64250Y95500
X81268Y87162
X117750Y87250
X157018Y113912
X190256Y78844
X192974Y36896
X137348Y30652
X43000Y31000
T03
X87248Y51312
Y63312
Y75312
X99248
X111248
Y63312
X99248
Y51312
X111248
T04
X73848Y126692
X125918Y126692
T05
X10348Y12282
X35748
X61148
X86548
X111948
X137348
X162748
X188148
Y142282
X162748
X137348
X111948
X86548
X61148
X35748
X10348
M30
