%FSLAX44Y44*%
%MOMM*%
G71*
G01*
G75*
G04 Layer_Color=32768*
%ADD10C,0.2540*%
%ADD11C,1.0000*%
%ADD12R,1.4000X1.1000*%
%ADD13R,1.7000X1.1000*%
%ADD14R,0.5000X0.6000*%
%ADD15R,0.6000X0.5000*%
%ADD16O,1.1500X0.3000*%
%ADD17O,0.3000X1.1500*%
%ADD18R,3.1500X3.1500*%
%ADD19R,0.9000X1.0000*%
%ADD20R,0.9000X1.1000*%
%ADD21C,0.4000*%
%ADD22C,0.3000*%
%ADD23C,1.5000*%
%ADD24C,0.3000*%
%ADD25C,0.4000*%
%ADD26C,0.5000*%
%ADD27C,0.6000*%
%ADD28C,0.6600*%
%ADD29R,6.5500X4.6000*%
%ADD30C,0.2500*%
%ADD31C,0.1000*%
%ADD32C,0.2000*%
%ADD33C,0.1500*%
%ADD34R,1.6032X1.3032*%
%ADD35R,1.9032X1.3032*%
%ADD36R,0.7032X0.8032*%
%ADD37R,0.8032X0.7032*%
%ADD38O,1.3532X0.5032*%
%ADD39O,0.5032X1.3532*%
%ADD40R,3.3532X3.3532*%
%ADD41R,1.1032X1.2032*%
%ADD42R,1.1032X1.3032*%
%ADD43C,1.7032*%
%ADD44C,0.5032*%
%ADD45C,0.6032*%
%ADD46C,0.7032*%
%ADD47C,0.8032*%
%ADD48C,0.8632*%
D31*
X116750Y103000D02*
X132750D01*
X116750Y131000D02*
X132750D01*
X116750Y103000D02*
Y131000D01*
X132750Y103000D02*
Y131000D01*
X124750Y112000D02*
Y122000D01*
X119750Y117000D02*
X129750D01*
X69750Y117750D02*
X79750D01*
X74750Y112750D02*
Y122750D01*
X66750Y103750D02*
Y131750D01*
X82750Y103750D02*
Y131750D01*
X66750Y103750D02*
X82750D01*
X66750Y131750D02*
X82750D01*
X15250Y103750D02*
X25250D01*
X20250Y98750D02*
Y108750D01*
X10750Y83750D02*
Y123750D01*
X29750Y83750D02*
Y123750D01*
X10750Y83750D02*
X29750D01*
X10750Y123750D02*
X29750D01*
X134500Y46500D02*
X141500D01*
X134500Y28500D02*
X141500D01*
Y46500D01*
X134500Y28500D02*
Y46500D01*
X138000Y34500D02*
Y40500D01*
X135000Y37500D02*
X141000D01*
X26250Y67500D02*
Y73500D01*
X23250Y70500D02*
X29250D01*
X17250Y74000D02*
X35250D01*
X17250Y67000D02*
X35250D01*
X17250D02*
Y74000D01*
X35250Y67000D02*
Y74000D01*
X157000Y112250D02*
Y119250D01*
X175000Y112250D02*
Y119250D01*
X157000D02*
X175000D01*
X157000Y112250D02*
X175000D01*
X163000Y115750D02*
X169000D01*
X166000Y112750D02*
Y118750D01*
X51000Y28000D02*
Y34000D01*
X48000Y31000D02*
X54000D01*
X42000Y34500D02*
X60000D01*
X42000Y27500D02*
X60000D01*
X42000D02*
Y34500D01*
X60000Y27500D02*
Y34500D01*
Y39500D02*
Y46500D01*
X42000Y39500D02*
Y46500D01*
Y39500D02*
X60000D01*
X42000Y46500D02*
X60000D01*
X48000Y43000D02*
X54000D01*
X51000Y40000D02*
Y46000D01*
X50750Y53000D02*
Y59000D01*
X47750Y56000D02*
X53750D01*
X41750Y52500D02*
X59750D01*
X41750Y59500D02*
X59750D01*
Y52500D02*
Y59500D01*
X41750Y52500D02*
Y59500D01*
X129250Y92250D02*
Y98250D01*
X126250Y95250D02*
X132250D01*
X120250Y98750D02*
X138250D01*
X120250Y91750D02*
X138250D01*
X120250D02*
Y98750D01*
X138250Y91750D02*
Y98750D01*
X78250Y92000D02*
Y99000D01*
X60250Y92000D02*
Y99000D01*
Y92000D02*
X78250D01*
X60250Y99000D02*
X78250D01*
X66250Y95500D02*
X72250D01*
X69250Y92500D02*
Y98500D01*
X70248Y34312D02*
Y92312D01*
X128248Y34312D02*
Y92312D01*
X70248D02*
X128248D01*
X70248Y34312D02*
X128248D01*
X94248Y63312D02*
X104248D01*
X99248Y58312D02*
Y68312D01*
X175250Y124000D02*
Y131000D01*
X157250Y124000D02*
Y131000D01*
Y124000D02*
X175250D01*
X157250Y131000D02*
X175250D01*
X163250Y127500D02*
X169250D01*
X166250Y124500D02*
Y130500D01*
M02*
