%FSLAX44Y44*%
%MOMM*%
G71*
G01*
G75*
G04 Layer_Color=16711935*
%ADD10C,0.2540*%
%ADD11C,1.0000*%
%ADD12R,1.4000X1.1000*%
%ADD13R,1.7000X1.1000*%
%ADD14R,0.5000X0.6000*%
%ADD15R,0.6000X0.5000*%
%ADD16O,1.1500X0.3000*%
%ADD17O,0.3000X1.1500*%
%ADD18R,3.1500X3.1500*%
%ADD19R,0.9000X1.0000*%
%ADD20R,0.9000X1.1000*%
%ADD21C,0.4000*%
%ADD22C,0.3000*%
%ADD23C,1.5000*%
%ADD24C,0.3000*%
%ADD25C,0.4000*%
%ADD26C,0.5000*%
%ADD27C,0.6000*%
%ADD28C,0.6600*%
%ADD29R,6.5500X4.6000*%
%ADD30C,0.2500*%
%ADD31C,0.1000*%
%ADD32C,0.2000*%
%ADD33C,0.1500*%
%ADD34R,1.6032X1.3032*%
%ADD35R,1.9032X1.3032*%
%ADD36R,0.7032X0.8032*%
%ADD37R,0.8032X0.7032*%
%ADD38O,1.3532X0.5032*%
%ADD39O,0.5032X1.3532*%
%ADD40R,3.3532X3.3532*%
%ADD41R,1.1032X1.2032*%
%ADD42R,1.1032X1.3032*%
%ADD43C,1.7032*%
%ADD44C,0.5032*%
%ADD45C,0.6032*%
%ADD46C,0.7032*%
%ADD47C,0.8032*%
%ADD48C,0.8632*%
D31*
X87998Y79562D02*
G03*
X87998Y79562I-5000J0D01*
G01*
X117500Y106000D02*
X132000D01*
X117500Y128000D02*
X132000D01*
X117500Y106000D02*
Y128000D01*
X132000Y106000D02*
Y128000D01*
X67500Y106750D02*
Y128750D01*
X82000Y106750D02*
Y128750D01*
X67500Y106750D02*
X82000D01*
X67500Y128750D02*
X82000D01*
X11250Y86750D02*
Y120750D01*
X29250Y86750D02*
Y120750D01*
X11250Y86750D02*
X29250D01*
X11250Y120750D02*
X29250D01*
X135000Y43000D02*
X141000D01*
X135000Y32000D02*
X141000D01*
Y43000D01*
X135000Y32000D02*
Y43000D01*
X20750Y73500D02*
X31750D01*
X20750Y67500D02*
X31750D01*
X20750D02*
Y73500D01*
X31750Y67500D02*
Y73500D01*
X160500Y112750D02*
Y118750D01*
X171500Y112750D02*
Y118750D01*
X160500D02*
X171500D01*
X160500Y112750D02*
X171500D01*
X45500Y34000D02*
X56500D01*
X45500Y28000D02*
X56500D01*
X45500D02*
Y34000D01*
X56500Y28000D02*
Y34000D01*
Y40000D02*
Y46000D01*
X45500Y40000D02*
Y46000D01*
Y40000D02*
X56500D01*
X45500Y46000D02*
X56500D01*
X45250Y53000D02*
X56250D01*
X45250Y59000D02*
X56250D01*
Y53000D02*
Y59000D01*
X45250Y53000D02*
Y59000D01*
X123750Y98250D02*
X134750D01*
X123750Y92250D02*
X134750D01*
X123750D02*
Y98250D01*
X134750Y92250D02*
Y98250D01*
X74750Y92500D02*
Y98500D01*
X63750Y92500D02*
Y98500D01*
Y92500D02*
X74750D01*
X63750Y98500D02*
X74750D01*
X73498Y37562D02*
Y89062D01*
X124998Y37562D02*
Y89062D01*
X73498D02*
X124998D01*
X73498Y37562D02*
X124998D01*
X171750Y124500D02*
Y130500D01*
X160750Y124500D02*
Y130500D01*
Y124500D02*
X171750D01*
X160750Y130500D02*
X171750D01*
M02*
