%FSLAX44Y44*%
%MOMM*%
G71*
G01*
G75*
G04 Layer_Physical_Order=2*
G04 Layer_Color=16711680*
%ADD10C,0.2540*%
%ADD11C,1.0000*%
%ADD12R,1.4000X1.1000*%
%ADD13R,1.7000X1.1000*%
%ADD14R,0.5000X0.6000*%
%ADD15R,0.6000X0.5000*%
%ADD16O,1.1500X0.3000*%
%ADD17O,0.3000X1.1500*%
%ADD18R,3.1500X3.1500*%
%ADD19R,0.9000X1.0000*%
%ADD20R,0.9000X1.1000*%
%ADD21C,0.4000*%
%ADD22C,0.3000*%
%ADD23C,1.5000*%
%ADD24C,0.3000*%
%ADD25C,0.4000*%
%ADD26C,0.5000*%
%ADD27C,0.6000*%
%ADD28C,0.6600*%
%ADD29R,6.5500X4.6000*%
G36*
X182796Y150830D02*
X180987Y149442D01*
X179378Y147345D01*
X178366Y144903D01*
X178188Y143552D01*
X188150D01*
Y142284D01*
X189418D01*
Y132322D01*
X190769Y132500D01*
X193211Y133512D01*
X194894Y134803D01*
X196033Y134241D01*
Y79552D01*
X194769Y79427D01*
X194886Y78844D01*
X194769Y78260D01*
X196033Y78136D01*
Y41659D01*
X194913Y41060D01*
X194745Y41172D01*
X194244Y41272D01*
Y36893D01*
Y32519D01*
X194745Y32619D01*
X194913Y32731D01*
X196033Y32132D01*
Y20322D01*
X194894Y19760D01*
X193211Y21051D01*
X190769Y22063D01*
X188148Y22408D01*
X185527Y22063D01*
X183085Y21051D01*
X180987Y19442D01*
X179378Y17345D01*
X178366Y14902D01*
X178021Y12282D01*
X178366Y9661D01*
X179378Y7218D01*
X180987Y5121D01*
X182878Y3670D01*
X182470Y2467D01*
X168426D01*
X168017Y3670D01*
X169908Y5121D01*
X171518Y7218D01*
X172529Y9661D01*
X172875Y12282D01*
X172529Y14902D01*
X171518Y17345D01*
X169908Y19442D01*
X167811Y21051D01*
X165369Y22063D01*
X162748Y22408D01*
X160127Y22063D01*
X157684Y21051D01*
X155587Y19442D01*
X153978Y17345D01*
X152966Y14902D01*
X152621Y12282D01*
X152966Y9661D01*
X153978Y7218D01*
X155587Y5121D01*
X157478Y3670D01*
X157070Y2467D01*
X143026D01*
X142617Y3670D01*
X144508Y5121D01*
X146118Y7218D01*
X147129Y9661D01*
X147474Y12282D01*
X147309Y13542D01*
X147328Y13652D01*
X147245Y14025D01*
X147129Y14902D01*
X146118Y17345D01*
X145897Y17632D01*
X143954Y22042D01*
X141745Y29488D01*
X141977Y30652D01*
X141624Y32424D01*
X140621Y33925D01*
X139119Y34929D01*
X138427Y35066D01*
X138247Y35247D01*
X136987Y36089D01*
X135500Y36385D01*
X134013Y36089D01*
X132753Y35247D01*
X131911Y33987D01*
X131615Y32500D01*
X131911Y31013D01*
X132753Y29753D01*
X132934Y29573D01*
X132950Y29488D01*
X130741Y22042D01*
X128799Y17632D01*
X128578Y17345D01*
X127566Y14902D01*
X127451Y14025D01*
X127368Y13652D01*
X127387Y13542D01*
X127221Y12282D01*
X127566Y9661D01*
X128578Y7218D01*
X130187Y5121D01*
X132078Y3670D01*
X131670Y2467D01*
X117626D01*
X117217Y3670D01*
X119108Y5121D01*
X120718Y7218D01*
X121729Y9661D01*
X122074Y12282D01*
X121729Y14902D01*
X120718Y17345D01*
X119108Y19442D01*
X117011Y21051D01*
X114569Y22063D01*
X111948Y22408D01*
X109327Y22063D01*
X106884Y21051D01*
X104787Y19442D01*
X103178Y17345D01*
X102166Y14902D01*
X101821Y12282D01*
X102166Y9661D01*
X103178Y7218D01*
X104787Y5121D01*
X106678Y3670D01*
X106270Y2467D01*
X92226D01*
X91817Y3670D01*
X93708Y5121D01*
X95318Y7218D01*
X96329Y9661D01*
X96674Y12282D01*
X96329Y14902D01*
X95318Y17345D01*
X93708Y19442D01*
X91611Y21051D01*
X89169Y22063D01*
X86548Y22408D01*
X83927Y22063D01*
X81484Y21051D01*
X79387Y19442D01*
X77778Y17345D01*
X76766Y14902D01*
X76421Y12282D01*
X76766Y9661D01*
X77778Y7218D01*
X79387Y5121D01*
X81278Y3670D01*
X80870Y2467D01*
X66825D01*
X66417Y3670D01*
X68308Y5121D01*
X69918Y7218D01*
X70929Y9661D01*
X71274Y12282D01*
X70929Y14902D01*
X69918Y17345D01*
X68308Y19442D01*
X66211Y21051D01*
X63769Y22063D01*
X61148Y22408D01*
X58527Y22063D01*
X56084Y21051D01*
X53987Y19442D01*
X52378Y17345D01*
X51366Y14902D01*
X51021Y12282D01*
X51366Y9661D01*
X52378Y7218D01*
X53987Y5121D01*
X55878Y3670D01*
X55470Y2467D01*
X41425D01*
X41017Y3670D01*
X42908Y5121D01*
X44518Y7218D01*
X45529Y9661D01*
X45875Y12282D01*
X45529Y14902D01*
X44518Y17345D01*
X42908Y19442D01*
X40811Y21051D01*
X38369Y22063D01*
X35748Y22408D01*
X33127Y22063D01*
X30684Y21051D01*
X28587Y19442D01*
X26978Y17345D01*
X25966Y14902D01*
X25621Y12282D01*
X25966Y9661D01*
X26978Y7218D01*
X28587Y5121D01*
X30478Y3670D01*
X30070Y2467D01*
X16026D01*
X15617Y3670D01*
X17508Y5121D01*
X19118Y7218D01*
X20129Y9661D01*
X20475Y12282D01*
X20129Y14902D01*
X19118Y17345D01*
X17508Y19442D01*
X15411Y21051D01*
X12969Y22063D01*
X10348Y22408D01*
X7727Y22063D01*
X5285Y21051D01*
X3606Y19764D01*
X2467Y20325D01*
Y134238D01*
X3606Y134799D01*
X5285Y133512D01*
X7727Y132500D01*
X9624Y132250D01*
X37502Y104372D01*
X39077Y103164D01*
X39837Y102849D01*
X40133Y102726D01*
Y45090D01*
X39899Y43912D01*
X40212Y42335D01*
X41105Y40999D01*
X42442Y40106D01*
X44018Y39792D01*
X45594Y40106D01*
X46930Y40999D01*
X47823Y42335D01*
X48137Y43912D01*
X47902Y45090D01*
Y102145D01*
X76100D01*
X82305Y95940D01*
X81819Y94767D01*
X81268D01*
X79300Y94508D01*
X77465Y93748D01*
X75890Y92539D01*
X74682Y90964D01*
X73922Y89130D01*
X73663Y87162D01*
X73922Y85193D01*
X74682Y83359D01*
X75890Y81784D01*
X77465Y80575D01*
X79300Y79816D01*
X81268Y79556D01*
X81713D01*
X82312Y78436D01*
X81747Y77590D01*
X81293Y75312D01*
X81747Y73033D01*
X83037Y71101D01*
X84765Y69947D01*
Y68677D01*
X83037Y67522D01*
X81747Y65590D01*
X81293Y63312D01*
X81747Y61033D01*
X83037Y59101D01*
X84765Y57947D01*
Y56677D01*
X83037Y55522D01*
X81747Y53590D01*
X81293Y51312D01*
X81747Y49033D01*
X83037Y47101D01*
X84969Y45810D01*
X87248Y45357D01*
X89527Y45810D01*
X91458Y47101D01*
X92613Y48829D01*
X93883D01*
X95037Y47101D01*
X96969Y45810D01*
X99248Y45357D01*
X101526Y45810D01*
X103458Y47101D01*
X104613Y48829D01*
X105883D01*
X107037Y47101D01*
X108969Y45810D01*
X111248Y45357D01*
X113526Y45810D01*
X115458Y47101D01*
X116749Y49033D01*
X117202Y51312D01*
X116749Y53590D01*
X115458Y55522D01*
X113730Y56677D01*
Y57947D01*
X115458Y59101D01*
X116749Y61033D01*
X117202Y63312D01*
X116749Y65590D01*
X115458Y67522D01*
X113730Y68677D01*
Y69947D01*
X115458Y71101D01*
X116749Y73033D01*
X117202Y75312D01*
X116749Y77590D01*
X115458Y79522D01*
X115469Y79556D01*
X117662D01*
X119630Y79816D01*
X120167Y80038D01*
X121464Y80575D01*
X123039Y81784D01*
X123128Y81872D01*
X123134Y81881D01*
X123142Y81887D01*
X123736Y82666D01*
X124336Y83448D01*
X124340Y83457D01*
X124347Y83465D01*
X124721Y84375D01*
X125096Y85282D01*
X125097Y85292D01*
X125101Y85302D01*
X125227Y86278D01*
X125355Y87250D01*
X125354Y87260D01*
X125355Y87271D01*
X125224Y88245D01*
X125096Y89218D01*
X125092Y89228D01*
X125091Y89238D01*
X124713Y90142D01*
X124336Y91053D01*
X124330Y91061D01*
X124326Y91070D01*
X123726Y91848D01*
X123128Y92628D01*
X123119Y92634D01*
X123113Y92642D01*
X122335Y93236D01*
X121552Y93836D01*
X121543Y93840D01*
X121535Y93847D01*
X120628Y94219D01*
X119718Y94596D01*
X119708Y94597D01*
X119698Y94601D01*
X118721Y94727D01*
X117750Y94855D01*
X117740Y94854D01*
X117729Y94855D01*
X104935Y94820D01*
X84628Y115128D01*
X83053Y116336D01*
X81756Y116873D01*
X81218Y117096D01*
X79250Y117355D01*
X46030D01*
X31601Y131784D01*
X32306Y132840D01*
X33127Y132500D01*
X34478Y132322D01*
Y142284D01*
X35745D01*
Y143552D01*
X45707D01*
X45529Y144903D01*
X44518Y147345D01*
X42908Y149442D01*
X40811Y151052D01*
X41006Y152033D01*
X55388D01*
X55796Y150830D01*
X53987Y149442D01*
X52378Y147345D01*
X51366Y144903D01*
X51021Y142282D01*
X51366Y139661D01*
X52378Y137218D01*
X53987Y135121D01*
X56084Y133512D01*
X58527Y132500D01*
X61148Y132155D01*
X63769Y132500D01*
X66211Y133512D01*
X68308Y135121D01*
X69918Y137218D01*
X70929Y139661D01*
X71274Y142282D01*
X70929Y144903D01*
X69918Y147345D01*
X68308Y149442D01*
X66211Y151052D01*
X66406Y152033D01*
X80788D01*
X81196Y150830D01*
X79387Y149442D01*
X77778Y147345D01*
X76766Y144903D01*
X76421Y142282D01*
X76766Y139661D01*
X77778Y137218D01*
X79387Y135121D01*
X81484Y133512D01*
X83927Y132500D01*
X86548Y132155D01*
X89169Y132500D01*
X91611Y133512D01*
X93708Y135121D01*
X95318Y137218D01*
X96329Y139661D01*
X96674Y142282D01*
X96329Y144903D01*
X95318Y147345D01*
X93708Y149442D01*
X91611Y151052D01*
X91806Y152033D01*
X106188D01*
X106596Y150830D01*
X104787Y149442D01*
X103178Y147345D01*
X102166Y144903D01*
X101821Y142282D01*
X102166Y139661D01*
X103178Y137218D01*
X104787Y135121D01*
X106884Y133512D01*
X109327Y132500D01*
X111948Y132155D01*
X114569Y132500D01*
X117011Y133512D01*
X119108Y135121D01*
X120718Y137218D01*
X121729Y139661D01*
X122074Y142282D01*
X121729Y144903D01*
X120718Y147345D01*
X119108Y149442D01*
X117011Y151052D01*
X117206Y152033D01*
X131588D01*
X131996Y150830D01*
X130187Y149442D01*
X128578Y147345D01*
X127566Y144903D01*
X127221Y142282D01*
X127566Y139661D01*
X128578Y137218D01*
X130187Y135121D01*
X132284Y133512D01*
X134727Y132500D01*
X137348Y132155D01*
X139969Y132500D01*
X142411Y133512D01*
X144508Y135121D01*
X146118Y137218D01*
X147129Y139661D01*
X147474Y142282D01*
X147129Y144903D01*
X146118Y147345D01*
X144508Y149442D01*
X142411Y151052D01*
X142606Y152033D01*
X156988D01*
X157396Y150830D01*
X155587Y149442D01*
X153978Y147345D01*
X152966Y144903D01*
X152621Y142282D01*
X152966Y139661D01*
X153978Y137218D01*
X155587Y135121D01*
X157684Y133512D01*
X160127Y132500D01*
X162748Y132155D01*
X165369Y132500D01*
X167811Y133512D01*
X169908Y135121D01*
X171518Y137218D01*
X172529Y139661D01*
X172875Y142282D01*
X172529Y144903D01*
X171518Y147345D01*
X169908Y149442D01*
X167811Y151052D01*
X168006Y152033D01*
X182388D01*
X182796Y150830D01*
D02*
G37*
%LPC*%
G36*
X124730Y61980D02*
X122134D01*
X122194Y61674D01*
X123087Y60337D01*
X124424Y59444D01*
X124730Y59384D01*
Y61980D01*
D02*
G37*
G36*
X70230Y66980D02*
X67634D01*
X67694Y66674D01*
X68587Y65337D01*
X69924Y64444D01*
X70230Y64384D01*
Y66980D01*
D02*
G37*
G36*
X129867Y61980D02*
X127270D01*
Y59384D01*
X127576Y59444D01*
X128913Y60337D01*
X129806Y61674D01*
X129867Y61980D01*
D02*
G37*
G36*
X12230Y60386D02*
X11533Y60248D01*
X9866Y59134D01*
X8752Y57467D01*
X8614Y56770D01*
X12230D01*
Y60386D01*
D02*
G37*
G36*
X14770D02*
Y56770D01*
X18386D01*
X18248Y57467D01*
X17134Y59134D01*
X15467Y60248D01*
X14770Y60386D01*
D02*
G37*
G36*
X160462Y93593D02*
X158885Y93279D01*
X157549Y92386D01*
X156656Y91050D01*
X156343Y89474D01*
X156577Y88295D01*
Y83071D01*
X140087Y66580D01*
X139087Y65913D01*
X138194Y64576D01*
X137881Y63000D01*
X138194Y61424D01*
X139087Y60087D01*
X140424Y59194D01*
X142000Y58881D01*
X143576Y59194D01*
X144913Y60087D01*
X145580Y61087D01*
X163209Y78715D01*
X164051Y79975D01*
X164347Y81462D01*
X164347Y81462D01*
X164347Y81462D01*
Y81462D01*
Y88295D01*
X164581Y89474D01*
X164267Y91050D01*
X163375Y92386D01*
X162038Y93279D01*
X160462Y93593D01*
D02*
G37*
G36*
X70230Y72116D02*
X69924Y72056D01*
X68587Y71163D01*
X67694Y69826D01*
X67634Y69520D01*
X70230D01*
Y72116D01*
D02*
G37*
G36*
X72770D02*
Y69520D01*
X75367D01*
X75306Y69826D01*
X74413Y71163D01*
X73076Y72056D01*
X72770Y72116D01*
D02*
G37*
G36*
X188986Y77574D02*
X185880D01*
X185979Y77073D01*
X186983Y75571D01*
X188485Y74567D01*
X188986Y74468D01*
Y77574D01*
D02*
G37*
G36*
X75367Y66980D02*
X72770D01*
Y64384D01*
X73076Y64444D01*
X74413Y65337D01*
X75306Y66674D01*
X75367Y66980D01*
D02*
G37*
G36*
X124730Y67116D02*
X124424Y67056D01*
X123087Y66163D01*
X122194Y64826D01*
X122134Y64520D01*
X124730D01*
Y67116D01*
D02*
G37*
G36*
X127270D02*
Y64520D01*
X129867D01*
X129806Y64826D01*
X128913Y66163D01*
X127576Y67056D01*
X127270Y67116D01*
D02*
G37*
G36*
X18386Y54230D02*
X14770D01*
Y50614D01*
X15467Y50752D01*
X17134Y51866D01*
X18248Y53534D01*
X18386Y54230D01*
D02*
G37*
G36*
X18136Y30730D02*
X14520D01*
Y27114D01*
X15216Y27252D01*
X16884Y28366D01*
X17998Y30034D01*
X18136Y30730D01*
D02*
G37*
G36*
X41730Y35376D02*
X41229Y35277D01*
X39727Y34273D01*
X38723Y32771D01*
X38624Y32270D01*
X41730D01*
Y35376D01*
D02*
G37*
G36*
X44270D02*
Y32270D01*
X47376D01*
X47277Y32771D01*
X46273Y34273D01*
X44771Y35277D01*
X44270Y35376D01*
D02*
G37*
G36*
X41730Y29730D02*
X38624D01*
X38723Y29229D01*
X39727Y27727D01*
X41229Y26723D01*
X41730Y26624D01*
Y29730D01*
D02*
G37*
G36*
X47376D02*
X44270D01*
Y26624D01*
X44771Y26723D01*
X46273Y27727D01*
X47277Y29229D01*
X47376Y29730D01*
D02*
G37*
G36*
X11980Y30730D02*
X8364D01*
X8502Y30034D01*
X9616Y28366D01*
X11284Y27252D01*
X11980Y27114D01*
Y30730D01*
D02*
G37*
G36*
X191704Y41272D02*
X191202Y41172D01*
X189701Y40169D01*
X188697Y38667D01*
X188598Y38166D01*
X191704D01*
Y41272D01*
D02*
G37*
G36*
X157018Y118540D02*
X155246Y118188D01*
X153745Y117185D01*
X152741Y115683D01*
X152389Y113912D01*
X152741Y112140D01*
X153745Y110638D01*
X155246Y109635D01*
X155938Y109497D01*
X170615Y94820D01*
Y55859D01*
X162641Y47885D01*
X139608D01*
X138429Y48119D01*
X136853Y47806D01*
X135517Y46913D01*
X134624Y45576D01*
X134310Y44000D01*
X134624Y42424D01*
X135517Y41087D01*
X136853Y40194D01*
X138429Y39881D01*
X139608Y40115D01*
X164250D01*
X165737Y40411D01*
X166997Y41253D01*
X166997Y41253D01*
X166997Y41253D01*
X177247Y51503D01*
X178089Y52763D01*
X178385Y54250D01*
X178385Y54250D01*
X178385Y54250D01*
Y54250D01*
Y96429D01*
X178089Y97916D01*
X177247Y99176D01*
X161432Y114991D01*
X161294Y115683D01*
X160291Y117185D01*
X158789Y118188D01*
X157018Y118540D01*
D02*
G37*
G36*
X12230Y54230D02*
X8614D01*
X8752Y53534D01*
X9866Y51866D01*
X11533Y50752D01*
X12230Y50614D01*
Y54230D01*
D02*
G37*
G36*
X191704Y35626D02*
X188598D01*
X188697Y35124D01*
X189701Y33622D01*
X191202Y32619D01*
X191704Y32519D01*
Y35626D01*
D02*
G37*
G36*
X11980Y36886D02*
X11284Y36748D01*
X9616Y35634D01*
X8502Y33967D01*
X8364Y33270D01*
X11980D01*
Y36886D01*
D02*
G37*
G36*
X14520D02*
Y33270D01*
X18136D01*
X17998Y33967D01*
X16884Y35634D01*
X15216Y36748D01*
X14520Y36886D01*
D02*
G37*
G36*
X79244Y125422D02*
X75118D01*
Y121296D01*
X76009Y121473D01*
X77842Y122697D01*
X79066Y124530D01*
X79244Y125422D01*
D02*
G37*
G36*
X124648Y125422D02*
X120522D01*
X120699Y124530D01*
X121924Y122697D01*
X123756Y121473D01*
X124648Y121296D01*
Y125422D01*
D02*
G37*
G36*
X131314D02*
X127188D01*
Y121296D01*
X128079Y121473D01*
X129912Y122697D01*
X131136Y124530D01*
X131314Y125422D01*
D02*
G37*
G36*
X132498Y101528D02*
X132191Y101467D01*
X130855Y100574D01*
X129962Y99238D01*
X129901Y98932D01*
X132498D01*
Y101528D01*
D02*
G37*
G36*
X135038D02*
Y98932D01*
X137634D01*
X137573Y99238D01*
X136680Y100574D01*
X135344Y101467D01*
X135038Y101528D01*
D02*
G37*
G36*
X72578Y125422D02*
X68452D01*
X68629Y124530D01*
X69854Y122697D01*
X71686Y121473D01*
X72578Y121296D01*
Y125422D01*
D02*
G37*
G36*
X127188Y132087D02*
Y127962D01*
X131314D01*
X131136Y128853D01*
X129912Y130686D01*
X128079Y131910D01*
X127188Y132087D01*
D02*
G37*
G36*
X45707Y141012D02*
X37018D01*
Y132322D01*
X38369Y132500D01*
X40811Y133512D01*
X42908Y135121D01*
X44518Y137218D01*
X45529Y139661D01*
X45707Y141012D01*
D02*
G37*
G36*
X186878D02*
X178188D01*
X178366Y139661D01*
X179378Y137218D01*
X180987Y135121D01*
X183085Y133512D01*
X185527Y132500D01*
X186878Y132322D01*
Y141012D01*
D02*
G37*
G36*
X72578Y132087D02*
X71686Y131910D01*
X69854Y130686D01*
X68629Y128853D01*
X68452Y127962D01*
X72578D01*
Y132087D01*
D02*
G37*
G36*
X75118D02*
Y127962D01*
X79244D01*
X79066Y128853D01*
X77842Y130686D01*
X76009Y131910D01*
X75118Y132087D01*
D02*
G37*
G36*
X124648Y132087D02*
X123756Y131910D01*
X121924Y130686D01*
X120699Y128853D01*
X120522Y127962D01*
X124648D01*
Y132087D01*
D02*
G37*
G36*
X65520Y99876D02*
Y96770D01*
X68626D01*
X68527Y97271D01*
X67523Y98773D01*
X66021Y99777D01*
X65520Y99876D01*
D02*
G37*
G36*
X188986Y83220D02*
X188485Y83121D01*
X186983Y82117D01*
X185979Y80615D01*
X185880Y80114D01*
X188986D01*
Y83220D01*
D02*
G37*
G36*
X191526D02*
Y80114D01*
X194632D01*
X194533Y80615D01*
X193529Y82117D01*
X192027Y83121D01*
X191526Y83220D01*
D02*
G37*
G36*
X19748Y88288D02*
X19246Y88188D01*
X17745Y87185D01*
X16741Y85683D01*
X16641Y85182D01*
X19748D01*
Y88288D01*
D02*
G37*
G36*
X194632Y77574D02*
X191526D01*
Y74468D01*
X192027Y74567D01*
X193529Y75571D01*
X194533Y77073D01*
X194632Y77574D01*
D02*
G37*
G36*
X19748Y82642D02*
X16641D01*
X16741Y82140D01*
X17745Y80638D01*
X19246Y79635D01*
X19748Y79535D01*
Y82642D01*
D02*
G37*
G36*
X25394D02*
X22288D01*
Y79535D01*
X22789Y79635D01*
X24291Y80638D01*
X25294Y82140D01*
X25394Y82642D01*
D02*
G37*
G36*
X132498Y96392D02*
X129901D01*
X129962Y96085D01*
X130855Y94749D01*
X132191Y93856D01*
X132498Y93795D01*
Y96392D01*
D02*
G37*
G36*
X137634D02*
X135038D01*
Y93795D01*
X135344Y93856D01*
X136680Y94749D01*
X137573Y96085D01*
X137634Y96392D01*
D02*
G37*
G36*
X62980Y99876D02*
X62479Y99777D01*
X60977Y98773D01*
X59973Y97271D01*
X59874Y96770D01*
X62980D01*
Y99876D01*
D02*
G37*
G36*
X22288Y88288D02*
Y85182D01*
X25394D01*
X25294Y85683D01*
X24291Y87185D01*
X22789Y88188D01*
X22288Y88288D01*
D02*
G37*
G36*
X62980Y94230D02*
X59874D01*
X59973Y93729D01*
X60977Y92227D01*
X62479Y91223D01*
X62980Y91124D01*
Y94230D01*
D02*
G37*
G36*
X68626D02*
X65520D01*
Y91124D01*
X66021Y91223D01*
X67523Y92227D01*
X68527Y93729D01*
X68626Y94230D01*
D02*
G37*
%LPD*%
D10*
X174500Y54250D02*
Y96429D01*
X157018Y113912D02*
X174500Y96429D01*
X21018Y52982D02*
X43000Y31000D01*
X21018Y52982D02*
Y83912D01*
X137348Y12282D02*
Y30652D01*
X160462Y81462D02*
Y89474D01*
X142000Y63000D02*
X160462Y81462D01*
X133768Y97662D02*
Y118842D01*
X125918Y126692D02*
X133768Y118842D01*
X44018Y43912D02*
Y110000D01*
X137348Y12282D02*
X138618Y13552D01*
X35748Y142282D02*
X51338Y126692D01*
X73848D01*
X73848Y126692D02*
X125918D01*
X73848Y126692D02*
X73848Y126692D01*
X55518Y30662D02*
X72268Y47412D01*
X125918Y126692D02*
X172558D01*
X188148Y142282D01*
X43000Y30662D02*
X55518D01*
X138429Y44000D02*
X164250D01*
X174500Y54250D01*
X135500Y32500D02*
X137348Y30652D01*
X40841Y145869D02*
X48636Y129394D01*
X32160Y137188D02*
X48636Y129394D01*
X38608Y144613D02*
X48636Y129394D01*
X33416Y139422D02*
X48636Y129394D01*
X175260D02*
X191735Y137188D01*
X175260Y129394D02*
X183055Y145869D01*
X175260Y129394D02*
X190480Y139422D01*
X175260Y129394D02*
X185288Y144613D01*
X175260Y129394D02*
X188148Y142282D01*
X131251Y13565D02*
X137348Y27401D01*
X143444Y13565D01*
X133685Y12732D02*
X137348Y27401D01*
X141010Y12732D01*
X137348Y27401D02*
Y30652D01*
X134396Y20701D02*
X137348Y30652D01*
Y27401D02*
Y30652D01*
X135691Y20764D02*
X137348Y30652D01*
X139005Y20764D01*
X137348Y27401D02*
Y30652D01*
X140300Y20701D01*
X137348Y27401D02*
Y30652D01*
X127233Y127816D02*
X133768Y118842D01*
X124794Y125377D02*
X133768Y118842D01*
X126059Y128416D02*
X136538Y126692D01*
X126059Y124967D02*
X136538Y126692D01*
X115298D02*
X125777Y124967D01*
X115298Y126692D02*
X125777Y128416D01*
X63228Y126692D02*
X73707Y124967D01*
X63228Y126692D02*
X73707Y128416D01*
X73989D02*
X84468Y126692D01*
X73989Y124967D02*
X84468Y126692D01*
X73848Y126692D02*
X84468Y126692D01*
X43000Y31000D02*
X52640Y30662D01*
X35612Y38388D02*
X43000Y31000D01*
D11*
X79250Y109750D02*
X100500Y88500D01*
X42879Y109750D02*
X79250D01*
X10348Y142282D02*
X42879Y109750D01*
X81268Y87162D02*
X117662D01*
X117750Y87250D01*
X85249Y87162D02*
X117750Y87250D01*
D23*
X10348Y12282D02*
D03*
X35748D02*
D03*
X61148D02*
D03*
X86548D02*
D03*
X111948D02*
D03*
X137348D02*
D03*
X162748D02*
D03*
X188148D02*
D03*
Y142282D02*
D03*
X137348D02*
D03*
X111948D02*
D03*
X86548D02*
D03*
X61148D02*
D03*
X35748D02*
D03*
X10348D02*
D03*
X162748D02*
D03*
D24*
X126000Y63250D02*
D03*
X71500Y68250D02*
D03*
X142000Y63000D02*
D03*
X133768Y97662D02*
D03*
X160462Y89474D02*
D03*
X44018Y43912D02*
D03*
X138429Y44000D02*
D03*
D25*
X43000Y31000D02*
D03*
X64250Y95500D02*
D03*
X190256Y78844D02*
D03*
X192974Y36896D02*
D03*
X157018Y113912D02*
D03*
X21018Y83912D02*
D03*
X137348Y30652D02*
D03*
D26*
X117750Y87250D02*
D03*
X81268Y87162D02*
D03*
X13250Y32000D02*
D03*
X13500Y55500D02*
D03*
D27*
X73848Y126692D02*
D03*
X125918Y126692D02*
D03*
D28*
X87248Y75312D02*
D03*
X99248D02*
D03*
X111248D02*
D03*
X87248Y63312D02*
D03*
X99248D02*
D03*
X111248D02*
D03*
X87248Y51312D02*
D03*
X99248D02*
D03*
X111248D02*
D03*
D29*
X96768Y54662D02*
D03*
M02*
