G75*
G70*
%OFA0B0*%
%FSLAX24Y24*%
%IPPOS*%
%LPD*%
%AMOC8*
5,1,8,0,0,1.08239X$1,22.5*
%
%ADD10C,0.0050*%
%ADD11C,0.0043*%
%ADD12C,0.0085*%
%ADD13C,0.0360*%
%ADD14C,0.0043*%
%ADD15C,0.0078*%
%ADD16C,0.0251*%
%ADD17C,0.0027*%
%ADD18C,0.0067*%
%ADD19C,0.0035*%
%ADD20C,0.0041*%
%ADD21C,0.0056*%
%ADD22R,0.0500X0.0500*%
%ADD23C,0.0035*%
%ADD24C,0.0035*%
%ADD25C,0.0031*%
%ADD26C,0.0074*%
%ADD27R,0.0300X0.0350*%
%ADD28C,0.0032*%
D10*
X015653Y002667D02*
X015653Y003743D01*
X015653Y002667D02*
X015207Y002667D01*
X015207Y003743D01*
X015653Y003743D01*
X015653Y002716D02*
X015207Y002716D01*
X015207Y002765D02*
X015653Y002765D01*
X015653Y002814D02*
X015207Y002814D01*
X015207Y002863D02*
X015653Y002863D01*
X015653Y002912D02*
X015207Y002912D01*
X015207Y002961D02*
X015653Y002961D01*
X015653Y003010D02*
X015207Y003010D01*
X015207Y003059D02*
X015653Y003059D01*
X015653Y003108D02*
X015207Y003108D01*
X015207Y003157D02*
X015653Y003157D01*
X015653Y003206D02*
X015207Y003206D01*
X015207Y003255D02*
X015653Y003255D01*
X015653Y003304D02*
X015207Y003304D01*
X015207Y003353D02*
X015653Y003353D01*
X015653Y003402D02*
X015207Y003402D01*
X015207Y003451D02*
X015653Y003451D01*
X015653Y003500D02*
X015207Y003500D01*
X015207Y003549D02*
X015653Y003549D01*
X015653Y003598D02*
X015207Y003598D01*
X015207Y003647D02*
X015653Y003647D01*
X015653Y003696D02*
X015207Y003696D01*
X015653Y004557D02*
X015653Y005633D01*
X015653Y004557D02*
X015207Y004557D01*
X015207Y005633D01*
X015653Y005633D01*
X015653Y004606D02*
X015207Y004606D01*
X015207Y004655D02*
X015653Y004655D01*
X015653Y004704D02*
X015207Y004704D01*
X015207Y004753D02*
X015653Y004753D01*
X015653Y004802D02*
X015207Y004802D01*
X015207Y004851D02*
X015653Y004851D01*
X015653Y004900D02*
X015207Y004900D01*
X015207Y004949D02*
X015653Y004949D01*
X015653Y004998D02*
X015207Y004998D01*
X015207Y005047D02*
X015653Y005047D01*
X015653Y005096D02*
X015207Y005096D01*
X015207Y005145D02*
X015653Y005145D01*
X015653Y005194D02*
X015207Y005194D01*
X015207Y005243D02*
X015653Y005243D01*
X015653Y005292D02*
X015207Y005292D01*
X015207Y005341D02*
X015653Y005341D01*
X015653Y005390D02*
X015207Y005390D01*
X015207Y005439D02*
X015653Y005439D01*
X015653Y005488D02*
X015207Y005488D01*
X015207Y005537D02*
X015653Y005537D01*
X015653Y005586D02*
X015207Y005586D01*
X018453Y005633D02*
X018453Y004557D01*
X018007Y004557D01*
X018007Y005633D01*
X018453Y005633D01*
X018453Y004606D02*
X018007Y004606D01*
X018007Y004655D02*
X018453Y004655D01*
X018453Y004704D02*
X018007Y004704D01*
X018007Y004753D02*
X018453Y004753D01*
X018453Y004802D02*
X018007Y004802D01*
X018007Y004851D02*
X018453Y004851D01*
X018453Y004900D02*
X018007Y004900D01*
X018007Y004949D02*
X018453Y004949D01*
X018453Y004998D02*
X018007Y004998D01*
X018007Y005047D02*
X018453Y005047D01*
X018453Y005096D02*
X018007Y005096D01*
X018007Y005145D02*
X018453Y005145D01*
X018453Y005194D02*
X018007Y005194D01*
X018007Y005243D02*
X018453Y005243D01*
X018453Y005292D02*
X018007Y005292D01*
X018007Y005341D02*
X018453Y005341D01*
X018453Y005390D02*
X018007Y005390D01*
X018007Y005439D02*
X018453Y005439D01*
X018453Y005488D02*
X018007Y005488D01*
X018007Y005537D02*
X018453Y005537D01*
X018453Y005586D02*
X018007Y005586D01*
X022482Y005408D02*
X022482Y005854D01*
X022482Y005408D02*
X021878Y005408D01*
X021878Y005854D01*
X022482Y005854D01*
X022482Y005457D02*
X021878Y005457D01*
X021878Y005506D02*
X022482Y005506D01*
X022482Y005555D02*
X021878Y005555D01*
X021878Y005604D02*
X022482Y005604D01*
X022482Y005653D02*
X021878Y005653D01*
X021878Y005702D02*
X022482Y005702D01*
X022482Y005751D02*
X021878Y005751D01*
X021878Y005800D02*
X022482Y005800D01*
X022482Y005849D02*
X021878Y005849D01*
X022482Y006746D02*
X022482Y007192D01*
X022482Y006746D02*
X021878Y006746D01*
X021878Y007192D01*
X022482Y007192D01*
X022482Y006795D02*
X021878Y006795D01*
X021878Y006844D02*
X022482Y006844D01*
X022482Y006893D02*
X021878Y006893D01*
X021878Y006942D02*
X022482Y006942D01*
X022482Y006991D02*
X021878Y006991D01*
X021878Y007040D02*
X022482Y007040D01*
X022482Y007089D02*
X021878Y007089D01*
X021878Y007138D02*
X022482Y007138D01*
X022482Y007187D02*
X021878Y007187D01*
X018453Y003743D02*
X018453Y002667D01*
X018007Y002667D01*
X018007Y003743D01*
X018453Y003743D01*
X018453Y002716D02*
X018007Y002716D01*
X018007Y002765D02*
X018453Y002765D01*
X018453Y002814D02*
X018007Y002814D01*
X018007Y002863D02*
X018453Y002863D01*
X018453Y002912D02*
X018007Y002912D01*
X018007Y002961D02*
X018453Y002961D01*
X018453Y003010D02*
X018007Y003010D01*
X018007Y003059D02*
X018453Y003059D01*
X018453Y003108D02*
X018007Y003108D01*
X018007Y003157D02*
X018453Y003157D01*
X018453Y003206D02*
X018007Y003206D01*
X018007Y003255D02*
X018453Y003255D01*
X018453Y003304D02*
X018007Y003304D01*
X018007Y003353D02*
X018453Y003353D01*
X018453Y003402D02*
X018007Y003402D01*
X018007Y003451D02*
X018453Y003451D01*
X018453Y003500D02*
X018007Y003500D01*
X018007Y003549D02*
X018453Y003549D01*
X018453Y003598D02*
X018007Y003598D01*
X018007Y003647D02*
X018453Y003647D01*
X018453Y003696D02*
X018007Y003696D01*
X013632Y017858D02*
X013632Y018304D01*
X013632Y017858D02*
X013028Y017858D01*
X013028Y018304D01*
X013632Y018304D01*
X013632Y017907D02*
X013028Y017907D01*
X013028Y017956D02*
X013632Y017956D01*
X013632Y018005D02*
X013028Y018005D01*
X013028Y018054D02*
X013632Y018054D01*
X013632Y018103D02*
X013028Y018103D01*
X013028Y018152D02*
X013632Y018152D01*
X013632Y018201D02*
X013028Y018201D01*
X013028Y018250D02*
X013632Y018250D01*
X013632Y018299D02*
X013028Y018299D01*
X013632Y019196D02*
X013632Y019642D01*
X013632Y019196D02*
X013028Y019196D01*
X013028Y019642D01*
X013632Y019642D01*
X013632Y019245D02*
X013028Y019245D01*
X013028Y019294D02*
X013632Y019294D01*
X013632Y019343D02*
X013028Y019343D01*
X013028Y019392D02*
X013632Y019392D01*
X013632Y019441D02*
X013028Y019441D01*
X013028Y019490D02*
X013632Y019490D01*
X013632Y019539D02*
X013028Y019539D01*
X013028Y019588D02*
X013632Y019588D01*
X013632Y019637D02*
X013028Y019637D01*
D11*
X018957Y017341D02*
X018957Y016959D01*
X018575Y016959D01*
X018575Y017341D01*
X018957Y017341D01*
X018957Y017001D02*
X018575Y017001D01*
X018575Y017043D02*
X018957Y017043D01*
X018957Y017085D02*
X018575Y017085D01*
X018575Y017127D02*
X018957Y017127D01*
X018957Y017169D02*
X018575Y017169D01*
X018575Y017211D02*
X018957Y017211D01*
X018957Y017253D02*
X018575Y017253D01*
X018575Y017295D02*
X018957Y017295D01*
X018957Y017337D02*
X018575Y017337D01*
X019784Y017341D02*
X019784Y016959D01*
X019402Y016959D01*
X019402Y017341D01*
X019784Y017341D01*
X019784Y017001D02*
X019402Y017001D01*
X019402Y017043D02*
X019784Y017043D01*
X019784Y017085D02*
X019402Y017085D01*
X019402Y017127D02*
X019784Y017127D01*
X019784Y017169D02*
X019402Y017169D01*
X019402Y017211D02*
X019784Y017211D01*
X019784Y017253D02*
X019402Y017253D01*
X019402Y017295D02*
X019784Y017295D01*
X019784Y017337D02*
X019402Y017337D01*
X019784Y015141D02*
X019784Y014759D01*
X019402Y014759D01*
X019402Y015141D01*
X019784Y015141D01*
X019784Y014801D02*
X019402Y014801D01*
X019402Y014843D02*
X019784Y014843D01*
X019784Y014885D02*
X019402Y014885D01*
X019402Y014927D02*
X019784Y014927D01*
X019784Y014969D02*
X019402Y014969D01*
X019402Y015011D02*
X019784Y015011D01*
X019784Y015053D02*
X019402Y015053D01*
X019402Y015095D02*
X019784Y015095D01*
X019784Y015137D02*
X019402Y015137D01*
X018957Y015141D02*
X018957Y014759D01*
X018575Y014759D01*
X018575Y015141D01*
X018957Y015141D01*
X018957Y014801D02*
X018575Y014801D01*
X018575Y014843D02*
X018957Y014843D01*
X018957Y014885D02*
X018575Y014885D01*
X018575Y014927D02*
X018957Y014927D01*
X018957Y014969D02*
X018575Y014969D01*
X018575Y015011D02*
X018957Y015011D01*
X018957Y015053D02*
X018575Y015053D01*
X018575Y015095D02*
X018957Y015095D01*
X018957Y015137D02*
X018575Y015137D01*
X018957Y014241D02*
X018957Y013859D01*
X018575Y013859D01*
X018575Y014241D01*
X018957Y014241D01*
X018957Y013901D02*
X018575Y013901D01*
X018575Y013943D02*
X018957Y013943D01*
X018957Y013985D02*
X018575Y013985D01*
X018575Y014027D02*
X018957Y014027D01*
X018957Y014069D02*
X018575Y014069D01*
X018575Y014111D02*
X018957Y014111D01*
X018957Y014153D02*
X018575Y014153D01*
X018575Y014195D02*
X018957Y014195D01*
X018957Y014237D02*
X018575Y014237D01*
X019784Y014241D02*
X019784Y013859D01*
X019402Y013859D01*
X019402Y014241D01*
X019784Y014241D01*
X019784Y013901D02*
X019402Y013901D01*
X019402Y013943D02*
X019784Y013943D01*
X019784Y013985D02*
X019402Y013985D01*
X019402Y014027D02*
X019784Y014027D01*
X019784Y014069D02*
X019402Y014069D01*
X019402Y014111D02*
X019784Y014111D01*
X019784Y014153D02*
X019402Y014153D01*
X019402Y014195D02*
X019784Y014195D01*
X019784Y014237D02*
X019402Y014237D01*
X037957Y014859D02*
X037957Y015241D01*
X037957Y014859D02*
X037575Y014859D01*
X037575Y015241D01*
X037957Y015241D01*
X037957Y014901D02*
X037575Y014901D01*
X037575Y014943D02*
X037957Y014943D01*
X037957Y014985D02*
X037575Y014985D01*
X037575Y015027D02*
X037957Y015027D01*
X037957Y015069D02*
X037575Y015069D01*
X037575Y015111D02*
X037957Y015111D01*
X037957Y015153D02*
X037575Y015153D01*
X037575Y015195D02*
X037957Y015195D01*
X037957Y015237D02*
X037575Y015237D01*
X038784Y015241D02*
X038784Y014859D01*
X038402Y014859D01*
X038402Y015241D01*
X038784Y015241D01*
X038784Y014901D02*
X038402Y014901D01*
X038402Y014943D02*
X038784Y014943D01*
X038784Y014985D02*
X038402Y014985D01*
X038402Y015027D02*
X038784Y015027D01*
X038784Y015069D02*
X038402Y015069D01*
X038402Y015111D02*
X038784Y015111D01*
X038784Y015153D02*
X038402Y015153D01*
X038402Y015195D02*
X038784Y015195D01*
X038784Y015237D02*
X038402Y015237D01*
D12*
X017929Y002033D02*
X017163Y002033D01*
X017929Y002033D02*
X017929Y001267D01*
X017163Y001267D01*
X017163Y002033D01*
X017163Y001351D02*
X017929Y001351D01*
X017929Y001435D02*
X017163Y001435D01*
X017163Y001519D02*
X017929Y001519D01*
X017929Y001603D02*
X017163Y001603D01*
X017163Y001687D02*
X017929Y001687D01*
X017929Y001771D02*
X017163Y001771D01*
X017163Y001855D02*
X017929Y001855D01*
X017929Y001939D02*
X017163Y001939D01*
X017163Y002023D02*
X017929Y002023D01*
X016197Y002033D02*
X015431Y002033D01*
X016197Y002033D02*
X016197Y001267D01*
X015431Y001267D01*
X015431Y002033D01*
X015431Y001351D02*
X016197Y001351D01*
X016197Y001435D02*
X015431Y001435D01*
X015431Y001519D02*
X016197Y001519D01*
X016197Y001603D02*
X015431Y001603D01*
X015431Y001687D02*
X016197Y001687D01*
X016197Y001771D02*
X015431Y001771D01*
X015431Y001855D02*
X016197Y001855D01*
X016197Y001939D02*
X015431Y001939D01*
X015431Y002023D02*
X016197Y002023D01*
D13*
X009230Y001500D03*
X028180Y011710D03*
X036070Y015586D03*
X008880Y015550D03*
D14*
X013195Y008655D02*
X013195Y008265D01*
X012405Y008265D01*
X012405Y008655D01*
X013195Y008655D01*
X013195Y008307D02*
X012405Y008307D01*
X012405Y008349D02*
X013195Y008349D01*
X013195Y008391D02*
X012405Y008391D01*
X012405Y008433D02*
X013195Y008433D01*
X013195Y008475D02*
X012405Y008475D01*
X012405Y008517D02*
X013195Y008517D01*
X013195Y008559D02*
X012405Y008559D01*
X012405Y008601D02*
X013195Y008601D01*
X013195Y008643D02*
X012405Y008643D01*
X013195Y007745D02*
X013195Y007355D01*
X012405Y007355D01*
X012405Y007745D01*
X013195Y007745D01*
X013195Y007397D02*
X012405Y007397D01*
X012405Y007439D02*
X013195Y007439D01*
X013195Y007481D02*
X012405Y007481D01*
X012405Y007523D02*
X013195Y007523D01*
X013195Y007565D02*
X012405Y007565D01*
X012405Y007607D02*
X013195Y007607D01*
X013195Y007649D02*
X012405Y007649D01*
X012405Y007691D02*
X013195Y007691D01*
X013195Y007733D02*
X012405Y007733D01*
X013195Y006835D02*
X013195Y006445D01*
X012405Y006445D01*
X012405Y006835D01*
X013195Y006835D01*
X013195Y006487D02*
X012405Y006487D01*
X012405Y006529D02*
X013195Y006529D01*
X013195Y006571D02*
X012405Y006571D01*
X012405Y006613D02*
X013195Y006613D01*
X013195Y006655D02*
X012405Y006655D01*
X012405Y006697D02*
X013195Y006697D01*
X013195Y006739D02*
X012405Y006739D01*
X012405Y006781D02*
X013195Y006781D01*
X013195Y006823D02*
X012405Y006823D01*
D15*
X010711Y006924D02*
X010711Y008176D01*
X010711Y006924D02*
X010009Y006924D01*
X010009Y008176D01*
X010711Y008176D01*
X010711Y007001D02*
X010009Y007001D01*
X010009Y007078D02*
X010711Y007078D01*
X010711Y007155D02*
X010009Y007155D01*
X010009Y007232D02*
X010711Y007232D01*
X010711Y007309D02*
X010009Y007309D01*
X010009Y007386D02*
X010711Y007386D01*
X010711Y007463D02*
X010009Y007463D01*
X010009Y007540D02*
X010711Y007540D01*
X010711Y007617D02*
X010009Y007617D01*
X010009Y007694D02*
X010711Y007694D01*
X010711Y007771D02*
X010009Y007771D01*
X010009Y007848D02*
X010711Y007848D01*
X010711Y007925D02*
X010009Y007925D01*
X010009Y008002D02*
X010711Y008002D01*
X010711Y008079D02*
X010009Y008079D01*
X010009Y008156D02*
X010711Y008156D01*
D16*
X013759Y007818D02*
X013901Y007818D01*
X013759Y007818D02*
X013759Y007882D01*
X013901Y007882D01*
X013901Y007818D01*
X013901Y007118D02*
X013759Y007118D01*
X013759Y007182D01*
X013901Y007182D01*
X013901Y007118D01*
X016298Y007229D02*
X016298Y007371D01*
X016362Y007371D01*
X016362Y007229D01*
X016298Y007229D01*
X016998Y007229D02*
X016998Y007371D01*
X017062Y007371D01*
X017062Y007229D01*
X016998Y007229D01*
X018862Y007679D02*
X018862Y007821D01*
X018862Y007679D02*
X018798Y007679D01*
X018798Y007821D01*
X018862Y007821D01*
X019562Y007821D02*
X019562Y007679D01*
X019498Y007679D01*
X019498Y007821D01*
X019562Y007821D01*
X019562Y008979D02*
X019562Y009121D01*
X019562Y008979D02*
X019498Y008979D01*
X019498Y009121D01*
X019562Y009121D01*
X018862Y009121D02*
X018862Y008979D01*
X018798Y008979D01*
X018798Y009121D01*
X018862Y009121D01*
X021309Y006618D02*
X021451Y006618D01*
X021309Y006618D02*
X021309Y006682D01*
X021451Y006682D01*
X021451Y006618D01*
X021451Y005918D02*
X021309Y005918D01*
X021309Y005982D01*
X021451Y005982D01*
X021451Y005918D01*
X024201Y005982D02*
X024201Y005918D01*
X024059Y005918D01*
X024059Y005982D01*
X024201Y005982D01*
X024201Y006618D02*
X024201Y006682D01*
X024201Y006618D02*
X024059Y006618D01*
X024059Y006682D01*
X024201Y006682D01*
X023762Y003421D02*
X023762Y003279D01*
X023698Y003279D01*
X023698Y003421D01*
X023762Y003421D01*
X023062Y003421D02*
X023062Y003279D01*
X022998Y003279D01*
X022998Y003421D01*
X023062Y003421D01*
X018312Y012029D02*
X018312Y012171D01*
X018312Y012029D02*
X018248Y012029D01*
X018248Y012171D01*
X018312Y012171D01*
X017612Y012171D02*
X017612Y012029D01*
X017548Y012029D01*
X017548Y012171D01*
X017612Y012171D01*
X017062Y012171D02*
X017062Y012029D01*
X016998Y012029D01*
X016998Y012171D01*
X017062Y012171D01*
X016362Y012171D02*
X016362Y012029D01*
X016298Y012029D01*
X016298Y012171D01*
X016362Y012171D01*
X015812Y012029D02*
X015748Y012029D01*
X015748Y012171D01*
X015812Y012171D01*
X015812Y012029D01*
X015112Y012029D02*
X015048Y012029D01*
X015048Y012171D01*
X015112Y012171D01*
X015112Y012029D01*
X014498Y012029D02*
X014498Y012171D01*
X014562Y012171D01*
X014562Y012029D01*
X014498Y012029D01*
X013798Y012029D02*
X013798Y012171D01*
X013862Y012171D01*
X013862Y012029D01*
X013798Y012029D01*
X013248Y012029D02*
X013248Y012171D01*
X013312Y012171D01*
X013312Y012029D01*
X013248Y012029D01*
X012548Y012029D02*
X012548Y012171D01*
X012612Y012171D01*
X012612Y012029D01*
X012548Y012029D01*
X012548Y012679D02*
X012548Y012821D01*
X012612Y012821D01*
X012612Y012679D01*
X012548Y012679D01*
X013248Y012679D02*
X013248Y012821D01*
X013312Y012821D01*
X013312Y012679D01*
X013248Y012679D01*
X013248Y017129D02*
X013248Y017271D01*
X013312Y017271D01*
X013312Y017129D01*
X013248Y017129D01*
X012548Y017129D02*
X012548Y017271D01*
X012612Y017271D01*
X012612Y017129D01*
X012548Y017129D01*
X018862Y017979D02*
X018862Y018121D01*
X018862Y017979D02*
X018798Y017979D01*
X018798Y018121D01*
X018862Y018121D01*
X019562Y018121D02*
X019562Y017979D01*
X019498Y017979D01*
X019498Y018121D01*
X019562Y018121D01*
X023564Y012597D02*
X023564Y012455D01*
X023564Y012597D02*
X023628Y012597D01*
X023628Y012455D01*
X023564Y012455D01*
X024264Y012455D02*
X024264Y012597D01*
X024328Y012597D01*
X024328Y012455D01*
X024264Y012455D01*
X031062Y015979D02*
X031062Y016121D01*
X031062Y015979D02*
X030998Y015979D01*
X030998Y016121D01*
X031062Y016121D01*
X031762Y016121D02*
X031762Y015979D01*
X031698Y015979D01*
X031698Y016121D01*
X031762Y016121D01*
D17*
X030568Y014598D02*
X030516Y014598D01*
X030516Y015122D01*
X030568Y015122D01*
X030568Y014598D01*
X030568Y014624D02*
X030516Y014624D01*
X030516Y014650D02*
X030568Y014650D01*
X030568Y014676D02*
X030516Y014676D01*
X030516Y014702D02*
X030568Y014702D01*
X030568Y014728D02*
X030516Y014728D01*
X030516Y014754D02*
X030568Y014754D01*
X030568Y014780D02*
X030516Y014780D01*
X030516Y014806D02*
X030568Y014806D01*
X030568Y014832D02*
X030516Y014832D01*
X030516Y014858D02*
X030568Y014858D01*
X030568Y014884D02*
X030516Y014884D01*
X030516Y014910D02*
X030568Y014910D01*
X030568Y014936D02*
X030516Y014936D01*
X030516Y014962D02*
X030568Y014962D01*
X030568Y014988D02*
X030516Y014988D01*
X030516Y015014D02*
X030568Y015014D01*
X030568Y015040D02*
X030516Y015040D01*
X030516Y015066D02*
X030568Y015066D01*
X030568Y015092D02*
X030516Y015092D01*
X030516Y015118D02*
X030568Y015118D01*
X030371Y014598D02*
X030319Y014598D01*
X030319Y015122D01*
X030371Y015122D01*
X030371Y014598D01*
X030371Y014624D02*
X030319Y014624D01*
X030319Y014650D02*
X030371Y014650D01*
X030371Y014676D02*
X030319Y014676D01*
X030319Y014702D02*
X030371Y014702D01*
X030371Y014728D02*
X030319Y014728D01*
X030319Y014754D02*
X030371Y014754D01*
X030371Y014780D02*
X030319Y014780D01*
X030319Y014806D02*
X030371Y014806D01*
X030371Y014832D02*
X030319Y014832D01*
X030319Y014858D02*
X030371Y014858D01*
X030371Y014884D02*
X030319Y014884D01*
X030319Y014910D02*
X030371Y014910D01*
X030371Y014936D02*
X030319Y014936D01*
X030319Y014962D02*
X030371Y014962D01*
X030371Y014988D02*
X030319Y014988D01*
X030319Y015014D02*
X030371Y015014D01*
X030371Y015040D02*
X030319Y015040D01*
X030319Y015066D02*
X030371Y015066D01*
X030371Y015092D02*
X030319Y015092D01*
X030319Y015118D02*
X030371Y015118D01*
X030174Y014598D02*
X030122Y014598D01*
X030122Y015122D01*
X030174Y015122D01*
X030174Y014598D01*
X030174Y014624D02*
X030122Y014624D01*
X030122Y014650D02*
X030174Y014650D01*
X030174Y014676D02*
X030122Y014676D01*
X030122Y014702D02*
X030174Y014702D01*
X030174Y014728D02*
X030122Y014728D01*
X030122Y014754D02*
X030174Y014754D01*
X030174Y014780D02*
X030122Y014780D01*
X030122Y014806D02*
X030174Y014806D01*
X030174Y014832D02*
X030122Y014832D01*
X030122Y014858D02*
X030174Y014858D01*
X030174Y014884D02*
X030122Y014884D01*
X030122Y014910D02*
X030174Y014910D01*
X030174Y014936D02*
X030122Y014936D01*
X030122Y014962D02*
X030174Y014962D01*
X030174Y014988D02*
X030122Y014988D01*
X030122Y015014D02*
X030174Y015014D01*
X030174Y015040D02*
X030122Y015040D01*
X030122Y015066D02*
X030174Y015066D01*
X030174Y015092D02*
X030122Y015092D01*
X030122Y015118D02*
X030174Y015118D01*
X029977Y014598D02*
X029925Y014598D01*
X029925Y015122D01*
X029977Y015122D01*
X029977Y014598D01*
X029977Y014624D02*
X029925Y014624D01*
X029925Y014650D02*
X029977Y014650D01*
X029977Y014676D02*
X029925Y014676D01*
X029925Y014702D02*
X029977Y014702D01*
X029977Y014728D02*
X029925Y014728D01*
X029925Y014754D02*
X029977Y014754D01*
X029977Y014780D02*
X029925Y014780D01*
X029925Y014806D02*
X029977Y014806D01*
X029977Y014832D02*
X029925Y014832D01*
X029925Y014858D02*
X029977Y014858D01*
X029977Y014884D02*
X029925Y014884D01*
X029925Y014910D02*
X029977Y014910D01*
X029977Y014936D02*
X029925Y014936D01*
X029925Y014962D02*
X029977Y014962D01*
X029977Y014988D02*
X029925Y014988D01*
X029925Y015014D02*
X029977Y015014D01*
X029977Y015040D02*
X029925Y015040D01*
X029925Y015066D02*
X029977Y015066D01*
X029977Y015092D02*
X029925Y015092D01*
X029925Y015118D02*
X029977Y015118D01*
X029781Y014598D02*
X029729Y014598D01*
X029729Y015122D01*
X029781Y015122D01*
X029781Y014598D01*
X029781Y014624D02*
X029729Y014624D01*
X029729Y014650D02*
X029781Y014650D01*
X029781Y014676D02*
X029729Y014676D01*
X029729Y014702D02*
X029781Y014702D01*
X029781Y014728D02*
X029729Y014728D01*
X029729Y014754D02*
X029781Y014754D01*
X029781Y014780D02*
X029729Y014780D01*
X029729Y014806D02*
X029781Y014806D01*
X029781Y014832D02*
X029729Y014832D01*
X029729Y014858D02*
X029781Y014858D01*
X029781Y014884D02*
X029729Y014884D01*
X029729Y014910D02*
X029781Y014910D01*
X029781Y014936D02*
X029729Y014936D01*
X029729Y014962D02*
X029781Y014962D01*
X029781Y014988D02*
X029729Y014988D01*
X029729Y015014D02*
X029781Y015014D01*
X029781Y015040D02*
X029729Y015040D01*
X029729Y015066D02*
X029781Y015066D01*
X029781Y015092D02*
X029729Y015092D01*
X029729Y015118D02*
X029781Y015118D01*
X029584Y014598D02*
X029532Y014598D01*
X029532Y015122D01*
X029584Y015122D01*
X029584Y014598D01*
X029584Y014624D02*
X029532Y014624D01*
X029532Y014650D02*
X029584Y014650D01*
X029584Y014676D02*
X029532Y014676D01*
X029532Y014702D02*
X029584Y014702D01*
X029584Y014728D02*
X029532Y014728D01*
X029532Y014754D02*
X029584Y014754D01*
X029584Y014780D02*
X029532Y014780D01*
X029532Y014806D02*
X029584Y014806D01*
X029584Y014832D02*
X029532Y014832D01*
X029532Y014858D02*
X029584Y014858D01*
X029584Y014884D02*
X029532Y014884D01*
X029532Y014910D02*
X029584Y014910D01*
X029584Y014936D02*
X029532Y014936D01*
X029532Y014962D02*
X029584Y014962D01*
X029584Y014988D02*
X029532Y014988D01*
X029532Y015014D02*
X029584Y015014D01*
X029584Y015040D02*
X029532Y015040D01*
X029532Y015066D02*
X029584Y015066D01*
X029584Y015092D02*
X029532Y015092D01*
X029532Y015118D02*
X029584Y015118D01*
X029387Y014598D02*
X029335Y014598D01*
X029335Y015122D01*
X029387Y015122D01*
X029387Y014598D01*
X029387Y014624D02*
X029335Y014624D01*
X029335Y014650D02*
X029387Y014650D01*
X029387Y014676D02*
X029335Y014676D01*
X029335Y014702D02*
X029387Y014702D01*
X029387Y014728D02*
X029335Y014728D01*
X029335Y014754D02*
X029387Y014754D01*
X029387Y014780D02*
X029335Y014780D01*
X029335Y014806D02*
X029387Y014806D01*
X029387Y014832D02*
X029335Y014832D01*
X029335Y014858D02*
X029387Y014858D01*
X029387Y014884D02*
X029335Y014884D01*
X029335Y014910D02*
X029387Y014910D01*
X029387Y014936D02*
X029335Y014936D01*
X029335Y014962D02*
X029387Y014962D01*
X029387Y014988D02*
X029335Y014988D01*
X029335Y015014D02*
X029387Y015014D01*
X029387Y015040D02*
X029335Y015040D01*
X029335Y015066D02*
X029387Y015066D01*
X029387Y015092D02*
X029335Y015092D01*
X029335Y015118D02*
X029387Y015118D01*
X029190Y014598D02*
X029138Y014598D01*
X029138Y015122D01*
X029190Y015122D01*
X029190Y014598D01*
X029190Y014624D02*
X029138Y014624D01*
X029138Y014650D02*
X029190Y014650D01*
X029190Y014676D02*
X029138Y014676D01*
X029138Y014702D02*
X029190Y014702D01*
X029190Y014728D02*
X029138Y014728D01*
X029138Y014754D02*
X029190Y014754D01*
X029190Y014780D02*
X029138Y014780D01*
X029138Y014806D02*
X029190Y014806D01*
X029190Y014832D02*
X029138Y014832D01*
X029138Y014858D02*
X029190Y014858D01*
X029190Y014884D02*
X029138Y014884D01*
X029138Y014910D02*
X029190Y014910D01*
X029190Y014936D02*
X029138Y014936D01*
X029138Y014962D02*
X029190Y014962D01*
X029190Y014988D02*
X029138Y014988D01*
X029138Y015014D02*
X029190Y015014D01*
X029190Y015040D02*
X029138Y015040D01*
X029138Y015066D02*
X029190Y015066D01*
X029190Y015092D02*
X029138Y015092D01*
X029138Y015118D02*
X029190Y015118D01*
X028993Y014598D02*
X028941Y014598D01*
X028941Y015122D01*
X028993Y015122D01*
X028993Y014598D01*
X028993Y014624D02*
X028941Y014624D01*
X028941Y014650D02*
X028993Y014650D01*
X028993Y014676D02*
X028941Y014676D01*
X028941Y014702D02*
X028993Y014702D01*
X028993Y014728D02*
X028941Y014728D01*
X028941Y014754D02*
X028993Y014754D01*
X028993Y014780D02*
X028941Y014780D01*
X028941Y014806D02*
X028993Y014806D01*
X028993Y014832D02*
X028941Y014832D01*
X028941Y014858D02*
X028993Y014858D01*
X028993Y014884D02*
X028941Y014884D01*
X028941Y014910D02*
X028993Y014910D01*
X028993Y014936D02*
X028941Y014936D01*
X028941Y014962D02*
X028993Y014962D01*
X028993Y014988D02*
X028941Y014988D01*
X028941Y015014D02*
X028993Y015014D01*
X028993Y015040D02*
X028941Y015040D01*
X028941Y015066D02*
X028993Y015066D01*
X028993Y015092D02*
X028941Y015092D01*
X028941Y015118D02*
X028993Y015118D01*
X028796Y014598D02*
X028744Y014598D01*
X028744Y015122D01*
X028796Y015122D01*
X028796Y014598D01*
X028796Y014624D02*
X028744Y014624D01*
X028744Y014650D02*
X028796Y014650D01*
X028796Y014676D02*
X028744Y014676D01*
X028744Y014702D02*
X028796Y014702D01*
X028796Y014728D02*
X028744Y014728D01*
X028744Y014754D02*
X028796Y014754D01*
X028796Y014780D02*
X028744Y014780D01*
X028744Y014806D02*
X028796Y014806D01*
X028796Y014832D02*
X028744Y014832D01*
X028744Y014858D02*
X028796Y014858D01*
X028796Y014884D02*
X028744Y014884D01*
X028744Y014910D02*
X028796Y014910D01*
X028796Y014936D02*
X028744Y014936D01*
X028744Y014962D02*
X028796Y014962D01*
X028796Y014988D02*
X028744Y014988D01*
X028744Y015014D02*
X028796Y015014D01*
X028796Y015040D02*
X028744Y015040D01*
X028744Y015066D02*
X028796Y015066D01*
X028796Y015092D02*
X028744Y015092D01*
X028744Y015118D02*
X028796Y015118D01*
X028600Y014598D02*
X028548Y014598D01*
X028548Y015122D01*
X028600Y015122D01*
X028600Y014598D01*
X028600Y014624D02*
X028548Y014624D01*
X028548Y014650D02*
X028600Y014650D01*
X028600Y014676D02*
X028548Y014676D01*
X028548Y014702D02*
X028600Y014702D01*
X028600Y014728D02*
X028548Y014728D01*
X028548Y014754D02*
X028600Y014754D01*
X028600Y014780D02*
X028548Y014780D01*
X028548Y014806D02*
X028600Y014806D01*
X028600Y014832D02*
X028548Y014832D01*
X028548Y014858D02*
X028600Y014858D01*
X028600Y014884D02*
X028548Y014884D01*
X028548Y014910D02*
X028600Y014910D01*
X028600Y014936D02*
X028548Y014936D01*
X028548Y014962D02*
X028600Y014962D01*
X028600Y014988D02*
X028548Y014988D01*
X028548Y015014D02*
X028600Y015014D01*
X028600Y015040D02*
X028548Y015040D01*
X028548Y015066D02*
X028600Y015066D01*
X028600Y015092D02*
X028548Y015092D01*
X028548Y015118D02*
X028600Y015118D01*
X028403Y014598D02*
X028351Y014598D01*
X028351Y015122D01*
X028403Y015122D01*
X028403Y014598D01*
X028403Y014624D02*
X028351Y014624D01*
X028351Y014650D02*
X028403Y014650D01*
X028403Y014676D02*
X028351Y014676D01*
X028351Y014702D02*
X028403Y014702D01*
X028403Y014728D02*
X028351Y014728D01*
X028351Y014754D02*
X028403Y014754D01*
X028403Y014780D02*
X028351Y014780D01*
X028351Y014806D02*
X028403Y014806D01*
X028403Y014832D02*
X028351Y014832D01*
X028351Y014858D02*
X028403Y014858D01*
X028403Y014884D02*
X028351Y014884D01*
X028351Y014910D02*
X028403Y014910D01*
X028403Y014936D02*
X028351Y014936D01*
X028351Y014962D02*
X028403Y014962D01*
X028403Y014988D02*
X028351Y014988D01*
X028351Y015014D02*
X028403Y015014D01*
X028403Y015040D02*
X028351Y015040D01*
X028351Y015066D02*
X028403Y015066D01*
X028403Y015092D02*
X028351Y015092D01*
X028351Y015118D02*
X028403Y015118D01*
X028206Y014598D02*
X028154Y014598D01*
X028154Y015122D01*
X028206Y015122D01*
X028206Y014598D01*
X028206Y014624D02*
X028154Y014624D01*
X028154Y014650D02*
X028206Y014650D01*
X028206Y014676D02*
X028154Y014676D01*
X028154Y014702D02*
X028206Y014702D01*
X028206Y014728D02*
X028154Y014728D01*
X028154Y014754D02*
X028206Y014754D01*
X028206Y014780D02*
X028154Y014780D01*
X028154Y014806D02*
X028206Y014806D01*
X028206Y014832D02*
X028154Y014832D01*
X028154Y014858D02*
X028206Y014858D01*
X028206Y014884D02*
X028154Y014884D01*
X028154Y014910D02*
X028206Y014910D01*
X028206Y014936D02*
X028154Y014936D01*
X028154Y014962D02*
X028206Y014962D01*
X028206Y014988D02*
X028154Y014988D01*
X028154Y015014D02*
X028206Y015014D01*
X028206Y015040D02*
X028154Y015040D01*
X028154Y015066D02*
X028206Y015066D01*
X028206Y015092D02*
X028154Y015092D01*
X028154Y015118D02*
X028206Y015118D01*
X028009Y014598D02*
X027957Y014598D01*
X027957Y015122D01*
X028009Y015122D01*
X028009Y014598D01*
X028009Y014624D02*
X027957Y014624D01*
X027957Y014650D02*
X028009Y014650D01*
X028009Y014676D02*
X027957Y014676D01*
X027957Y014702D02*
X028009Y014702D01*
X028009Y014728D02*
X027957Y014728D01*
X027957Y014754D02*
X028009Y014754D01*
X028009Y014780D02*
X027957Y014780D01*
X027957Y014806D02*
X028009Y014806D01*
X028009Y014832D02*
X027957Y014832D01*
X027957Y014858D02*
X028009Y014858D01*
X028009Y014884D02*
X027957Y014884D01*
X027957Y014910D02*
X028009Y014910D01*
X028009Y014936D02*
X027957Y014936D01*
X027957Y014962D02*
X028009Y014962D01*
X028009Y014988D02*
X027957Y014988D01*
X027957Y015014D02*
X028009Y015014D01*
X028009Y015040D02*
X027957Y015040D01*
X027957Y015066D02*
X028009Y015066D01*
X028009Y015092D02*
X027957Y015092D01*
X027957Y015118D02*
X028009Y015118D01*
X027812Y014598D02*
X027760Y014598D01*
X027760Y015122D01*
X027812Y015122D01*
X027812Y014598D01*
X027812Y014624D02*
X027760Y014624D01*
X027760Y014650D02*
X027812Y014650D01*
X027812Y014676D02*
X027760Y014676D01*
X027760Y014702D02*
X027812Y014702D01*
X027812Y014728D02*
X027760Y014728D01*
X027760Y014754D02*
X027812Y014754D01*
X027812Y014780D02*
X027760Y014780D01*
X027760Y014806D02*
X027812Y014806D01*
X027812Y014832D02*
X027760Y014832D01*
X027760Y014858D02*
X027812Y014858D01*
X027812Y014884D02*
X027760Y014884D01*
X027760Y014910D02*
X027812Y014910D01*
X027812Y014936D02*
X027760Y014936D01*
X027760Y014962D02*
X027812Y014962D01*
X027812Y014988D02*
X027760Y014988D01*
X027760Y015014D02*
X027812Y015014D01*
X027812Y015040D02*
X027760Y015040D01*
X027760Y015066D02*
X027812Y015066D01*
X027812Y015092D02*
X027760Y015092D01*
X027760Y015118D02*
X027812Y015118D01*
X027615Y014598D02*
X027563Y014598D01*
X027563Y015122D01*
X027615Y015122D01*
X027615Y014598D01*
X027615Y014624D02*
X027563Y014624D01*
X027563Y014650D02*
X027615Y014650D01*
X027615Y014676D02*
X027563Y014676D01*
X027563Y014702D02*
X027615Y014702D01*
X027615Y014728D02*
X027563Y014728D01*
X027563Y014754D02*
X027615Y014754D01*
X027615Y014780D02*
X027563Y014780D01*
X027563Y014806D02*
X027615Y014806D01*
X027615Y014832D02*
X027563Y014832D01*
X027563Y014858D02*
X027615Y014858D01*
X027615Y014884D02*
X027563Y014884D01*
X027563Y014910D02*
X027615Y014910D01*
X027615Y014936D02*
X027563Y014936D01*
X027563Y014962D02*
X027615Y014962D01*
X027615Y014988D02*
X027563Y014988D01*
X027563Y015014D02*
X027615Y015014D01*
X027615Y015040D02*
X027563Y015040D01*
X027563Y015066D02*
X027615Y015066D01*
X027615Y015092D02*
X027563Y015092D01*
X027563Y015118D02*
X027615Y015118D01*
X027418Y014598D02*
X027366Y014598D01*
X027366Y015122D01*
X027418Y015122D01*
X027418Y014598D01*
X027418Y014624D02*
X027366Y014624D01*
X027366Y014650D02*
X027418Y014650D01*
X027418Y014676D02*
X027366Y014676D01*
X027366Y014702D02*
X027418Y014702D01*
X027418Y014728D02*
X027366Y014728D01*
X027366Y014754D02*
X027418Y014754D01*
X027418Y014780D02*
X027366Y014780D01*
X027366Y014806D02*
X027418Y014806D01*
X027418Y014832D02*
X027366Y014832D01*
X027366Y014858D02*
X027418Y014858D01*
X027418Y014884D02*
X027366Y014884D01*
X027366Y014910D02*
X027418Y014910D01*
X027418Y014936D02*
X027366Y014936D01*
X027366Y014962D02*
X027418Y014962D01*
X027418Y014988D02*
X027366Y014988D01*
X027366Y015014D02*
X027418Y015014D01*
X027418Y015040D02*
X027366Y015040D01*
X027366Y015066D02*
X027418Y015066D01*
X027418Y015092D02*
X027366Y015092D01*
X027366Y015118D02*
X027418Y015118D01*
X027222Y014598D02*
X027170Y014598D01*
X027170Y015122D01*
X027222Y015122D01*
X027222Y014598D01*
X027222Y014624D02*
X027170Y014624D01*
X027170Y014650D02*
X027222Y014650D01*
X027222Y014676D02*
X027170Y014676D01*
X027170Y014702D02*
X027222Y014702D01*
X027222Y014728D02*
X027170Y014728D01*
X027170Y014754D02*
X027222Y014754D01*
X027222Y014780D02*
X027170Y014780D01*
X027170Y014806D02*
X027222Y014806D01*
X027222Y014832D02*
X027170Y014832D01*
X027170Y014858D02*
X027222Y014858D01*
X027222Y014884D02*
X027170Y014884D01*
X027170Y014910D02*
X027222Y014910D01*
X027222Y014936D02*
X027170Y014936D01*
X027170Y014962D02*
X027222Y014962D01*
X027222Y014988D02*
X027170Y014988D01*
X027170Y015014D02*
X027222Y015014D01*
X027222Y015040D02*
X027170Y015040D01*
X027170Y015066D02*
X027222Y015066D01*
X027222Y015092D02*
X027170Y015092D01*
X027170Y015118D02*
X027222Y015118D01*
X027025Y014598D02*
X026973Y014598D01*
X026973Y015122D01*
X027025Y015122D01*
X027025Y014598D01*
X027025Y014624D02*
X026973Y014624D01*
X026973Y014650D02*
X027025Y014650D01*
X027025Y014676D02*
X026973Y014676D01*
X026973Y014702D02*
X027025Y014702D01*
X027025Y014728D02*
X026973Y014728D01*
X026973Y014754D02*
X027025Y014754D01*
X027025Y014780D02*
X026973Y014780D01*
X026973Y014806D02*
X027025Y014806D01*
X027025Y014832D02*
X026973Y014832D01*
X026973Y014858D02*
X027025Y014858D01*
X027025Y014884D02*
X026973Y014884D01*
X026973Y014910D02*
X027025Y014910D01*
X027025Y014936D02*
X026973Y014936D01*
X026973Y014962D02*
X027025Y014962D01*
X027025Y014988D02*
X026973Y014988D01*
X026973Y015014D02*
X027025Y015014D01*
X027025Y015040D02*
X026973Y015040D01*
X026973Y015066D02*
X027025Y015066D01*
X027025Y015092D02*
X026973Y015092D01*
X026973Y015118D02*
X027025Y015118D01*
X026828Y014598D02*
X026776Y014598D01*
X026776Y015122D01*
X026828Y015122D01*
X026828Y014598D01*
X026828Y014624D02*
X026776Y014624D01*
X026776Y014650D02*
X026828Y014650D01*
X026828Y014676D02*
X026776Y014676D01*
X026776Y014702D02*
X026828Y014702D01*
X026828Y014728D02*
X026776Y014728D01*
X026776Y014754D02*
X026828Y014754D01*
X026828Y014780D02*
X026776Y014780D01*
X026776Y014806D02*
X026828Y014806D01*
X026828Y014832D02*
X026776Y014832D01*
X026776Y014858D02*
X026828Y014858D01*
X026828Y014884D02*
X026776Y014884D01*
X026776Y014910D02*
X026828Y014910D01*
X026828Y014936D02*
X026776Y014936D01*
X026776Y014962D02*
X026828Y014962D01*
X026828Y014988D02*
X026776Y014988D01*
X026776Y015014D02*
X026828Y015014D01*
X026828Y015040D02*
X026776Y015040D01*
X026776Y015066D02*
X026828Y015066D01*
X026828Y015092D02*
X026776Y015092D01*
X026776Y015118D02*
X026828Y015118D01*
X026631Y014598D02*
X026579Y014598D01*
X026579Y015122D01*
X026631Y015122D01*
X026631Y014598D01*
X026631Y014624D02*
X026579Y014624D01*
X026579Y014650D02*
X026631Y014650D01*
X026631Y014676D02*
X026579Y014676D01*
X026579Y014702D02*
X026631Y014702D01*
X026631Y014728D02*
X026579Y014728D01*
X026579Y014754D02*
X026631Y014754D01*
X026631Y014780D02*
X026579Y014780D01*
X026579Y014806D02*
X026631Y014806D01*
X026631Y014832D02*
X026579Y014832D01*
X026579Y014858D02*
X026631Y014858D01*
X026631Y014884D02*
X026579Y014884D01*
X026579Y014910D02*
X026631Y014910D01*
X026631Y014936D02*
X026579Y014936D01*
X026579Y014962D02*
X026631Y014962D01*
X026631Y014988D02*
X026579Y014988D01*
X026579Y015014D02*
X026631Y015014D01*
X026631Y015040D02*
X026579Y015040D01*
X026579Y015066D02*
X026631Y015066D01*
X026631Y015092D02*
X026579Y015092D01*
X026579Y015118D02*
X026631Y015118D01*
X026434Y014598D02*
X026382Y014598D01*
X026382Y015122D01*
X026434Y015122D01*
X026434Y014598D01*
X026434Y014624D02*
X026382Y014624D01*
X026382Y014650D02*
X026434Y014650D01*
X026434Y014676D02*
X026382Y014676D01*
X026382Y014702D02*
X026434Y014702D01*
X026434Y014728D02*
X026382Y014728D01*
X026382Y014754D02*
X026434Y014754D01*
X026434Y014780D02*
X026382Y014780D01*
X026382Y014806D02*
X026434Y014806D01*
X026434Y014832D02*
X026382Y014832D01*
X026382Y014858D02*
X026434Y014858D01*
X026434Y014884D02*
X026382Y014884D01*
X026382Y014910D02*
X026434Y014910D01*
X026434Y014936D02*
X026382Y014936D01*
X026382Y014962D02*
X026434Y014962D01*
X026434Y014988D02*
X026382Y014988D01*
X026382Y015014D02*
X026434Y015014D01*
X026434Y015040D02*
X026382Y015040D01*
X026382Y015066D02*
X026434Y015066D01*
X026434Y015092D02*
X026382Y015092D01*
X026382Y015118D02*
X026434Y015118D01*
X026237Y014598D02*
X026185Y014598D01*
X026185Y015122D01*
X026237Y015122D01*
X026237Y014598D01*
X026237Y014624D02*
X026185Y014624D01*
X026185Y014650D02*
X026237Y014650D01*
X026237Y014676D02*
X026185Y014676D01*
X026185Y014702D02*
X026237Y014702D01*
X026237Y014728D02*
X026185Y014728D01*
X026185Y014754D02*
X026237Y014754D01*
X026237Y014780D02*
X026185Y014780D01*
X026185Y014806D02*
X026237Y014806D01*
X026237Y014832D02*
X026185Y014832D01*
X026185Y014858D02*
X026237Y014858D01*
X026237Y014884D02*
X026185Y014884D01*
X026185Y014910D02*
X026237Y014910D01*
X026237Y014936D02*
X026185Y014936D01*
X026185Y014962D02*
X026237Y014962D01*
X026237Y014988D02*
X026185Y014988D01*
X026185Y015014D02*
X026237Y015014D01*
X026237Y015040D02*
X026185Y015040D01*
X026185Y015066D02*
X026237Y015066D01*
X026237Y015092D02*
X026185Y015092D01*
X026185Y015118D02*
X026237Y015118D01*
X026040Y014598D02*
X025988Y014598D01*
X025988Y015122D01*
X026040Y015122D01*
X026040Y014598D01*
X026040Y014624D02*
X025988Y014624D01*
X025988Y014650D02*
X026040Y014650D01*
X026040Y014676D02*
X025988Y014676D01*
X025988Y014702D02*
X026040Y014702D01*
X026040Y014728D02*
X025988Y014728D01*
X025988Y014754D02*
X026040Y014754D01*
X026040Y014780D02*
X025988Y014780D01*
X025988Y014806D02*
X026040Y014806D01*
X026040Y014832D02*
X025988Y014832D01*
X025988Y014858D02*
X026040Y014858D01*
X026040Y014884D02*
X025988Y014884D01*
X025988Y014910D02*
X026040Y014910D01*
X026040Y014936D02*
X025988Y014936D01*
X025988Y014962D02*
X026040Y014962D01*
X026040Y014988D02*
X025988Y014988D01*
X025988Y015014D02*
X026040Y015014D01*
X026040Y015040D02*
X025988Y015040D01*
X025988Y015066D02*
X026040Y015066D01*
X026040Y015092D02*
X025988Y015092D01*
X025988Y015118D02*
X026040Y015118D01*
X025844Y014598D02*
X025792Y014598D01*
X025792Y015122D01*
X025844Y015122D01*
X025844Y014598D01*
X025844Y014624D02*
X025792Y014624D01*
X025792Y014650D02*
X025844Y014650D01*
X025844Y014676D02*
X025792Y014676D01*
X025792Y014702D02*
X025844Y014702D01*
X025844Y014728D02*
X025792Y014728D01*
X025792Y014754D02*
X025844Y014754D01*
X025844Y014780D02*
X025792Y014780D01*
X025792Y014806D02*
X025844Y014806D01*
X025844Y014832D02*
X025792Y014832D01*
X025792Y014858D02*
X025844Y014858D01*
X025844Y014884D02*
X025792Y014884D01*
X025792Y014910D02*
X025844Y014910D01*
X025844Y014936D02*
X025792Y014936D01*
X025792Y014962D02*
X025844Y014962D01*
X025844Y014988D02*
X025792Y014988D01*
X025792Y015014D02*
X025844Y015014D01*
X025844Y015040D02*
X025792Y015040D01*
X025792Y015066D02*
X025844Y015066D01*
X025844Y015092D02*
X025792Y015092D01*
X025792Y015118D02*
X025844Y015118D01*
X025292Y014046D02*
X024768Y014046D01*
X024768Y014098D01*
X025292Y014098D01*
X025292Y014046D01*
X025292Y014072D02*
X024768Y014072D01*
X024768Y014098D02*
X025292Y014098D01*
X025292Y013849D02*
X024768Y013849D01*
X024768Y013901D01*
X025292Y013901D01*
X025292Y013849D01*
X025292Y013875D02*
X024768Y013875D01*
X024768Y013901D02*
X025292Y013901D01*
X025292Y013653D02*
X024768Y013653D01*
X024768Y013705D01*
X025292Y013705D01*
X025292Y013653D01*
X025292Y013679D02*
X024768Y013679D01*
X024768Y013705D02*
X025292Y013705D01*
X025292Y013456D02*
X024768Y013456D01*
X024768Y013508D01*
X025292Y013508D01*
X025292Y013456D01*
X025292Y013482D02*
X024768Y013482D01*
X024768Y013508D02*
X025292Y013508D01*
X025292Y013259D02*
X024768Y013259D01*
X024768Y013311D01*
X025292Y013311D01*
X025292Y013259D01*
X025292Y013285D02*
X024768Y013285D01*
X024768Y013311D02*
X025292Y013311D01*
X025292Y013062D02*
X024768Y013062D01*
X024768Y013114D01*
X025292Y013114D01*
X025292Y013062D01*
X025292Y013088D02*
X024768Y013088D01*
X024768Y013114D02*
X025292Y013114D01*
X025292Y012865D02*
X024768Y012865D01*
X024768Y012917D01*
X025292Y012917D01*
X025292Y012865D01*
X025292Y012891D02*
X024768Y012891D01*
X024768Y012917D02*
X025292Y012917D01*
X025292Y012668D02*
X024768Y012668D01*
X024768Y012720D01*
X025292Y012720D01*
X025292Y012668D01*
X025292Y012694D02*
X024768Y012694D01*
X024768Y012720D02*
X025292Y012720D01*
X025292Y012471D02*
X024768Y012471D01*
X024768Y012523D01*
X025292Y012523D01*
X025292Y012471D01*
X025292Y012497D02*
X024768Y012497D01*
X024768Y012523D02*
X025292Y012523D01*
X025292Y012275D02*
X024768Y012275D01*
X024768Y012327D01*
X025292Y012327D01*
X025292Y012275D01*
X025292Y012301D02*
X024768Y012301D01*
X024768Y012327D02*
X025292Y012327D01*
X025292Y012078D02*
X024768Y012078D01*
X024768Y012130D01*
X025292Y012130D01*
X025292Y012078D01*
X025292Y012104D02*
X024768Y012104D01*
X024768Y012130D02*
X025292Y012130D01*
X025292Y011881D02*
X024768Y011881D01*
X024768Y011933D01*
X025292Y011933D01*
X025292Y011881D01*
X025292Y011907D02*
X024768Y011907D01*
X024768Y011933D02*
X025292Y011933D01*
X025292Y011684D02*
X024768Y011684D01*
X024768Y011736D01*
X025292Y011736D01*
X025292Y011684D01*
X025292Y011710D02*
X024768Y011710D01*
X024768Y011736D02*
X025292Y011736D01*
X025292Y011487D02*
X024768Y011487D01*
X024768Y011539D01*
X025292Y011539D01*
X025292Y011487D01*
X025292Y011513D02*
X024768Y011513D01*
X024768Y011539D02*
X025292Y011539D01*
X025292Y011290D02*
X024768Y011290D01*
X024768Y011342D01*
X025292Y011342D01*
X025292Y011290D01*
X025292Y011316D02*
X024768Y011316D01*
X024768Y011342D02*
X025292Y011342D01*
X025292Y011093D02*
X024768Y011093D01*
X024768Y011145D01*
X025292Y011145D01*
X025292Y011093D01*
X025292Y011119D02*
X024768Y011119D01*
X024768Y011145D02*
X025292Y011145D01*
X025292Y010897D02*
X024768Y010897D01*
X024768Y010949D01*
X025292Y010949D01*
X025292Y010897D01*
X025292Y010923D02*
X024768Y010923D01*
X024768Y010949D02*
X025292Y010949D01*
X025292Y010700D02*
X024768Y010700D01*
X024768Y010752D01*
X025292Y010752D01*
X025292Y010700D01*
X025292Y010726D02*
X024768Y010726D01*
X024768Y010752D02*
X025292Y010752D01*
X025292Y010503D02*
X024768Y010503D01*
X024768Y010555D01*
X025292Y010555D01*
X025292Y010503D01*
X025292Y010529D02*
X024768Y010529D01*
X024768Y010555D02*
X025292Y010555D01*
X025292Y010306D02*
X024768Y010306D01*
X024768Y010358D01*
X025292Y010358D01*
X025292Y010306D01*
X025292Y010332D02*
X024768Y010332D01*
X024768Y010358D02*
X025292Y010358D01*
X025292Y010109D02*
X024768Y010109D01*
X024768Y010161D01*
X025292Y010161D01*
X025292Y010109D01*
X025292Y010135D02*
X024768Y010135D01*
X024768Y010161D02*
X025292Y010161D01*
X025292Y009912D02*
X024768Y009912D01*
X024768Y009964D01*
X025292Y009964D01*
X025292Y009912D01*
X025292Y009938D02*
X024768Y009938D01*
X024768Y009964D02*
X025292Y009964D01*
X025292Y009715D02*
X024768Y009715D01*
X024768Y009767D01*
X025292Y009767D01*
X025292Y009715D01*
X025292Y009741D02*
X024768Y009741D01*
X024768Y009767D02*
X025292Y009767D01*
X025292Y009519D02*
X024768Y009519D01*
X024768Y009571D01*
X025292Y009571D01*
X025292Y009519D01*
X025292Y009545D02*
X024768Y009545D01*
X024768Y009571D02*
X025292Y009571D01*
X025292Y009322D02*
X024768Y009322D01*
X024768Y009374D01*
X025292Y009374D01*
X025292Y009322D01*
X025292Y009348D02*
X024768Y009348D01*
X024768Y009374D02*
X025292Y009374D01*
X025792Y008298D02*
X025844Y008298D01*
X025792Y008298D02*
X025792Y008822D01*
X025844Y008822D01*
X025844Y008298D01*
X025844Y008324D02*
X025792Y008324D01*
X025792Y008350D02*
X025844Y008350D01*
X025844Y008376D02*
X025792Y008376D01*
X025792Y008402D02*
X025844Y008402D01*
X025844Y008428D02*
X025792Y008428D01*
X025792Y008454D02*
X025844Y008454D01*
X025844Y008480D02*
X025792Y008480D01*
X025792Y008506D02*
X025844Y008506D01*
X025844Y008532D02*
X025792Y008532D01*
X025792Y008558D02*
X025844Y008558D01*
X025844Y008584D02*
X025792Y008584D01*
X025792Y008610D02*
X025844Y008610D01*
X025844Y008636D02*
X025792Y008636D01*
X025792Y008662D02*
X025844Y008662D01*
X025844Y008688D02*
X025792Y008688D01*
X025792Y008714D02*
X025844Y008714D01*
X025844Y008740D02*
X025792Y008740D01*
X025792Y008766D02*
X025844Y008766D01*
X025844Y008792D02*
X025792Y008792D01*
X025792Y008818D02*
X025844Y008818D01*
X025988Y008298D02*
X026040Y008298D01*
X025988Y008298D02*
X025988Y008822D01*
X026040Y008822D01*
X026040Y008298D01*
X026040Y008324D02*
X025988Y008324D01*
X025988Y008350D02*
X026040Y008350D01*
X026040Y008376D02*
X025988Y008376D01*
X025988Y008402D02*
X026040Y008402D01*
X026040Y008428D02*
X025988Y008428D01*
X025988Y008454D02*
X026040Y008454D01*
X026040Y008480D02*
X025988Y008480D01*
X025988Y008506D02*
X026040Y008506D01*
X026040Y008532D02*
X025988Y008532D01*
X025988Y008558D02*
X026040Y008558D01*
X026040Y008584D02*
X025988Y008584D01*
X025988Y008610D02*
X026040Y008610D01*
X026040Y008636D02*
X025988Y008636D01*
X025988Y008662D02*
X026040Y008662D01*
X026040Y008688D02*
X025988Y008688D01*
X025988Y008714D02*
X026040Y008714D01*
X026040Y008740D02*
X025988Y008740D01*
X025988Y008766D02*
X026040Y008766D01*
X026040Y008792D02*
X025988Y008792D01*
X025988Y008818D02*
X026040Y008818D01*
X026185Y008298D02*
X026237Y008298D01*
X026185Y008298D02*
X026185Y008822D01*
X026237Y008822D01*
X026237Y008298D01*
X026237Y008324D02*
X026185Y008324D01*
X026185Y008350D02*
X026237Y008350D01*
X026237Y008376D02*
X026185Y008376D01*
X026185Y008402D02*
X026237Y008402D01*
X026237Y008428D02*
X026185Y008428D01*
X026185Y008454D02*
X026237Y008454D01*
X026237Y008480D02*
X026185Y008480D01*
X026185Y008506D02*
X026237Y008506D01*
X026237Y008532D02*
X026185Y008532D01*
X026185Y008558D02*
X026237Y008558D01*
X026237Y008584D02*
X026185Y008584D01*
X026185Y008610D02*
X026237Y008610D01*
X026237Y008636D02*
X026185Y008636D01*
X026185Y008662D02*
X026237Y008662D01*
X026237Y008688D02*
X026185Y008688D01*
X026185Y008714D02*
X026237Y008714D01*
X026237Y008740D02*
X026185Y008740D01*
X026185Y008766D02*
X026237Y008766D01*
X026237Y008792D02*
X026185Y008792D01*
X026185Y008818D02*
X026237Y008818D01*
X026382Y008298D02*
X026434Y008298D01*
X026382Y008298D02*
X026382Y008822D01*
X026434Y008822D01*
X026434Y008298D01*
X026434Y008324D02*
X026382Y008324D01*
X026382Y008350D02*
X026434Y008350D01*
X026434Y008376D02*
X026382Y008376D01*
X026382Y008402D02*
X026434Y008402D01*
X026434Y008428D02*
X026382Y008428D01*
X026382Y008454D02*
X026434Y008454D01*
X026434Y008480D02*
X026382Y008480D01*
X026382Y008506D02*
X026434Y008506D01*
X026434Y008532D02*
X026382Y008532D01*
X026382Y008558D02*
X026434Y008558D01*
X026434Y008584D02*
X026382Y008584D01*
X026382Y008610D02*
X026434Y008610D01*
X026434Y008636D02*
X026382Y008636D01*
X026382Y008662D02*
X026434Y008662D01*
X026434Y008688D02*
X026382Y008688D01*
X026382Y008714D02*
X026434Y008714D01*
X026434Y008740D02*
X026382Y008740D01*
X026382Y008766D02*
X026434Y008766D01*
X026434Y008792D02*
X026382Y008792D01*
X026382Y008818D02*
X026434Y008818D01*
X026579Y008298D02*
X026631Y008298D01*
X026579Y008298D02*
X026579Y008822D01*
X026631Y008822D01*
X026631Y008298D01*
X026631Y008324D02*
X026579Y008324D01*
X026579Y008350D02*
X026631Y008350D01*
X026631Y008376D02*
X026579Y008376D01*
X026579Y008402D02*
X026631Y008402D01*
X026631Y008428D02*
X026579Y008428D01*
X026579Y008454D02*
X026631Y008454D01*
X026631Y008480D02*
X026579Y008480D01*
X026579Y008506D02*
X026631Y008506D01*
X026631Y008532D02*
X026579Y008532D01*
X026579Y008558D02*
X026631Y008558D01*
X026631Y008584D02*
X026579Y008584D01*
X026579Y008610D02*
X026631Y008610D01*
X026631Y008636D02*
X026579Y008636D01*
X026579Y008662D02*
X026631Y008662D01*
X026631Y008688D02*
X026579Y008688D01*
X026579Y008714D02*
X026631Y008714D01*
X026631Y008740D02*
X026579Y008740D01*
X026579Y008766D02*
X026631Y008766D01*
X026631Y008792D02*
X026579Y008792D01*
X026579Y008818D02*
X026631Y008818D01*
X026776Y008298D02*
X026828Y008298D01*
X026776Y008298D02*
X026776Y008822D01*
X026828Y008822D01*
X026828Y008298D01*
X026828Y008324D02*
X026776Y008324D01*
X026776Y008350D02*
X026828Y008350D01*
X026828Y008376D02*
X026776Y008376D01*
X026776Y008402D02*
X026828Y008402D01*
X026828Y008428D02*
X026776Y008428D01*
X026776Y008454D02*
X026828Y008454D01*
X026828Y008480D02*
X026776Y008480D01*
X026776Y008506D02*
X026828Y008506D01*
X026828Y008532D02*
X026776Y008532D01*
X026776Y008558D02*
X026828Y008558D01*
X026828Y008584D02*
X026776Y008584D01*
X026776Y008610D02*
X026828Y008610D01*
X026828Y008636D02*
X026776Y008636D01*
X026776Y008662D02*
X026828Y008662D01*
X026828Y008688D02*
X026776Y008688D01*
X026776Y008714D02*
X026828Y008714D01*
X026828Y008740D02*
X026776Y008740D01*
X026776Y008766D02*
X026828Y008766D01*
X026828Y008792D02*
X026776Y008792D01*
X026776Y008818D02*
X026828Y008818D01*
X026973Y008298D02*
X027025Y008298D01*
X026973Y008298D02*
X026973Y008822D01*
X027025Y008822D01*
X027025Y008298D01*
X027025Y008324D02*
X026973Y008324D01*
X026973Y008350D02*
X027025Y008350D01*
X027025Y008376D02*
X026973Y008376D01*
X026973Y008402D02*
X027025Y008402D01*
X027025Y008428D02*
X026973Y008428D01*
X026973Y008454D02*
X027025Y008454D01*
X027025Y008480D02*
X026973Y008480D01*
X026973Y008506D02*
X027025Y008506D01*
X027025Y008532D02*
X026973Y008532D01*
X026973Y008558D02*
X027025Y008558D01*
X027025Y008584D02*
X026973Y008584D01*
X026973Y008610D02*
X027025Y008610D01*
X027025Y008636D02*
X026973Y008636D01*
X026973Y008662D02*
X027025Y008662D01*
X027025Y008688D02*
X026973Y008688D01*
X026973Y008714D02*
X027025Y008714D01*
X027025Y008740D02*
X026973Y008740D01*
X026973Y008766D02*
X027025Y008766D01*
X027025Y008792D02*
X026973Y008792D01*
X026973Y008818D02*
X027025Y008818D01*
X027170Y008298D02*
X027222Y008298D01*
X027170Y008298D02*
X027170Y008822D01*
X027222Y008822D01*
X027222Y008298D01*
X027222Y008324D02*
X027170Y008324D01*
X027170Y008350D02*
X027222Y008350D01*
X027222Y008376D02*
X027170Y008376D01*
X027170Y008402D02*
X027222Y008402D01*
X027222Y008428D02*
X027170Y008428D01*
X027170Y008454D02*
X027222Y008454D01*
X027222Y008480D02*
X027170Y008480D01*
X027170Y008506D02*
X027222Y008506D01*
X027222Y008532D02*
X027170Y008532D01*
X027170Y008558D02*
X027222Y008558D01*
X027222Y008584D02*
X027170Y008584D01*
X027170Y008610D02*
X027222Y008610D01*
X027222Y008636D02*
X027170Y008636D01*
X027170Y008662D02*
X027222Y008662D01*
X027222Y008688D02*
X027170Y008688D01*
X027170Y008714D02*
X027222Y008714D01*
X027222Y008740D02*
X027170Y008740D01*
X027170Y008766D02*
X027222Y008766D01*
X027222Y008792D02*
X027170Y008792D01*
X027170Y008818D02*
X027222Y008818D01*
X027366Y008298D02*
X027418Y008298D01*
X027366Y008298D02*
X027366Y008822D01*
X027418Y008822D01*
X027418Y008298D01*
X027418Y008324D02*
X027366Y008324D01*
X027366Y008350D02*
X027418Y008350D01*
X027418Y008376D02*
X027366Y008376D01*
X027366Y008402D02*
X027418Y008402D01*
X027418Y008428D02*
X027366Y008428D01*
X027366Y008454D02*
X027418Y008454D01*
X027418Y008480D02*
X027366Y008480D01*
X027366Y008506D02*
X027418Y008506D01*
X027418Y008532D02*
X027366Y008532D01*
X027366Y008558D02*
X027418Y008558D01*
X027418Y008584D02*
X027366Y008584D01*
X027366Y008610D02*
X027418Y008610D01*
X027418Y008636D02*
X027366Y008636D01*
X027366Y008662D02*
X027418Y008662D01*
X027418Y008688D02*
X027366Y008688D01*
X027366Y008714D02*
X027418Y008714D01*
X027418Y008740D02*
X027366Y008740D01*
X027366Y008766D02*
X027418Y008766D01*
X027418Y008792D02*
X027366Y008792D01*
X027366Y008818D02*
X027418Y008818D01*
X027563Y008298D02*
X027615Y008298D01*
X027563Y008298D02*
X027563Y008822D01*
X027615Y008822D01*
X027615Y008298D01*
X027615Y008324D02*
X027563Y008324D01*
X027563Y008350D02*
X027615Y008350D01*
X027615Y008376D02*
X027563Y008376D01*
X027563Y008402D02*
X027615Y008402D01*
X027615Y008428D02*
X027563Y008428D01*
X027563Y008454D02*
X027615Y008454D01*
X027615Y008480D02*
X027563Y008480D01*
X027563Y008506D02*
X027615Y008506D01*
X027615Y008532D02*
X027563Y008532D01*
X027563Y008558D02*
X027615Y008558D01*
X027615Y008584D02*
X027563Y008584D01*
X027563Y008610D02*
X027615Y008610D01*
X027615Y008636D02*
X027563Y008636D01*
X027563Y008662D02*
X027615Y008662D01*
X027615Y008688D02*
X027563Y008688D01*
X027563Y008714D02*
X027615Y008714D01*
X027615Y008740D02*
X027563Y008740D01*
X027563Y008766D02*
X027615Y008766D01*
X027615Y008792D02*
X027563Y008792D01*
X027563Y008818D02*
X027615Y008818D01*
X027760Y008298D02*
X027812Y008298D01*
X027760Y008298D02*
X027760Y008822D01*
X027812Y008822D01*
X027812Y008298D01*
X027812Y008324D02*
X027760Y008324D01*
X027760Y008350D02*
X027812Y008350D01*
X027812Y008376D02*
X027760Y008376D01*
X027760Y008402D02*
X027812Y008402D01*
X027812Y008428D02*
X027760Y008428D01*
X027760Y008454D02*
X027812Y008454D01*
X027812Y008480D02*
X027760Y008480D01*
X027760Y008506D02*
X027812Y008506D01*
X027812Y008532D02*
X027760Y008532D01*
X027760Y008558D02*
X027812Y008558D01*
X027812Y008584D02*
X027760Y008584D01*
X027760Y008610D02*
X027812Y008610D01*
X027812Y008636D02*
X027760Y008636D01*
X027760Y008662D02*
X027812Y008662D01*
X027812Y008688D02*
X027760Y008688D01*
X027760Y008714D02*
X027812Y008714D01*
X027812Y008740D02*
X027760Y008740D01*
X027760Y008766D02*
X027812Y008766D01*
X027812Y008792D02*
X027760Y008792D01*
X027760Y008818D02*
X027812Y008818D01*
X027957Y008298D02*
X028009Y008298D01*
X027957Y008298D02*
X027957Y008822D01*
X028009Y008822D01*
X028009Y008298D01*
X028009Y008324D02*
X027957Y008324D01*
X027957Y008350D02*
X028009Y008350D01*
X028009Y008376D02*
X027957Y008376D01*
X027957Y008402D02*
X028009Y008402D01*
X028009Y008428D02*
X027957Y008428D01*
X027957Y008454D02*
X028009Y008454D01*
X028009Y008480D02*
X027957Y008480D01*
X027957Y008506D02*
X028009Y008506D01*
X028009Y008532D02*
X027957Y008532D01*
X027957Y008558D02*
X028009Y008558D01*
X028009Y008584D02*
X027957Y008584D01*
X027957Y008610D02*
X028009Y008610D01*
X028009Y008636D02*
X027957Y008636D01*
X027957Y008662D02*
X028009Y008662D01*
X028009Y008688D02*
X027957Y008688D01*
X027957Y008714D02*
X028009Y008714D01*
X028009Y008740D02*
X027957Y008740D01*
X027957Y008766D02*
X028009Y008766D01*
X028009Y008792D02*
X027957Y008792D01*
X027957Y008818D02*
X028009Y008818D01*
X028154Y008298D02*
X028206Y008298D01*
X028154Y008298D02*
X028154Y008822D01*
X028206Y008822D01*
X028206Y008298D01*
X028206Y008324D02*
X028154Y008324D01*
X028154Y008350D02*
X028206Y008350D01*
X028206Y008376D02*
X028154Y008376D01*
X028154Y008402D02*
X028206Y008402D01*
X028206Y008428D02*
X028154Y008428D01*
X028154Y008454D02*
X028206Y008454D01*
X028206Y008480D02*
X028154Y008480D01*
X028154Y008506D02*
X028206Y008506D01*
X028206Y008532D02*
X028154Y008532D01*
X028154Y008558D02*
X028206Y008558D01*
X028206Y008584D02*
X028154Y008584D01*
X028154Y008610D02*
X028206Y008610D01*
X028206Y008636D02*
X028154Y008636D01*
X028154Y008662D02*
X028206Y008662D01*
X028206Y008688D02*
X028154Y008688D01*
X028154Y008714D02*
X028206Y008714D01*
X028206Y008740D02*
X028154Y008740D01*
X028154Y008766D02*
X028206Y008766D01*
X028206Y008792D02*
X028154Y008792D01*
X028154Y008818D02*
X028206Y008818D01*
X028351Y008298D02*
X028403Y008298D01*
X028351Y008298D02*
X028351Y008822D01*
X028403Y008822D01*
X028403Y008298D01*
X028403Y008324D02*
X028351Y008324D01*
X028351Y008350D02*
X028403Y008350D01*
X028403Y008376D02*
X028351Y008376D01*
X028351Y008402D02*
X028403Y008402D01*
X028403Y008428D02*
X028351Y008428D01*
X028351Y008454D02*
X028403Y008454D01*
X028403Y008480D02*
X028351Y008480D01*
X028351Y008506D02*
X028403Y008506D01*
X028403Y008532D02*
X028351Y008532D01*
X028351Y008558D02*
X028403Y008558D01*
X028403Y008584D02*
X028351Y008584D01*
X028351Y008610D02*
X028403Y008610D01*
X028403Y008636D02*
X028351Y008636D01*
X028351Y008662D02*
X028403Y008662D01*
X028403Y008688D02*
X028351Y008688D01*
X028351Y008714D02*
X028403Y008714D01*
X028403Y008740D02*
X028351Y008740D01*
X028351Y008766D02*
X028403Y008766D01*
X028403Y008792D02*
X028351Y008792D01*
X028351Y008818D02*
X028403Y008818D01*
X028548Y008298D02*
X028600Y008298D01*
X028548Y008298D02*
X028548Y008822D01*
X028600Y008822D01*
X028600Y008298D01*
X028600Y008324D02*
X028548Y008324D01*
X028548Y008350D02*
X028600Y008350D01*
X028600Y008376D02*
X028548Y008376D01*
X028548Y008402D02*
X028600Y008402D01*
X028600Y008428D02*
X028548Y008428D01*
X028548Y008454D02*
X028600Y008454D01*
X028600Y008480D02*
X028548Y008480D01*
X028548Y008506D02*
X028600Y008506D01*
X028600Y008532D02*
X028548Y008532D01*
X028548Y008558D02*
X028600Y008558D01*
X028600Y008584D02*
X028548Y008584D01*
X028548Y008610D02*
X028600Y008610D01*
X028600Y008636D02*
X028548Y008636D01*
X028548Y008662D02*
X028600Y008662D01*
X028600Y008688D02*
X028548Y008688D01*
X028548Y008714D02*
X028600Y008714D01*
X028600Y008740D02*
X028548Y008740D01*
X028548Y008766D02*
X028600Y008766D01*
X028600Y008792D02*
X028548Y008792D01*
X028548Y008818D02*
X028600Y008818D01*
X028744Y008298D02*
X028796Y008298D01*
X028744Y008298D02*
X028744Y008822D01*
X028796Y008822D01*
X028796Y008298D01*
X028796Y008324D02*
X028744Y008324D01*
X028744Y008350D02*
X028796Y008350D01*
X028796Y008376D02*
X028744Y008376D01*
X028744Y008402D02*
X028796Y008402D01*
X028796Y008428D02*
X028744Y008428D01*
X028744Y008454D02*
X028796Y008454D01*
X028796Y008480D02*
X028744Y008480D01*
X028744Y008506D02*
X028796Y008506D01*
X028796Y008532D02*
X028744Y008532D01*
X028744Y008558D02*
X028796Y008558D01*
X028796Y008584D02*
X028744Y008584D01*
X028744Y008610D02*
X028796Y008610D01*
X028796Y008636D02*
X028744Y008636D01*
X028744Y008662D02*
X028796Y008662D01*
X028796Y008688D02*
X028744Y008688D01*
X028744Y008714D02*
X028796Y008714D01*
X028796Y008740D02*
X028744Y008740D01*
X028744Y008766D02*
X028796Y008766D01*
X028796Y008792D02*
X028744Y008792D01*
X028744Y008818D02*
X028796Y008818D01*
X028941Y008298D02*
X028993Y008298D01*
X028941Y008298D02*
X028941Y008822D01*
X028993Y008822D01*
X028993Y008298D01*
X028993Y008324D02*
X028941Y008324D01*
X028941Y008350D02*
X028993Y008350D01*
X028993Y008376D02*
X028941Y008376D01*
X028941Y008402D02*
X028993Y008402D01*
X028993Y008428D02*
X028941Y008428D01*
X028941Y008454D02*
X028993Y008454D01*
X028993Y008480D02*
X028941Y008480D01*
X028941Y008506D02*
X028993Y008506D01*
X028993Y008532D02*
X028941Y008532D01*
X028941Y008558D02*
X028993Y008558D01*
X028993Y008584D02*
X028941Y008584D01*
X028941Y008610D02*
X028993Y008610D01*
X028993Y008636D02*
X028941Y008636D01*
X028941Y008662D02*
X028993Y008662D01*
X028993Y008688D02*
X028941Y008688D01*
X028941Y008714D02*
X028993Y008714D01*
X028993Y008740D02*
X028941Y008740D01*
X028941Y008766D02*
X028993Y008766D01*
X028993Y008792D02*
X028941Y008792D01*
X028941Y008818D02*
X028993Y008818D01*
X029138Y008298D02*
X029190Y008298D01*
X029138Y008298D02*
X029138Y008822D01*
X029190Y008822D01*
X029190Y008298D01*
X029190Y008324D02*
X029138Y008324D01*
X029138Y008350D02*
X029190Y008350D01*
X029190Y008376D02*
X029138Y008376D01*
X029138Y008402D02*
X029190Y008402D01*
X029190Y008428D02*
X029138Y008428D01*
X029138Y008454D02*
X029190Y008454D01*
X029190Y008480D02*
X029138Y008480D01*
X029138Y008506D02*
X029190Y008506D01*
X029190Y008532D02*
X029138Y008532D01*
X029138Y008558D02*
X029190Y008558D01*
X029190Y008584D02*
X029138Y008584D01*
X029138Y008610D02*
X029190Y008610D01*
X029190Y008636D02*
X029138Y008636D01*
X029138Y008662D02*
X029190Y008662D01*
X029190Y008688D02*
X029138Y008688D01*
X029138Y008714D02*
X029190Y008714D01*
X029190Y008740D02*
X029138Y008740D01*
X029138Y008766D02*
X029190Y008766D01*
X029190Y008792D02*
X029138Y008792D01*
X029138Y008818D02*
X029190Y008818D01*
X029335Y008298D02*
X029387Y008298D01*
X029335Y008298D02*
X029335Y008822D01*
X029387Y008822D01*
X029387Y008298D01*
X029387Y008324D02*
X029335Y008324D01*
X029335Y008350D02*
X029387Y008350D01*
X029387Y008376D02*
X029335Y008376D01*
X029335Y008402D02*
X029387Y008402D01*
X029387Y008428D02*
X029335Y008428D01*
X029335Y008454D02*
X029387Y008454D01*
X029387Y008480D02*
X029335Y008480D01*
X029335Y008506D02*
X029387Y008506D01*
X029387Y008532D02*
X029335Y008532D01*
X029335Y008558D02*
X029387Y008558D01*
X029387Y008584D02*
X029335Y008584D01*
X029335Y008610D02*
X029387Y008610D01*
X029387Y008636D02*
X029335Y008636D01*
X029335Y008662D02*
X029387Y008662D01*
X029387Y008688D02*
X029335Y008688D01*
X029335Y008714D02*
X029387Y008714D01*
X029387Y008740D02*
X029335Y008740D01*
X029335Y008766D02*
X029387Y008766D01*
X029387Y008792D02*
X029335Y008792D01*
X029335Y008818D02*
X029387Y008818D01*
X029532Y008298D02*
X029584Y008298D01*
X029532Y008298D02*
X029532Y008822D01*
X029584Y008822D01*
X029584Y008298D01*
X029584Y008324D02*
X029532Y008324D01*
X029532Y008350D02*
X029584Y008350D01*
X029584Y008376D02*
X029532Y008376D01*
X029532Y008402D02*
X029584Y008402D01*
X029584Y008428D02*
X029532Y008428D01*
X029532Y008454D02*
X029584Y008454D01*
X029584Y008480D02*
X029532Y008480D01*
X029532Y008506D02*
X029584Y008506D01*
X029584Y008532D02*
X029532Y008532D01*
X029532Y008558D02*
X029584Y008558D01*
X029584Y008584D02*
X029532Y008584D01*
X029532Y008610D02*
X029584Y008610D01*
X029584Y008636D02*
X029532Y008636D01*
X029532Y008662D02*
X029584Y008662D01*
X029584Y008688D02*
X029532Y008688D01*
X029532Y008714D02*
X029584Y008714D01*
X029584Y008740D02*
X029532Y008740D01*
X029532Y008766D02*
X029584Y008766D01*
X029584Y008792D02*
X029532Y008792D01*
X029532Y008818D02*
X029584Y008818D01*
X029729Y008298D02*
X029781Y008298D01*
X029729Y008298D02*
X029729Y008822D01*
X029781Y008822D01*
X029781Y008298D01*
X029781Y008324D02*
X029729Y008324D01*
X029729Y008350D02*
X029781Y008350D01*
X029781Y008376D02*
X029729Y008376D01*
X029729Y008402D02*
X029781Y008402D01*
X029781Y008428D02*
X029729Y008428D01*
X029729Y008454D02*
X029781Y008454D01*
X029781Y008480D02*
X029729Y008480D01*
X029729Y008506D02*
X029781Y008506D01*
X029781Y008532D02*
X029729Y008532D01*
X029729Y008558D02*
X029781Y008558D01*
X029781Y008584D02*
X029729Y008584D01*
X029729Y008610D02*
X029781Y008610D01*
X029781Y008636D02*
X029729Y008636D01*
X029729Y008662D02*
X029781Y008662D01*
X029781Y008688D02*
X029729Y008688D01*
X029729Y008714D02*
X029781Y008714D01*
X029781Y008740D02*
X029729Y008740D01*
X029729Y008766D02*
X029781Y008766D01*
X029781Y008792D02*
X029729Y008792D01*
X029729Y008818D02*
X029781Y008818D01*
X029925Y008298D02*
X029977Y008298D01*
X029925Y008298D02*
X029925Y008822D01*
X029977Y008822D01*
X029977Y008298D01*
X029977Y008324D02*
X029925Y008324D01*
X029925Y008350D02*
X029977Y008350D01*
X029977Y008376D02*
X029925Y008376D01*
X029925Y008402D02*
X029977Y008402D01*
X029977Y008428D02*
X029925Y008428D01*
X029925Y008454D02*
X029977Y008454D01*
X029977Y008480D02*
X029925Y008480D01*
X029925Y008506D02*
X029977Y008506D01*
X029977Y008532D02*
X029925Y008532D01*
X029925Y008558D02*
X029977Y008558D01*
X029977Y008584D02*
X029925Y008584D01*
X029925Y008610D02*
X029977Y008610D01*
X029977Y008636D02*
X029925Y008636D01*
X029925Y008662D02*
X029977Y008662D01*
X029977Y008688D02*
X029925Y008688D01*
X029925Y008714D02*
X029977Y008714D01*
X029977Y008740D02*
X029925Y008740D01*
X029925Y008766D02*
X029977Y008766D01*
X029977Y008792D02*
X029925Y008792D01*
X029925Y008818D02*
X029977Y008818D01*
X030122Y008298D02*
X030174Y008298D01*
X030122Y008298D02*
X030122Y008822D01*
X030174Y008822D01*
X030174Y008298D01*
X030174Y008324D02*
X030122Y008324D01*
X030122Y008350D02*
X030174Y008350D01*
X030174Y008376D02*
X030122Y008376D01*
X030122Y008402D02*
X030174Y008402D01*
X030174Y008428D02*
X030122Y008428D01*
X030122Y008454D02*
X030174Y008454D01*
X030174Y008480D02*
X030122Y008480D01*
X030122Y008506D02*
X030174Y008506D01*
X030174Y008532D02*
X030122Y008532D01*
X030122Y008558D02*
X030174Y008558D01*
X030174Y008584D02*
X030122Y008584D01*
X030122Y008610D02*
X030174Y008610D01*
X030174Y008636D02*
X030122Y008636D01*
X030122Y008662D02*
X030174Y008662D01*
X030174Y008688D02*
X030122Y008688D01*
X030122Y008714D02*
X030174Y008714D01*
X030174Y008740D02*
X030122Y008740D01*
X030122Y008766D02*
X030174Y008766D01*
X030174Y008792D02*
X030122Y008792D01*
X030122Y008818D02*
X030174Y008818D01*
X030319Y008298D02*
X030371Y008298D01*
X030319Y008298D02*
X030319Y008822D01*
X030371Y008822D01*
X030371Y008298D01*
X030371Y008324D02*
X030319Y008324D01*
X030319Y008350D02*
X030371Y008350D01*
X030371Y008376D02*
X030319Y008376D01*
X030319Y008402D02*
X030371Y008402D01*
X030371Y008428D02*
X030319Y008428D01*
X030319Y008454D02*
X030371Y008454D01*
X030371Y008480D02*
X030319Y008480D01*
X030319Y008506D02*
X030371Y008506D01*
X030371Y008532D02*
X030319Y008532D01*
X030319Y008558D02*
X030371Y008558D01*
X030371Y008584D02*
X030319Y008584D01*
X030319Y008610D02*
X030371Y008610D01*
X030371Y008636D02*
X030319Y008636D01*
X030319Y008662D02*
X030371Y008662D01*
X030371Y008688D02*
X030319Y008688D01*
X030319Y008714D02*
X030371Y008714D01*
X030371Y008740D02*
X030319Y008740D01*
X030319Y008766D02*
X030371Y008766D01*
X030371Y008792D02*
X030319Y008792D01*
X030319Y008818D02*
X030371Y008818D01*
X030516Y008298D02*
X030568Y008298D01*
X030516Y008298D02*
X030516Y008822D01*
X030568Y008822D01*
X030568Y008298D01*
X030568Y008324D02*
X030516Y008324D01*
X030516Y008350D02*
X030568Y008350D01*
X030568Y008376D02*
X030516Y008376D01*
X030516Y008402D02*
X030568Y008402D01*
X030568Y008428D02*
X030516Y008428D01*
X030516Y008454D02*
X030568Y008454D01*
X030568Y008480D02*
X030516Y008480D01*
X030516Y008506D02*
X030568Y008506D01*
X030568Y008532D02*
X030516Y008532D01*
X030516Y008558D02*
X030568Y008558D01*
X030568Y008584D02*
X030516Y008584D01*
X030516Y008610D02*
X030568Y008610D01*
X030568Y008636D02*
X030516Y008636D01*
X030516Y008662D02*
X030568Y008662D01*
X030568Y008688D02*
X030516Y008688D01*
X030516Y008714D02*
X030568Y008714D01*
X030568Y008740D02*
X030516Y008740D01*
X030516Y008766D02*
X030568Y008766D01*
X030568Y008792D02*
X030516Y008792D01*
X030516Y008818D02*
X030568Y008818D01*
X031067Y009322D02*
X031591Y009322D01*
X031067Y009322D02*
X031067Y009374D01*
X031591Y009374D01*
X031591Y009322D01*
X031591Y009348D02*
X031067Y009348D01*
X031067Y009374D02*
X031591Y009374D01*
X031591Y009519D02*
X031067Y009519D01*
X031067Y009571D01*
X031591Y009571D01*
X031591Y009519D01*
X031591Y009545D02*
X031067Y009545D01*
X031067Y009571D02*
X031591Y009571D01*
X031591Y009715D02*
X031067Y009715D01*
X031067Y009767D01*
X031591Y009767D01*
X031591Y009715D01*
X031591Y009741D02*
X031067Y009741D01*
X031067Y009767D02*
X031591Y009767D01*
X031591Y009912D02*
X031067Y009912D01*
X031067Y009964D01*
X031591Y009964D01*
X031591Y009912D01*
X031591Y009938D02*
X031067Y009938D01*
X031067Y009964D02*
X031591Y009964D01*
X031591Y010109D02*
X031067Y010109D01*
X031067Y010161D01*
X031591Y010161D01*
X031591Y010109D01*
X031591Y010135D02*
X031067Y010135D01*
X031067Y010161D02*
X031591Y010161D01*
X031591Y010306D02*
X031067Y010306D01*
X031067Y010358D01*
X031591Y010358D01*
X031591Y010306D01*
X031591Y010332D02*
X031067Y010332D01*
X031067Y010358D02*
X031591Y010358D01*
X031591Y010503D02*
X031067Y010503D01*
X031067Y010555D01*
X031591Y010555D01*
X031591Y010503D01*
X031591Y010529D02*
X031067Y010529D01*
X031067Y010555D02*
X031591Y010555D01*
X031591Y010700D02*
X031067Y010700D01*
X031067Y010752D01*
X031591Y010752D01*
X031591Y010700D01*
X031591Y010726D02*
X031067Y010726D01*
X031067Y010752D02*
X031591Y010752D01*
X031591Y010897D02*
X031067Y010897D01*
X031067Y010949D01*
X031591Y010949D01*
X031591Y010897D01*
X031591Y010923D02*
X031067Y010923D01*
X031067Y010949D02*
X031591Y010949D01*
X031591Y011093D02*
X031067Y011093D01*
X031067Y011145D01*
X031591Y011145D01*
X031591Y011093D01*
X031591Y011119D02*
X031067Y011119D01*
X031067Y011145D02*
X031591Y011145D01*
X031591Y011290D02*
X031067Y011290D01*
X031067Y011342D01*
X031591Y011342D01*
X031591Y011290D01*
X031591Y011316D02*
X031067Y011316D01*
X031067Y011342D02*
X031591Y011342D01*
X031591Y011487D02*
X031067Y011487D01*
X031067Y011539D01*
X031591Y011539D01*
X031591Y011487D01*
X031591Y011513D02*
X031067Y011513D01*
X031067Y011539D02*
X031591Y011539D01*
X031591Y011684D02*
X031067Y011684D01*
X031067Y011736D01*
X031591Y011736D01*
X031591Y011684D01*
X031591Y011710D02*
X031067Y011710D01*
X031067Y011736D02*
X031591Y011736D01*
X031591Y011881D02*
X031067Y011881D01*
X031067Y011933D01*
X031591Y011933D01*
X031591Y011881D01*
X031591Y011907D02*
X031067Y011907D01*
X031067Y011933D02*
X031591Y011933D01*
X031591Y012078D02*
X031067Y012078D01*
X031067Y012130D01*
X031591Y012130D01*
X031591Y012078D01*
X031591Y012104D02*
X031067Y012104D01*
X031067Y012130D02*
X031591Y012130D01*
X031591Y012275D02*
X031067Y012275D01*
X031067Y012327D01*
X031591Y012327D01*
X031591Y012275D01*
X031591Y012301D02*
X031067Y012301D01*
X031067Y012327D02*
X031591Y012327D01*
X031591Y012471D02*
X031067Y012471D01*
X031067Y012523D01*
X031591Y012523D01*
X031591Y012471D01*
X031591Y012497D02*
X031067Y012497D01*
X031067Y012523D02*
X031591Y012523D01*
X031591Y012668D02*
X031067Y012668D01*
X031067Y012720D01*
X031591Y012720D01*
X031591Y012668D01*
X031591Y012694D02*
X031067Y012694D01*
X031067Y012720D02*
X031591Y012720D01*
X031591Y012865D02*
X031067Y012865D01*
X031067Y012917D01*
X031591Y012917D01*
X031591Y012865D01*
X031591Y012891D02*
X031067Y012891D01*
X031067Y012917D02*
X031591Y012917D01*
X031591Y013062D02*
X031067Y013062D01*
X031067Y013114D01*
X031591Y013114D01*
X031591Y013062D01*
X031591Y013088D02*
X031067Y013088D01*
X031067Y013114D02*
X031591Y013114D01*
X031591Y013259D02*
X031067Y013259D01*
X031067Y013311D01*
X031591Y013311D01*
X031591Y013259D01*
X031591Y013285D02*
X031067Y013285D01*
X031067Y013311D02*
X031591Y013311D01*
X031591Y013456D02*
X031067Y013456D01*
X031067Y013508D01*
X031591Y013508D01*
X031591Y013456D01*
X031591Y013482D02*
X031067Y013482D01*
X031067Y013508D02*
X031591Y013508D01*
X031591Y013653D02*
X031067Y013653D01*
X031067Y013705D01*
X031591Y013705D01*
X031591Y013653D01*
X031591Y013679D02*
X031067Y013679D01*
X031067Y013705D02*
X031591Y013705D01*
X031591Y013849D02*
X031067Y013849D01*
X031067Y013901D01*
X031591Y013901D01*
X031591Y013849D01*
X031591Y013875D02*
X031067Y013875D01*
X031067Y013901D02*
X031591Y013901D01*
X031591Y014046D02*
X031067Y014046D01*
X031067Y014098D01*
X031591Y014098D01*
X031591Y014046D01*
X031591Y014072D02*
X031067Y014072D01*
X031067Y014098D02*
X031591Y014098D01*
X016465Y009359D02*
X016465Y009307D01*
X016059Y009307D01*
X016059Y009359D01*
X016465Y009359D01*
X016465Y009333D02*
X016059Y009333D01*
X016059Y009359D02*
X016465Y009359D01*
X016465Y009104D02*
X016465Y009052D01*
X016059Y009052D01*
X016059Y009104D01*
X016465Y009104D01*
X016465Y009078D02*
X016059Y009078D01*
X016059Y009104D02*
X016465Y009104D01*
X016465Y008848D02*
X016465Y008796D01*
X016059Y008796D01*
X016059Y008848D01*
X016465Y008848D01*
X016465Y008822D02*
X016059Y008822D01*
X016059Y008848D02*
X016465Y008848D01*
X016465Y008592D02*
X016465Y008540D01*
X016059Y008540D01*
X016059Y008592D01*
X016465Y008592D01*
X016465Y008566D02*
X016059Y008566D01*
X016059Y008592D02*
X016465Y008592D01*
X014801Y008592D02*
X014801Y008540D01*
X014395Y008540D01*
X014395Y008592D01*
X014801Y008592D01*
X014801Y008566D02*
X014395Y008566D01*
X014395Y008592D02*
X014801Y008592D01*
X014801Y008796D02*
X014801Y008848D01*
X014801Y008796D02*
X014395Y008796D01*
X014395Y008848D01*
X014801Y008848D01*
X014801Y008822D02*
X014395Y008822D01*
X014395Y008848D02*
X014801Y008848D01*
X014801Y009052D02*
X014801Y009104D01*
X014801Y009052D02*
X014395Y009052D01*
X014395Y009104D01*
X014801Y009104D01*
X014801Y009078D02*
X014395Y009078D01*
X014395Y009104D02*
X014801Y009104D01*
X014801Y009307D02*
X014801Y009359D01*
X014801Y009307D02*
X014395Y009307D01*
X014395Y009359D01*
X014801Y009359D01*
X014801Y009333D02*
X014395Y009333D01*
X014395Y009359D02*
X014801Y009359D01*
D18*
X010529Y009979D02*
X010529Y010585D01*
X010529Y009979D02*
X009331Y009979D01*
X009331Y010585D01*
X010529Y010585D01*
X010529Y010045D02*
X009331Y010045D01*
X009331Y010111D02*
X010529Y010111D01*
X010529Y010177D02*
X009331Y010177D01*
X009331Y010243D02*
X010529Y010243D01*
X010529Y010309D02*
X009331Y010309D01*
X009331Y010375D02*
X010529Y010375D01*
X010529Y010441D02*
X009331Y010441D01*
X009331Y010507D02*
X010529Y010507D01*
X010529Y010573D02*
X009331Y010573D01*
X010529Y011515D02*
X010529Y012121D01*
X010529Y011515D02*
X009331Y011515D01*
X009331Y012121D01*
X010529Y012121D01*
X010529Y011581D02*
X009331Y011581D01*
X009331Y011647D02*
X010529Y011647D01*
X010529Y011713D02*
X009331Y011713D01*
X009331Y011779D02*
X010529Y011779D01*
X010529Y011845D02*
X009331Y011845D01*
X009331Y011911D02*
X010529Y011911D01*
X010529Y011977D02*
X009331Y011977D01*
X009331Y012043D02*
X010529Y012043D01*
X010529Y012109D02*
X009331Y012109D01*
D19*
X011242Y010858D02*
X011242Y010622D01*
X011242Y010858D02*
X011518Y010858D01*
X011518Y010622D01*
X011242Y010622D01*
X011242Y010656D02*
X011518Y010656D01*
X011518Y010690D02*
X011242Y010690D01*
X011242Y010724D02*
X011518Y010724D01*
X011518Y010758D02*
X011242Y010758D01*
X011242Y010792D02*
X011518Y010792D01*
X011518Y010826D02*
X011242Y010826D01*
X012042Y011002D02*
X012042Y011238D01*
X012318Y011238D01*
X012318Y011002D01*
X012042Y011002D01*
X012042Y011036D02*
X012318Y011036D01*
X012318Y011070D02*
X012042Y011070D01*
X012042Y011104D02*
X012318Y011104D01*
X012318Y011138D02*
X012042Y011138D01*
X012042Y011172D02*
X012318Y011172D01*
X012318Y011206D02*
X012042Y011206D01*
X012042Y010478D02*
X012042Y010242D01*
X012042Y010478D02*
X012318Y010478D01*
X012318Y010242D01*
X012042Y010242D01*
X012042Y010276D02*
X012318Y010276D01*
X012318Y010310D02*
X012042Y010310D01*
X012042Y010344D02*
X012318Y010344D01*
X012318Y010378D02*
X012042Y010378D01*
X012042Y010412D02*
X012318Y010412D01*
X012318Y010446D02*
X012042Y010446D01*
D20*
X018693Y006478D02*
X019067Y006478D01*
X018693Y006478D02*
X018693Y007022D01*
X019067Y007022D01*
X019067Y006478D01*
X019067Y006518D02*
X018693Y006518D01*
X018693Y006558D02*
X019067Y006558D01*
X019067Y006598D02*
X018693Y006598D01*
X018693Y006638D02*
X019067Y006638D01*
X019067Y006678D02*
X018693Y006678D01*
X018693Y006718D02*
X019067Y006718D01*
X019067Y006758D02*
X018693Y006758D01*
X018693Y006798D02*
X019067Y006798D01*
X019067Y006838D02*
X018693Y006838D01*
X018693Y006878D02*
X019067Y006878D01*
X019067Y006918D02*
X018693Y006918D01*
X018693Y006958D02*
X019067Y006958D01*
X019067Y006998D02*
X018693Y006998D01*
X019293Y006478D02*
X019667Y006478D01*
X019293Y006478D02*
X019293Y007022D01*
X019667Y007022D01*
X019667Y006478D01*
X019667Y006518D02*
X019293Y006518D01*
X019293Y006558D02*
X019667Y006558D01*
X019667Y006598D02*
X019293Y006598D01*
X019293Y006638D02*
X019667Y006638D01*
X019667Y006678D02*
X019293Y006678D01*
X019293Y006718D02*
X019667Y006718D01*
X019667Y006758D02*
X019293Y006758D01*
X019293Y006798D02*
X019667Y006798D01*
X019667Y006838D02*
X019293Y006838D01*
X019293Y006878D02*
X019667Y006878D01*
X019667Y006918D02*
X019293Y006918D01*
X019293Y006958D02*
X019667Y006958D01*
X019667Y006998D02*
X019293Y006998D01*
D21*
X016726Y013375D02*
X016712Y013375D01*
X016726Y013375D02*
X016726Y013195D01*
X016712Y013195D01*
X016712Y013375D01*
X016726Y013250D02*
X016712Y013250D01*
X016712Y013305D02*
X016726Y013305D01*
X016726Y013360D02*
X016712Y013360D01*
X016529Y013375D02*
X016515Y013375D01*
X016529Y013375D02*
X016529Y013195D01*
X016515Y013195D01*
X016515Y013375D01*
X016529Y013250D02*
X016515Y013250D01*
X016515Y013305D02*
X016529Y013305D01*
X016529Y013360D02*
X016515Y013360D01*
X016332Y013375D02*
X016318Y013375D01*
X016332Y013375D02*
X016332Y013195D01*
X016318Y013195D01*
X016318Y013375D01*
X016332Y013250D02*
X016318Y013250D01*
X016318Y013305D02*
X016332Y013305D01*
X016332Y013360D02*
X016318Y013360D01*
X016135Y013375D02*
X016121Y013375D01*
X016135Y013375D02*
X016135Y013195D01*
X016121Y013195D01*
X016121Y013375D01*
X016135Y013250D02*
X016121Y013250D01*
X016121Y013305D02*
X016135Y013305D01*
X016135Y013360D02*
X016121Y013360D01*
X015938Y013375D02*
X015924Y013375D01*
X015938Y013375D02*
X015938Y013195D01*
X015924Y013195D01*
X015924Y013375D01*
X015938Y013250D02*
X015924Y013250D01*
X015924Y013305D02*
X015938Y013305D01*
X015938Y013360D02*
X015924Y013360D01*
X015742Y013375D02*
X015728Y013375D01*
X015742Y013375D02*
X015742Y013195D01*
X015728Y013195D01*
X015728Y013375D01*
X015742Y013250D02*
X015728Y013250D01*
X015728Y013305D02*
X015742Y013305D01*
X015742Y013360D02*
X015728Y013360D01*
X015545Y013375D02*
X015531Y013375D01*
X015545Y013375D02*
X015545Y013195D01*
X015531Y013195D01*
X015531Y013375D01*
X015545Y013250D02*
X015531Y013250D01*
X015531Y013305D02*
X015545Y013305D01*
X015545Y013360D02*
X015531Y013360D01*
X015348Y013375D02*
X015334Y013375D01*
X015348Y013375D02*
X015348Y013195D01*
X015334Y013195D01*
X015334Y013375D01*
X015348Y013250D02*
X015334Y013250D01*
X015334Y013305D02*
X015348Y013305D01*
X015348Y013360D02*
X015334Y013360D01*
X014975Y013554D02*
X014975Y013568D01*
X015155Y013568D01*
X015155Y013554D01*
X014975Y013554D01*
X014975Y013751D02*
X014975Y013765D01*
X015155Y013765D01*
X015155Y013751D01*
X014975Y013751D01*
X014975Y013948D02*
X014975Y013962D01*
X015155Y013962D01*
X015155Y013948D01*
X014975Y013948D01*
X014975Y014145D02*
X014975Y014159D01*
X015155Y014159D01*
X015155Y014145D01*
X014975Y014145D01*
X014975Y014341D02*
X014975Y014355D01*
X015155Y014355D01*
X015155Y014341D01*
X014975Y014341D01*
X014975Y014538D02*
X014975Y014552D01*
X015155Y014552D01*
X015155Y014538D01*
X014975Y014538D01*
X014975Y014735D02*
X014975Y014749D01*
X015155Y014749D01*
X015155Y014735D01*
X014975Y014735D01*
X014975Y014932D02*
X014975Y014946D01*
X015155Y014946D01*
X015155Y014932D01*
X014975Y014932D01*
X015334Y015305D02*
X015348Y015305D01*
X015348Y015125D01*
X015334Y015125D01*
X015334Y015305D01*
X015348Y015180D02*
X015334Y015180D01*
X015334Y015235D02*
X015348Y015235D01*
X015348Y015290D02*
X015334Y015290D01*
X015531Y015305D02*
X015545Y015305D01*
X015545Y015125D01*
X015531Y015125D01*
X015531Y015305D01*
X015545Y015180D02*
X015531Y015180D01*
X015531Y015235D02*
X015545Y015235D01*
X015545Y015290D02*
X015531Y015290D01*
X015728Y015305D02*
X015742Y015305D01*
X015742Y015125D01*
X015728Y015125D01*
X015728Y015305D01*
X015742Y015180D02*
X015728Y015180D01*
X015728Y015235D02*
X015742Y015235D01*
X015742Y015290D02*
X015728Y015290D01*
X015924Y015305D02*
X015938Y015305D01*
X015938Y015125D01*
X015924Y015125D01*
X015924Y015305D01*
X015938Y015180D02*
X015924Y015180D01*
X015924Y015235D02*
X015938Y015235D01*
X015938Y015290D02*
X015924Y015290D01*
X016121Y015305D02*
X016135Y015305D01*
X016135Y015125D01*
X016121Y015125D01*
X016121Y015305D01*
X016135Y015180D02*
X016121Y015180D01*
X016121Y015235D02*
X016135Y015235D01*
X016135Y015290D02*
X016121Y015290D01*
X016318Y015305D02*
X016332Y015305D01*
X016332Y015125D01*
X016318Y015125D01*
X016318Y015305D01*
X016332Y015180D02*
X016318Y015180D01*
X016318Y015235D02*
X016332Y015235D01*
X016332Y015290D02*
X016318Y015290D01*
X016515Y015305D02*
X016529Y015305D01*
X016529Y015125D01*
X016515Y015125D01*
X016515Y015305D01*
X016529Y015180D02*
X016515Y015180D01*
X016515Y015235D02*
X016529Y015235D01*
X016529Y015290D02*
X016515Y015290D01*
X016712Y015305D02*
X016726Y015305D01*
X016726Y015125D01*
X016712Y015125D01*
X016712Y015305D01*
X016726Y015180D02*
X016712Y015180D01*
X016712Y015235D02*
X016726Y015235D01*
X016726Y015290D02*
X016712Y015290D01*
X016904Y014946D02*
X016904Y014932D01*
X016904Y014946D02*
X017084Y014946D01*
X017084Y014932D01*
X016904Y014932D01*
X016904Y014749D02*
X016904Y014735D01*
X016904Y014749D02*
X017084Y014749D01*
X017084Y014735D01*
X016904Y014735D01*
X016904Y014552D02*
X016904Y014538D01*
X016904Y014552D02*
X017084Y014552D01*
X017084Y014538D01*
X016904Y014538D01*
X016904Y014355D02*
X016904Y014341D01*
X016904Y014355D02*
X017084Y014355D01*
X017084Y014341D01*
X016904Y014341D01*
X016904Y014159D02*
X016904Y014145D01*
X016904Y014159D02*
X017084Y014159D01*
X017084Y014145D01*
X016904Y014145D01*
X016904Y013962D02*
X016904Y013948D01*
X016904Y013962D02*
X017084Y013962D01*
X017084Y013948D01*
X016904Y013948D01*
X016904Y013765D02*
X016904Y013751D01*
X016904Y013765D02*
X017084Y013765D01*
X017084Y013751D01*
X016904Y013751D01*
X016904Y013568D02*
X016904Y013554D01*
X016904Y013568D02*
X017084Y013568D01*
X017084Y013554D01*
X016904Y013554D01*
D22*
X016030Y014250D03*
D23*
X013484Y013890D02*
X013164Y013890D01*
X013164Y014210D01*
X013484Y014210D01*
X013484Y013890D01*
X013484Y013924D02*
X013164Y013924D01*
X013164Y013958D02*
X013484Y013958D01*
X013484Y013992D02*
X013164Y013992D01*
X013164Y014026D02*
X013484Y014026D01*
X013484Y014060D02*
X013164Y014060D01*
X013164Y014094D02*
X013484Y014094D01*
X013484Y014128D02*
X013164Y014128D01*
X013164Y014162D02*
X013484Y014162D01*
X013484Y014196D02*
X013164Y014196D01*
X012696Y013890D02*
X012376Y013890D01*
X012376Y014210D01*
X012696Y014210D01*
X012696Y013890D01*
X012696Y013924D02*
X012376Y013924D01*
X012376Y013958D02*
X012696Y013958D01*
X012696Y013992D02*
X012376Y013992D01*
X012376Y014026D02*
X012696Y014026D01*
X012696Y014060D02*
X012376Y014060D01*
X012376Y014094D02*
X012696Y014094D01*
X012696Y014128D02*
X012376Y014128D01*
X012376Y014162D02*
X012696Y014162D01*
X012696Y014196D02*
X012376Y014196D01*
X012376Y016090D02*
X012696Y016090D01*
X012376Y016090D02*
X012376Y016410D01*
X012696Y016410D01*
X012696Y016090D01*
X012696Y016124D02*
X012376Y016124D01*
X012376Y016158D02*
X012696Y016158D01*
X012696Y016192D02*
X012376Y016192D01*
X012376Y016226D02*
X012696Y016226D01*
X012696Y016260D02*
X012376Y016260D01*
X012376Y016294D02*
X012696Y016294D01*
X012696Y016328D02*
X012376Y016328D01*
X012376Y016362D02*
X012696Y016362D01*
X012696Y016396D02*
X012376Y016396D01*
X013164Y016090D02*
X013484Y016090D01*
X013164Y016090D02*
X013164Y016410D01*
X013484Y016410D01*
X013484Y016090D01*
X013484Y016124D02*
X013164Y016124D01*
X013164Y016158D02*
X013484Y016158D01*
X013484Y016192D02*
X013164Y016192D01*
X013164Y016226D02*
X013484Y016226D01*
X013484Y016260D02*
X013164Y016260D01*
X013164Y016294D02*
X013484Y016294D01*
X013484Y016328D02*
X013164Y016328D01*
X013164Y016362D02*
X013484Y016362D01*
X013484Y016396D02*
X013164Y016396D01*
X012062Y018510D02*
X011664Y018510D01*
X012062Y018510D02*
X012062Y018190D01*
X011664Y018190D01*
X011664Y018510D01*
X011664Y018224D02*
X012062Y018224D01*
X012062Y018258D02*
X011664Y018258D01*
X011664Y018292D02*
X012062Y018292D01*
X012062Y018326D02*
X011664Y018326D01*
X011664Y018360D02*
X012062Y018360D01*
X012062Y018394D02*
X011664Y018394D01*
X011664Y018428D02*
X012062Y018428D01*
X012062Y018462D02*
X011664Y018462D01*
X011664Y018496D02*
X012062Y018496D01*
X011196Y018510D02*
X010798Y018510D01*
X011196Y018510D02*
X011196Y018190D01*
X010798Y018190D01*
X010798Y018510D01*
X010798Y018224D02*
X011196Y018224D01*
X011196Y018258D02*
X010798Y018258D01*
X010798Y018292D02*
X011196Y018292D01*
X011196Y018326D02*
X010798Y018326D01*
X010798Y018360D02*
X011196Y018360D01*
X011196Y018394D02*
X010798Y018394D01*
X010798Y018428D02*
X011196Y018428D01*
X011196Y018462D02*
X010798Y018462D01*
X010798Y018496D02*
X011196Y018496D01*
D24*
X022924Y006593D02*
X023636Y006593D01*
X022924Y006593D02*
X022924Y006795D01*
X023636Y006795D01*
X023636Y006593D01*
X023636Y006627D02*
X022924Y006627D01*
X022924Y006661D02*
X023636Y006661D01*
X023636Y006695D02*
X022924Y006695D01*
X022924Y006729D02*
X023636Y006729D01*
X023636Y006763D02*
X022924Y006763D01*
X022924Y006199D02*
X023636Y006199D01*
X022924Y006199D02*
X022924Y006401D01*
X023636Y006401D01*
X023636Y006199D01*
X023636Y006233D02*
X022924Y006233D01*
X022924Y006267D02*
X023636Y006267D01*
X023636Y006301D02*
X022924Y006301D01*
X022924Y006335D02*
X023636Y006335D01*
X023636Y006369D02*
X022924Y006369D01*
X022924Y005805D02*
X023636Y005805D01*
X022924Y005805D02*
X022924Y006007D01*
X023636Y006007D01*
X023636Y005805D01*
X023636Y005839D02*
X022924Y005839D01*
X022924Y005873D02*
X023636Y005873D01*
X023636Y005907D02*
X022924Y005907D01*
X022924Y005941D02*
X023636Y005941D01*
X023636Y005975D02*
X022924Y005975D01*
D25*
X015789Y006515D02*
X015789Y006641D01*
X015789Y006515D02*
X015603Y006515D01*
X015603Y006641D01*
X015789Y006641D01*
X015789Y006545D02*
X015603Y006545D01*
X015603Y006575D02*
X015789Y006575D01*
X015789Y006605D02*
X015603Y006605D01*
X015603Y006635D02*
X015789Y006635D01*
X015789Y006830D02*
X015789Y006956D01*
X015789Y006830D02*
X015603Y006830D01*
X015603Y006956D01*
X015789Y006956D01*
X015789Y006860D02*
X015603Y006860D01*
X015603Y006890D02*
X015789Y006890D01*
X015789Y006920D02*
X015603Y006920D01*
X015603Y006950D02*
X015789Y006950D01*
X015789Y007144D02*
X015789Y007270D01*
X015789Y007144D02*
X015603Y007144D01*
X015603Y007270D01*
X015789Y007270D01*
X015789Y007174D02*
X015603Y007174D01*
X015603Y007204D02*
X015789Y007204D01*
X015789Y007234D02*
X015603Y007234D01*
X015603Y007264D02*
X015789Y007264D01*
X015789Y007459D02*
X015789Y007585D01*
X015789Y007459D02*
X015603Y007459D01*
X015603Y007585D01*
X015789Y007585D01*
X015789Y007489D02*
X015603Y007489D01*
X015603Y007519D02*
X015789Y007519D01*
X015789Y007549D02*
X015603Y007549D01*
X015603Y007579D02*
X015789Y007579D01*
X015257Y007585D02*
X015257Y007459D01*
X015071Y007459D01*
X015071Y007585D01*
X015257Y007585D01*
X015257Y007489D02*
X015071Y007489D01*
X015071Y007519D02*
X015257Y007519D01*
X015257Y007549D02*
X015071Y007549D01*
X015071Y007579D02*
X015257Y007579D01*
X015257Y007270D02*
X015257Y007144D01*
X015071Y007144D01*
X015071Y007270D01*
X015257Y007270D01*
X015257Y007174D02*
X015071Y007174D01*
X015071Y007204D02*
X015257Y007204D01*
X015257Y007234D02*
X015071Y007234D01*
X015071Y007264D02*
X015257Y007264D01*
X015257Y006956D02*
X015257Y006830D01*
X015071Y006830D01*
X015071Y006956D01*
X015257Y006956D01*
X015257Y006860D02*
X015071Y006860D01*
X015071Y006890D02*
X015257Y006890D01*
X015257Y006920D02*
X015071Y006920D01*
X015071Y006950D02*
X015257Y006950D01*
X015257Y006641D02*
X015257Y006515D01*
X015071Y006515D01*
X015071Y006641D01*
X015257Y006641D01*
X015257Y006545D02*
X015071Y006545D01*
X015071Y006575D02*
X015257Y006575D01*
X015257Y006605D02*
X015071Y006605D01*
X015071Y006635D02*
X015257Y006635D01*
X019007Y012265D02*
X019007Y012391D01*
X019007Y012265D02*
X018821Y012265D01*
X018821Y012391D01*
X019007Y012391D01*
X019007Y012295D02*
X018821Y012295D01*
X018821Y012325D02*
X019007Y012325D01*
X019007Y012355D02*
X018821Y012355D01*
X018821Y012385D02*
X019007Y012385D01*
X019007Y012580D02*
X019007Y012706D01*
X019007Y012580D02*
X018821Y012580D01*
X018821Y012706D01*
X019007Y012706D01*
X019007Y012610D02*
X018821Y012610D01*
X018821Y012640D02*
X019007Y012640D01*
X019007Y012670D02*
X018821Y012670D01*
X018821Y012700D02*
X019007Y012700D01*
X019007Y012894D02*
X019007Y013020D01*
X019007Y012894D02*
X018821Y012894D01*
X018821Y013020D01*
X019007Y013020D01*
X019007Y012924D02*
X018821Y012924D01*
X018821Y012954D02*
X019007Y012954D01*
X019007Y012984D02*
X018821Y012984D01*
X018821Y013014D02*
X019007Y013014D01*
X019007Y013209D02*
X019007Y013335D01*
X019007Y013209D02*
X018821Y013209D01*
X018821Y013335D01*
X019007Y013335D01*
X019007Y013239D02*
X018821Y013239D01*
X018821Y013269D02*
X019007Y013269D01*
X019007Y013299D02*
X018821Y013299D01*
X018821Y013329D02*
X019007Y013329D01*
X019539Y013335D02*
X019539Y013209D01*
X019353Y013209D01*
X019353Y013335D01*
X019539Y013335D01*
X019539Y013239D02*
X019353Y013239D01*
X019353Y013269D02*
X019539Y013269D01*
X019539Y013299D02*
X019353Y013299D01*
X019353Y013329D02*
X019539Y013329D01*
X019539Y013020D02*
X019539Y012894D01*
X019353Y012894D01*
X019353Y013020D01*
X019539Y013020D01*
X019539Y012924D02*
X019353Y012924D01*
X019353Y012954D02*
X019539Y012954D01*
X019539Y012984D02*
X019353Y012984D01*
X019353Y013014D02*
X019539Y013014D01*
X019539Y012706D02*
X019539Y012580D01*
X019353Y012580D01*
X019353Y012706D01*
X019539Y012706D01*
X019539Y012610D02*
X019353Y012610D01*
X019353Y012640D02*
X019539Y012640D01*
X019539Y012670D02*
X019353Y012670D01*
X019353Y012700D02*
X019539Y012700D01*
X019539Y012391D02*
X019539Y012265D01*
X019353Y012265D01*
X019353Y012391D01*
X019539Y012391D01*
X019539Y012295D02*
X019353Y012295D01*
X019353Y012325D02*
X019539Y012325D01*
X019539Y012355D02*
X019353Y012355D01*
X019353Y012385D02*
X019539Y012385D01*
X019353Y015515D02*
X019353Y015641D01*
X019539Y015641D01*
X019539Y015515D01*
X019353Y015515D01*
X019353Y015545D02*
X019539Y015545D01*
X019539Y015575D02*
X019353Y015575D01*
X019353Y015605D02*
X019539Y015605D01*
X019539Y015635D02*
X019353Y015635D01*
X019353Y015830D02*
X019353Y015956D01*
X019539Y015956D01*
X019539Y015830D01*
X019353Y015830D01*
X019353Y015860D02*
X019539Y015860D01*
X019539Y015890D02*
X019353Y015890D01*
X019353Y015920D02*
X019539Y015920D01*
X019539Y015950D02*
X019353Y015950D01*
X019353Y016144D02*
X019353Y016270D01*
X019539Y016270D01*
X019539Y016144D01*
X019353Y016144D01*
X019353Y016174D02*
X019539Y016174D01*
X019539Y016204D02*
X019353Y016204D01*
X019353Y016234D02*
X019539Y016234D01*
X019539Y016264D02*
X019353Y016264D01*
X019353Y016459D02*
X019353Y016585D01*
X019539Y016585D01*
X019539Y016459D01*
X019353Y016459D01*
X019353Y016489D02*
X019539Y016489D01*
X019539Y016519D02*
X019353Y016519D01*
X019353Y016549D02*
X019539Y016549D01*
X019539Y016579D02*
X019353Y016579D01*
X018821Y016585D02*
X018821Y016459D01*
X018821Y016585D02*
X019007Y016585D01*
X019007Y016459D01*
X018821Y016459D01*
X018821Y016489D02*
X019007Y016489D01*
X019007Y016519D02*
X018821Y016519D01*
X018821Y016549D02*
X019007Y016549D01*
X019007Y016579D02*
X018821Y016579D01*
X018821Y016270D02*
X018821Y016144D01*
X018821Y016270D02*
X019007Y016270D01*
X019007Y016144D01*
X018821Y016144D01*
X018821Y016174D02*
X019007Y016174D01*
X019007Y016204D02*
X018821Y016204D01*
X018821Y016234D02*
X019007Y016234D01*
X019007Y016264D02*
X018821Y016264D01*
X018821Y015956D02*
X018821Y015830D01*
X018821Y015956D02*
X019007Y015956D01*
X019007Y015830D01*
X018821Y015830D01*
X018821Y015860D02*
X019007Y015860D01*
X019007Y015890D02*
X018821Y015890D01*
X018821Y015920D02*
X019007Y015920D01*
X019007Y015950D02*
X018821Y015950D01*
X018821Y015641D02*
X018821Y015515D01*
X018821Y015641D02*
X019007Y015641D01*
X019007Y015515D01*
X018821Y015515D01*
X018821Y015545D02*
X019007Y015545D01*
X019007Y015575D02*
X018821Y015575D01*
X018821Y015605D02*
X019007Y015605D01*
X019007Y015635D02*
X018821Y015635D01*
X013289Y015685D02*
X013289Y015559D01*
X013103Y015559D01*
X013103Y015685D01*
X013289Y015685D01*
X013289Y015589D02*
X013103Y015589D01*
X013103Y015619D02*
X013289Y015619D01*
X013289Y015649D02*
X013103Y015649D01*
X013103Y015679D02*
X013289Y015679D01*
X012757Y015685D02*
X012757Y015559D01*
X012571Y015559D01*
X012571Y015685D01*
X012757Y015685D01*
X012757Y015589D02*
X012571Y015589D01*
X012571Y015619D02*
X012757Y015619D01*
X012757Y015649D02*
X012571Y015649D01*
X012571Y015679D02*
X012757Y015679D01*
X012757Y015370D02*
X012757Y015244D01*
X012571Y015244D01*
X012571Y015370D01*
X012757Y015370D01*
X012757Y015274D02*
X012571Y015274D01*
X012571Y015304D02*
X012757Y015304D01*
X012757Y015334D02*
X012571Y015334D01*
X012571Y015364D02*
X012757Y015364D01*
X013289Y015370D02*
X013289Y015244D01*
X013103Y015244D01*
X013103Y015370D01*
X013289Y015370D01*
X013289Y015274D02*
X013103Y015274D01*
X013103Y015304D02*
X013289Y015304D01*
X013289Y015334D02*
X013103Y015334D01*
X013103Y015364D02*
X013289Y015364D01*
X013289Y015056D02*
X013289Y014930D01*
X013103Y014930D01*
X013103Y015056D01*
X013289Y015056D01*
X013289Y014960D02*
X013103Y014960D01*
X013103Y014990D02*
X013289Y014990D01*
X013289Y015020D02*
X013103Y015020D01*
X013103Y015050D02*
X013289Y015050D01*
X013289Y014741D02*
X013289Y014615D01*
X013103Y014615D01*
X013103Y014741D01*
X013289Y014741D01*
X013289Y014645D02*
X013103Y014645D01*
X013103Y014675D02*
X013289Y014675D01*
X013289Y014705D02*
X013103Y014705D01*
X013103Y014735D02*
X013289Y014735D01*
X012757Y014741D02*
X012757Y014615D01*
X012571Y014615D01*
X012571Y014741D01*
X012757Y014741D01*
X012757Y014645D02*
X012571Y014645D01*
X012571Y014675D02*
X012757Y014675D01*
X012757Y014705D02*
X012571Y014705D01*
X012571Y014735D02*
X012757Y014735D01*
X012757Y014930D02*
X012757Y015056D01*
X012757Y014930D02*
X012571Y014930D01*
X012571Y015056D01*
X012757Y015056D01*
X012757Y014960D02*
X012571Y014960D01*
X012571Y014990D02*
X012757Y014990D01*
X012757Y015020D02*
X012571Y015020D01*
X012571Y015050D02*
X012757Y015050D01*
X039571Y014830D02*
X039571Y014956D01*
X039757Y014956D01*
X039757Y014830D01*
X039571Y014830D01*
X039571Y014860D02*
X039757Y014860D01*
X039757Y014890D02*
X039571Y014890D01*
X039571Y014920D02*
X039757Y014920D01*
X039757Y014950D02*
X039571Y014950D01*
X039571Y015144D02*
X039571Y015270D01*
X039757Y015270D01*
X039757Y015144D01*
X039571Y015144D01*
X039571Y015174D02*
X039757Y015174D01*
X039757Y015204D02*
X039571Y015204D01*
X039571Y015234D02*
X039757Y015234D01*
X039757Y015264D02*
X039571Y015264D01*
X039571Y015459D02*
X039571Y015585D01*
X039757Y015585D01*
X039757Y015459D01*
X039571Y015459D01*
X039571Y015489D02*
X039757Y015489D01*
X039757Y015519D02*
X039571Y015519D01*
X039571Y015549D02*
X039757Y015549D01*
X039757Y015579D02*
X039571Y015579D01*
X040103Y015585D02*
X040103Y015459D01*
X040103Y015585D02*
X040289Y015585D01*
X040289Y015459D01*
X040103Y015459D01*
X040103Y015489D02*
X040289Y015489D01*
X040289Y015519D02*
X040103Y015519D01*
X040103Y015549D02*
X040289Y015549D01*
X040289Y015579D02*
X040103Y015579D01*
X040103Y015270D02*
X040103Y015144D01*
X040103Y015270D02*
X040289Y015270D01*
X040289Y015144D01*
X040103Y015144D01*
X040103Y015174D02*
X040289Y015174D01*
X040289Y015204D02*
X040103Y015204D01*
X040103Y015234D02*
X040289Y015234D01*
X040289Y015264D02*
X040103Y015264D01*
X040103Y014956D02*
X040103Y014830D01*
X040103Y014956D02*
X040289Y014956D01*
X040289Y014830D01*
X040103Y014830D01*
X040103Y014860D02*
X040289Y014860D01*
X040289Y014890D02*
X040103Y014890D01*
X040103Y014920D02*
X040289Y014920D01*
X040289Y014950D02*
X040103Y014950D01*
X040103Y014641D02*
X040103Y014515D01*
X040103Y014641D02*
X040289Y014641D01*
X040289Y014515D01*
X040103Y014515D01*
X040103Y014545D02*
X040289Y014545D01*
X040289Y014575D02*
X040103Y014575D01*
X040103Y014605D02*
X040289Y014605D01*
X040289Y014635D02*
X040103Y014635D01*
X039571Y014641D02*
X039571Y014515D01*
X039571Y014641D02*
X039757Y014641D01*
X039757Y014515D01*
X039571Y014515D01*
X039571Y014545D02*
X039757Y014545D01*
X039757Y014575D02*
X039571Y014575D01*
X039571Y014605D02*
X039757Y014605D01*
X039757Y014635D02*
X039571Y014635D01*
D26*
X038477Y013454D02*
X038477Y012954D01*
X038055Y012954D01*
X038055Y013454D01*
X038477Y013454D01*
X038477Y013027D02*
X038055Y013027D01*
X038055Y013100D02*
X038477Y013100D01*
X038477Y013173D02*
X038055Y013173D01*
X038055Y013246D02*
X038477Y013246D01*
X038477Y013319D02*
X038055Y013319D01*
X038055Y013392D02*
X038477Y013392D01*
X036705Y013454D02*
X036705Y012954D01*
X036283Y012954D01*
X036283Y013454D01*
X036705Y013454D01*
X036705Y013027D02*
X036283Y013027D01*
X036283Y013100D02*
X036705Y013100D01*
X036705Y013173D02*
X036283Y013173D01*
X036283Y013246D02*
X036705Y013246D01*
X036705Y013319D02*
X036283Y013319D01*
X036283Y013392D02*
X036705Y013392D01*
X036705Y010146D02*
X036705Y009646D01*
X036283Y009646D01*
X036283Y010146D01*
X036705Y010146D01*
X036705Y009719D02*
X036283Y009719D01*
X036283Y009792D02*
X036705Y009792D01*
X036705Y009865D02*
X036283Y009865D01*
X036283Y009938D02*
X036705Y009938D01*
X036705Y010011D02*
X036283Y010011D01*
X036283Y010084D02*
X036705Y010084D01*
X038477Y010146D02*
X038477Y009646D01*
X038055Y009646D01*
X038055Y010146D01*
X038477Y010146D01*
X038477Y009719D02*
X038055Y009719D01*
X038055Y009792D02*
X038477Y009792D01*
X038477Y009865D02*
X038055Y009865D01*
X038055Y009938D02*
X038477Y009938D01*
X038477Y010011D02*
X038055Y010011D01*
X038055Y010084D02*
X038477Y010084D01*
D27*
X037380Y009875D03*
D28*
X019626Y010148D02*
X019482Y010148D01*
X019626Y010148D02*
X019626Y009748D01*
X019482Y009748D01*
X019482Y010148D01*
X019482Y009779D02*
X019626Y009779D01*
X019626Y009810D02*
X019482Y009810D01*
X019482Y009841D02*
X019626Y009841D01*
X019626Y009872D02*
X019482Y009872D01*
X019482Y009903D02*
X019626Y009903D01*
X019626Y009934D02*
X019482Y009934D01*
X019482Y009965D02*
X019626Y009965D01*
X019626Y009996D02*
X019482Y009996D01*
X019482Y010027D02*
X019626Y010027D01*
X019626Y010058D02*
X019482Y010058D01*
X019482Y010089D02*
X019626Y010089D01*
X019626Y010120D02*
X019482Y010120D01*
X018878Y010148D02*
X018734Y010148D01*
X018878Y010148D02*
X018878Y009748D01*
X018734Y009748D01*
X018734Y010148D01*
X018734Y009779D02*
X018878Y009779D01*
X018878Y009810D02*
X018734Y009810D01*
X018734Y009841D02*
X018878Y009841D01*
X018878Y009872D02*
X018734Y009872D01*
X018734Y009903D02*
X018878Y009903D01*
X018878Y009934D02*
X018734Y009934D01*
X018734Y009965D02*
X018878Y009965D01*
X018878Y009996D02*
X018734Y009996D01*
X018734Y010027D02*
X018878Y010027D01*
X018878Y010058D02*
X018734Y010058D01*
X018734Y010089D02*
X018878Y010089D01*
X018878Y010120D02*
X018734Y010120D01*
X018734Y011172D02*
X018878Y011172D01*
X018878Y010772D01*
X018734Y010772D01*
X018734Y011172D01*
X018734Y010803D02*
X018878Y010803D01*
X018878Y010834D02*
X018734Y010834D01*
X018734Y010865D02*
X018878Y010865D01*
X018878Y010896D02*
X018734Y010896D01*
X018734Y010927D02*
X018878Y010927D01*
X018878Y010958D02*
X018734Y010958D01*
X018734Y010989D02*
X018878Y010989D01*
X018878Y011020D02*
X018734Y011020D01*
X018734Y011051D02*
X018878Y011051D01*
X018878Y011082D02*
X018734Y011082D01*
X018734Y011113D02*
X018878Y011113D01*
X018878Y011144D02*
X018734Y011144D01*
X019108Y011172D02*
X019252Y011172D01*
X019252Y010772D01*
X019108Y010772D01*
X019108Y011172D01*
X019108Y010803D02*
X019252Y010803D01*
X019252Y010834D02*
X019108Y010834D01*
X019108Y010865D02*
X019252Y010865D01*
X019252Y010896D02*
X019108Y010896D01*
X019108Y010927D02*
X019252Y010927D01*
X019252Y010958D02*
X019108Y010958D01*
X019108Y010989D02*
X019252Y010989D01*
X019252Y011020D02*
X019108Y011020D01*
X019108Y011051D02*
X019252Y011051D01*
X019252Y011082D02*
X019108Y011082D01*
X019108Y011113D02*
X019252Y011113D01*
X019252Y011144D02*
X019108Y011144D01*
X019482Y011172D02*
X019626Y011172D01*
X019626Y010772D01*
X019482Y010772D01*
X019482Y011172D01*
X019482Y010803D02*
X019626Y010803D01*
X019626Y010834D02*
X019482Y010834D01*
X019482Y010865D02*
X019626Y010865D01*
X019626Y010896D02*
X019482Y010896D01*
X019482Y010927D02*
X019626Y010927D01*
X019626Y010958D02*
X019482Y010958D01*
X019482Y010989D02*
X019626Y010989D01*
X019626Y011020D02*
X019482Y011020D01*
X019482Y011051D02*
X019626Y011051D01*
X019626Y011082D02*
X019482Y011082D01*
X019482Y011113D02*
X019626Y011113D01*
X019626Y011144D02*
X019482Y011144D01*
M02*
