G75*
G70*
%OFA0B0*%
%FSLAX24Y24*%
%IPPOS*%
%LPD*%
%AMOC8*
5,1,8,0,0,1.08239X$1,22.5*
%
%ADD10C,0.0060*%
%ADD11C,0.0070*%
%ADD12C,0.0090*%
%ADD13C,0.0100*%
D10*
X026160Y011604D02*
X026160Y011937D01*
X026327Y012104D01*
X026494Y011937D01*
X026494Y011604D01*
X026670Y011604D02*
X026837Y011604D01*
X026754Y011604D02*
X026754Y012104D01*
X026837Y012104D02*
X026670Y012104D01*
X026494Y011854D02*
X026160Y011854D01*
X027019Y011687D02*
X027019Y012021D01*
X027103Y012104D01*
X027353Y012104D01*
X027353Y011604D01*
X027103Y011604D01*
X027019Y011687D01*
X027535Y011604D02*
X027535Y012104D01*
X027869Y012104D02*
X027535Y011604D01*
X027869Y011604D02*
X027869Y012104D01*
X028046Y012104D02*
X028212Y012104D01*
X028129Y012104D02*
X028129Y011604D01*
X028212Y011604D02*
X028046Y011604D01*
X028910Y011604D02*
X028910Y012104D01*
X029244Y012104D02*
X028910Y011604D01*
X029244Y011604D02*
X029244Y012104D01*
X029421Y012104D02*
X029587Y012104D01*
X029504Y012104D02*
X029504Y011604D01*
X029587Y011604D02*
X029421Y011604D01*
X030285Y011604D02*
X030619Y011604D01*
X030619Y012104D01*
X030285Y012104D01*
X030452Y011854D02*
X030619Y011854D01*
X030801Y011687D02*
X030801Y012021D01*
X030884Y012104D01*
X031134Y012104D01*
X031134Y011604D01*
X030884Y011604D01*
X030801Y011687D01*
X031316Y011604D02*
X031316Y011937D01*
X031483Y012104D01*
X031650Y011937D01*
X031650Y011604D01*
X031832Y011604D02*
X031832Y012104D01*
X031999Y011937D01*
X032166Y012104D01*
X032166Y011604D01*
X031650Y011854D02*
X031316Y011854D01*
X013080Y013250D02*
X013080Y013850D01*
X013078Y013867D01*
X013074Y013884D01*
X013067Y013900D01*
X013057Y013914D01*
X013044Y013927D01*
X013030Y013937D01*
X013014Y013944D01*
X012997Y013948D01*
X012980Y013950D01*
X011880Y013950D01*
X011863Y013948D01*
X011846Y013944D01*
X011830Y013937D01*
X011816Y013927D01*
X011803Y013914D01*
X011793Y013900D01*
X011786Y013884D01*
X011782Y013867D01*
X011780Y013850D01*
X011780Y013250D01*
X011782Y013233D01*
X011786Y013216D01*
X011793Y013200D01*
X011803Y013186D01*
X011816Y013173D01*
X011830Y013163D01*
X011846Y013156D01*
X011863Y013152D01*
X011880Y013150D01*
X012980Y013150D01*
X012997Y013152D01*
X013014Y013156D01*
X013030Y013163D01*
X013044Y013173D01*
X013057Y013186D01*
X013067Y013200D01*
X013074Y013216D01*
X013078Y013233D01*
X013080Y013250D01*
D11*
X020846Y015874D02*
X020846Y016084D01*
X021056Y016294D01*
X021281Y015979D02*
X021281Y015874D01*
X021701Y015874D01*
X021701Y015979D02*
X021596Y016084D01*
X021386Y016084D01*
X021281Y015979D01*
X021386Y015664D02*
X021596Y015664D01*
X021701Y015769D01*
X021701Y015979D01*
X021920Y015664D02*
X022131Y015664D01*
X022026Y015664D02*
X022026Y016294D01*
X022131Y016294D01*
X022355Y015979D02*
X022460Y016084D01*
X022775Y016084D01*
X022775Y016294D02*
X022775Y015664D01*
X022460Y015664D01*
X022355Y015769D01*
X022355Y015979D01*
X022995Y015664D02*
X023205Y015664D01*
X023100Y015664D02*
X023100Y016084D01*
X023205Y016084D01*
X023424Y016084D02*
X023635Y016084D01*
X023530Y016189D02*
X023530Y015769D01*
X023424Y015664D01*
X023859Y015664D02*
X023859Y015979D01*
X023964Y016084D01*
X024174Y016084D01*
X024174Y015874D02*
X023859Y015874D01*
X023859Y015664D02*
X024174Y015664D01*
X024279Y015769D01*
X024174Y015874D01*
X024503Y015979D02*
X024503Y015769D01*
X024608Y015664D01*
X024924Y015664D01*
X024924Y015454D02*
X024924Y016084D01*
X024608Y016084D01*
X024503Y015979D01*
X025148Y015979D02*
X025148Y015664D01*
X025358Y015664D02*
X025358Y015979D01*
X025253Y016084D01*
X025148Y015979D01*
X025358Y015979D02*
X025463Y016084D01*
X025568Y016084D01*
X025568Y015664D01*
X025792Y015769D02*
X025792Y015979D01*
X025898Y016084D01*
X026108Y016084D01*
X026213Y015979D01*
X026213Y015769D01*
X026108Y015664D01*
X025898Y015664D01*
X025792Y015769D01*
X026437Y015769D02*
X026542Y015664D01*
X026752Y015664D01*
X026857Y015769D01*
X026857Y016189D01*
X026752Y016294D01*
X026542Y016294D01*
X026437Y016189D01*
X027082Y015979D02*
X027502Y015979D01*
X027726Y015979D02*
X027726Y015769D01*
X027831Y015664D01*
X028041Y015664D01*
X028146Y015769D01*
X028146Y015979D01*
X028041Y016084D01*
X027831Y016084D01*
X027726Y015979D01*
X028371Y015979D02*
X028371Y015664D01*
X028371Y015979D02*
X028476Y016084D01*
X028791Y016084D01*
X028791Y015664D01*
X029011Y015664D02*
X029221Y015664D01*
X029116Y015664D02*
X029116Y016084D01*
X029221Y016084D01*
X029445Y016084D02*
X029445Y015664D01*
X029760Y015664D01*
X029865Y015769D01*
X029865Y016084D01*
X030089Y016084D02*
X030405Y016084D01*
X030510Y015979D01*
X030510Y015769D01*
X030405Y015664D01*
X030089Y015664D01*
X030089Y016294D01*
X030732Y016084D02*
X030837Y016084D01*
X031047Y015874D01*
X031047Y015664D02*
X031047Y016084D01*
X031271Y016084D02*
X031271Y015664D01*
X031271Y015979D02*
X031691Y015979D01*
X031691Y016084D02*
X031481Y016294D01*
X031271Y016084D01*
X031691Y016084D02*
X031691Y015664D01*
X031911Y015664D02*
X032121Y015874D01*
X032121Y016084D01*
X031911Y016294D01*
X029116Y016294D02*
X029116Y016399D01*
X023100Y016399D02*
X023100Y016294D01*
X021056Y015664D02*
X020846Y015874D01*
D12*
X020896Y016973D02*
X020640Y016973D01*
X020511Y017101D01*
X020511Y017615D01*
X021025Y017101D01*
X020896Y016973D01*
X021025Y017101D02*
X021025Y017615D01*
X020896Y017744D01*
X020640Y017744D01*
X020511Y017615D01*
X021303Y017744D02*
X021560Y017615D01*
X021817Y017358D01*
X021431Y017358D01*
X021303Y017230D01*
X021303Y017101D01*
X021431Y016973D01*
X021688Y016973D01*
X021817Y017101D01*
X021817Y017358D01*
X022095Y017358D02*
X022095Y017101D01*
X022223Y016973D01*
X022480Y016973D01*
X022609Y017101D01*
X022609Y017358D02*
X022352Y017487D01*
X022223Y017487D01*
X022095Y017358D01*
X022095Y017744D02*
X022609Y017744D01*
X022609Y017358D01*
X022887Y017487D02*
X022887Y017615D01*
X023015Y017744D01*
X023272Y017744D01*
X023401Y017615D01*
X022887Y017487D02*
X023401Y016973D01*
X022887Y016973D01*
X024471Y016973D02*
X024856Y016973D01*
X024984Y017101D01*
X024856Y017230D01*
X024471Y017230D01*
X024471Y017358D02*
X024471Y016973D01*
X024471Y017358D02*
X024599Y017487D01*
X024856Y017487D01*
X025262Y017487D02*
X025648Y017487D01*
X025776Y017358D01*
X025776Y017101D01*
X025648Y016973D01*
X025262Y016973D01*
X025262Y016845D02*
X025262Y017487D01*
X026054Y017358D02*
X026054Y017230D01*
X026568Y017230D01*
X026568Y017358D02*
X026568Y017101D01*
X026440Y016973D01*
X026183Y016973D01*
X025519Y016716D02*
X025391Y016716D01*
X025262Y016845D01*
X026054Y017358D02*
X026183Y017487D01*
X026440Y017487D01*
X026568Y017358D01*
X026846Y016973D02*
X026846Y017744D01*
X027103Y017487D01*
X027360Y017744D01*
X027360Y016973D01*
X028430Y017101D02*
X028430Y017358D01*
X028558Y017487D01*
X028815Y017487D01*
X028944Y017358D01*
X028944Y017101D01*
X028815Y016973D01*
X028558Y016973D01*
X028430Y017101D01*
X029222Y016973D02*
X029607Y016973D01*
X029736Y017101D01*
X029736Y017358D01*
X029607Y017487D01*
X029222Y017487D01*
X029222Y016845D01*
X029350Y016716D01*
X029479Y016716D01*
X030014Y016973D02*
X030014Y017358D01*
X030142Y017487D01*
X030527Y017487D01*
X030527Y016973D01*
X030806Y016973D02*
X031191Y016973D01*
X031319Y017101D01*
X031191Y017230D01*
X030806Y017230D01*
X030806Y017358D02*
X030806Y016973D01*
X030806Y017358D02*
X030934Y017487D01*
X031191Y017487D01*
X031597Y017744D02*
X031597Y016973D01*
X032111Y016973D02*
X032111Y017744D01*
X031854Y017487D01*
X031597Y017744D01*
X023932Y013581D02*
X023932Y013452D01*
X023932Y013195D02*
X023932Y012682D01*
X024060Y012682D02*
X023804Y012682D01*
X023533Y012682D02*
X023533Y013195D01*
X023147Y013195D01*
X023019Y013067D01*
X023019Y012682D01*
X022741Y012810D02*
X022741Y013067D01*
X022612Y013195D01*
X022227Y013195D01*
X022227Y013452D02*
X022227Y012682D01*
X022612Y012682D01*
X022741Y012810D01*
X021949Y012682D02*
X021692Y012682D01*
X021820Y012682D02*
X021820Y013195D01*
X021949Y013195D01*
X021820Y013452D02*
X021820Y013581D01*
X021292Y013195D02*
X021036Y013195D01*
X020907Y013067D01*
X020907Y012682D01*
X021292Y012682D01*
X021421Y012810D01*
X021292Y012939D01*
X020907Y012939D01*
X020629Y012810D02*
X020501Y012810D01*
X020501Y012682D01*
X020629Y012682D01*
X020629Y012810D01*
X020233Y012810D02*
X020233Y013067D01*
X020105Y013195D01*
X019719Y013195D01*
X019441Y013067D02*
X019441Y012810D01*
X019313Y012682D01*
X019056Y012682D01*
X018927Y012810D01*
X018927Y013067D01*
X019056Y013195D01*
X019313Y013195D01*
X019441Y013067D01*
X019719Y012682D02*
X020105Y012682D01*
X020233Y012810D01*
X018649Y012682D02*
X018649Y013195D01*
X018521Y013195D01*
X018392Y013067D01*
X018264Y013195D01*
X018136Y013067D01*
X018136Y012682D01*
X018392Y012682D02*
X018392Y013067D01*
X023932Y013195D02*
X024060Y013195D01*
X024339Y013067D02*
X024852Y013067D01*
X025130Y013067D02*
X025130Y012810D01*
X025259Y012682D01*
X025644Y012682D01*
X025644Y012425D02*
X025644Y013195D01*
X025259Y013195D01*
X025130Y013067D01*
X025922Y013067D02*
X025922Y012682D01*
X026308Y012682D01*
X026436Y012810D01*
X026308Y012939D01*
X025922Y012939D01*
X025922Y013067D02*
X026051Y013195D01*
X026308Y013195D01*
X026711Y013195D02*
X026839Y013195D01*
X027096Y012939D01*
X027096Y013195D02*
X027096Y012682D01*
X027374Y012810D02*
X027374Y013067D01*
X027503Y013195D01*
X027888Y013195D01*
X027888Y012425D01*
X027888Y012682D02*
X027503Y012682D01*
X027374Y012810D01*
X028166Y012939D02*
X028680Y012939D01*
X028680Y013067D02*
X028551Y013195D01*
X028294Y013195D01*
X028166Y013067D01*
X028166Y012939D01*
X028294Y012682D02*
X028551Y012682D01*
X028680Y012810D01*
X028680Y013067D01*
X028954Y013195D02*
X029083Y013195D01*
X029340Y012939D01*
X029340Y013195D02*
X029340Y012682D01*
X029607Y012682D02*
X029736Y012682D01*
X029736Y012810D01*
X029607Y012810D01*
X029607Y012682D01*
X030014Y012810D02*
X030014Y013195D01*
X030527Y013195D02*
X030527Y012810D01*
X030399Y012682D01*
X030271Y012810D01*
X030142Y012682D01*
X030014Y012810D01*
X030806Y012810D02*
X030806Y013195D01*
X031319Y013195D02*
X031319Y012810D01*
X031191Y012682D01*
X031062Y012810D01*
X030934Y012682D01*
X030806Y012810D01*
X031597Y012810D02*
X031597Y013195D01*
X032111Y013195D02*
X032111Y012810D01*
X031983Y012682D01*
X031854Y012810D01*
X031726Y012682D01*
X031597Y012810D01*
X019441Y016973D02*
X019441Y017744D01*
X019056Y017744D01*
X018927Y017615D01*
X018927Y017358D01*
X019056Y017230D01*
X019441Y017230D01*
X019184Y017230D02*
X018927Y016973D01*
X018649Y017101D02*
X018521Y016973D01*
X018264Y016973D01*
X018136Y017101D01*
X018136Y017230D01*
X018264Y017358D01*
X018392Y017358D01*
X018264Y017358D02*
X018136Y017487D01*
X018136Y017615D01*
X018264Y017744D01*
X018521Y017744D01*
X018649Y017615D01*
D13*
X018180Y010393D02*
X032274Y010393D01*
X032235Y014605D02*
X018140Y014605D01*
X018062Y018739D02*
X032156Y018739D01*
M02*
