G75*
G70*
%OFA0B0*%
%FSLAX24Y24*%
%IPPOS*%
%LPD*%
%AMOC8*
5,1,8,0,0,1.08239X$1,22.5*
%
%ADD10C,0.1300*%
%ADD11OC8,0.0650*%
%ADD12C,0.0600*%
%ADD13C,0.0059*%
%ADD14C,0.0051*%
%ADD15C,0.0098*%
%ADD16OC8,0.1940*%
%ADD17C,0.0867*%
%ADD18C,0.0860*%
%ADD19C,0.0440*%
%ADD20C,0.0052*%
%ADD21C,0.0091*%
%ADD22C,0.0315*%
%ADD23C,0.0054*%
%ADD24OC8,0.0700*%
%ADD25C,0.1306*%
%ADD26C,0.0079*%
%ADD27C,0.0045*%
%ADD28C,0.0050*%
%ADD29R,0.0060X0.0720*%
%ADD30C,0.0120*%
%ADD31C,0.0043*%
%ADD32C,0.0047*%
%ADD33C,0.0047*%
%ADD34C,0.0089*%
%ADD35C,0.0046*%
D10*
X013680Y001550D03*
X034180Y003550D03*
X046180Y001550D03*
X034180Y014550D03*
X043680Y020550D03*
X014180Y020550D03*
D11*
X014380Y019250D03*
X015380Y019250D03*
X016380Y019250D03*
X016380Y018250D03*
X015380Y018250D03*
X014380Y018250D03*
X033230Y012550D03*
X034230Y012550D03*
X034230Y011550D03*
X033230Y011550D03*
X033230Y010550D03*
X034230Y010550D03*
D12*
X034180Y001718D02*
X034180Y001382D01*
X035180Y001382D02*
X035180Y001718D01*
X037180Y001718D02*
X037180Y001382D01*
X038180Y001382D02*
X038180Y001718D01*
X039180Y001718D02*
X039180Y001382D01*
X040180Y001382D02*
X040180Y001718D01*
X041180Y001718D02*
X041180Y001382D01*
X042180Y001382D02*
X042180Y001718D01*
X043180Y001718D02*
X043180Y001382D01*
X044180Y001382D02*
X044180Y001718D01*
X033180Y001718D02*
X033180Y001382D01*
X032180Y001382D02*
X032180Y001718D01*
X031180Y001718D02*
X031180Y001382D01*
X030180Y001382D02*
X030180Y001718D01*
X029180Y001718D02*
X029180Y001382D01*
X028180Y001382D02*
X028180Y001718D01*
X026180Y001718D02*
X026180Y001382D01*
X025180Y001382D02*
X025180Y001718D01*
X024180Y001718D02*
X024180Y001382D01*
X023180Y001382D02*
X023180Y001718D01*
X022180Y001718D02*
X022180Y001382D01*
X021180Y001382D02*
X021180Y001718D01*
X020180Y001718D02*
X020180Y001382D01*
X019180Y001382D02*
X019180Y001718D01*
X019580Y020382D02*
X019580Y020718D01*
X020580Y020718D02*
X020580Y020382D01*
X021580Y020382D02*
X021580Y020718D01*
X022580Y020718D02*
X022580Y020382D01*
X023580Y020382D02*
X023580Y020718D01*
X024580Y020718D02*
X024580Y020382D01*
X026180Y020382D02*
X026180Y020718D01*
X027180Y020718D02*
X027180Y020382D01*
X028180Y020382D02*
X028180Y020718D01*
X029180Y020718D02*
X029180Y020382D01*
X030180Y020382D02*
X030180Y020718D01*
X031180Y020718D02*
X031180Y020382D01*
X032180Y020382D02*
X032180Y020718D01*
X033180Y020718D02*
X033180Y020382D01*
X035180Y020382D02*
X035180Y020718D01*
X036180Y020718D02*
X036180Y020382D01*
X037180Y020382D02*
X037180Y020718D01*
X038180Y020718D02*
X038180Y020382D01*
X039180Y020382D02*
X039180Y020718D01*
X040180Y020718D02*
X040180Y020382D01*
X041180Y020382D02*
X041180Y020718D01*
X042180Y020718D02*
X042180Y020382D01*
X018580Y020382D02*
X018580Y020718D01*
X017580Y020718D02*
X017580Y020382D01*
X016580Y020382D02*
X016580Y020718D01*
X015580Y020718D02*
X015580Y020382D01*
D13*
X013675Y019685D02*
X013675Y019153D01*
X012985Y019153D01*
X012985Y019685D01*
X013675Y019685D01*
X013675Y019211D02*
X012985Y019211D01*
X012985Y019269D02*
X013675Y019269D01*
X013675Y019327D02*
X012985Y019327D01*
X012985Y019385D02*
X013675Y019385D01*
X013675Y019443D02*
X012985Y019443D01*
X012985Y019501D02*
X013675Y019501D01*
X013675Y019559D02*
X012985Y019559D01*
X012985Y019617D02*
X013675Y019617D01*
X013675Y019675D02*
X012985Y019675D01*
X013675Y018347D02*
X013675Y017815D01*
X012985Y017815D01*
X012985Y018347D01*
X013675Y018347D01*
X013675Y017873D02*
X012985Y017873D01*
X012985Y017931D02*
X013675Y017931D01*
X013675Y017989D02*
X012985Y017989D01*
X012985Y018047D02*
X013675Y018047D01*
X013675Y018105D02*
X012985Y018105D01*
X012985Y018163D02*
X013675Y018163D01*
X013675Y018221D02*
X012985Y018221D01*
X012985Y018279D02*
X013675Y018279D01*
X013675Y018337D02*
X012985Y018337D01*
X022525Y007235D02*
X022525Y006703D01*
X021835Y006703D01*
X021835Y007235D01*
X022525Y007235D01*
X022525Y006761D02*
X021835Y006761D01*
X021835Y006819D02*
X022525Y006819D01*
X022525Y006877D02*
X021835Y006877D01*
X021835Y006935D02*
X022525Y006935D01*
X022525Y006993D02*
X021835Y006993D01*
X021835Y007051D02*
X022525Y007051D01*
X022525Y007109D02*
X021835Y007109D01*
X021835Y007167D02*
X022525Y007167D01*
X022525Y007225D02*
X021835Y007225D01*
X022525Y005897D02*
X022525Y005365D01*
X021835Y005365D01*
X021835Y005897D01*
X022525Y005897D01*
X022525Y005423D02*
X021835Y005423D01*
X021835Y005481D02*
X022525Y005481D01*
X022525Y005539D02*
X021835Y005539D01*
X021835Y005597D02*
X022525Y005597D01*
X022525Y005655D02*
X021835Y005655D01*
X021835Y005713D02*
X022525Y005713D01*
X022525Y005771D02*
X021835Y005771D01*
X021835Y005829D02*
X022525Y005829D01*
X022525Y005887D02*
X021835Y005887D01*
X018496Y005676D02*
X018496Y004514D01*
X017964Y004514D01*
X017964Y005676D01*
X018496Y005676D01*
X018496Y004572D02*
X017964Y004572D01*
X017964Y004630D02*
X018496Y004630D01*
X018496Y004688D02*
X017964Y004688D01*
X017964Y004746D02*
X018496Y004746D01*
X018496Y004804D02*
X017964Y004804D01*
X017964Y004862D02*
X018496Y004862D01*
X018496Y004920D02*
X017964Y004920D01*
X017964Y004978D02*
X018496Y004978D01*
X018496Y005036D02*
X017964Y005036D01*
X017964Y005094D02*
X018496Y005094D01*
X018496Y005152D02*
X017964Y005152D01*
X017964Y005210D02*
X018496Y005210D01*
X018496Y005268D02*
X017964Y005268D01*
X017964Y005326D02*
X018496Y005326D01*
X018496Y005384D02*
X017964Y005384D01*
X017964Y005442D02*
X018496Y005442D01*
X018496Y005500D02*
X017964Y005500D01*
X017964Y005558D02*
X018496Y005558D01*
X018496Y005616D02*
X017964Y005616D01*
X017964Y005674D02*
X018496Y005674D01*
X015696Y005676D02*
X015696Y004514D01*
X015164Y004514D01*
X015164Y005676D01*
X015696Y005676D01*
X015696Y004572D02*
X015164Y004572D01*
X015164Y004630D02*
X015696Y004630D01*
X015696Y004688D02*
X015164Y004688D01*
X015164Y004746D02*
X015696Y004746D01*
X015696Y004804D02*
X015164Y004804D01*
X015164Y004862D02*
X015696Y004862D01*
X015696Y004920D02*
X015164Y004920D01*
X015164Y004978D02*
X015696Y004978D01*
X015696Y005036D02*
X015164Y005036D01*
X015164Y005094D02*
X015696Y005094D01*
X015696Y005152D02*
X015164Y005152D01*
X015164Y005210D02*
X015696Y005210D01*
X015696Y005268D02*
X015164Y005268D01*
X015164Y005326D02*
X015696Y005326D01*
X015696Y005384D02*
X015164Y005384D01*
X015164Y005442D02*
X015696Y005442D01*
X015696Y005500D02*
X015164Y005500D01*
X015164Y005558D02*
X015696Y005558D01*
X015696Y005616D02*
X015164Y005616D01*
X015164Y005674D02*
X015696Y005674D01*
X015696Y003786D02*
X015696Y002624D01*
X015164Y002624D01*
X015164Y003786D01*
X015696Y003786D01*
X015696Y002682D02*
X015164Y002682D01*
X015164Y002740D02*
X015696Y002740D01*
X015696Y002798D02*
X015164Y002798D01*
X015164Y002856D02*
X015696Y002856D01*
X015696Y002914D02*
X015164Y002914D01*
X015164Y002972D02*
X015696Y002972D01*
X015696Y003030D02*
X015164Y003030D01*
X015164Y003088D02*
X015696Y003088D01*
X015696Y003146D02*
X015164Y003146D01*
X015164Y003204D02*
X015696Y003204D01*
X015696Y003262D02*
X015164Y003262D01*
X015164Y003320D02*
X015696Y003320D01*
X015696Y003378D02*
X015164Y003378D01*
X015164Y003436D02*
X015696Y003436D01*
X015696Y003494D02*
X015164Y003494D01*
X015164Y003552D02*
X015696Y003552D01*
X015696Y003610D02*
X015164Y003610D01*
X015164Y003668D02*
X015696Y003668D01*
X015696Y003726D02*
X015164Y003726D01*
X015164Y003784D02*
X015696Y003784D01*
X018496Y003786D02*
X018496Y002624D01*
X017964Y002624D01*
X017964Y003786D01*
X018496Y003786D01*
X018496Y002682D02*
X017964Y002682D01*
X017964Y002740D02*
X018496Y002740D01*
X018496Y002798D02*
X017964Y002798D01*
X017964Y002856D02*
X018496Y002856D01*
X018496Y002914D02*
X017964Y002914D01*
X017964Y002972D02*
X018496Y002972D01*
X018496Y003030D02*
X017964Y003030D01*
X017964Y003088D02*
X018496Y003088D01*
X018496Y003146D02*
X017964Y003146D01*
X017964Y003204D02*
X018496Y003204D01*
X018496Y003262D02*
X017964Y003262D01*
X017964Y003320D02*
X018496Y003320D01*
X018496Y003378D02*
X017964Y003378D01*
X017964Y003436D02*
X018496Y003436D01*
X018496Y003494D02*
X017964Y003494D01*
X017964Y003552D02*
X018496Y003552D01*
X018496Y003610D02*
X017964Y003610D01*
X017964Y003668D02*
X018496Y003668D01*
X018496Y003726D02*
X017964Y003726D01*
X017964Y003784D02*
X018496Y003784D01*
D14*
X018997Y013819D02*
X018997Y014281D01*
X018997Y013819D02*
X018535Y013819D01*
X018535Y014281D01*
X018997Y014281D01*
X018997Y013869D02*
X018535Y013869D01*
X018535Y013919D02*
X018997Y013919D01*
X018997Y013969D02*
X018535Y013969D01*
X018535Y014019D02*
X018997Y014019D01*
X018997Y014069D02*
X018535Y014069D01*
X018535Y014119D02*
X018997Y014119D01*
X018997Y014169D02*
X018535Y014169D01*
X018535Y014219D02*
X018997Y014219D01*
X018997Y014269D02*
X018535Y014269D01*
X019824Y014281D02*
X019824Y013819D01*
X019362Y013819D01*
X019362Y014281D01*
X019824Y014281D01*
X019824Y013869D02*
X019362Y013869D01*
X019362Y013919D02*
X019824Y013919D01*
X019824Y013969D02*
X019362Y013969D01*
X019362Y014019D02*
X019824Y014019D01*
X019824Y014069D02*
X019362Y014069D01*
X019362Y014119D02*
X019824Y014119D01*
X019824Y014169D02*
X019362Y014169D01*
X019362Y014219D02*
X019824Y014219D01*
X019824Y014269D02*
X019362Y014269D01*
X019824Y014719D02*
X019824Y015181D01*
X019824Y014719D02*
X019362Y014719D01*
X019362Y015181D01*
X019824Y015181D01*
X019824Y014769D02*
X019362Y014769D01*
X019362Y014819D02*
X019824Y014819D01*
X019824Y014869D02*
X019362Y014869D01*
X019362Y014919D02*
X019824Y014919D01*
X019824Y014969D02*
X019362Y014969D01*
X019362Y015019D02*
X019824Y015019D01*
X019824Y015069D02*
X019362Y015069D01*
X019362Y015119D02*
X019824Y015119D01*
X019824Y015169D02*
X019362Y015169D01*
X018997Y015181D02*
X018997Y014719D01*
X018535Y014719D01*
X018535Y015181D01*
X018997Y015181D01*
X018997Y014769D02*
X018535Y014769D01*
X018535Y014819D02*
X018997Y014819D01*
X018997Y014869D02*
X018535Y014869D01*
X018535Y014919D02*
X018997Y014919D01*
X018997Y014969D02*
X018535Y014969D01*
X018535Y015019D02*
X018997Y015019D01*
X018997Y015069D02*
X018535Y015069D01*
X018535Y015119D02*
X018997Y015119D01*
X018997Y015169D02*
X018535Y015169D01*
X018997Y016919D02*
X018997Y017381D01*
X018997Y016919D02*
X018535Y016919D01*
X018535Y017381D01*
X018997Y017381D01*
X018997Y016969D02*
X018535Y016969D01*
X018535Y017019D02*
X018997Y017019D01*
X018997Y017069D02*
X018535Y017069D01*
X018535Y017119D02*
X018997Y017119D01*
X018997Y017169D02*
X018535Y017169D01*
X018535Y017219D02*
X018997Y017219D01*
X018997Y017269D02*
X018535Y017269D01*
X018535Y017319D02*
X018997Y017319D01*
X018997Y017369D02*
X018535Y017369D01*
X019824Y017381D02*
X019824Y016919D01*
X019362Y016919D01*
X019362Y017381D01*
X019824Y017381D01*
X019824Y016969D02*
X019362Y016969D01*
X019362Y017019D02*
X019824Y017019D01*
X019824Y017069D02*
X019362Y017069D01*
X019362Y017119D02*
X019824Y017119D01*
X019824Y017169D02*
X019362Y017169D01*
X019362Y017219D02*
X019824Y017219D01*
X019824Y017269D02*
X019362Y017269D01*
X019362Y017319D02*
X019824Y017319D01*
X019824Y017369D02*
X019362Y017369D01*
X037997Y015281D02*
X037997Y014819D01*
X037535Y014819D01*
X037535Y015281D01*
X037997Y015281D01*
X037997Y014869D02*
X037535Y014869D01*
X037535Y014919D02*
X037997Y014919D01*
X037997Y014969D02*
X037535Y014969D01*
X037535Y015019D02*
X037997Y015019D01*
X037997Y015069D02*
X037535Y015069D01*
X037535Y015119D02*
X037997Y015119D01*
X037997Y015169D02*
X037535Y015169D01*
X037535Y015219D02*
X037997Y015219D01*
X037997Y015269D02*
X037535Y015269D01*
X038824Y015281D02*
X038824Y014819D01*
X038362Y014819D01*
X038362Y015281D01*
X038824Y015281D01*
X038824Y014869D02*
X038362Y014869D01*
X038362Y014919D02*
X038824Y014919D01*
X038824Y014969D02*
X038362Y014969D01*
X038362Y015019D02*
X038824Y015019D01*
X038824Y015069D02*
X038362Y015069D01*
X038362Y015119D02*
X038824Y015119D01*
X038824Y015169D02*
X038362Y015169D01*
X038362Y015219D02*
X038824Y015219D01*
X038824Y015269D02*
X038362Y015269D01*
D15*
X017989Y002093D02*
X017103Y002093D01*
X017989Y002093D02*
X017989Y001207D01*
X017103Y001207D01*
X017103Y002093D01*
X017103Y001304D02*
X017989Y001304D01*
X017989Y001401D02*
X017103Y001401D01*
X017103Y001498D02*
X017989Y001498D01*
X017989Y001595D02*
X017103Y001595D01*
X017103Y001692D02*
X017989Y001692D01*
X017989Y001789D02*
X017103Y001789D01*
X017103Y001886D02*
X017989Y001886D01*
X017989Y001983D02*
X017103Y001983D01*
X017103Y002080D02*
X017989Y002080D01*
X016257Y002093D02*
X015371Y002093D01*
X016257Y002093D02*
X016257Y001207D01*
X015371Y001207D01*
X015371Y002093D01*
X015371Y001304D02*
X016257Y001304D01*
X016257Y001401D02*
X015371Y001401D01*
X015371Y001498D02*
X016257Y001498D01*
X016257Y001595D02*
X015371Y001595D01*
X015371Y001692D02*
X016257Y001692D01*
X016257Y001789D02*
X015371Y001789D01*
X015371Y001886D02*
X016257Y001886D01*
X016257Y001983D02*
X015371Y001983D01*
X015371Y002080D02*
X016257Y002080D01*
D16*
X012780Y003820D03*
X010420Y003820D03*
X011600Y001850D03*
D17*
X011900Y001850D03*
X011300Y001850D03*
X010420Y003520D03*
X010420Y004120D03*
X012780Y004120D03*
X012780Y003520D03*
D18*
X009033Y001500D02*
X009035Y001527D01*
X009041Y001554D01*
X009050Y001580D01*
X009063Y001604D01*
X009079Y001627D01*
X009098Y001646D01*
X009120Y001663D01*
X009144Y001677D01*
X009169Y001687D01*
X009196Y001694D01*
X009223Y001697D01*
X009251Y001696D01*
X009278Y001691D01*
X009304Y001683D01*
X009328Y001671D01*
X009351Y001655D01*
X009372Y001637D01*
X009389Y001616D01*
X009404Y001592D01*
X009415Y001567D01*
X009423Y001541D01*
X009427Y001514D01*
X009427Y001486D01*
X009423Y001459D01*
X009415Y001433D01*
X009404Y001408D01*
X009389Y001384D01*
X009372Y001363D01*
X009351Y001345D01*
X009329Y001329D01*
X009304Y001317D01*
X009278Y001309D01*
X009251Y001304D01*
X009223Y001303D01*
X009196Y001306D01*
X009169Y001313D01*
X009144Y001323D01*
X009120Y001337D01*
X009098Y001354D01*
X009079Y001373D01*
X009063Y001396D01*
X009050Y001420D01*
X009041Y001446D01*
X009035Y001473D01*
X009033Y001500D01*
X027983Y011710D02*
X027985Y011737D01*
X027991Y011764D01*
X028000Y011790D01*
X028013Y011814D01*
X028029Y011837D01*
X028048Y011856D01*
X028070Y011873D01*
X028094Y011887D01*
X028119Y011897D01*
X028146Y011904D01*
X028173Y011907D01*
X028201Y011906D01*
X028228Y011901D01*
X028254Y011893D01*
X028278Y011881D01*
X028301Y011865D01*
X028322Y011847D01*
X028339Y011826D01*
X028354Y011802D01*
X028365Y011777D01*
X028373Y011751D01*
X028377Y011724D01*
X028377Y011696D01*
X028373Y011669D01*
X028365Y011643D01*
X028354Y011618D01*
X028339Y011594D01*
X028322Y011573D01*
X028301Y011555D01*
X028279Y011539D01*
X028254Y011527D01*
X028228Y011519D01*
X028201Y011514D01*
X028173Y011513D01*
X028146Y011516D01*
X028119Y011523D01*
X028094Y011533D01*
X028070Y011547D01*
X028048Y011564D01*
X028029Y011583D01*
X028013Y011606D01*
X028000Y011630D01*
X027991Y011656D01*
X027985Y011683D01*
X027983Y011710D01*
X035873Y015586D02*
X035875Y015613D01*
X035881Y015640D01*
X035890Y015666D01*
X035903Y015690D01*
X035919Y015713D01*
X035938Y015732D01*
X035960Y015749D01*
X035984Y015763D01*
X036009Y015773D01*
X036036Y015780D01*
X036063Y015783D01*
X036091Y015782D01*
X036118Y015777D01*
X036144Y015769D01*
X036168Y015757D01*
X036191Y015741D01*
X036212Y015723D01*
X036229Y015702D01*
X036244Y015678D01*
X036255Y015653D01*
X036263Y015627D01*
X036267Y015600D01*
X036267Y015572D01*
X036263Y015545D01*
X036255Y015519D01*
X036244Y015494D01*
X036229Y015470D01*
X036212Y015449D01*
X036191Y015431D01*
X036169Y015415D01*
X036144Y015403D01*
X036118Y015395D01*
X036091Y015390D01*
X036063Y015389D01*
X036036Y015392D01*
X036009Y015399D01*
X035984Y015409D01*
X035960Y015423D01*
X035938Y015440D01*
X035919Y015459D01*
X035903Y015482D01*
X035890Y015506D01*
X035881Y015532D01*
X035875Y015559D01*
X035873Y015586D01*
X008683Y015550D02*
X008685Y015577D01*
X008691Y015604D01*
X008700Y015630D01*
X008713Y015654D01*
X008729Y015677D01*
X008748Y015696D01*
X008770Y015713D01*
X008794Y015727D01*
X008819Y015737D01*
X008846Y015744D01*
X008873Y015747D01*
X008901Y015746D01*
X008928Y015741D01*
X008954Y015733D01*
X008978Y015721D01*
X009001Y015705D01*
X009022Y015687D01*
X009039Y015666D01*
X009054Y015642D01*
X009065Y015617D01*
X009073Y015591D01*
X009077Y015564D01*
X009077Y015536D01*
X009073Y015509D01*
X009065Y015483D01*
X009054Y015458D01*
X009039Y015434D01*
X009022Y015413D01*
X009001Y015395D01*
X008979Y015379D01*
X008954Y015367D01*
X008928Y015359D01*
X008901Y015354D01*
X008873Y015353D01*
X008846Y015356D01*
X008819Y015363D01*
X008794Y015373D01*
X008770Y015387D01*
X008748Y015404D01*
X008729Y015423D01*
X008713Y015446D01*
X008700Y015470D01*
X008691Y015496D01*
X008685Y015523D01*
X008683Y015550D01*
D19*
X009230Y001500D03*
X028180Y011710D03*
X036070Y015586D03*
X008880Y015550D03*
D20*
X013234Y008694D02*
X013234Y008226D01*
X012366Y008226D01*
X012366Y008694D01*
X013234Y008694D01*
X013234Y008277D02*
X012366Y008277D01*
X012366Y008328D02*
X013234Y008328D01*
X013234Y008379D02*
X012366Y008379D01*
X012366Y008430D02*
X013234Y008430D01*
X013234Y008481D02*
X012366Y008481D01*
X012366Y008532D02*
X013234Y008532D01*
X013234Y008583D02*
X012366Y008583D01*
X012366Y008634D02*
X013234Y008634D01*
X013234Y008685D02*
X012366Y008685D01*
X013234Y007784D02*
X013234Y007316D01*
X012366Y007316D01*
X012366Y007784D01*
X013234Y007784D01*
X013234Y007367D02*
X012366Y007367D01*
X012366Y007418D02*
X013234Y007418D01*
X013234Y007469D02*
X012366Y007469D01*
X012366Y007520D02*
X013234Y007520D01*
X013234Y007571D02*
X012366Y007571D01*
X012366Y007622D02*
X013234Y007622D01*
X013234Y007673D02*
X012366Y007673D01*
X012366Y007724D02*
X013234Y007724D01*
X013234Y007775D02*
X012366Y007775D01*
X013234Y006874D02*
X013234Y006406D01*
X012366Y006406D01*
X012366Y006874D01*
X013234Y006874D01*
X013234Y006457D02*
X012366Y006457D01*
X012366Y006508D02*
X013234Y006508D01*
X013234Y006559D02*
X012366Y006559D01*
X012366Y006610D02*
X013234Y006610D01*
X013234Y006661D02*
X012366Y006661D01*
X012366Y006712D02*
X013234Y006712D01*
X013234Y006763D02*
X012366Y006763D01*
X012366Y006814D02*
X013234Y006814D01*
X013234Y006865D02*
X012366Y006865D01*
D21*
X010768Y006867D02*
X010768Y008233D01*
X010768Y006867D02*
X009952Y006867D01*
X009952Y008233D01*
X010768Y008233D01*
X010768Y006957D02*
X009952Y006957D01*
X009952Y007047D02*
X010768Y007047D01*
X010768Y007137D02*
X009952Y007137D01*
X009952Y007227D02*
X010768Y007227D01*
X010768Y007317D02*
X009952Y007317D01*
X009952Y007407D02*
X010768Y007407D01*
X010768Y007497D02*
X009952Y007497D01*
X009952Y007587D02*
X010768Y007587D01*
X010768Y007677D02*
X009952Y007677D01*
X009952Y007767D02*
X010768Y007767D01*
X010768Y007857D02*
X009952Y007857D01*
X009952Y007947D02*
X010768Y007947D01*
X010768Y008037D02*
X009952Y008037D01*
X009952Y008127D02*
X010768Y008127D01*
X010768Y008217D02*
X009952Y008217D01*
D22*
X013751Y007810D02*
X013909Y007810D01*
X013751Y007810D02*
X013751Y007890D01*
X013909Y007890D01*
X013909Y007810D01*
X013909Y007110D02*
X013751Y007110D01*
X013751Y007190D01*
X013909Y007190D01*
X013909Y007110D01*
X016290Y007221D02*
X016290Y007379D01*
X016370Y007379D01*
X016370Y007221D01*
X016290Y007221D01*
X016990Y007221D02*
X016990Y007379D01*
X017070Y007379D01*
X017070Y007221D01*
X016990Y007221D01*
X018870Y007671D02*
X018870Y007829D01*
X018870Y007671D02*
X018790Y007671D01*
X018790Y007829D01*
X018870Y007829D01*
X019570Y007829D02*
X019570Y007671D01*
X019490Y007671D01*
X019490Y007829D01*
X019570Y007829D01*
X019570Y008971D02*
X019570Y009129D01*
X019570Y008971D02*
X019490Y008971D01*
X019490Y009129D01*
X019570Y009129D01*
X018870Y009129D02*
X018870Y008971D01*
X018790Y008971D01*
X018790Y009129D01*
X018870Y009129D01*
X021301Y006610D02*
X021459Y006610D01*
X021301Y006610D02*
X021301Y006690D01*
X021459Y006690D01*
X021459Y006610D01*
X021459Y005910D02*
X021301Y005910D01*
X021301Y005990D01*
X021459Y005990D01*
X021459Y005910D01*
X024209Y005910D02*
X024209Y005990D01*
X024209Y005910D02*
X024051Y005910D01*
X024051Y005990D01*
X024209Y005990D01*
X024209Y006610D02*
X024209Y006690D01*
X024209Y006610D02*
X024051Y006610D01*
X024051Y006690D01*
X024209Y006690D01*
X023770Y003429D02*
X023770Y003271D01*
X023690Y003271D01*
X023690Y003429D01*
X023770Y003429D01*
X023070Y003429D02*
X023070Y003271D01*
X022990Y003271D01*
X022990Y003429D01*
X023070Y003429D01*
X018320Y012021D02*
X018320Y012179D01*
X018320Y012021D02*
X018240Y012021D01*
X018240Y012179D01*
X018320Y012179D01*
X017620Y012179D02*
X017620Y012021D01*
X017540Y012021D01*
X017540Y012179D01*
X017620Y012179D01*
X017070Y012179D02*
X017070Y012021D01*
X016990Y012021D01*
X016990Y012179D01*
X017070Y012179D01*
X016370Y012179D02*
X016370Y012021D01*
X016290Y012021D01*
X016290Y012179D01*
X016370Y012179D01*
X015820Y012021D02*
X015740Y012021D01*
X015740Y012179D01*
X015820Y012179D01*
X015820Y012021D01*
X015120Y012021D02*
X015040Y012021D01*
X015040Y012179D01*
X015120Y012179D01*
X015120Y012021D01*
X014490Y012021D02*
X014490Y012179D01*
X014570Y012179D01*
X014570Y012021D01*
X014490Y012021D01*
X013790Y012021D02*
X013790Y012179D01*
X013870Y012179D01*
X013870Y012021D01*
X013790Y012021D01*
X013240Y012021D02*
X013240Y012179D01*
X013320Y012179D01*
X013320Y012021D01*
X013240Y012021D01*
X012540Y012021D02*
X012540Y012179D01*
X012620Y012179D01*
X012620Y012021D01*
X012540Y012021D01*
X012540Y012671D02*
X012540Y012829D01*
X012620Y012829D01*
X012620Y012671D01*
X012540Y012671D01*
X013240Y012671D02*
X013240Y012829D01*
X013320Y012829D01*
X013320Y012671D01*
X013240Y012671D01*
X013240Y017121D02*
X013240Y017279D01*
X013320Y017279D01*
X013320Y017121D01*
X013240Y017121D01*
X012540Y017121D02*
X012540Y017279D01*
X012620Y017279D01*
X012620Y017121D01*
X012540Y017121D01*
X018870Y017971D02*
X018870Y018129D01*
X018870Y017971D02*
X018790Y017971D01*
X018790Y018129D01*
X018870Y018129D01*
X019570Y018129D02*
X019570Y017971D01*
X019490Y017971D01*
X019490Y018129D01*
X019570Y018129D01*
X023556Y012605D02*
X023556Y012447D01*
X023556Y012605D02*
X023636Y012605D01*
X023636Y012447D01*
X023556Y012447D01*
X024256Y012447D02*
X024256Y012605D01*
X024336Y012605D01*
X024336Y012447D01*
X024256Y012447D01*
X031070Y015971D02*
X031070Y016129D01*
X031070Y015971D02*
X030990Y015971D01*
X030990Y016129D01*
X031070Y016129D01*
X031770Y016129D02*
X031770Y015971D01*
X031690Y015971D01*
X031690Y016129D01*
X031770Y016129D01*
D23*
X030594Y014572D02*
X030490Y014572D01*
X030490Y015148D01*
X030594Y015148D01*
X030594Y014572D01*
X030594Y014625D02*
X030490Y014625D01*
X030490Y014678D02*
X030594Y014678D01*
X030594Y014731D02*
X030490Y014731D01*
X030490Y014784D02*
X030594Y014784D01*
X030594Y014837D02*
X030490Y014837D01*
X030490Y014890D02*
X030594Y014890D01*
X030594Y014943D02*
X030490Y014943D01*
X030490Y014996D02*
X030594Y014996D01*
X030594Y015049D02*
X030490Y015049D01*
X030490Y015102D02*
X030594Y015102D01*
X030397Y014572D02*
X030293Y014572D01*
X030293Y015148D01*
X030397Y015148D01*
X030397Y014572D01*
X030397Y014625D02*
X030293Y014625D01*
X030293Y014678D02*
X030397Y014678D01*
X030397Y014731D02*
X030293Y014731D01*
X030293Y014784D02*
X030397Y014784D01*
X030397Y014837D02*
X030293Y014837D01*
X030293Y014890D02*
X030397Y014890D01*
X030397Y014943D02*
X030293Y014943D01*
X030293Y014996D02*
X030397Y014996D01*
X030397Y015049D02*
X030293Y015049D01*
X030293Y015102D02*
X030397Y015102D01*
X030200Y014572D02*
X030096Y014572D01*
X030096Y015148D01*
X030200Y015148D01*
X030200Y014572D01*
X030200Y014625D02*
X030096Y014625D01*
X030096Y014678D02*
X030200Y014678D01*
X030200Y014731D02*
X030096Y014731D01*
X030096Y014784D02*
X030200Y014784D01*
X030200Y014837D02*
X030096Y014837D01*
X030096Y014890D02*
X030200Y014890D01*
X030200Y014943D02*
X030096Y014943D01*
X030096Y014996D02*
X030200Y014996D01*
X030200Y015049D02*
X030096Y015049D01*
X030096Y015102D02*
X030200Y015102D01*
X030003Y014572D02*
X029899Y014572D01*
X029899Y015148D01*
X030003Y015148D01*
X030003Y014572D01*
X030003Y014625D02*
X029899Y014625D01*
X029899Y014678D02*
X030003Y014678D01*
X030003Y014731D02*
X029899Y014731D01*
X029899Y014784D02*
X030003Y014784D01*
X030003Y014837D02*
X029899Y014837D01*
X029899Y014890D02*
X030003Y014890D01*
X030003Y014943D02*
X029899Y014943D01*
X029899Y014996D02*
X030003Y014996D01*
X030003Y015049D02*
X029899Y015049D01*
X029899Y015102D02*
X030003Y015102D01*
X029807Y014572D02*
X029703Y014572D01*
X029703Y015148D01*
X029807Y015148D01*
X029807Y014572D01*
X029807Y014625D02*
X029703Y014625D01*
X029703Y014678D02*
X029807Y014678D01*
X029807Y014731D02*
X029703Y014731D01*
X029703Y014784D02*
X029807Y014784D01*
X029807Y014837D02*
X029703Y014837D01*
X029703Y014890D02*
X029807Y014890D01*
X029807Y014943D02*
X029703Y014943D01*
X029703Y014996D02*
X029807Y014996D01*
X029807Y015049D02*
X029703Y015049D01*
X029703Y015102D02*
X029807Y015102D01*
X029610Y014572D02*
X029506Y014572D01*
X029506Y015148D01*
X029610Y015148D01*
X029610Y014572D01*
X029610Y014625D02*
X029506Y014625D01*
X029506Y014678D02*
X029610Y014678D01*
X029610Y014731D02*
X029506Y014731D01*
X029506Y014784D02*
X029610Y014784D01*
X029610Y014837D02*
X029506Y014837D01*
X029506Y014890D02*
X029610Y014890D01*
X029610Y014943D02*
X029506Y014943D01*
X029506Y014996D02*
X029610Y014996D01*
X029610Y015049D02*
X029506Y015049D01*
X029506Y015102D02*
X029610Y015102D01*
X029413Y014572D02*
X029309Y014572D01*
X029309Y015148D01*
X029413Y015148D01*
X029413Y014572D01*
X029413Y014625D02*
X029309Y014625D01*
X029309Y014678D02*
X029413Y014678D01*
X029413Y014731D02*
X029309Y014731D01*
X029309Y014784D02*
X029413Y014784D01*
X029413Y014837D02*
X029309Y014837D01*
X029309Y014890D02*
X029413Y014890D01*
X029413Y014943D02*
X029309Y014943D01*
X029309Y014996D02*
X029413Y014996D01*
X029413Y015049D02*
X029309Y015049D01*
X029309Y015102D02*
X029413Y015102D01*
X029216Y014572D02*
X029112Y014572D01*
X029112Y015148D01*
X029216Y015148D01*
X029216Y014572D01*
X029216Y014625D02*
X029112Y014625D01*
X029112Y014678D02*
X029216Y014678D01*
X029216Y014731D02*
X029112Y014731D01*
X029112Y014784D02*
X029216Y014784D01*
X029216Y014837D02*
X029112Y014837D01*
X029112Y014890D02*
X029216Y014890D01*
X029216Y014943D02*
X029112Y014943D01*
X029112Y014996D02*
X029216Y014996D01*
X029216Y015049D02*
X029112Y015049D01*
X029112Y015102D02*
X029216Y015102D01*
X029019Y014572D02*
X028915Y014572D01*
X028915Y015148D01*
X029019Y015148D01*
X029019Y014572D01*
X029019Y014625D02*
X028915Y014625D01*
X028915Y014678D02*
X029019Y014678D01*
X029019Y014731D02*
X028915Y014731D01*
X028915Y014784D02*
X029019Y014784D01*
X029019Y014837D02*
X028915Y014837D01*
X028915Y014890D02*
X029019Y014890D01*
X029019Y014943D02*
X028915Y014943D01*
X028915Y014996D02*
X029019Y014996D01*
X029019Y015049D02*
X028915Y015049D01*
X028915Y015102D02*
X029019Y015102D01*
X028822Y014572D02*
X028718Y014572D01*
X028718Y015148D01*
X028822Y015148D01*
X028822Y014572D01*
X028822Y014625D02*
X028718Y014625D01*
X028718Y014678D02*
X028822Y014678D01*
X028822Y014731D02*
X028718Y014731D01*
X028718Y014784D02*
X028822Y014784D01*
X028822Y014837D02*
X028718Y014837D01*
X028718Y014890D02*
X028822Y014890D01*
X028822Y014943D02*
X028718Y014943D01*
X028718Y014996D02*
X028822Y014996D01*
X028822Y015049D02*
X028718Y015049D01*
X028718Y015102D02*
X028822Y015102D01*
X028626Y014572D02*
X028522Y014572D01*
X028522Y015148D01*
X028626Y015148D01*
X028626Y014572D01*
X028626Y014625D02*
X028522Y014625D01*
X028522Y014678D02*
X028626Y014678D01*
X028626Y014731D02*
X028522Y014731D01*
X028522Y014784D02*
X028626Y014784D01*
X028626Y014837D02*
X028522Y014837D01*
X028522Y014890D02*
X028626Y014890D01*
X028626Y014943D02*
X028522Y014943D01*
X028522Y014996D02*
X028626Y014996D01*
X028626Y015049D02*
X028522Y015049D01*
X028522Y015102D02*
X028626Y015102D01*
X028429Y014572D02*
X028325Y014572D01*
X028325Y015148D01*
X028429Y015148D01*
X028429Y014572D01*
X028429Y014625D02*
X028325Y014625D01*
X028325Y014678D02*
X028429Y014678D01*
X028429Y014731D02*
X028325Y014731D01*
X028325Y014784D02*
X028429Y014784D01*
X028429Y014837D02*
X028325Y014837D01*
X028325Y014890D02*
X028429Y014890D01*
X028429Y014943D02*
X028325Y014943D01*
X028325Y014996D02*
X028429Y014996D01*
X028429Y015049D02*
X028325Y015049D01*
X028325Y015102D02*
X028429Y015102D01*
X028232Y014572D02*
X028128Y014572D01*
X028128Y015148D01*
X028232Y015148D01*
X028232Y014572D01*
X028232Y014625D02*
X028128Y014625D01*
X028128Y014678D02*
X028232Y014678D01*
X028232Y014731D02*
X028128Y014731D01*
X028128Y014784D02*
X028232Y014784D01*
X028232Y014837D02*
X028128Y014837D01*
X028128Y014890D02*
X028232Y014890D01*
X028232Y014943D02*
X028128Y014943D01*
X028128Y014996D02*
X028232Y014996D01*
X028232Y015049D02*
X028128Y015049D01*
X028128Y015102D02*
X028232Y015102D01*
X028035Y014572D02*
X027931Y014572D01*
X027931Y015148D01*
X028035Y015148D01*
X028035Y014572D01*
X028035Y014625D02*
X027931Y014625D01*
X027931Y014678D02*
X028035Y014678D01*
X028035Y014731D02*
X027931Y014731D01*
X027931Y014784D02*
X028035Y014784D01*
X028035Y014837D02*
X027931Y014837D01*
X027931Y014890D02*
X028035Y014890D01*
X028035Y014943D02*
X027931Y014943D01*
X027931Y014996D02*
X028035Y014996D01*
X028035Y015049D02*
X027931Y015049D01*
X027931Y015102D02*
X028035Y015102D01*
X027838Y014572D02*
X027734Y014572D01*
X027734Y015148D01*
X027838Y015148D01*
X027838Y014572D01*
X027838Y014625D02*
X027734Y014625D01*
X027734Y014678D02*
X027838Y014678D01*
X027838Y014731D02*
X027734Y014731D01*
X027734Y014784D02*
X027838Y014784D01*
X027838Y014837D02*
X027734Y014837D01*
X027734Y014890D02*
X027838Y014890D01*
X027838Y014943D02*
X027734Y014943D01*
X027734Y014996D02*
X027838Y014996D01*
X027838Y015049D02*
X027734Y015049D01*
X027734Y015102D02*
X027838Y015102D01*
X027641Y014572D02*
X027537Y014572D01*
X027537Y015148D01*
X027641Y015148D01*
X027641Y014572D01*
X027641Y014625D02*
X027537Y014625D01*
X027537Y014678D02*
X027641Y014678D01*
X027641Y014731D02*
X027537Y014731D01*
X027537Y014784D02*
X027641Y014784D01*
X027641Y014837D02*
X027537Y014837D01*
X027537Y014890D02*
X027641Y014890D01*
X027641Y014943D02*
X027537Y014943D01*
X027537Y014996D02*
X027641Y014996D01*
X027641Y015049D02*
X027537Y015049D01*
X027537Y015102D02*
X027641Y015102D01*
X027444Y014572D02*
X027340Y014572D01*
X027340Y015148D01*
X027444Y015148D01*
X027444Y014572D01*
X027444Y014625D02*
X027340Y014625D01*
X027340Y014678D02*
X027444Y014678D01*
X027444Y014731D02*
X027340Y014731D01*
X027340Y014784D02*
X027444Y014784D01*
X027444Y014837D02*
X027340Y014837D01*
X027340Y014890D02*
X027444Y014890D01*
X027444Y014943D02*
X027340Y014943D01*
X027340Y014996D02*
X027444Y014996D01*
X027444Y015049D02*
X027340Y015049D01*
X027340Y015102D02*
X027444Y015102D01*
X027248Y014572D02*
X027144Y014572D01*
X027144Y015148D01*
X027248Y015148D01*
X027248Y014572D01*
X027248Y014625D02*
X027144Y014625D01*
X027144Y014678D02*
X027248Y014678D01*
X027248Y014731D02*
X027144Y014731D01*
X027144Y014784D02*
X027248Y014784D01*
X027248Y014837D02*
X027144Y014837D01*
X027144Y014890D02*
X027248Y014890D01*
X027248Y014943D02*
X027144Y014943D01*
X027144Y014996D02*
X027248Y014996D01*
X027248Y015049D02*
X027144Y015049D01*
X027144Y015102D02*
X027248Y015102D01*
X027051Y014572D02*
X026947Y014572D01*
X026947Y015148D01*
X027051Y015148D01*
X027051Y014572D01*
X027051Y014625D02*
X026947Y014625D01*
X026947Y014678D02*
X027051Y014678D01*
X027051Y014731D02*
X026947Y014731D01*
X026947Y014784D02*
X027051Y014784D01*
X027051Y014837D02*
X026947Y014837D01*
X026947Y014890D02*
X027051Y014890D01*
X027051Y014943D02*
X026947Y014943D01*
X026947Y014996D02*
X027051Y014996D01*
X027051Y015049D02*
X026947Y015049D01*
X026947Y015102D02*
X027051Y015102D01*
X026854Y014572D02*
X026750Y014572D01*
X026750Y015148D01*
X026854Y015148D01*
X026854Y014572D01*
X026854Y014625D02*
X026750Y014625D01*
X026750Y014678D02*
X026854Y014678D01*
X026854Y014731D02*
X026750Y014731D01*
X026750Y014784D02*
X026854Y014784D01*
X026854Y014837D02*
X026750Y014837D01*
X026750Y014890D02*
X026854Y014890D01*
X026854Y014943D02*
X026750Y014943D01*
X026750Y014996D02*
X026854Y014996D01*
X026854Y015049D02*
X026750Y015049D01*
X026750Y015102D02*
X026854Y015102D01*
X026657Y014572D02*
X026553Y014572D01*
X026553Y015148D01*
X026657Y015148D01*
X026657Y014572D01*
X026657Y014625D02*
X026553Y014625D01*
X026553Y014678D02*
X026657Y014678D01*
X026657Y014731D02*
X026553Y014731D01*
X026553Y014784D02*
X026657Y014784D01*
X026657Y014837D02*
X026553Y014837D01*
X026553Y014890D02*
X026657Y014890D01*
X026657Y014943D02*
X026553Y014943D01*
X026553Y014996D02*
X026657Y014996D01*
X026657Y015049D02*
X026553Y015049D01*
X026553Y015102D02*
X026657Y015102D01*
X026460Y014572D02*
X026356Y014572D01*
X026356Y015148D01*
X026460Y015148D01*
X026460Y014572D01*
X026460Y014625D02*
X026356Y014625D01*
X026356Y014678D02*
X026460Y014678D01*
X026460Y014731D02*
X026356Y014731D01*
X026356Y014784D02*
X026460Y014784D01*
X026460Y014837D02*
X026356Y014837D01*
X026356Y014890D02*
X026460Y014890D01*
X026460Y014943D02*
X026356Y014943D01*
X026356Y014996D02*
X026460Y014996D01*
X026460Y015049D02*
X026356Y015049D01*
X026356Y015102D02*
X026460Y015102D01*
X026263Y014572D02*
X026159Y014572D01*
X026159Y015148D01*
X026263Y015148D01*
X026263Y014572D01*
X026263Y014625D02*
X026159Y014625D01*
X026159Y014678D02*
X026263Y014678D01*
X026263Y014731D02*
X026159Y014731D01*
X026159Y014784D02*
X026263Y014784D01*
X026263Y014837D02*
X026159Y014837D01*
X026159Y014890D02*
X026263Y014890D01*
X026263Y014943D02*
X026159Y014943D01*
X026159Y014996D02*
X026263Y014996D01*
X026263Y015049D02*
X026159Y015049D01*
X026159Y015102D02*
X026263Y015102D01*
X026066Y014572D02*
X025962Y014572D01*
X025962Y015148D01*
X026066Y015148D01*
X026066Y014572D01*
X026066Y014625D02*
X025962Y014625D01*
X025962Y014678D02*
X026066Y014678D01*
X026066Y014731D02*
X025962Y014731D01*
X025962Y014784D02*
X026066Y014784D01*
X026066Y014837D02*
X025962Y014837D01*
X025962Y014890D02*
X026066Y014890D01*
X026066Y014943D02*
X025962Y014943D01*
X025962Y014996D02*
X026066Y014996D01*
X026066Y015049D02*
X025962Y015049D01*
X025962Y015102D02*
X026066Y015102D01*
X025870Y014572D02*
X025766Y014572D01*
X025766Y015148D01*
X025870Y015148D01*
X025870Y014572D01*
X025870Y014625D02*
X025766Y014625D01*
X025766Y014678D02*
X025870Y014678D01*
X025870Y014731D02*
X025766Y014731D01*
X025766Y014784D02*
X025870Y014784D01*
X025870Y014837D02*
X025766Y014837D01*
X025766Y014890D02*
X025870Y014890D01*
X025870Y014943D02*
X025766Y014943D01*
X025766Y014996D02*
X025870Y014996D01*
X025870Y015049D02*
X025766Y015049D01*
X025766Y015102D02*
X025870Y015102D01*
X025318Y014020D02*
X024742Y014020D01*
X024742Y014124D01*
X025318Y014124D01*
X025318Y014020D01*
X025318Y014073D02*
X024742Y014073D01*
X024742Y013823D02*
X025318Y013823D01*
X024742Y013823D02*
X024742Y013927D01*
X025318Y013927D01*
X025318Y013823D01*
X025318Y013876D02*
X024742Y013876D01*
X024742Y013627D02*
X025318Y013627D01*
X024742Y013627D02*
X024742Y013731D01*
X025318Y013731D01*
X025318Y013627D01*
X025318Y013680D02*
X024742Y013680D01*
X024742Y013430D02*
X025318Y013430D01*
X024742Y013430D02*
X024742Y013534D01*
X025318Y013534D01*
X025318Y013430D01*
X025318Y013483D02*
X024742Y013483D01*
X024742Y013233D02*
X025318Y013233D01*
X024742Y013233D02*
X024742Y013337D01*
X025318Y013337D01*
X025318Y013233D01*
X025318Y013286D02*
X024742Y013286D01*
X024742Y013036D02*
X025318Y013036D01*
X024742Y013036D02*
X024742Y013140D01*
X025318Y013140D01*
X025318Y013036D01*
X025318Y013089D02*
X024742Y013089D01*
X024742Y012839D02*
X025318Y012839D01*
X024742Y012839D02*
X024742Y012943D01*
X025318Y012943D01*
X025318Y012839D01*
X025318Y012892D02*
X024742Y012892D01*
X024742Y012642D02*
X025318Y012642D01*
X024742Y012642D02*
X024742Y012746D01*
X025318Y012746D01*
X025318Y012642D01*
X025318Y012695D02*
X024742Y012695D01*
X024742Y012445D02*
X025318Y012445D01*
X024742Y012445D02*
X024742Y012549D01*
X025318Y012549D01*
X025318Y012445D01*
X025318Y012498D02*
X024742Y012498D01*
X024742Y012249D02*
X025318Y012249D01*
X024742Y012249D02*
X024742Y012353D01*
X025318Y012353D01*
X025318Y012249D01*
X025318Y012302D02*
X024742Y012302D01*
X024742Y012052D02*
X025318Y012052D01*
X024742Y012052D02*
X024742Y012156D01*
X025318Y012156D01*
X025318Y012052D01*
X025318Y012105D02*
X024742Y012105D01*
X024742Y011855D02*
X025318Y011855D01*
X024742Y011855D02*
X024742Y011959D01*
X025318Y011959D01*
X025318Y011855D01*
X025318Y011908D02*
X024742Y011908D01*
X024742Y011658D02*
X025318Y011658D01*
X024742Y011658D02*
X024742Y011762D01*
X025318Y011762D01*
X025318Y011658D01*
X025318Y011711D02*
X024742Y011711D01*
X024742Y011461D02*
X025318Y011461D01*
X024742Y011461D02*
X024742Y011565D01*
X025318Y011565D01*
X025318Y011461D01*
X025318Y011514D02*
X024742Y011514D01*
X024742Y011264D02*
X025318Y011264D01*
X024742Y011264D02*
X024742Y011368D01*
X025318Y011368D01*
X025318Y011264D01*
X025318Y011317D02*
X024742Y011317D01*
X024742Y011067D02*
X025318Y011067D01*
X024742Y011067D02*
X024742Y011171D01*
X025318Y011171D01*
X025318Y011067D01*
X025318Y011120D02*
X024742Y011120D01*
X024742Y010871D02*
X025318Y010871D01*
X024742Y010871D02*
X024742Y010975D01*
X025318Y010975D01*
X025318Y010871D01*
X025318Y010924D02*
X024742Y010924D01*
X024742Y010674D02*
X025318Y010674D01*
X024742Y010674D02*
X024742Y010778D01*
X025318Y010778D01*
X025318Y010674D01*
X025318Y010727D02*
X024742Y010727D01*
X024742Y010477D02*
X025318Y010477D01*
X024742Y010477D02*
X024742Y010581D01*
X025318Y010581D01*
X025318Y010477D01*
X025318Y010530D02*
X024742Y010530D01*
X024742Y010280D02*
X025318Y010280D01*
X024742Y010280D02*
X024742Y010384D01*
X025318Y010384D01*
X025318Y010280D01*
X025318Y010333D02*
X024742Y010333D01*
X024742Y010083D02*
X025318Y010083D01*
X024742Y010083D02*
X024742Y010187D01*
X025318Y010187D01*
X025318Y010083D01*
X025318Y010136D02*
X024742Y010136D01*
X024742Y009886D02*
X025318Y009886D01*
X024742Y009886D02*
X024742Y009990D01*
X025318Y009990D01*
X025318Y009886D01*
X025318Y009939D02*
X024742Y009939D01*
X024742Y009689D02*
X025318Y009689D01*
X024742Y009689D02*
X024742Y009793D01*
X025318Y009793D01*
X025318Y009689D01*
X025318Y009742D02*
X024742Y009742D01*
X024742Y009493D02*
X025318Y009493D01*
X024742Y009493D02*
X024742Y009597D01*
X025318Y009597D01*
X025318Y009493D01*
X025318Y009546D02*
X024742Y009546D01*
X024742Y009296D02*
X025318Y009296D01*
X024742Y009296D02*
X024742Y009400D01*
X025318Y009400D01*
X025318Y009296D01*
X025318Y009349D02*
X024742Y009349D01*
X025766Y008272D02*
X025870Y008272D01*
X025766Y008272D02*
X025766Y008848D01*
X025870Y008848D01*
X025870Y008272D01*
X025870Y008325D02*
X025766Y008325D01*
X025766Y008378D02*
X025870Y008378D01*
X025870Y008431D02*
X025766Y008431D01*
X025766Y008484D02*
X025870Y008484D01*
X025870Y008537D02*
X025766Y008537D01*
X025766Y008590D02*
X025870Y008590D01*
X025870Y008643D02*
X025766Y008643D01*
X025766Y008696D02*
X025870Y008696D01*
X025870Y008749D02*
X025766Y008749D01*
X025766Y008802D02*
X025870Y008802D01*
X025962Y008272D02*
X026066Y008272D01*
X025962Y008272D02*
X025962Y008848D01*
X026066Y008848D01*
X026066Y008272D01*
X026066Y008325D02*
X025962Y008325D01*
X025962Y008378D02*
X026066Y008378D01*
X026066Y008431D02*
X025962Y008431D01*
X025962Y008484D02*
X026066Y008484D01*
X026066Y008537D02*
X025962Y008537D01*
X025962Y008590D02*
X026066Y008590D01*
X026066Y008643D02*
X025962Y008643D01*
X025962Y008696D02*
X026066Y008696D01*
X026066Y008749D02*
X025962Y008749D01*
X025962Y008802D02*
X026066Y008802D01*
X026159Y008272D02*
X026263Y008272D01*
X026159Y008272D02*
X026159Y008848D01*
X026263Y008848D01*
X026263Y008272D01*
X026263Y008325D02*
X026159Y008325D01*
X026159Y008378D02*
X026263Y008378D01*
X026263Y008431D02*
X026159Y008431D01*
X026159Y008484D02*
X026263Y008484D01*
X026263Y008537D02*
X026159Y008537D01*
X026159Y008590D02*
X026263Y008590D01*
X026263Y008643D02*
X026159Y008643D01*
X026159Y008696D02*
X026263Y008696D01*
X026263Y008749D02*
X026159Y008749D01*
X026159Y008802D02*
X026263Y008802D01*
X026356Y008272D02*
X026460Y008272D01*
X026356Y008272D02*
X026356Y008848D01*
X026460Y008848D01*
X026460Y008272D01*
X026460Y008325D02*
X026356Y008325D01*
X026356Y008378D02*
X026460Y008378D01*
X026460Y008431D02*
X026356Y008431D01*
X026356Y008484D02*
X026460Y008484D01*
X026460Y008537D02*
X026356Y008537D01*
X026356Y008590D02*
X026460Y008590D01*
X026460Y008643D02*
X026356Y008643D01*
X026356Y008696D02*
X026460Y008696D01*
X026460Y008749D02*
X026356Y008749D01*
X026356Y008802D02*
X026460Y008802D01*
X026553Y008272D02*
X026657Y008272D01*
X026553Y008272D02*
X026553Y008848D01*
X026657Y008848D01*
X026657Y008272D01*
X026657Y008325D02*
X026553Y008325D01*
X026553Y008378D02*
X026657Y008378D01*
X026657Y008431D02*
X026553Y008431D01*
X026553Y008484D02*
X026657Y008484D01*
X026657Y008537D02*
X026553Y008537D01*
X026553Y008590D02*
X026657Y008590D01*
X026657Y008643D02*
X026553Y008643D01*
X026553Y008696D02*
X026657Y008696D01*
X026657Y008749D02*
X026553Y008749D01*
X026553Y008802D02*
X026657Y008802D01*
X026750Y008272D02*
X026854Y008272D01*
X026750Y008272D02*
X026750Y008848D01*
X026854Y008848D01*
X026854Y008272D01*
X026854Y008325D02*
X026750Y008325D01*
X026750Y008378D02*
X026854Y008378D01*
X026854Y008431D02*
X026750Y008431D01*
X026750Y008484D02*
X026854Y008484D01*
X026854Y008537D02*
X026750Y008537D01*
X026750Y008590D02*
X026854Y008590D01*
X026854Y008643D02*
X026750Y008643D01*
X026750Y008696D02*
X026854Y008696D01*
X026854Y008749D02*
X026750Y008749D01*
X026750Y008802D02*
X026854Y008802D01*
X026947Y008272D02*
X027051Y008272D01*
X026947Y008272D02*
X026947Y008848D01*
X027051Y008848D01*
X027051Y008272D01*
X027051Y008325D02*
X026947Y008325D01*
X026947Y008378D02*
X027051Y008378D01*
X027051Y008431D02*
X026947Y008431D01*
X026947Y008484D02*
X027051Y008484D01*
X027051Y008537D02*
X026947Y008537D01*
X026947Y008590D02*
X027051Y008590D01*
X027051Y008643D02*
X026947Y008643D01*
X026947Y008696D02*
X027051Y008696D01*
X027051Y008749D02*
X026947Y008749D01*
X026947Y008802D02*
X027051Y008802D01*
X027144Y008272D02*
X027248Y008272D01*
X027144Y008272D02*
X027144Y008848D01*
X027248Y008848D01*
X027248Y008272D01*
X027248Y008325D02*
X027144Y008325D01*
X027144Y008378D02*
X027248Y008378D01*
X027248Y008431D02*
X027144Y008431D01*
X027144Y008484D02*
X027248Y008484D01*
X027248Y008537D02*
X027144Y008537D01*
X027144Y008590D02*
X027248Y008590D01*
X027248Y008643D02*
X027144Y008643D01*
X027144Y008696D02*
X027248Y008696D01*
X027248Y008749D02*
X027144Y008749D01*
X027144Y008802D02*
X027248Y008802D01*
X027340Y008272D02*
X027444Y008272D01*
X027340Y008272D02*
X027340Y008848D01*
X027444Y008848D01*
X027444Y008272D01*
X027444Y008325D02*
X027340Y008325D01*
X027340Y008378D02*
X027444Y008378D01*
X027444Y008431D02*
X027340Y008431D01*
X027340Y008484D02*
X027444Y008484D01*
X027444Y008537D02*
X027340Y008537D01*
X027340Y008590D02*
X027444Y008590D01*
X027444Y008643D02*
X027340Y008643D01*
X027340Y008696D02*
X027444Y008696D01*
X027444Y008749D02*
X027340Y008749D01*
X027340Y008802D02*
X027444Y008802D01*
X027537Y008272D02*
X027641Y008272D01*
X027537Y008272D02*
X027537Y008848D01*
X027641Y008848D01*
X027641Y008272D01*
X027641Y008325D02*
X027537Y008325D01*
X027537Y008378D02*
X027641Y008378D01*
X027641Y008431D02*
X027537Y008431D01*
X027537Y008484D02*
X027641Y008484D01*
X027641Y008537D02*
X027537Y008537D01*
X027537Y008590D02*
X027641Y008590D01*
X027641Y008643D02*
X027537Y008643D01*
X027537Y008696D02*
X027641Y008696D01*
X027641Y008749D02*
X027537Y008749D01*
X027537Y008802D02*
X027641Y008802D01*
X027734Y008272D02*
X027838Y008272D01*
X027734Y008272D02*
X027734Y008848D01*
X027838Y008848D01*
X027838Y008272D01*
X027838Y008325D02*
X027734Y008325D01*
X027734Y008378D02*
X027838Y008378D01*
X027838Y008431D02*
X027734Y008431D01*
X027734Y008484D02*
X027838Y008484D01*
X027838Y008537D02*
X027734Y008537D01*
X027734Y008590D02*
X027838Y008590D01*
X027838Y008643D02*
X027734Y008643D01*
X027734Y008696D02*
X027838Y008696D01*
X027838Y008749D02*
X027734Y008749D01*
X027734Y008802D02*
X027838Y008802D01*
X027931Y008272D02*
X028035Y008272D01*
X027931Y008272D02*
X027931Y008848D01*
X028035Y008848D01*
X028035Y008272D01*
X028035Y008325D02*
X027931Y008325D01*
X027931Y008378D02*
X028035Y008378D01*
X028035Y008431D02*
X027931Y008431D01*
X027931Y008484D02*
X028035Y008484D01*
X028035Y008537D02*
X027931Y008537D01*
X027931Y008590D02*
X028035Y008590D01*
X028035Y008643D02*
X027931Y008643D01*
X027931Y008696D02*
X028035Y008696D01*
X028035Y008749D02*
X027931Y008749D01*
X027931Y008802D02*
X028035Y008802D01*
X028128Y008272D02*
X028232Y008272D01*
X028128Y008272D02*
X028128Y008848D01*
X028232Y008848D01*
X028232Y008272D01*
X028232Y008325D02*
X028128Y008325D01*
X028128Y008378D02*
X028232Y008378D01*
X028232Y008431D02*
X028128Y008431D01*
X028128Y008484D02*
X028232Y008484D01*
X028232Y008537D02*
X028128Y008537D01*
X028128Y008590D02*
X028232Y008590D01*
X028232Y008643D02*
X028128Y008643D01*
X028128Y008696D02*
X028232Y008696D01*
X028232Y008749D02*
X028128Y008749D01*
X028128Y008802D02*
X028232Y008802D01*
X028325Y008272D02*
X028429Y008272D01*
X028325Y008272D02*
X028325Y008848D01*
X028429Y008848D01*
X028429Y008272D01*
X028429Y008325D02*
X028325Y008325D01*
X028325Y008378D02*
X028429Y008378D01*
X028429Y008431D02*
X028325Y008431D01*
X028325Y008484D02*
X028429Y008484D01*
X028429Y008537D02*
X028325Y008537D01*
X028325Y008590D02*
X028429Y008590D01*
X028429Y008643D02*
X028325Y008643D01*
X028325Y008696D02*
X028429Y008696D01*
X028429Y008749D02*
X028325Y008749D01*
X028325Y008802D02*
X028429Y008802D01*
X028522Y008272D02*
X028626Y008272D01*
X028522Y008272D02*
X028522Y008848D01*
X028626Y008848D01*
X028626Y008272D01*
X028626Y008325D02*
X028522Y008325D01*
X028522Y008378D02*
X028626Y008378D01*
X028626Y008431D02*
X028522Y008431D01*
X028522Y008484D02*
X028626Y008484D01*
X028626Y008537D02*
X028522Y008537D01*
X028522Y008590D02*
X028626Y008590D01*
X028626Y008643D02*
X028522Y008643D01*
X028522Y008696D02*
X028626Y008696D01*
X028626Y008749D02*
X028522Y008749D01*
X028522Y008802D02*
X028626Y008802D01*
X028718Y008272D02*
X028822Y008272D01*
X028718Y008272D02*
X028718Y008848D01*
X028822Y008848D01*
X028822Y008272D01*
X028822Y008325D02*
X028718Y008325D01*
X028718Y008378D02*
X028822Y008378D01*
X028822Y008431D02*
X028718Y008431D01*
X028718Y008484D02*
X028822Y008484D01*
X028822Y008537D02*
X028718Y008537D01*
X028718Y008590D02*
X028822Y008590D01*
X028822Y008643D02*
X028718Y008643D01*
X028718Y008696D02*
X028822Y008696D01*
X028822Y008749D02*
X028718Y008749D01*
X028718Y008802D02*
X028822Y008802D01*
X028915Y008272D02*
X029019Y008272D01*
X028915Y008272D02*
X028915Y008848D01*
X029019Y008848D01*
X029019Y008272D01*
X029019Y008325D02*
X028915Y008325D01*
X028915Y008378D02*
X029019Y008378D01*
X029019Y008431D02*
X028915Y008431D01*
X028915Y008484D02*
X029019Y008484D01*
X029019Y008537D02*
X028915Y008537D01*
X028915Y008590D02*
X029019Y008590D01*
X029019Y008643D02*
X028915Y008643D01*
X028915Y008696D02*
X029019Y008696D01*
X029019Y008749D02*
X028915Y008749D01*
X028915Y008802D02*
X029019Y008802D01*
X029112Y008272D02*
X029216Y008272D01*
X029112Y008272D02*
X029112Y008848D01*
X029216Y008848D01*
X029216Y008272D01*
X029216Y008325D02*
X029112Y008325D01*
X029112Y008378D02*
X029216Y008378D01*
X029216Y008431D02*
X029112Y008431D01*
X029112Y008484D02*
X029216Y008484D01*
X029216Y008537D02*
X029112Y008537D01*
X029112Y008590D02*
X029216Y008590D01*
X029216Y008643D02*
X029112Y008643D01*
X029112Y008696D02*
X029216Y008696D01*
X029216Y008749D02*
X029112Y008749D01*
X029112Y008802D02*
X029216Y008802D01*
X029309Y008272D02*
X029413Y008272D01*
X029309Y008272D02*
X029309Y008848D01*
X029413Y008848D01*
X029413Y008272D01*
X029413Y008325D02*
X029309Y008325D01*
X029309Y008378D02*
X029413Y008378D01*
X029413Y008431D02*
X029309Y008431D01*
X029309Y008484D02*
X029413Y008484D01*
X029413Y008537D02*
X029309Y008537D01*
X029309Y008590D02*
X029413Y008590D01*
X029413Y008643D02*
X029309Y008643D01*
X029309Y008696D02*
X029413Y008696D01*
X029413Y008749D02*
X029309Y008749D01*
X029309Y008802D02*
X029413Y008802D01*
X029506Y008272D02*
X029610Y008272D01*
X029506Y008272D02*
X029506Y008848D01*
X029610Y008848D01*
X029610Y008272D01*
X029610Y008325D02*
X029506Y008325D01*
X029506Y008378D02*
X029610Y008378D01*
X029610Y008431D02*
X029506Y008431D01*
X029506Y008484D02*
X029610Y008484D01*
X029610Y008537D02*
X029506Y008537D01*
X029506Y008590D02*
X029610Y008590D01*
X029610Y008643D02*
X029506Y008643D01*
X029506Y008696D02*
X029610Y008696D01*
X029610Y008749D02*
X029506Y008749D01*
X029506Y008802D02*
X029610Y008802D01*
X029703Y008272D02*
X029807Y008272D01*
X029703Y008272D02*
X029703Y008848D01*
X029807Y008848D01*
X029807Y008272D01*
X029807Y008325D02*
X029703Y008325D01*
X029703Y008378D02*
X029807Y008378D01*
X029807Y008431D02*
X029703Y008431D01*
X029703Y008484D02*
X029807Y008484D01*
X029807Y008537D02*
X029703Y008537D01*
X029703Y008590D02*
X029807Y008590D01*
X029807Y008643D02*
X029703Y008643D01*
X029703Y008696D02*
X029807Y008696D01*
X029807Y008749D02*
X029703Y008749D01*
X029703Y008802D02*
X029807Y008802D01*
X029899Y008272D02*
X030003Y008272D01*
X029899Y008272D02*
X029899Y008848D01*
X030003Y008848D01*
X030003Y008272D01*
X030003Y008325D02*
X029899Y008325D01*
X029899Y008378D02*
X030003Y008378D01*
X030003Y008431D02*
X029899Y008431D01*
X029899Y008484D02*
X030003Y008484D01*
X030003Y008537D02*
X029899Y008537D01*
X029899Y008590D02*
X030003Y008590D01*
X030003Y008643D02*
X029899Y008643D01*
X029899Y008696D02*
X030003Y008696D01*
X030003Y008749D02*
X029899Y008749D01*
X029899Y008802D02*
X030003Y008802D01*
X030096Y008272D02*
X030200Y008272D01*
X030096Y008272D02*
X030096Y008848D01*
X030200Y008848D01*
X030200Y008272D01*
X030200Y008325D02*
X030096Y008325D01*
X030096Y008378D02*
X030200Y008378D01*
X030200Y008431D02*
X030096Y008431D01*
X030096Y008484D02*
X030200Y008484D01*
X030200Y008537D02*
X030096Y008537D01*
X030096Y008590D02*
X030200Y008590D01*
X030200Y008643D02*
X030096Y008643D01*
X030096Y008696D02*
X030200Y008696D01*
X030200Y008749D02*
X030096Y008749D01*
X030096Y008802D02*
X030200Y008802D01*
X030293Y008272D02*
X030397Y008272D01*
X030293Y008272D02*
X030293Y008848D01*
X030397Y008848D01*
X030397Y008272D01*
X030397Y008325D02*
X030293Y008325D01*
X030293Y008378D02*
X030397Y008378D01*
X030397Y008431D02*
X030293Y008431D01*
X030293Y008484D02*
X030397Y008484D01*
X030397Y008537D02*
X030293Y008537D01*
X030293Y008590D02*
X030397Y008590D01*
X030397Y008643D02*
X030293Y008643D01*
X030293Y008696D02*
X030397Y008696D01*
X030397Y008749D02*
X030293Y008749D01*
X030293Y008802D02*
X030397Y008802D01*
X030490Y008272D02*
X030594Y008272D01*
X030490Y008272D02*
X030490Y008848D01*
X030594Y008848D01*
X030594Y008272D01*
X030594Y008325D02*
X030490Y008325D01*
X030490Y008378D02*
X030594Y008378D01*
X030594Y008431D02*
X030490Y008431D01*
X030490Y008484D02*
X030594Y008484D01*
X030594Y008537D02*
X030490Y008537D01*
X030490Y008590D02*
X030594Y008590D01*
X030594Y008643D02*
X030490Y008643D01*
X030490Y008696D02*
X030594Y008696D01*
X030594Y008749D02*
X030490Y008749D01*
X030490Y008802D02*
X030594Y008802D01*
X031041Y009296D02*
X031617Y009296D01*
X031041Y009296D02*
X031041Y009400D01*
X031617Y009400D01*
X031617Y009296D01*
X031617Y009349D02*
X031041Y009349D01*
X031041Y009493D02*
X031617Y009493D01*
X031041Y009493D02*
X031041Y009597D01*
X031617Y009597D01*
X031617Y009493D01*
X031617Y009546D02*
X031041Y009546D01*
X031041Y009689D02*
X031617Y009689D01*
X031041Y009689D02*
X031041Y009793D01*
X031617Y009793D01*
X031617Y009689D01*
X031617Y009742D02*
X031041Y009742D01*
X031041Y009886D02*
X031617Y009886D01*
X031041Y009886D02*
X031041Y009990D01*
X031617Y009990D01*
X031617Y009886D01*
X031617Y009939D02*
X031041Y009939D01*
X031041Y010083D02*
X031617Y010083D01*
X031041Y010083D02*
X031041Y010187D01*
X031617Y010187D01*
X031617Y010083D01*
X031617Y010136D02*
X031041Y010136D01*
X031041Y010280D02*
X031617Y010280D01*
X031041Y010280D02*
X031041Y010384D01*
X031617Y010384D01*
X031617Y010280D01*
X031617Y010333D02*
X031041Y010333D01*
X031041Y010477D02*
X031617Y010477D01*
X031041Y010477D02*
X031041Y010581D01*
X031617Y010581D01*
X031617Y010477D01*
X031617Y010530D02*
X031041Y010530D01*
X031041Y010674D02*
X031617Y010674D01*
X031041Y010674D02*
X031041Y010778D01*
X031617Y010778D01*
X031617Y010674D01*
X031617Y010727D02*
X031041Y010727D01*
X031041Y010871D02*
X031617Y010871D01*
X031041Y010871D02*
X031041Y010975D01*
X031617Y010975D01*
X031617Y010871D01*
X031617Y010924D02*
X031041Y010924D01*
X031041Y011067D02*
X031617Y011067D01*
X031041Y011067D02*
X031041Y011171D01*
X031617Y011171D01*
X031617Y011067D01*
X031617Y011120D02*
X031041Y011120D01*
X031041Y011264D02*
X031617Y011264D01*
X031041Y011264D02*
X031041Y011368D01*
X031617Y011368D01*
X031617Y011264D01*
X031617Y011317D02*
X031041Y011317D01*
X031041Y011461D02*
X031617Y011461D01*
X031041Y011461D02*
X031041Y011565D01*
X031617Y011565D01*
X031617Y011461D01*
X031617Y011514D02*
X031041Y011514D01*
X031041Y011658D02*
X031617Y011658D01*
X031041Y011658D02*
X031041Y011762D01*
X031617Y011762D01*
X031617Y011658D01*
X031617Y011711D02*
X031041Y011711D01*
X031041Y011855D02*
X031617Y011855D01*
X031041Y011855D02*
X031041Y011959D01*
X031617Y011959D01*
X031617Y011855D01*
X031617Y011908D02*
X031041Y011908D01*
X031041Y012052D02*
X031617Y012052D01*
X031041Y012052D02*
X031041Y012156D01*
X031617Y012156D01*
X031617Y012052D01*
X031617Y012105D02*
X031041Y012105D01*
X031041Y012249D02*
X031617Y012249D01*
X031041Y012249D02*
X031041Y012353D01*
X031617Y012353D01*
X031617Y012249D01*
X031617Y012302D02*
X031041Y012302D01*
X031041Y012445D02*
X031617Y012445D01*
X031041Y012445D02*
X031041Y012549D01*
X031617Y012549D01*
X031617Y012445D01*
X031617Y012498D02*
X031041Y012498D01*
X031041Y012642D02*
X031617Y012642D01*
X031041Y012642D02*
X031041Y012746D01*
X031617Y012746D01*
X031617Y012642D01*
X031617Y012695D02*
X031041Y012695D01*
X031041Y012839D02*
X031617Y012839D01*
X031041Y012839D02*
X031041Y012943D01*
X031617Y012943D01*
X031617Y012839D01*
X031617Y012892D02*
X031041Y012892D01*
X031041Y013036D02*
X031617Y013036D01*
X031041Y013036D02*
X031041Y013140D01*
X031617Y013140D01*
X031617Y013036D01*
X031617Y013089D02*
X031041Y013089D01*
X031041Y013233D02*
X031617Y013233D01*
X031041Y013233D02*
X031041Y013337D01*
X031617Y013337D01*
X031617Y013233D01*
X031617Y013286D02*
X031041Y013286D01*
X031041Y013430D02*
X031617Y013430D01*
X031041Y013430D02*
X031041Y013534D01*
X031617Y013534D01*
X031617Y013430D01*
X031617Y013483D02*
X031041Y013483D01*
X031041Y013627D02*
X031617Y013627D01*
X031041Y013627D02*
X031041Y013731D01*
X031617Y013731D01*
X031617Y013627D01*
X031617Y013680D02*
X031041Y013680D01*
X031041Y013823D02*
X031617Y013823D01*
X031041Y013823D02*
X031041Y013927D01*
X031617Y013927D01*
X031617Y013823D01*
X031617Y013876D02*
X031041Y013876D01*
X031041Y014020D02*
X031617Y014020D01*
X031041Y014020D02*
X031041Y014124D01*
X031617Y014124D01*
X031617Y014020D01*
X031617Y014073D02*
X031041Y014073D01*
X016491Y009385D02*
X016491Y009281D01*
X016033Y009281D01*
X016033Y009385D01*
X016491Y009385D01*
X016491Y009334D02*
X016033Y009334D01*
X016491Y009130D02*
X016491Y009026D01*
X016033Y009026D01*
X016033Y009130D01*
X016491Y009130D01*
X016491Y009079D02*
X016033Y009079D01*
X016491Y008874D02*
X016491Y008770D01*
X016033Y008770D01*
X016033Y008874D01*
X016491Y008874D01*
X016491Y008823D02*
X016033Y008823D01*
X016491Y008618D02*
X016491Y008514D01*
X016033Y008514D01*
X016033Y008618D01*
X016491Y008618D01*
X016491Y008567D02*
X016033Y008567D01*
X014827Y008618D02*
X014827Y008514D01*
X014369Y008514D01*
X014369Y008618D01*
X014827Y008618D01*
X014827Y008567D02*
X014369Y008567D01*
X014827Y008770D02*
X014827Y008874D01*
X014827Y008770D02*
X014369Y008770D01*
X014369Y008874D01*
X014827Y008874D01*
X014827Y008823D02*
X014369Y008823D01*
X014827Y009026D02*
X014827Y009130D01*
X014827Y009026D02*
X014369Y009026D01*
X014369Y009130D01*
X014827Y009130D01*
X014827Y009079D02*
X014369Y009079D01*
X014827Y009281D02*
X014827Y009385D01*
X014827Y009281D02*
X014369Y009281D01*
X014369Y009385D01*
X014827Y009385D01*
X014827Y009334D02*
X014369Y009334D01*
D24*
X014430Y010800D03*
X016430Y010800D03*
X011534Y015058D03*
X010747Y015058D03*
X010747Y016042D03*
X011534Y016042D03*
X015380Y016250D03*
X016380Y016250D03*
X016380Y017250D03*
X015380Y017250D03*
X045180Y017550D03*
X046180Y017550D03*
X046180Y018550D03*
X045180Y018550D03*
X045180Y019550D03*
X046180Y019550D03*
X046180Y020550D03*
X045180Y020550D03*
X045180Y016550D03*
X046180Y016550D03*
X046180Y015550D03*
X045180Y015550D03*
X045180Y014550D03*
X046180Y014550D03*
X046180Y013550D03*
X045180Y013550D03*
X045180Y012550D03*
X046180Y012550D03*
X046180Y011550D03*
X045180Y011550D03*
X045180Y010550D03*
X046180Y010550D03*
X046180Y009550D03*
X045180Y009550D03*
X045180Y008550D03*
X046180Y008550D03*
X046180Y007550D03*
X045180Y007550D03*
X045180Y006550D03*
X046180Y006550D03*
X046180Y005550D03*
X045180Y005550D03*
X045180Y004550D03*
X046180Y004550D03*
X046180Y003550D03*
X045180Y003550D03*
D25*
X009680Y013188D03*
X009680Y017912D03*
D26*
X010580Y012173D02*
X010580Y011463D01*
X009280Y011463D01*
X009280Y012173D01*
X010580Y012173D01*
X010580Y011541D02*
X009280Y011541D01*
X009280Y011619D02*
X010580Y011619D01*
X010580Y011697D02*
X009280Y011697D01*
X009280Y011775D02*
X010580Y011775D01*
X010580Y011853D02*
X009280Y011853D01*
X009280Y011931D02*
X010580Y011931D01*
X010580Y012009D02*
X009280Y012009D01*
X009280Y012087D02*
X010580Y012087D01*
X010580Y012165D02*
X009280Y012165D01*
X010580Y010637D02*
X010580Y009927D01*
X009280Y009927D01*
X009280Y010637D01*
X010580Y010637D01*
X010580Y010005D02*
X009280Y010005D01*
X009280Y010083D02*
X010580Y010083D01*
X010580Y010161D02*
X009280Y010161D01*
X009280Y010239D02*
X010580Y010239D01*
X010580Y010317D02*
X009280Y010317D01*
X009280Y010395D02*
X010580Y010395D01*
X010580Y010473D02*
X009280Y010473D01*
X009280Y010551D02*
X010580Y010551D01*
X010580Y010629D02*
X009280Y010629D01*
D27*
X011207Y010587D02*
X011207Y010893D01*
X011553Y010893D01*
X011553Y010587D01*
X011207Y010587D01*
X011207Y010631D02*
X011553Y010631D01*
X011553Y010675D02*
X011207Y010675D01*
X011207Y010719D02*
X011553Y010719D01*
X011553Y010763D02*
X011207Y010763D01*
X011207Y010807D02*
X011553Y010807D01*
X011553Y010851D02*
X011207Y010851D01*
X012007Y010967D02*
X012007Y011273D01*
X012353Y011273D01*
X012353Y010967D01*
X012007Y010967D01*
X012007Y011011D02*
X012353Y011011D01*
X012353Y011055D02*
X012007Y011055D01*
X012007Y011099D02*
X012353Y011099D01*
X012353Y011143D02*
X012007Y011143D01*
X012007Y011187D02*
X012353Y011187D01*
X012353Y011231D02*
X012007Y011231D01*
X012007Y010513D02*
X012007Y010207D01*
X012007Y010513D02*
X012353Y010513D01*
X012353Y010207D01*
X012007Y010207D01*
X012007Y010251D02*
X012353Y010251D01*
X012353Y010295D02*
X012007Y010295D01*
X012007Y010339D02*
X012353Y010339D01*
X012353Y010383D02*
X012007Y010383D01*
X012007Y010427D02*
X012353Y010427D01*
X012353Y010471D02*
X012007Y010471D01*
D28*
X015647Y013929D02*
X015708Y013867D01*
X015780Y013817D01*
X015859Y013780D01*
X015943Y013758D01*
X016030Y013750D01*
X016117Y013758D01*
X016201Y013780D01*
X016280Y013817D01*
X016351Y013867D01*
X016413Y013929D01*
X016463Y014000D01*
X016500Y014079D01*
X016522Y014163D01*
X016530Y014250D01*
X016522Y014337D01*
X016500Y014421D01*
X016463Y014500D01*
X016413Y014571D01*
X016351Y014633D01*
X016280Y014683D01*
X016201Y014720D01*
X016117Y014742D01*
X016030Y014750D01*
X015943Y014742D01*
X015859Y014720D01*
X015780Y014683D01*
X015708Y014633D01*
X015647Y014571D01*
X015597Y014500D01*
X015560Y014421D01*
X015537Y014337D01*
X015530Y014250D01*
X015537Y014163D01*
X015560Y014079D01*
X015597Y014000D01*
X015647Y013929D01*
X015642Y013936D02*
X016418Y013936D01*
X016452Y013985D02*
X015608Y013985D01*
X015581Y014033D02*
X016478Y014033D01*
X016500Y014082D02*
X015559Y014082D01*
X015546Y014130D02*
X016513Y014130D01*
X016524Y014179D02*
X015536Y014179D01*
X015532Y014227D02*
X016528Y014227D01*
X016528Y014276D02*
X015532Y014276D01*
X015536Y014324D02*
X016523Y014324D01*
X016513Y014373D02*
X015547Y014373D01*
X015560Y014421D02*
X016500Y014421D01*
X016477Y014470D02*
X015583Y014470D01*
X015609Y014518D02*
X016450Y014518D01*
X016416Y014567D02*
X015643Y014567D01*
X015690Y014615D02*
X016369Y014615D01*
X016308Y014664D02*
X015752Y014664D01*
X015842Y014712D02*
X016217Y014712D01*
X016372Y013888D02*
X015688Y013888D01*
X015748Y013839D02*
X016311Y013839D01*
X016223Y013791D02*
X015836Y013791D01*
X018655Y006440D02*
X019105Y006440D01*
X018655Y006440D02*
X018655Y007060D01*
X019105Y007060D01*
X019105Y006440D01*
X019105Y006489D02*
X018655Y006489D01*
X018655Y006538D02*
X019105Y006538D01*
X019105Y006587D02*
X018655Y006587D01*
X018655Y006636D02*
X019105Y006636D01*
X019105Y006685D02*
X018655Y006685D01*
X018655Y006734D02*
X019105Y006734D01*
X019105Y006783D02*
X018655Y006783D01*
X018655Y006832D02*
X019105Y006832D01*
X019105Y006881D02*
X018655Y006881D01*
X018655Y006930D02*
X019105Y006930D01*
X019105Y006979D02*
X018655Y006979D01*
X018655Y007028D02*
X019105Y007028D01*
X019255Y006440D02*
X019705Y006440D01*
X019255Y006440D02*
X019255Y007060D01*
X019705Y007060D01*
X019705Y006440D01*
X019705Y006489D02*
X019255Y006489D01*
X019255Y006538D02*
X019705Y006538D01*
X019705Y006587D02*
X019255Y006587D01*
X019255Y006636D02*
X019705Y006636D01*
X019705Y006685D02*
X019255Y006685D01*
X019255Y006734D02*
X019705Y006734D01*
X019705Y006783D02*
X019255Y006783D01*
X019255Y006832D02*
X019705Y006832D01*
X019705Y006881D02*
X019255Y006881D01*
X019255Y006930D02*
X019705Y006930D01*
X019705Y006979D02*
X019255Y006979D01*
X019255Y007028D02*
X019705Y007028D01*
D29*
X019180Y006750D03*
D30*
X016734Y013383D02*
X016704Y013383D01*
X016734Y013383D02*
X016734Y013187D01*
X016704Y013187D01*
X016704Y013383D01*
X016704Y013306D02*
X016734Y013306D01*
X016537Y013383D02*
X016507Y013383D01*
X016537Y013383D02*
X016537Y013187D01*
X016507Y013187D01*
X016507Y013383D01*
X016507Y013306D02*
X016537Y013306D01*
X016340Y013383D02*
X016310Y013383D01*
X016340Y013383D02*
X016340Y013187D01*
X016310Y013187D01*
X016310Y013383D01*
X016310Y013306D02*
X016340Y013306D01*
X016143Y013383D02*
X016113Y013383D01*
X016143Y013383D02*
X016143Y013187D01*
X016113Y013187D01*
X016113Y013383D01*
X016113Y013306D02*
X016143Y013306D01*
X015946Y013383D02*
X015916Y013383D01*
X015946Y013383D02*
X015946Y013187D01*
X015916Y013187D01*
X015916Y013383D01*
X015916Y013306D02*
X015946Y013306D01*
X015750Y013383D02*
X015720Y013383D01*
X015750Y013383D02*
X015750Y013187D01*
X015720Y013187D01*
X015720Y013383D01*
X015720Y013306D02*
X015750Y013306D01*
X015553Y013383D02*
X015523Y013383D01*
X015553Y013383D02*
X015553Y013187D01*
X015523Y013187D01*
X015523Y013383D01*
X015523Y013306D02*
X015553Y013306D01*
X015356Y013383D02*
X015326Y013383D01*
X015356Y013383D02*
X015356Y013187D01*
X015326Y013187D01*
X015326Y013383D01*
X015326Y013306D02*
X015356Y013306D01*
X014967Y013546D02*
X014967Y013576D01*
X015163Y013576D01*
X015163Y013546D01*
X014967Y013546D01*
X014967Y013743D02*
X014967Y013773D01*
X015163Y013773D01*
X015163Y013743D01*
X014967Y013743D01*
X014967Y013940D02*
X014967Y013970D01*
X015163Y013970D01*
X015163Y013940D01*
X014967Y013940D01*
X014967Y014137D02*
X014967Y014167D01*
X015163Y014167D01*
X015163Y014137D01*
X014967Y014137D01*
X014967Y014333D02*
X014967Y014363D01*
X015163Y014363D01*
X015163Y014333D01*
X014967Y014333D01*
X014967Y014530D02*
X014967Y014560D01*
X015163Y014560D01*
X015163Y014530D01*
X014967Y014530D01*
X014967Y014727D02*
X014967Y014757D01*
X015163Y014757D01*
X015163Y014727D01*
X014967Y014727D01*
X014967Y014924D02*
X014967Y014954D01*
X015163Y014954D01*
X015163Y014924D01*
X014967Y014924D01*
X015326Y015313D02*
X015356Y015313D01*
X015356Y015117D01*
X015326Y015117D01*
X015326Y015313D01*
X015326Y015236D02*
X015356Y015236D01*
X015523Y015313D02*
X015553Y015313D01*
X015553Y015117D01*
X015523Y015117D01*
X015523Y015313D01*
X015523Y015236D02*
X015553Y015236D01*
X015720Y015313D02*
X015750Y015313D01*
X015750Y015117D01*
X015720Y015117D01*
X015720Y015313D01*
X015720Y015236D02*
X015750Y015236D01*
X015916Y015313D02*
X015946Y015313D01*
X015946Y015117D01*
X015916Y015117D01*
X015916Y015313D01*
X015916Y015236D02*
X015946Y015236D01*
X016113Y015313D02*
X016143Y015313D01*
X016143Y015117D01*
X016113Y015117D01*
X016113Y015313D01*
X016113Y015236D02*
X016143Y015236D01*
X016310Y015313D02*
X016340Y015313D01*
X016340Y015117D01*
X016310Y015117D01*
X016310Y015313D01*
X016310Y015236D02*
X016340Y015236D01*
X016507Y015313D02*
X016537Y015313D01*
X016537Y015117D01*
X016507Y015117D01*
X016507Y015313D01*
X016507Y015236D02*
X016537Y015236D01*
X016704Y015313D02*
X016734Y015313D01*
X016734Y015117D01*
X016704Y015117D01*
X016704Y015313D01*
X016704Y015236D02*
X016734Y015236D01*
X016896Y014954D02*
X016896Y014924D01*
X016896Y014954D02*
X017092Y014954D01*
X017092Y014924D01*
X016896Y014924D01*
X016896Y014757D02*
X016896Y014727D01*
X016896Y014757D02*
X017092Y014757D01*
X017092Y014727D01*
X016896Y014727D01*
X016896Y014560D02*
X016896Y014530D01*
X016896Y014560D02*
X017092Y014560D01*
X017092Y014530D01*
X016896Y014530D01*
X016896Y014363D02*
X016896Y014333D01*
X016896Y014363D02*
X017092Y014363D01*
X017092Y014333D01*
X016896Y014333D01*
X016896Y014167D02*
X016896Y014137D01*
X016896Y014167D02*
X017092Y014167D01*
X017092Y014137D01*
X016896Y014137D01*
X016896Y013970D02*
X016896Y013940D01*
X016896Y013970D02*
X017092Y013970D01*
X017092Y013940D01*
X016896Y013940D01*
X016896Y013773D02*
X016896Y013743D01*
X016896Y013773D02*
X017092Y013773D01*
X017092Y013743D01*
X016896Y013743D01*
X016896Y013576D02*
X016896Y013546D01*
X016896Y013576D02*
X017092Y013576D01*
X017092Y013546D01*
X016896Y013546D01*
D31*
X013520Y013854D02*
X013128Y013854D01*
X013128Y014246D01*
X013520Y014246D01*
X013520Y013854D01*
X013520Y013896D02*
X013128Y013896D01*
X013128Y013938D02*
X013520Y013938D01*
X013520Y013980D02*
X013128Y013980D01*
X013128Y014022D02*
X013520Y014022D01*
X013520Y014064D02*
X013128Y014064D01*
X013128Y014106D02*
X013520Y014106D01*
X013520Y014148D02*
X013128Y014148D01*
X013128Y014190D02*
X013520Y014190D01*
X013520Y014232D02*
X013128Y014232D01*
X012732Y013854D02*
X012340Y013854D01*
X012340Y014246D01*
X012732Y014246D01*
X012732Y013854D01*
X012732Y013896D02*
X012340Y013896D01*
X012340Y013938D02*
X012732Y013938D01*
X012732Y013980D02*
X012340Y013980D01*
X012340Y014022D02*
X012732Y014022D01*
X012732Y014064D02*
X012340Y014064D01*
X012340Y014106D02*
X012732Y014106D01*
X012732Y014148D02*
X012340Y014148D01*
X012340Y014190D02*
X012732Y014190D01*
X012732Y014232D02*
X012340Y014232D01*
X012340Y016054D02*
X012732Y016054D01*
X012340Y016054D02*
X012340Y016446D01*
X012732Y016446D01*
X012732Y016054D01*
X012732Y016096D02*
X012340Y016096D01*
X012340Y016138D02*
X012732Y016138D01*
X012732Y016180D02*
X012340Y016180D01*
X012340Y016222D02*
X012732Y016222D01*
X012732Y016264D02*
X012340Y016264D01*
X012340Y016306D02*
X012732Y016306D01*
X012732Y016348D02*
X012340Y016348D01*
X012340Y016390D02*
X012732Y016390D01*
X012732Y016432D02*
X012340Y016432D01*
X013128Y016054D02*
X013520Y016054D01*
X013128Y016054D02*
X013128Y016446D01*
X013520Y016446D01*
X013520Y016054D01*
X013520Y016096D02*
X013128Y016096D01*
X013128Y016138D02*
X013520Y016138D01*
X013520Y016180D02*
X013128Y016180D01*
X013128Y016222D02*
X013520Y016222D01*
X013520Y016264D02*
X013128Y016264D01*
X013128Y016306D02*
X013520Y016306D01*
X013520Y016348D02*
X013128Y016348D01*
X013128Y016390D02*
X013520Y016390D01*
X013520Y016432D02*
X013128Y016432D01*
X012098Y018546D02*
X011628Y018546D01*
X012098Y018546D02*
X012098Y018154D01*
X011628Y018154D01*
X011628Y018546D01*
X011628Y018196D02*
X012098Y018196D01*
X012098Y018238D02*
X011628Y018238D01*
X011628Y018280D02*
X012098Y018280D01*
X012098Y018322D02*
X011628Y018322D01*
X011628Y018364D02*
X012098Y018364D01*
X012098Y018406D02*
X011628Y018406D01*
X011628Y018448D02*
X012098Y018448D01*
X012098Y018490D02*
X011628Y018490D01*
X011628Y018532D02*
X012098Y018532D01*
X011232Y018546D02*
X010762Y018546D01*
X011232Y018546D02*
X011232Y018154D01*
X010762Y018154D01*
X010762Y018546D01*
X010762Y018196D02*
X011232Y018196D01*
X011232Y018238D02*
X010762Y018238D01*
X010762Y018280D02*
X011232Y018280D01*
X011232Y018322D02*
X010762Y018322D01*
X010762Y018364D02*
X011232Y018364D01*
X011232Y018406D02*
X010762Y018406D01*
X010762Y018448D02*
X011232Y018448D01*
X011232Y018490D02*
X010762Y018490D01*
X010762Y018532D02*
X011232Y018532D01*
D32*
X022890Y006559D02*
X023670Y006559D01*
X022890Y006559D02*
X022890Y006829D01*
X023670Y006829D01*
X023670Y006559D01*
X023670Y006605D02*
X022890Y006605D01*
X022890Y006651D02*
X023670Y006651D01*
X023670Y006697D02*
X022890Y006697D01*
X022890Y006743D02*
X023670Y006743D01*
X023670Y006789D02*
X022890Y006789D01*
X022890Y006165D02*
X023670Y006165D01*
X022890Y006165D02*
X022890Y006435D01*
X023670Y006435D01*
X023670Y006165D01*
X023670Y006211D02*
X022890Y006211D01*
X022890Y006257D02*
X023670Y006257D01*
X023670Y006303D02*
X022890Y006303D01*
X022890Y006349D02*
X023670Y006349D01*
X023670Y006395D02*
X022890Y006395D01*
X022890Y005771D02*
X023670Y005771D01*
X022890Y005771D02*
X022890Y006041D01*
X023670Y006041D01*
X023670Y005771D01*
X023670Y005817D02*
X022890Y005817D01*
X022890Y005863D02*
X023670Y005863D01*
X023670Y005909D02*
X022890Y005909D01*
X022890Y005955D02*
X023670Y005955D01*
X023670Y006001D02*
X022890Y006001D01*
D33*
X015821Y006483D02*
X015821Y006673D01*
X015821Y006483D02*
X015571Y006483D01*
X015571Y006673D01*
X015821Y006673D01*
X015821Y006529D02*
X015571Y006529D01*
X015571Y006575D02*
X015821Y006575D01*
X015821Y006621D02*
X015571Y006621D01*
X015571Y006667D02*
X015821Y006667D01*
X015821Y006798D02*
X015821Y006988D01*
X015821Y006798D02*
X015571Y006798D01*
X015571Y006988D01*
X015821Y006988D01*
X015821Y006844D02*
X015571Y006844D01*
X015571Y006890D02*
X015821Y006890D01*
X015821Y006936D02*
X015571Y006936D01*
X015571Y006982D02*
X015821Y006982D01*
X015821Y007112D02*
X015821Y007302D01*
X015821Y007112D02*
X015571Y007112D01*
X015571Y007302D01*
X015821Y007302D01*
X015821Y007158D02*
X015571Y007158D01*
X015571Y007204D02*
X015821Y007204D01*
X015821Y007250D02*
X015571Y007250D01*
X015571Y007296D02*
X015821Y007296D01*
X015821Y007427D02*
X015821Y007617D01*
X015821Y007427D02*
X015571Y007427D01*
X015571Y007617D01*
X015821Y007617D01*
X015821Y007473D02*
X015571Y007473D01*
X015571Y007519D02*
X015821Y007519D01*
X015821Y007565D02*
X015571Y007565D01*
X015571Y007611D02*
X015821Y007611D01*
X015289Y007617D02*
X015289Y007427D01*
X015039Y007427D01*
X015039Y007617D01*
X015289Y007617D01*
X015289Y007473D02*
X015039Y007473D01*
X015039Y007519D02*
X015289Y007519D01*
X015289Y007565D02*
X015039Y007565D01*
X015039Y007611D02*
X015289Y007611D01*
X015289Y007302D02*
X015289Y007112D01*
X015039Y007112D01*
X015039Y007302D01*
X015289Y007302D01*
X015289Y007158D02*
X015039Y007158D01*
X015039Y007204D02*
X015289Y007204D01*
X015289Y007250D02*
X015039Y007250D01*
X015039Y007296D02*
X015289Y007296D01*
X015289Y006988D02*
X015289Y006798D01*
X015039Y006798D01*
X015039Y006988D01*
X015289Y006988D01*
X015289Y006844D02*
X015039Y006844D01*
X015039Y006890D02*
X015289Y006890D01*
X015289Y006936D02*
X015039Y006936D01*
X015039Y006982D02*
X015289Y006982D01*
X015289Y006673D02*
X015289Y006483D01*
X015039Y006483D01*
X015039Y006673D01*
X015289Y006673D01*
X015289Y006529D02*
X015039Y006529D01*
X015039Y006575D02*
X015289Y006575D01*
X015289Y006621D02*
X015039Y006621D01*
X015039Y006667D02*
X015289Y006667D01*
X019039Y012233D02*
X019039Y012423D01*
X019039Y012233D02*
X018789Y012233D01*
X018789Y012423D01*
X019039Y012423D01*
X019039Y012279D02*
X018789Y012279D01*
X018789Y012325D02*
X019039Y012325D01*
X019039Y012371D02*
X018789Y012371D01*
X018789Y012417D02*
X019039Y012417D01*
X019039Y012548D02*
X019039Y012738D01*
X019039Y012548D02*
X018789Y012548D01*
X018789Y012738D01*
X019039Y012738D01*
X019039Y012594D02*
X018789Y012594D01*
X018789Y012640D02*
X019039Y012640D01*
X019039Y012686D02*
X018789Y012686D01*
X018789Y012732D02*
X019039Y012732D01*
X019039Y012862D02*
X019039Y013052D01*
X019039Y012862D02*
X018789Y012862D01*
X018789Y013052D01*
X019039Y013052D01*
X019039Y012908D02*
X018789Y012908D01*
X018789Y012954D02*
X019039Y012954D01*
X019039Y013000D02*
X018789Y013000D01*
X018789Y013046D02*
X019039Y013046D01*
X019039Y013177D02*
X019039Y013367D01*
X019039Y013177D02*
X018789Y013177D01*
X018789Y013367D01*
X019039Y013367D01*
X019039Y013223D02*
X018789Y013223D01*
X018789Y013269D02*
X019039Y013269D01*
X019039Y013315D02*
X018789Y013315D01*
X018789Y013361D02*
X019039Y013361D01*
X019571Y013367D02*
X019571Y013177D01*
X019321Y013177D01*
X019321Y013367D01*
X019571Y013367D01*
X019571Y013223D02*
X019321Y013223D01*
X019321Y013269D02*
X019571Y013269D01*
X019571Y013315D02*
X019321Y013315D01*
X019321Y013361D02*
X019571Y013361D01*
X019571Y013052D02*
X019571Y012862D01*
X019321Y012862D01*
X019321Y013052D01*
X019571Y013052D01*
X019571Y012908D02*
X019321Y012908D01*
X019321Y012954D02*
X019571Y012954D01*
X019571Y013000D02*
X019321Y013000D01*
X019321Y013046D02*
X019571Y013046D01*
X019571Y012738D02*
X019571Y012548D01*
X019321Y012548D01*
X019321Y012738D01*
X019571Y012738D01*
X019571Y012594D02*
X019321Y012594D01*
X019321Y012640D02*
X019571Y012640D01*
X019571Y012686D02*
X019321Y012686D01*
X019321Y012732D02*
X019571Y012732D01*
X019571Y012423D02*
X019571Y012233D01*
X019321Y012233D01*
X019321Y012423D01*
X019571Y012423D01*
X019571Y012279D02*
X019321Y012279D01*
X019321Y012325D02*
X019571Y012325D01*
X019571Y012371D02*
X019321Y012371D01*
X019321Y012417D02*
X019571Y012417D01*
X019321Y015483D02*
X019321Y015673D01*
X019571Y015673D01*
X019571Y015483D01*
X019321Y015483D01*
X019321Y015529D02*
X019571Y015529D01*
X019571Y015575D02*
X019321Y015575D01*
X019321Y015621D02*
X019571Y015621D01*
X019571Y015667D02*
X019321Y015667D01*
X019321Y015798D02*
X019321Y015988D01*
X019571Y015988D01*
X019571Y015798D01*
X019321Y015798D01*
X019321Y015844D02*
X019571Y015844D01*
X019571Y015890D02*
X019321Y015890D01*
X019321Y015936D02*
X019571Y015936D01*
X019571Y015982D02*
X019321Y015982D01*
X019321Y016112D02*
X019321Y016302D01*
X019571Y016302D01*
X019571Y016112D01*
X019321Y016112D01*
X019321Y016158D02*
X019571Y016158D01*
X019571Y016204D02*
X019321Y016204D01*
X019321Y016250D02*
X019571Y016250D01*
X019571Y016296D02*
X019321Y016296D01*
X019321Y016427D02*
X019321Y016617D01*
X019571Y016617D01*
X019571Y016427D01*
X019321Y016427D01*
X019321Y016473D02*
X019571Y016473D01*
X019571Y016519D02*
X019321Y016519D01*
X019321Y016565D02*
X019571Y016565D01*
X019571Y016611D02*
X019321Y016611D01*
X018789Y016617D02*
X018789Y016427D01*
X018789Y016617D02*
X019039Y016617D01*
X019039Y016427D01*
X018789Y016427D01*
X018789Y016473D02*
X019039Y016473D01*
X019039Y016519D02*
X018789Y016519D01*
X018789Y016565D02*
X019039Y016565D01*
X019039Y016611D02*
X018789Y016611D01*
X018789Y016302D02*
X018789Y016112D01*
X018789Y016302D02*
X019039Y016302D01*
X019039Y016112D01*
X018789Y016112D01*
X018789Y016158D02*
X019039Y016158D01*
X019039Y016204D02*
X018789Y016204D01*
X018789Y016250D02*
X019039Y016250D01*
X019039Y016296D02*
X018789Y016296D01*
X018789Y015988D02*
X018789Y015798D01*
X018789Y015988D02*
X019039Y015988D01*
X019039Y015798D01*
X018789Y015798D01*
X018789Y015844D02*
X019039Y015844D01*
X019039Y015890D02*
X018789Y015890D01*
X018789Y015936D02*
X019039Y015936D01*
X019039Y015982D02*
X018789Y015982D01*
X018789Y015673D02*
X018789Y015483D01*
X018789Y015673D02*
X019039Y015673D01*
X019039Y015483D01*
X018789Y015483D01*
X018789Y015529D02*
X019039Y015529D01*
X019039Y015575D02*
X018789Y015575D01*
X018789Y015621D02*
X019039Y015621D01*
X019039Y015667D02*
X018789Y015667D01*
X013321Y015717D02*
X013321Y015527D01*
X013071Y015527D01*
X013071Y015717D01*
X013321Y015717D01*
X013321Y015573D02*
X013071Y015573D01*
X013071Y015619D02*
X013321Y015619D01*
X013321Y015665D02*
X013071Y015665D01*
X013071Y015711D02*
X013321Y015711D01*
X012789Y015717D02*
X012789Y015527D01*
X012539Y015527D01*
X012539Y015717D01*
X012789Y015717D01*
X012789Y015573D02*
X012539Y015573D01*
X012539Y015619D02*
X012789Y015619D01*
X012789Y015665D02*
X012539Y015665D01*
X012539Y015711D02*
X012789Y015711D01*
X012789Y015402D02*
X012789Y015212D01*
X012539Y015212D01*
X012539Y015402D01*
X012789Y015402D01*
X012789Y015258D02*
X012539Y015258D01*
X012539Y015304D02*
X012789Y015304D01*
X012789Y015350D02*
X012539Y015350D01*
X012539Y015396D02*
X012789Y015396D01*
X013321Y015402D02*
X013321Y015212D01*
X013071Y015212D01*
X013071Y015402D01*
X013321Y015402D01*
X013321Y015258D02*
X013071Y015258D01*
X013071Y015304D02*
X013321Y015304D01*
X013321Y015350D02*
X013071Y015350D01*
X013071Y015396D02*
X013321Y015396D01*
X013321Y015088D02*
X013321Y014898D01*
X013071Y014898D01*
X013071Y015088D01*
X013321Y015088D01*
X013321Y014944D02*
X013071Y014944D01*
X013071Y014990D02*
X013321Y014990D01*
X013321Y015036D02*
X013071Y015036D01*
X013071Y015082D02*
X013321Y015082D01*
X013321Y014773D02*
X013321Y014583D01*
X013071Y014583D01*
X013071Y014773D01*
X013321Y014773D01*
X013321Y014629D02*
X013071Y014629D01*
X013071Y014675D02*
X013321Y014675D01*
X013321Y014721D02*
X013071Y014721D01*
X013071Y014767D02*
X013321Y014767D01*
X012789Y014773D02*
X012789Y014583D01*
X012539Y014583D01*
X012539Y014773D01*
X012789Y014773D01*
X012789Y014629D02*
X012539Y014629D01*
X012539Y014675D02*
X012789Y014675D01*
X012789Y014721D02*
X012539Y014721D01*
X012539Y014767D02*
X012789Y014767D01*
X012789Y014898D02*
X012789Y015088D01*
X012789Y014898D02*
X012539Y014898D01*
X012539Y015088D01*
X012789Y015088D01*
X012789Y014944D02*
X012539Y014944D01*
X012539Y014990D02*
X012789Y014990D01*
X012789Y015036D02*
X012539Y015036D01*
X012539Y015082D02*
X012789Y015082D01*
X039539Y015112D02*
X039539Y015302D01*
X039789Y015302D01*
X039789Y015112D01*
X039539Y015112D01*
X039539Y015158D02*
X039789Y015158D01*
X039789Y015204D02*
X039539Y015204D01*
X039539Y015250D02*
X039789Y015250D01*
X039789Y015296D02*
X039539Y015296D01*
X039539Y015427D02*
X039539Y015617D01*
X039789Y015617D01*
X039789Y015427D01*
X039539Y015427D01*
X039539Y015473D02*
X039789Y015473D01*
X039789Y015519D02*
X039539Y015519D01*
X039539Y015565D02*
X039789Y015565D01*
X039789Y015611D02*
X039539Y015611D01*
X040071Y015617D02*
X040071Y015427D01*
X040071Y015617D02*
X040321Y015617D01*
X040321Y015427D01*
X040071Y015427D01*
X040071Y015473D02*
X040321Y015473D01*
X040321Y015519D02*
X040071Y015519D01*
X040071Y015565D02*
X040321Y015565D01*
X040321Y015611D02*
X040071Y015611D01*
X040071Y015302D02*
X040071Y015112D01*
X040071Y015302D02*
X040321Y015302D01*
X040321Y015112D01*
X040071Y015112D01*
X040071Y015158D02*
X040321Y015158D01*
X040321Y015204D02*
X040071Y015204D01*
X040071Y015250D02*
X040321Y015250D01*
X040321Y015296D02*
X040071Y015296D01*
X040071Y014988D02*
X040071Y014798D01*
X040071Y014988D02*
X040321Y014988D01*
X040321Y014798D01*
X040071Y014798D01*
X040071Y014844D02*
X040321Y014844D01*
X040321Y014890D02*
X040071Y014890D01*
X040071Y014936D02*
X040321Y014936D01*
X040321Y014982D02*
X040071Y014982D01*
X039539Y014988D02*
X039539Y014798D01*
X039539Y014988D02*
X039789Y014988D01*
X039789Y014798D01*
X039539Y014798D01*
X039539Y014844D02*
X039789Y014844D01*
X039789Y014890D02*
X039539Y014890D01*
X039539Y014936D02*
X039789Y014936D01*
X039789Y014982D02*
X039539Y014982D01*
X039539Y014673D02*
X039539Y014483D01*
X039539Y014673D02*
X039789Y014673D01*
X039789Y014483D01*
X039539Y014483D01*
X039539Y014529D02*
X039789Y014529D01*
X039789Y014575D02*
X039539Y014575D01*
X039539Y014621D02*
X039789Y014621D01*
X039789Y014667D02*
X039539Y014667D01*
X040071Y014673D02*
X040071Y014483D01*
X040071Y014673D02*
X040321Y014673D01*
X040321Y014483D01*
X040071Y014483D01*
X040071Y014529D02*
X040321Y014529D01*
X040321Y014575D02*
X040071Y014575D01*
X040071Y014621D02*
X040321Y014621D01*
X040321Y014667D02*
X040071Y014667D01*
D34*
X038517Y013495D02*
X038517Y012913D01*
X038015Y012913D01*
X038015Y013495D01*
X038517Y013495D01*
X038517Y013001D02*
X038015Y013001D01*
X038015Y013089D02*
X038517Y013089D01*
X038517Y013177D02*
X038015Y013177D01*
X038015Y013265D02*
X038517Y013265D01*
X038517Y013353D02*
X038015Y013353D01*
X038015Y013441D02*
X038517Y013441D01*
X036745Y013495D02*
X036745Y012913D01*
X036243Y012913D01*
X036243Y013495D01*
X036745Y013495D01*
X036745Y013001D02*
X036243Y013001D01*
X036243Y013089D02*
X036745Y013089D01*
X036745Y013177D02*
X036243Y013177D01*
X036243Y013265D02*
X036745Y013265D01*
X036745Y013353D02*
X036243Y013353D01*
X036243Y013441D02*
X036745Y013441D01*
X036745Y010187D02*
X036745Y009605D01*
X036243Y009605D01*
X036243Y010187D01*
X036745Y010187D01*
X036745Y009693D02*
X036243Y009693D01*
X036243Y009781D02*
X036745Y009781D01*
X036745Y009869D02*
X036243Y009869D01*
X036243Y009957D02*
X036745Y009957D01*
X036745Y010045D02*
X036243Y010045D01*
X036243Y010133D02*
X036745Y010133D01*
X037631Y010187D02*
X037631Y009605D01*
X037129Y009605D01*
X037129Y010187D01*
X037631Y010187D01*
X037631Y009693D02*
X037129Y009693D01*
X037129Y009781D02*
X037631Y009781D01*
X037631Y009869D02*
X037129Y009869D01*
X037129Y009957D02*
X037631Y009957D01*
X037631Y010045D02*
X037129Y010045D01*
X037129Y010133D02*
X037631Y010133D01*
X038517Y010187D02*
X038517Y009605D01*
X038015Y009605D01*
X038015Y010187D01*
X038517Y010187D01*
X038517Y009693D02*
X038015Y009693D01*
X038015Y009781D02*
X038517Y009781D01*
X038517Y009869D02*
X038015Y009869D01*
X038015Y009957D02*
X038517Y009957D01*
X038517Y010045D02*
X038015Y010045D01*
X038015Y010133D02*
X038517Y010133D01*
D35*
X019659Y010181D02*
X019449Y010181D01*
X019659Y010181D02*
X019659Y009715D01*
X019449Y009715D01*
X019449Y010181D01*
X019449Y009760D02*
X019659Y009760D01*
X019659Y009805D02*
X019449Y009805D01*
X019449Y009850D02*
X019659Y009850D01*
X019659Y009895D02*
X019449Y009895D01*
X019449Y009940D02*
X019659Y009940D01*
X019659Y009985D02*
X019449Y009985D01*
X019449Y010030D02*
X019659Y010030D01*
X019659Y010075D02*
X019449Y010075D01*
X019449Y010120D02*
X019659Y010120D01*
X019659Y010165D02*
X019449Y010165D01*
X018911Y010181D02*
X018701Y010181D01*
X018911Y010181D02*
X018911Y009715D01*
X018701Y009715D01*
X018701Y010181D01*
X018701Y009760D02*
X018911Y009760D01*
X018911Y009805D02*
X018701Y009805D01*
X018701Y009850D02*
X018911Y009850D01*
X018911Y009895D02*
X018701Y009895D01*
X018701Y009940D02*
X018911Y009940D01*
X018911Y009985D02*
X018701Y009985D01*
X018701Y010030D02*
X018911Y010030D01*
X018911Y010075D02*
X018701Y010075D01*
X018701Y010120D02*
X018911Y010120D01*
X018911Y010165D02*
X018701Y010165D01*
X018701Y011205D02*
X018911Y011205D01*
X018911Y010739D01*
X018701Y010739D01*
X018701Y011205D01*
X018701Y010784D02*
X018911Y010784D01*
X018911Y010829D02*
X018701Y010829D01*
X018701Y010874D02*
X018911Y010874D01*
X018911Y010919D02*
X018701Y010919D01*
X018701Y010964D02*
X018911Y010964D01*
X018911Y011009D02*
X018701Y011009D01*
X018701Y011054D02*
X018911Y011054D01*
X018911Y011099D02*
X018701Y011099D01*
X018701Y011144D02*
X018911Y011144D01*
X018911Y011189D02*
X018701Y011189D01*
X019075Y011205D02*
X019285Y011205D01*
X019285Y010739D01*
X019075Y010739D01*
X019075Y011205D01*
X019075Y010784D02*
X019285Y010784D01*
X019285Y010829D02*
X019075Y010829D01*
X019075Y010874D02*
X019285Y010874D01*
X019285Y010919D02*
X019075Y010919D01*
X019075Y010964D02*
X019285Y010964D01*
X019285Y011009D02*
X019075Y011009D01*
X019075Y011054D02*
X019285Y011054D01*
X019285Y011099D02*
X019075Y011099D01*
X019075Y011144D02*
X019285Y011144D01*
X019285Y011189D02*
X019075Y011189D01*
X019449Y011205D02*
X019659Y011205D01*
X019659Y010739D01*
X019449Y010739D01*
X019449Y011205D01*
X019449Y010784D02*
X019659Y010784D01*
X019659Y010829D02*
X019449Y010829D01*
X019449Y010874D02*
X019659Y010874D01*
X019659Y010919D02*
X019449Y010919D01*
X019449Y010964D02*
X019659Y010964D01*
X019659Y011009D02*
X019449Y011009D01*
X019449Y011054D02*
X019659Y011054D01*
X019659Y011099D02*
X019449Y011099D01*
X019449Y011144D02*
X019659Y011144D01*
X019659Y011189D02*
X019449Y011189D01*
M02*
