%
M48
M72
T01C0.0160
T02C0.0335
T03C0.0374
T04C0.0551
T05C0.0866
T06C0.1260
%
T01
X9180Y6050
X9930Y6050
X10680Y6050
X11430Y6050
X11680Y6800
X13530Y6050
X14680Y6550
X17480Y5150
X19230Y5350
X20630Y6300
X20880Y7000
X22880Y7250
X20730Y8750
X23230Y8900
X24230Y8900
X25730Y9600
X24280Y10450
X23880Y10050
X23030Y10250
X23830Y11900
X24330Y11900
X23280Y12056
X25730Y12700
X25930Y11850
X25780Y11300
X25980Y10550
X30180Y11550
X30630Y11050
X32130Y11500
X31930Y12000
X32130Y12900
X30130Y13100
X30130Y12250
X30420Y14000
X33040Y13990
X35623Y13187
X36720Y14610
X38086Y15756
X39180Y15900
X40230Y15950
X41030Y15950
X42680Y15750
X39680Y13200
X38880Y11450
X39680Y11300
X39630Y9950
X36730Y11250
X35230Y11000
X35680Y9800
X35345Y8424
X36530Y8100
X36780Y7600
X37330Y7500
X37830Y7200
X38380Y7653
X43680Y9050
X47474Y7050
X40080Y4000
X39130Y4000
X38030Y4550
X37280Y4850
X31430Y7900
X31780Y8250
X32030Y8700
X31430Y9000
X31030Y8600
X32130Y9400
X32983Y8424
X27630Y5100
X27562Y4600
X28130Y4536
X27480Y3950
X26627Y3803
X26280Y4681
X27230Y2781
X21830Y4550
X20580Y4250
X17630Y3450
X19680Y2500
X18330Y1900
X17580Y7000
X18330Y7700
X17880Y9200
X16980Y9300
X18230Y10100
X17680Y11000
X19230Y11600
X17080Y12850
X15590Y13810
X13680Y13250
X14180Y12500
X12930Y11650
X11680Y12050
X15430Y10800
X13380Y9250
X11680Y8300
X11430Y9300
X10680Y9300
X9930Y9300
X9180Y9300
X15230Y7950
X20930Y13800
X20580Y14850
X20230Y15300
X17880Y16350
X17530Y15600
X20330Y16600
X18080Y17600
X19280Y18600
X20180Y18950
X17030Y18800
X14880Y18750
X11980Y17550
X14555Y16225
X23780Y13750
X24080Y14400
X24180Y14900
X24850Y15700
X26080Y15850
X26330Y16300
X25830Y16350
X26680Y16650
X27030Y17000
X27380Y17350
X27730Y17700
X28380Y17550
X28780Y17900
X29130Y17550
X29480Y17950
X29680Y17100
X29680Y16400
X29930Y15850
X31130Y16850
X33520Y15860
X28630Y17100
X28030Y17200
X28030Y16500
X27580Y16050
X25380Y15000
X25980Y13700
X25930Y17350
X25930Y18000
X24530Y18000
X24530Y17350
X26780Y19450
X27730Y19400
X25374Y20550
X31830Y18950
X33880Y19200
X34480Y19200
X34180Y20550
X38690Y19370
X39730Y18950
X47474Y13050
T02
X42180Y20550
X41180Y20550
X40180Y20550
X39180Y20550
X38180Y20550
X37180Y20550
X36180Y20550
X35180Y20550
X33180Y20550
X32180Y20550
X31180Y20550
X30180Y20550
X29180Y20550
X28180Y20550
X27180Y20550
X26180Y20550
X24580Y20550
X23580Y20550
X22580Y20550
X21580Y20550
X20580Y20550
X19580Y20550
X18580Y20550
X17580Y20550
X16580Y20550
X15580Y20550
X16430Y10800
X14430Y10800
X19180Y1550
X20180Y1550
X21180Y1550
X22180Y1550
X23180Y1550
X24180Y1550
X25180Y1550
X26180Y1550
X28180Y1550
X29180Y1550
X30180Y1550
X31180Y1550
X32180Y1550
X33180Y1550
X34180Y1550
X35180Y1550
X37180Y1550
X38180Y1550
X39180Y1550
X40180Y1550
X41180Y1550
X42180Y1550
X43180Y1550
X44180Y1550
T03
X45180Y3550
X46180Y3550
X46180Y4550
X45180Y4550
X45180Y5550
X46180Y5550
X46180Y6550
X45180Y6550
X45180Y7550
X46180Y7550
X46180Y8550
X45180Y8550
X45180Y9550
X46180Y9550
X46180Y10550
X45180Y10550
X45180Y11550
X46180Y11550
X46180Y12550
X45180Y12550
X45180Y13550
X46180Y13550
X46180Y14550
X45180Y14550
X45180Y15550
X46180Y15550
X46180Y16550
X45180Y16550
X45180Y17550
X46180Y17550
X46180Y18550
X45180Y18550
X45180Y19550
X46180Y19550
X46180Y20550
X45180Y20550
X34230Y12550
X33230Y12550
X33230Y11550
X34230Y11550
X34230Y10550
X33230Y10550
X16380Y16250
X15380Y16250
X15380Y17250
X16380Y17250
X16380Y18250
X15380Y18250
X14380Y18250
X14380Y19250
X15380Y19250
X16380Y19250
X11534Y16042
X10747Y16042
X10747Y15058
X11534Y15058
T04
X10420Y3520
X10420Y3820
X10420Y4120
X12780Y4120
X12780Y3820
X12780Y3520
X11900Y1850
X11600Y1850
X11300Y1850
T05
X9680Y13188
X9680Y17912
T06
X14180Y20550
X34180Y14550
X43680Y20550
X34180Y3550
X46180Y1550
X13680Y1550
M30
