G75*
G70*
%OFA0B0*%
%FSLAX24Y24*%
%IPPOS*%
%LPD*%
%AMOC8*
5,1,8,0,0,1.08239X$1,22.5*
%
%ADD10C,0.0120*%
%ADD11C,0.0160*%
%ADD12C,0.0100*%
%ADD13C,0.0070*%
%ADD14C,0.0080*%
%ADD15C,0.0060*%
%ADD16C,0.0110*%
%ADD17C,0.0090*%
%ADD18C,0.0040*%
%ADD19R,0.0118X0.0059*%
%ADD20R,0.0118X0.0118*%
%ADD21C,0.0050*%
%ADD22C,0.0030*%
%ADD23C,0.0028*%
%ADD24R,0.0276X0.0118*%
%ADD25C,0.0087*%
%ADD26C,0.0020*%
%ADD27R,0.0620X0.0240*%
D10*
X028230Y003350D02*
X028630Y003750D01*
X029430Y003750D01*
X036780Y003750D02*
X043630Y003750D01*
X043980Y003400D01*
X045180Y002800D02*
X045180Y002600D01*
X046180Y002600D01*
X046180Y002800D01*
X043530Y004600D02*
X043130Y005000D01*
X043130Y009600D01*
X043130Y013750D02*
X043130Y019150D01*
X043530Y019550D01*
X045180Y021050D02*
X045180Y021300D01*
X046180Y021300D01*
X046180Y021050D01*
X042180Y017150D02*
X041730Y016700D01*
X041030Y016700D01*
X033180Y016700D02*
X032680Y016700D01*
X032230Y017150D01*
X030780Y018300D02*
X031180Y018700D01*
X030780Y018300D02*
X026380Y018300D01*
X024180Y018300D02*
X020080Y018300D01*
X019730Y018650D01*
X016859Y019650D02*
X016861Y019666D01*
X016867Y019682D01*
X016876Y019696D01*
X016888Y019707D01*
X016902Y019715D01*
X016918Y019720D01*
X016934Y019721D01*
X016950Y019718D01*
X016965Y019711D01*
X016979Y019702D01*
X016989Y019689D01*
X016997Y019674D01*
X017001Y019658D01*
X017001Y019642D01*
X016997Y019626D01*
X016989Y019611D01*
X016979Y019598D01*
X016966Y019589D01*
X016950Y019582D01*
X016934Y019579D01*
X016918Y019580D01*
X016902Y019585D01*
X016888Y019593D01*
X016876Y019604D01*
X016867Y019618D01*
X016861Y019634D01*
X016859Y019650D01*
D11*
X031930Y018550D02*
X032180Y018800D01*
X032430Y018550D01*
X032180Y018550D01*
X032180Y018800D01*
X032180Y018550D02*
X031930Y018550D01*
X032180Y019050D01*
X032430Y018550D01*
X032930Y019050D02*
X033180Y018800D01*
X033180Y019050D01*
X033430Y019050D01*
X033180Y018800D01*
X033180Y018550D02*
X032930Y019050D01*
X033180Y019050D01*
X033430Y019050D02*
X033180Y018550D01*
X033036Y006077D02*
X033317Y005797D01*
X033597Y006077D01*
X033597Y005236D01*
X033957Y005376D02*
X033957Y005657D01*
X034097Y005797D01*
X034378Y005797D01*
X034518Y005657D01*
X034518Y005517D01*
X033957Y005517D01*
X033957Y005376D02*
X034097Y005236D01*
X034378Y005236D01*
X034878Y005376D02*
X035018Y005236D01*
X035439Y005236D01*
X035439Y005096D02*
X035439Y005797D01*
X035018Y005797D01*
X034878Y005657D01*
X034878Y005376D01*
X035158Y004956D02*
X035298Y004956D01*
X035439Y005096D01*
X035799Y005376D02*
X035939Y005236D01*
X036359Y005236D01*
X036359Y005657D01*
X036219Y005797D01*
X035939Y005797D01*
X035939Y005517D02*
X036359Y005517D01*
X035939Y005517D02*
X035799Y005376D01*
X037640Y005236D02*
X038201Y005797D01*
X038201Y005937D01*
X038061Y006077D01*
X037781Y006077D01*
X037640Y005937D01*
X038561Y006077D02*
X038561Y005657D01*
X038841Y005797D01*
X038982Y005797D01*
X039122Y005657D01*
X039122Y005376D01*
X038982Y005236D01*
X038701Y005236D01*
X038561Y005376D01*
X038201Y005236D02*
X037640Y005236D01*
X038561Y006077D02*
X039122Y006077D01*
X039482Y005657D02*
X039902Y005657D01*
X040042Y005517D01*
X040042Y005376D01*
X039902Y005236D01*
X039622Y005236D01*
X039482Y005376D01*
X039482Y005657D01*
X039762Y005937D01*
X040042Y006077D01*
X040403Y005937D02*
X040543Y006077D01*
X040823Y006077D01*
X040963Y005937D01*
X040403Y005376D01*
X040543Y005236D01*
X040823Y005236D01*
X040963Y005376D01*
X040963Y005937D01*
X040403Y005937D02*
X040403Y005376D01*
X033036Y005236D02*
X033036Y006077D01*
X031755Y005657D02*
X031755Y005376D01*
X031615Y005236D01*
X031335Y005236D01*
X031195Y005376D01*
X031195Y005657D01*
X031335Y005797D01*
X031615Y005797D01*
X031755Y005657D01*
X030835Y005797D02*
X030414Y005797D01*
X030274Y005657D01*
X030274Y005376D01*
X030414Y005236D01*
X030835Y005236D01*
X030835Y005096D02*
X030835Y005797D01*
X029914Y005657D02*
X029914Y005236D01*
X029353Y005236D02*
X029353Y005797D01*
X029774Y005797D01*
X029914Y005657D01*
X028993Y005657D02*
X028993Y005236D01*
X028573Y005236D01*
X028433Y005376D01*
X028573Y005517D01*
X028993Y005517D01*
X028993Y005657D02*
X028853Y005797D01*
X028573Y005797D01*
X028072Y006077D02*
X028072Y005236D01*
X027512Y005236D02*
X027512Y006077D01*
X027792Y005797D01*
X028072Y006077D01*
X030554Y004956D02*
X030694Y004956D01*
X030835Y005096D01*
D12*
X030961Y004060D02*
X030961Y003500D01*
X030588Y004060D01*
X030588Y003500D01*
X030353Y003500D02*
X030353Y003874D01*
X030167Y004060D01*
X029980Y003874D01*
X029980Y003500D01*
X029980Y003780D02*
X030353Y003780D01*
X031195Y003780D02*
X031569Y003780D01*
X031569Y003874D02*
X031569Y003500D01*
X031803Y003500D02*
X032177Y003500D01*
X032411Y003593D02*
X032504Y003500D01*
X032691Y003500D01*
X032784Y003593D01*
X032784Y003967D01*
X032691Y004060D01*
X032504Y004060D01*
X032411Y003967D01*
X032411Y003593D01*
X033018Y003593D02*
X033112Y003500D01*
X033299Y003500D01*
X033392Y003593D01*
X033392Y003780D01*
X033205Y003780D01*
X033018Y003967D02*
X033018Y003593D01*
X033018Y003967D02*
X033112Y004060D01*
X033299Y004060D01*
X033392Y003967D01*
X031803Y004060D02*
X031803Y003500D01*
X031569Y003874D02*
X031382Y004060D01*
X031195Y003874D01*
X031195Y003500D01*
X035449Y003500D02*
X035636Y003500D01*
X035543Y003500D02*
X035543Y004060D01*
X035636Y004060D02*
X035449Y004060D01*
X035854Y004060D02*
X036228Y003500D01*
X036228Y004060D01*
X035854Y004060D02*
X035854Y003500D01*
X030837Y008954D02*
X025522Y008954D01*
X025424Y009053D01*
X025424Y014171D01*
X025719Y014466D01*
X030837Y014466D01*
X030936Y014367D01*
X030936Y009053D01*
X030837Y008954D01*
X025720Y014072D02*
X025722Y014091D01*
X025727Y014110D01*
X025737Y014126D01*
X025749Y014141D01*
X025764Y014153D01*
X025780Y014163D01*
X025799Y014168D01*
X025818Y014170D01*
X025837Y014168D01*
X025856Y014163D01*
X025872Y014153D01*
X025887Y014141D01*
X025899Y014126D01*
X025909Y014110D01*
X025914Y014091D01*
X025916Y014072D01*
X025914Y014053D01*
X025909Y014034D01*
X025899Y014018D01*
X025887Y014003D01*
X025872Y013991D01*
X025856Y013981D01*
X025837Y013976D01*
X025818Y013974D01*
X025799Y013976D01*
X025780Y013981D01*
X025764Y013991D01*
X025749Y014003D01*
X025737Y014018D01*
X025727Y014034D01*
X025722Y014053D01*
X025720Y014072D01*
X025695Y018000D02*
X025695Y018560D01*
X025882Y018374D01*
X026069Y018560D01*
X026069Y018000D01*
X025461Y018000D02*
X025274Y018187D01*
X025088Y018000D01*
X025088Y018560D01*
X024853Y018467D02*
X024853Y018280D01*
X024760Y018187D01*
X024480Y018187D01*
X024480Y018000D02*
X024480Y018560D01*
X024760Y018560D01*
X024853Y018467D01*
X025461Y018560D02*
X025461Y018000D01*
X033480Y016867D02*
X033480Y016493D01*
X033573Y016400D01*
X033760Y016400D01*
X033853Y016493D01*
X034088Y016493D02*
X034181Y016400D01*
X034368Y016400D01*
X034461Y016493D01*
X034461Y016867D01*
X034368Y016960D01*
X034181Y016960D01*
X034088Y016867D01*
X034088Y016493D01*
X034695Y016400D02*
X034695Y016960D01*
X034882Y016774D01*
X035069Y016960D01*
X035069Y016400D01*
X035303Y016400D02*
X035303Y016960D01*
X035490Y016774D01*
X035677Y016960D01*
X035677Y016400D01*
X035911Y016493D02*
X036004Y016400D01*
X036191Y016400D01*
X036284Y016493D01*
X036284Y016960D01*
X036518Y016960D02*
X036892Y016400D01*
X036892Y016960D01*
X037126Y016960D02*
X037313Y016960D01*
X037220Y016960D02*
X037220Y016400D01*
X037313Y016400D02*
X037126Y016400D01*
X037531Y016493D02*
X037625Y016400D01*
X037811Y016400D01*
X037905Y016493D01*
X038139Y016400D02*
X038139Y016774D01*
X038326Y016960D01*
X038513Y016774D01*
X038513Y016400D01*
X038513Y016680D02*
X038139Y016680D01*
X037905Y016867D02*
X037811Y016960D01*
X037625Y016960D01*
X037531Y016867D01*
X037531Y016493D01*
X036518Y016400D02*
X036518Y016960D01*
X035911Y016960D02*
X035911Y016493D01*
X033853Y016867D02*
X033760Y016960D01*
X033573Y016960D01*
X033480Y016867D01*
X038747Y016960D02*
X039120Y016960D01*
X038934Y016960D02*
X038934Y016400D01*
X039354Y016400D02*
X039541Y016400D01*
X039448Y016400D02*
X039448Y016960D01*
X039541Y016960D02*
X039354Y016960D01*
X039760Y016867D02*
X039760Y016493D01*
X039853Y016400D01*
X040040Y016400D01*
X040133Y016493D01*
X040133Y016867D01*
X040040Y016960D01*
X039853Y016960D01*
X039760Y016867D01*
X040367Y016960D02*
X040741Y016400D01*
X040741Y016960D01*
X040367Y016960D02*
X040367Y016400D01*
X043380Y013465D02*
X043380Y013091D01*
X042819Y013091D01*
X043006Y012857D02*
X043380Y012857D01*
X043100Y012857D02*
X043100Y012483D01*
X043006Y012483D02*
X042819Y012670D01*
X043006Y012857D01*
X043006Y012483D02*
X043380Y012483D01*
X042819Y012249D02*
X042819Y011876D01*
X042819Y012063D02*
X043380Y012063D01*
X043380Y011657D02*
X043380Y011471D01*
X043380Y011564D02*
X042819Y011564D01*
X042819Y011471D02*
X042819Y011657D01*
X042913Y011237D02*
X042819Y011143D01*
X042819Y010956D01*
X042913Y010863D01*
X043286Y010863D01*
X043380Y010956D01*
X043380Y011143D01*
X043286Y011237D01*
X043100Y011237D01*
X043100Y011050D01*
X043380Y010645D02*
X043380Y010458D01*
X043380Y010551D02*
X042819Y010551D01*
X042819Y010458D02*
X042819Y010645D01*
X042913Y010224D02*
X042819Y010130D01*
X042819Y009850D01*
X043380Y009850D01*
X043380Y010130D01*
X043286Y010224D01*
X042913Y010224D01*
X011885Y013227D02*
X011885Y017873D01*
X005684Y017873D01*
X005684Y013227D01*
X011885Y013227D01*
D13*
X017393Y018143D02*
X017556Y017980D01*
X017883Y017980D01*
X017638Y017980D02*
X017638Y018307D01*
X017556Y018307D02*
X017883Y018307D01*
X017883Y018495D02*
X017393Y018495D01*
X017393Y018741D01*
X017474Y018822D01*
X017638Y018822D01*
X017720Y018741D01*
X017720Y018495D01*
X017720Y018659D02*
X017883Y018822D01*
X017883Y019011D02*
X017393Y019011D01*
X017393Y019338D01*
X017393Y019527D02*
X017393Y019854D01*
X017638Y019690D02*
X017638Y019527D01*
X017883Y019527D02*
X017393Y019527D01*
X017883Y019338D02*
X017883Y019011D01*
X017638Y019011D02*
X017638Y019175D01*
X018447Y019332D02*
X018937Y019332D01*
X018447Y019005D01*
X018937Y019005D01*
X018856Y018817D02*
X018692Y018817D01*
X018692Y018653D01*
X018529Y018490D02*
X018856Y018490D01*
X018937Y018572D01*
X018937Y018735D01*
X018856Y018817D01*
X018529Y018817D02*
X018447Y018735D01*
X018447Y018572D01*
X018529Y018490D01*
X017556Y018307D02*
X017393Y018143D01*
X019404Y018998D02*
X019895Y018998D01*
X019895Y018835D02*
X019895Y019162D01*
X019813Y019351D02*
X019895Y019432D01*
X019895Y019596D01*
X019813Y019678D01*
X019731Y019678D01*
X019650Y019596D01*
X019650Y019514D01*
X019650Y019596D02*
X019568Y019678D01*
X019486Y019678D01*
X019404Y019596D01*
X019404Y019432D01*
X019486Y019351D01*
X019404Y018998D02*
X019568Y018835D01*
X020404Y018998D02*
X020568Y018835D01*
X020404Y018998D02*
X020895Y018998D01*
X020895Y018835D02*
X020895Y019162D01*
X020895Y019351D02*
X020568Y019678D01*
X020486Y019678D01*
X020404Y019596D01*
X020404Y019432D01*
X020486Y019351D01*
X020895Y019351D02*
X020895Y019678D01*
X021404Y019514D02*
X021568Y019351D01*
X021404Y019514D02*
X021895Y019514D01*
X021895Y019351D02*
X021895Y019678D01*
X022404Y019596D02*
X022404Y019432D01*
X022486Y019351D01*
X022813Y019351D01*
X022486Y019678D01*
X022813Y019678D01*
X022895Y019596D01*
X022895Y019432D01*
X022813Y019351D01*
X022895Y019162D02*
X022895Y018835D01*
X022895Y018998D02*
X022404Y018998D01*
X022568Y018835D01*
X021895Y018835D02*
X021895Y019162D01*
X021895Y018998D02*
X021404Y018998D01*
X021568Y018835D01*
X022404Y019596D02*
X022486Y019678D01*
X023404Y019580D02*
X023404Y019417D01*
X023486Y019335D01*
X023568Y019335D01*
X023650Y019417D01*
X023650Y019662D01*
X023813Y019662D02*
X023486Y019662D01*
X023404Y019580D01*
X023813Y019662D02*
X023895Y019580D01*
X023895Y019417D01*
X023813Y019335D01*
X024404Y019417D02*
X024404Y019580D01*
X024486Y019662D01*
X024568Y019662D01*
X024650Y019580D01*
X024650Y019417D01*
X024568Y019335D01*
X024486Y019335D01*
X024404Y019417D01*
X024650Y019417D02*
X024731Y019335D01*
X024813Y019335D01*
X024895Y019417D01*
X024895Y019580D01*
X024813Y019662D01*
X024731Y019662D01*
X024650Y019580D01*
X025904Y019662D02*
X025904Y019335D01*
X025904Y019662D02*
X025986Y019662D01*
X026313Y019335D01*
X026395Y019335D01*
X026904Y019662D02*
X026986Y019498D01*
X027150Y019335D01*
X027150Y019580D01*
X027231Y019662D01*
X027313Y019662D01*
X027395Y019580D01*
X027395Y019417D01*
X027313Y019335D01*
X027150Y019335D01*
X027904Y019335D02*
X028150Y019335D01*
X028068Y019498D01*
X028068Y019580D01*
X028150Y019662D01*
X028313Y019662D01*
X028395Y019580D01*
X028395Y019417D01*
X028313Y019335D01*
X027904Y019335D02*
X027904Y019662D01*
X028904Y019580D02*
X029150Y019335D01*
X029150Y019662D01*
X029395Y019580D02*
X028904Y019580D01*
X029904Y019580D02*
X029904Y019417D01*
X029986Y019335D01*
X030150Y019498D02*
X030150Y019580D01*
X030231Y019662D01*
X030313Y019662D01*
X030395Y019580D01*
X030395Y019417D01*
X030313Y019335D01*
X030150Y019580D02*
X030068Y019662D01*
X029986Y019662D01*
X029904Y019580D01*
X030904Y019580D02*
X030904Y019417D01*
X030986Y019335D01*
X030904Y019580D02*
X030986Y019662D01*
X031068Y019662D01*
X031395Y019335D01*
X031395Y019662D01*
X031904Y019498D02*
X032395Y019498D01*
X032395Y019335D02*
X032395Y019662D01*
X032068Y019335D02*
X031904Y019498D01*
X032904Y019417D02*
X032904Y019580D01*
X032986Y019662D01*
X033313Y019335D01*
X033395Y019417D01*
X033395Y019580D01*
X033313Y019662D01*
X032986Y019662D01*
X032904Y019417D02*
X032986Y019335D01*
X033313Y019335D01*
X034904Y019148D02*
X035395Y019148D01*
X035395Y018985D02*
X035395Y019312D01*
X035150Y019501D02*
X035150Y019828D01*
X035395Y019746D02*
X034904Y019746D01*
X035150Y019501D01*
X035904Y019501D02*
X035904Y019828D01*
X036068Y019746D02*
X036068Y019664D01*
X036150Y019501D01*
X035904Y019501D01*
X036068Y019746D02*
X036150Y019828D01*
X036313Y019828D01*
X036395Y019746D01*
X036395Y019582D01*
X036313Y019501D01*
X036395Y019312D02*
X036395Y018985D01*
X036395Y019148D02*
X035904Y019148D01*
X036068Y018985D01*
X036068Y018643D02*
X036150Y018561D01*
X036231Y018643D01*
X036313Y018643D01*
X036395Y018561D01*
X036395Y018398D01*
X036313Y018316D01*
X036395Y018128D02*
X035904Y017801D01*
X035986Y017612D02*
X036150Y017612D01*
X036231Y017530D01*
X036231Y017285D01*
X036231Y017448D02*
X036395Y017612D01*
X036395Y017801D02*
X035904Y018128D01*
X035986Y018316D02*
X035904Y018398D01*
X035904Y018561D01*
X035986Y018643D01*
X036068Y018643D01*
X036150Y018561D02*
X036150Y018480D01*
X036904Y018561D02*
X036904Y018398D01*
X036986Y018316D01*
X036904Y018128D02*
X037395Y017801D01*
X037395Y018128D02*
X036904Y017801D01*
X036904Y017612D02*
X036904Y017285D01*
X036904Y017448D02*
X037395Y017448D01*
X037904Y017530D02*
X037904Y017285D01*
X038395Y017285D01*
X038231Y017285D02*
X038231Y017530D01*
X038150Y017612D01*
X037986Y017612D01*
X037904Y017530D01*
X038231Y017448D02*
X038395Y017612D01*
X038395Y017801D02*
X037904Y018128D01*
X037986Y018316D02*
X037904Y018398D01*
X037904Y018561D01*
X037986Y018643D01*
X038068Y018643D01*
X038395Y018316D01*
X038395Y018643D01*
X038395Y018985D02*
X038395Y019312D01*
X038395Y019148D02*
X037904Y019148D01*
X038068Y018985D01*
X037395Y018985D02*
X037395Y019312D01*
X037395Y019148D02*
X036904Y019148D01*
X037068Y018985D01*
X037068Y018643D02*
X036986Y018643D01*
X036904Y018561D01*
X037068Y018643D02*
X037395Y018316D01*
X037395Y018643D01*
X037904Y017801D02*
X038395Y018128D01*
X038904Y018128D02*
X039395Y017801D01*
X039395Y018128D02*
X038904Y017801D01*
X038904Y017612D02*
X038904Y017285D01*
X038904Y017448D02*
X039395Y017448D01*
X039904Y017530D02*
X039904Y017285D01*
X040395Y017285D01*
X040231Y017285D02*
X040231Y017530D01*
X040150Y017612D01*
X039986Y017612D01*
X039904Y017530D01*
X040231Y017448D02*
X040395Y017612D01*
X040395Y017801D02*
X039904Y018128D01*
X040068Y018316D02*
X039904Y018480D01*
X040395Y018480D01*
X040395Y018643D02*
X040395Y018316D01*
X040395Y018128D02*
X039904Y017801D01*
X039395Y018316D02*
X039395Y018643D01*
X039395Y018480D02*
X038904Y018480D01*
X039068Y018316D01*
X039068Y018985D02*
X038904Y019148D01*
X039395Y019148D01*
X039395Y018985D02*
X039395Y019312D01*
X039313Y019501D02*
X039231Y019501D01*
X039150Y019582D01*
X039150Y019746D01*
X039231Y019828D01*
X039313Y019828D01*
X039395Y019746D01*
X039395Y019582D01*
X039313Y019501D01*
X039150Y019582D02*
X039068Y019501D01*
X038986Y019501D01*
X038904Y019582D01*
X038904Y019746D01*
X038986Y019828D01*
X039068Y019828D01*
X039150Y019746D01*
X038395Y019501D02*
X038313Y019501D01*
X037986Y019828D01*
X037904Y019828D01*
X037904Y019501D01*
X037395Y019582D02*
X037395Y019746D01*
X037313Y019828D01*
X037231Y019828D01*
X037150Y019746D01*
X037150Y019501D01*
X037313Y019501D01*
X037395Y019582D01*
X037150Y019501D02*
X036986Y019664D01*
X036904Y019828D01*
X035068Y018985D02*
X034904Y019148D01*
X034986Y018643D02*
X034904Y018561D01*
X034904Y018398D01*
X034986Y018316D01*
X034904Y018128D02*
X035395Y017801D01*
X035395Y018128D02*
X034904Y017801D01*
X034904Y017612D02*
X034904Y017285D01*
X034904Y017448D02*
X035395Y017448D01*
X035904Y017530D02*
X035904Y017285D01*
X036395Y017285D01*
X035986Y017612D02*
X035904Y017530D01*
X035313Y018316D02*
X035395Y018398D01*
X035395Y018561D01*
X035313Y018643D01*
X035231Y018643D01*
X035150Y018561D01*
X035150Y018480D01*
X035150Y018561D02*
X035068Y018643D01*
X034986Y018643D01*
X033395Y018128D02*
X032904Y017801D01*
X032986Y017612D02*
X033150Y017612D01*
X033231Y017530D01*
X033231Y017285D01*
X033231Y017448D02*
X033395Y017612D01*
X033395Y017801D02*
X032904Y018128D01*
X032395Y018128D02*
X031904Y017801D01*
X031904Y017612D02*
X031904Y017285D01*
X031904Y017448D02*
X032395Y017448D01*
X032904Y017530D02*
X032904Y017285D01*
X033395Y017285D01*
X032986Y017612D02*
X032904Y017530D01*
X032395Y017801D02*
X031904Y018128D01*
X039904Y019148D02*
X040068Y018985D01*
X039904Y019148D02*
X040395Y019148D01*
X040395Y018985D02*
X040395Y019312D01*
X040313Y019501D02*
X040395Y019582D01*
X040395Y019746D01*
X040313Y019828D01*
X039986Y019828D01*
X039904Y019746D01*
X039904Y019582D01*
X039986Y019501D01*
X040068Y019501D01*
X040150Y019582D01*
X040150Y019828D01*
X040904Y019746D02*
X040904Y019582D01*
X040986Y019501D01*
X041313Y019501D01*
X040986Y019828D01*
X041313Y019828D01*
X041395Y019746D01*
X041395Y019582D01*
X041313Y019501D01*
X041395Y019312D02*
X041395Y018985D01*
X041068Y019312D01*
X040986Y019312D01*
X040904Y019230D01*
X040904Y019067D01*
X040986Y018985D01*
X041068Y018643D02*
X041395Y018643D01*
X041150Y018643D02*
X041150Y018316D01*
X041068Y018316D02*
X040904Y018480D01*
X041068Y018643D01*
X041068Y018316D02*
X041395Y018316D01*
X041313Y018128D02*
X040986Y018128D01*
X040904Y018046D01*
X040904Y017801D01*
X041395Y017801D01*
X041395Y018046D01*
X041313Y018128D01*
X041904Y018046D02*
X041904Y017882D01*
X041986Y017801D01*
X042313Y017801D01*
X042395Y017882D01*
X042395Y018046D01*
X042313Y018128D01*
X042395Y018316D02*
X041904Y018316D01*
X041986Y018128D02*
X041904Y018046D01*
X042395Y018316D02*
X042395Y018643D01*
X042395Y018985D02*
X042068Y019312D01*
X041986Y019312D01*
X041904Y019230D01*
X041904Y019067D01*
X041986Y018985D01*
X042395Y018985D02*
X042395Y019312D01*
X042395Y019501D02*
X042395Y019828D01*
X042395Y019664D02*
X041904Y019664D01*
X042068Y019501D01*
X040986Y019828D02*
X040904Y019746D01*
X043715Y019744D02*
X043797Y019825D01*
X043960Y019825D01*
X044042Y019744D01*
X044042Y019662D01*
X043715Y019335D01*
X044042Y019335D01*
X044230Y019335D02*
X044557Y019662D01*
X044557Y019744D01*
X044476Y019825D01*
X044312Y019825D01*
X044230Y019744D01*
X044230Y019335D02*
X044557Y019335D01*
X044476Y018825D02*
X044230Y018580D01*
X044557Y018580D01*
X044476Y018335D02*
X044476Y018825D01*
X044042Y018744D02*
X043960Y018825D01*
X043797Y018825D01*
X043715Y018744D01*
X044042Y018744D02*
X044042Y018662D01*
X043715Y018335D01*
X044042Y018335D01*
X043960Y017825D02*
X043797Y017825D01*
X043715Y017744D01*
X043960Y017825D02*
X044042Y017744D01*
X044042Y017662D01*
X043715Y017335D01*
X044042Y017335D01*
X044230Y017417D02*
X044230Y017580D01*
X044476Y017580D01*
X044557Y017498D01*
X044557Y017417D01*
X044476Y017335D01*
X044312Y017335D01*
X044230Y017417D01*
X044230Y017580D02*
X044394Y017744D01*
X044557Y017825D01*
X044476Y016825D02*
X044557Y016744D01*
X044557Y016662D01*
X044476Y016580D01*
X044312Y016580D01*
X044230Y016662D01*
X044230Y016744D01*
X044312Y016825D01*
X044476Y016825D01*
X044476Y016580D02*
X044557Y016498D01*
X044557Y016417D01*
X044476Y016335D01*
X044312Y016335D01*
X044230Y016417D01*
X044230Y016498D01*
X044312Y016580D01*
X044042Y016662D02*
X043715Y016335D01*
X044042Y016335D01*
X044042Y016662D02*
X044042Y016744D01*
X043960Y016825D01*
X043797Y016825D01*
X043715Y016744D01*
X042395Y017367D02*
X042313Y017285D01*
X042395Y017367D02*
X042395Y017530D01*
X042313Y017612D01*
X042231Y017612D01*
X042150Y017530D01*
X042150Y017367D01*
X042068Y017285D01*
X041986Y017285D01*
X041904Y017367D01*
X041904Y017530D01*
X041986Y017612D01*
X041395Y017530D02*
X041395Y017367D01*
X041313Y017285D01*
X041150Y017367D02*
X041150Y017530D01*
X041231Y017612D01*
X041313Y017612D01*
X041395Y017530D01*
X041150Y017367D02*
X041068Y017285D01*
X040986Y017285D01*
X040904Y017367D01*
X040904Y017530D01*
X040986Y017612D01*
X043715Y015744D02*
X043797Y015825D01*
X043960Y015825D01*
X044042Y015744D01*
X044042Y015662D01*
X043960Y015580D01*
X044042Y015498D01*
X044042Y015417D01*
X043960Y015335D01*
X043797Y015335D01*
X043715Y015417D01*
X043878Y015580D02*
X043960Y015580D01*
X044230Y015417D02*
X044312Y015335D01*
X044476Y015335D01*
X044557Y015417D01*
X044557Y015744D01*
X044230Y015417D01*
X044230Y015744D01*
X044312Y015825D01*
X044476Y015825D01*
X044557Y015744D01*
X044476Y014825D02*
X044312Y014825D01*
X044230Y014744D01*
X044042Y014744D02*
X044042Y014662D01*
X043960Y014580D01*
X044042Y014498D01*
X044042Y014417D01*
X043960Y014335D01*
X043797Y014335D01*
X043715Y014417D01*
X043878Y014580D02*
X043960Y014580D01*
X044042Y014744D02*
X043960Y014825D01*
X043797Y014825D01*
X043715Y014744D01*
X044230Y014335D02*
X044557Y014662D01*
X044557Y014744D01*
X044476Y014825D01*
X044557Y014335D02*
X044230Y014335D01*
X044476Y013825D02*
X044230Y013580D01*
X044557Y013580D01*
X044476Y013335D02*
X044476Y013825D01*
X044042Y013744D02*
X044042Y013662D01*
X043960Y013580D01*
X044042Y013498D01*
X044042Y013417D01*
X043960Y013335D01*
X043797Y013335D01*
X043715Y013417D01*
X043878Y013580D02*
X043960Y013580D01*
X044042Y013744D02*
X043960Y013825D01*
X043797Y013825D01*
X043715Y013744D01*
X043797Y012825D02*
X043960Y012825D01*
X044042Y012744D01*
X044042Y012662D01*
X043960Y012580D01*
X044042Y012498D01*
X044042Y012417D01*
X043960Y012335D01*
X043797Y012335D01*
X043715Y012417D01*
X043878Y012580D02*
X043960Y012580D01*
X044230Y012580D02*
X044230Y012417D01*
X044312Y012335D01*
X044476Y012335D01*
X044557Y012417D01*
X044557Y012498D01*
X044476Y012580D01*
X044230Y012580D01*
X044394Y012744D01*
X044557Y012825D01*
X043797Y012825D02*
X043715Y012744D01*
X043797Y011825D02*
X043960Y011825D01*
X044042Y011744D01*
X044042Y011662D01*
X043960Y011580D01*
X044042Y011498D01*
X044042Y011417D01*
X043960Y011335D01*
X043797Y011335D01*
X043715Y011417D01*
X043878Y011580D02*
X043960Y011580D01*
X044230Y011498D02*
X044230Y011417D01*
X044312Y011335D01*
X044476Y011335D01*
X044557Y011417D01*
X044557Y011498D01*
X044476Y011580D01*
X044312Y011580D01*
X044230Y011662D01*
X044230Y011744D01*
X044312Y011825D01*
X044476Y011825D01*
X044557Y011744D01*
X044557Y011662D01*
X044476Y011580D01*
X044312Y011580D02*
X044230Y011498D01*
X043797Y011825D02*
X043715Y011744D01*
X043960Y010825D02*
X043715Y010580D01*
X044042Y010580D01*
X044230Y010417D02*
X044557Y010744D01*
X044557Y010417D01*
X044476Y010335D01*
X044312Y010335D01*
X044230Y010417D01*
X044230Y010744D01*
X044312Y010825D01*
X044476Y010825D01*
X044557Y010744D01*
X043960Y010825D02*
X043960Y010335D01*
X043960Y009825D02*
X043715Y009580D01*
X044042Y009580D01*
X044230Y009744D02*
X044312Y009825D01*
X044476Y009825D01*
X044557Y009744D01*
X044557Y009662D01*
X044230Y009335D01*
X044557Y009335D01*
X043960Y009335D02*
X043960Y009825D01*
X043960Y008825D02*
X043715Y008580D01*
X044042Y008580D01*
X044230Y008580D02*
X044476Y008825D01*
X044476Y008335D01*
X044557Y008580D02*
X044230Y008580D01*
X043960Y008335D02*
X043960Y008825D01*
X043960Y007825D02*
X043715Y007580D01*
X044042Y007580D01*
X044230Y007580D02*
X044230Y007417D01*
X044312Y007335D01*
X044476Y007335D01*
X044557Y007417D01*
X044557Y007498D01*
X044476Y007580D01*
X044230Y007580D01*
X044394Y007744D01*
X044557Y007825D01*
X043960Y007825D02*
X043960Y007335D01*
X043960Y006825D02*
X043715Y006580D01*
X044042Y006580D01*
X044230Y006498D02*
X044312Y006580D01*
X044476Y006580D01*
X044557Y006498D01*
X044557Y006417D01*
X044476Y006335D01*
X044312Y006335D01*
X044230Y006417D01*
X044230Y006498D01*
X044312Y006580D02*
X044230Y006662D01*
X044230Y006744D01*
X044312Y006825D01*
X044476Y006825D01*
X044557Y006744D01*
X044557Y006662D01*
X044476Y006580D01*
X043960Y006335D02*
X043960Y006825D01*
X044042Y005825D02*
X043715Y005825D01*
X043715Y005580D01*
X043878Y005662D01*
X043960Y005662D01*
X044042Y005580D01*
X044042Y005417D01*
X043960Y005335D01*
X043797Y005335D01*
X043715Y005417D01*
X044230Y005417D02*
X044312Y005335D01*
X044476Y005335D01*
X044557Y005417D01*
X044557Y005744D01*
X044230Y005417D01*
X044230Y005744D01*
X044312Y005825D01*
X044476Y005825D01*
X044557Y005744D01*
X044476Y004825D02*
X044312Y004825D01*
X044230Y004744D01*
X044042Y004825D02*
X043715Y004825D01*
X043715Y004580D01*
X043878Y004662D01*
X043960Y004662D01*
X044042Y004580D01*
X044042Y004417D01*
X043960Y004335D01*
X043797Y004335D01*
X043715Y004417D01*
X044230Y004335D02*
X044557Y004662D01*
X044557Y004744D01*
X044476Y004825D01*
X044557Y004335D02*
X044230Y004335D01*
X044150Y003278D02*
X044313Y003278D01*
X044395Y003196D01*
X044395Y003032D01*
X044313Y002951D01*
X044150Y002951D02*
X044068Y003114D01*
X044068Y003196D01*
X044150Y003278D01*
X043904Y003278D02*
X043904Y002951D01*
X044150Y002951D01*
X044395Y002762D02*
X044395Y002435D01*
X044395Y002598D02*
X043904Y002598D01*
X044068Y002435D01*
X043445Y002435D02*
X043445Y002762D01*
X043445Y002598D02*
X042954Y002598D01*
X043118Y002435D01*
X042445Y002435D02*
X042445Y002762D01*
X042445Y002598D02*
X041954Y002598D01*
X042118Y002435D01*
X041445Y002435D02*
X041445Y002762D01*
X041445Y002598D02*
X040954Y002598D01*
X041118Y002435D01*
X040445Y002435D02*
X040445Y002762D01*
X040445Y002598D02*
X039954Y002598D01*
X040118Y002435D01*
X040118Y002951D02*
X039954Y003114D01*
X040445Y003114D01*
X040445Y002951D02*
X040445Y003278D01*
X040954Y003196D02*
X040954Y003032D01*
X041036Y002951D01*
X040954Y003196D02*
X041036Y003278D01*
X041118Y003278D01*
X041445Y002951D01*
X041445Y003278D01*
X041954Y003196D02*
X041954Y003032D01*
X042036Y002951D01*
X042200Y003114D02*
X042200Y003196D01*
X042281Y003278D01*
X042363Y003278D01*
X042445Y003196D01*
X042445Y003032D01*
X042363Y002951D01*
X042200Y003196D02*
X042118Y003278D01*
X042036Y003278D01*
X041954Y003196D01*
X042954Y003196D02*
X043200Y002951D01*
X043200Y003278D01*
X043445Y003196D02*
X042954Y003196D01*
X046615Y002994D02*
X046615Y002667D01*
X046697Y002585D01*
X046860Y002585D01*
X046942Y002667D01*
X046942Y002830D01*
X046778Y002830D01*
X046615Y002994D02*
X046697Y003075D01*
X046860Y003075D01*
X046942Y002994D01*
X047130Y003075D02*
X047457Y002585D01*
X047457Y003075D01*
X047646Y003075D02*
X047891Y003075D01*
X047973Y002994D01*
X047973Y002667D01*
X047891Y002585D01*
X047646Y002585D01*
X047646Y003075D01*
X047130Y003075D02*
X047130Y002585D01*
X047210Y004335D02*
X047047Y004335D01*
X046965Y004417D01*
X046965Y004580D02*
X047128Y004662D01*
X047210Y004662D01*
X047292Y004580D01*
X047292Y004417D01*
X047210Y004335D01*
X047480Y004417D02*
X047562Y004335D01*
X047726Y004335D01*
X047807Y004417D01*
X047807Y004498D01*
X047726Y004580D01*
X047644Y004580D01*
X047726Y004580D02*
X047807Y004662D01*
X047807Y004744D01*
X047726Y004825D01*
X047562Y004825D01*
X047480Y004744D01*
X047292Y004825D02*
X046965Y004825D01*
X046965Y004580D01*
X047047Y005335D02*
X046965Y005417D01*
X047047Y005335D02*
X047210Y005335D01*
X047292Y005417D01*
X047292Y005580D01*
X047210Y005662D01*
X047128Y005662D01*
X046965Y005580D01*
X046965Y005825D01*
X047292Y005825D01*
X047480Y005662D02*
X047644Y005825D01*
X047644Y005335D01*
X047807Y005335D02*
X047480Y005335D01*
X047562Y006335D02*
X047726Y006335D01*
X047807Y006417D01*
X047807Y006744D01*
X047726Y006825D01*
X047562Y006825D01*
X047480Y006744D01*
X047480Y006662D01*
X047562Y006580D01*
X047807Y006580D01*
X047562Y006335D02*
X047480Y006417D01*
X047292Y006580D02*
X046965Y006580D01*
X047210Y006825D01*
X047210Y006335D01*
X047210Y007335D02*
X047210Y007825D01*
X046965Y007580D01*
X047292Y007580D01*
X047480Y007417D02*
X047480Y007335D01*
X047480Y007417D02*
X047807Y007744D01*
X047807Y007825D01*
X047480Y007825D01*
X047562Y008335D02*
X047480Y008417D01*
X047562Y008335D02*
X047726Y008335D01*
X047807Y008417D01*
X047807Y008580D01*
X047726Y008662D01*
X047644Y008662D01*
X047480Y008580D01*
X047480Y008825D01*
X047807Y008825D01*
X047292Y008580D02*
X046965Y008580D01*
X047210Y008825D01*
X047210Y008335D01*
X047210Y009335D02*
X047210Y009825D01*
X046965Y009580D01*
X047292Y009580D01*
X047480Y009417D02*
X047562Y009335D01*
X047726Y009335D01*
X047807Y009417D01*
X047807Y009498D01*
X047726Y009580D01*
X047644Y009580D01*
X047726Y009580D02*
X047807Y009662D01*
X047807Y009744D01*
X047726Y009825D01*
X047562Y009825D01*
X047480Y009744D01*
X047480Y010335D02*
X047807Y010335D01*
X047644Y010335D02*
X047644Y010825D01*
X047480Y010662D01*
X047292Y010580D02*
X046965Y010580D01*
X047210Y010825D01*
X047210Y010335D01*
X047210Y011335D02*
X047047Y011335D01*
X046965Y011417D01*
X047128Y011580D02*
X047210Y011580D01*
X047292Y011498D01*
X047292Y011417D01*
X047210Y011335D01*
X047210Y011580D02*
X047292Y011662D01*
X047292Y011744D01*
X047210Y011825D01*
X047047Y011825D01*
X046965Y011744D01*
X047480Y011744D02*
X047480Y011662D01*
X047562Y011580D01*
X047807Y011580D01*
X047807Y011417D02*
X047807Y011744D01*
X047726Y011825D01*
X047562Y011825D01*
X047480Y011744D01*
X047480Y011417D02*
X047562Y011335D01*
X047726Y011335D01*
X047807Y011417D01*
X047480Y012335D02*
X047480Y012417D01*
X047807Y012744D01*
X047807Y012825D01*
X047480Y012825D01*
X047292Y012744D02*
X047292Y012662D01*
X047210Y012580D01*
X047292Y012498D01*
X047292Y012417D01*
X047210Y012335D01*
X047047Y012335D01*
X046965Y012417D01*
X047128Y012580D02*
X047210Y012580D01*
X047292Y012744D02*
X047210Y012825D01*
X047047Y012825D01*
X046965Y012744D01*
X047047Y013335D02*
X046965Y013417D01*
X047047Y013335D02*
X047210Y013335D01*
X047292Y013417D01*
X047292Y013498D01*
X047210Y013580D01*
X047128Y013580D01*
X047210Y013580D02*
X047292Y013662D01*
X047292Y013744D01*
X047210Y013825D01*
X047047Y013825D01*
X046965Y013744D01*
X047480Y013825D02*
X047480Y013580D01*
X047644Y013662D01*
X047726Y013662D01*
X047807Y013580D01*
X047807Y013417D01*
X047726Y013335D01*
X047562Y013335D01*
X047480Y013417D01*
X047480Y013825D02*
X047807Y013825D01*
X047726Y014335D02*
X047562Y014335D01*
X047480Y014417D01*
X047292Y014417D02*
X047210Y014335D01*
X047047Y014335D01*
X046965Y014417D01*
X047128Y014580D02*
X047210Y014580D01*
X047292Y014498D01*
X047292Y014417D01*
X047210Y014580D02*
X047292Y014662D01*
X047292Y014744D01*
X047210Y014825D01*
X047047Y014825D01*
X046965Y014744D01*
X047480Y014744D02*
X047562Y014825D01*
X047726Y014825D01*
X047807Y014744D01*
X047807Y014662D01*
X047726Y014580D01*
X047807Y014498D01*
X047807Y014417D01*
X047726Y014335D01*
X047726Y014580D02*
X047644Y014580D01*
X047644Y015335D02*
X047644Y015825D01*
X047480Y015662D01*
X047292Y015662D02*
X047210Y015580D01*
X047292Y015498D01*
X047292Y015417D01*
X047210Y015335D01*
X047047Y015335D01*
X046965Y015417D01*
X047128Y015580D02*
X047210Y015580D01*
X047292Y015662D02*
X047292Y015744D01*
X047210Y015825D01*
X047047Y015825D01*
X046965Y015744D01*
X047480Y015335D02*
X047807Y015335D01*
X034592Y013629D02*
X034592Y013466D01*
X034510Y013384D01*
X034265Y013384D01*
X034265Y013220D02*
X034265Y013711D01*
X034510Y013711D01*
X034592Y013629D01*
X034076Y013629D02*
X033994Y013711D01*
X033831Y013711D01*
X033749Y013629D01*
X033749Y013547D01*
X033831Y013466D01*
X033994Y013466D01*
X034076Y013384D01*
X034076Y013302D01*
X033994Y013220D01*
X033831Y013220D01*
X033749Y013302D01*
X033560Y013302D02*
X033479Y013220D01*
X033315Y013220D01*
X033233Y013302D01*
X033233Y013629D01*
X033315Y013711D01*
X033479Y013711D01*
X033560Y013629D01*
X033053Y013711D02*
X032890Y013711D01*
X032971Y013711D02*
X032971Y013220D01*
X032890Y013220D02*
X033053Y013220D01*
X018937Y019521D02*
X018937Y019766D01*
X018856Y019848D01*
X018529Y019848D01*
X018447Y019766D01*
X018447Y019521D01*
X018937Y019521D01*
X020943Y004649D02*
X020943Y004322D01*
X020943Y004486D02*
X021433Y004486D01*
X021433Y004134D02*
X021433Y003807D01*
X020943Y003807D01*
X020943Y004134D01*
X021188Y003970D02*
X021188Y003807D01*
X021270Y003618D02*
X021351Y003618D01*
X021433Y003536D01*
X021433Y003373D01*
X021351Y003291D01*
X021188Y003373D02*
X021188Y003536D01*
X021270Y003618D01*
X021024Y003618D02*
X020943Y003536D01*
X020943Y003373D01*
X021024Y003291D01*
X021106Y003291D01*
X021188Y003373D01*
X021433Y003102D02*
X021433Y002775D01*
X020943Y002775D01*
X020943Y003102D01*
X021188Y002939D02*
X021188Y002775D01*
X021188Y002587D02*
X021270Y002505D01*
X021270Y002260D01*
X021433Y002260D02*
X020943Y002260D01*
X020943Y002505D01*
X021024Y002587D01*
X021188Y002587D01*
X021270Y002423D02*
X021433Y002587D01*
X021943Y002505D02*
X021943Y002342D01*
X022024Y002260D01*
X022188Y002423D02*
X022188Y002505D01*
X022270Y002587D01*
X022351Y002587D01*
X022433Y002505D01*
X022433Y002342D01*
X022351Y002260D01*
X022188Y002505D02*
X022106Y002587D01*
X022024Y002587D01*
X021943Y002505D01*
X021943Y002775D02*
X022270Y002775D01*
X022433Y002939D01*
X022270Y003102D01*
X021943Y003102D01*
X022024Y003291D02*
X021943Y003373D01*
X021943Y003536D01*
X022024Y003618D01*
X022106Y003618D01*
X022188Y003536D01*
X022270Y003618D01*
X022351Y003618D01*
X022433Y003536D01*
X022433Y003373D01*
X022351Y003291D01*
X022188Y003455D02*
X022188Y003536D01*
X022810Y002757D02*
X022810Y002512D01*
X022973Y002594D01*
X023055Y002594D01*
X023137Y002512D01*
X023137Y002348D01*
X023055Y002267D01*
X022891Y002267D01*
X022810Y002348D01*
X022810Y002757D02*
X023137Y002757D01*
X023325Y002757D02*
X023325Y002430D01*
X023489Y002267D01*
X023652Y002430D01*
X023652Y002757D01*
X024010Y002675D02*
X024010Y002348D01*
X024091Y002267D01*
X024255Y002267D01*
X024337Y002348D01*
X024337Y002512D01*
X024173Y002512D01*
X024010Y002675D02*
X024091Y002757D01*
X024255Y002757D01*
X024337Y002675D01*
X024525Y002757D02*
X024525Y002267D01*
X024852Y002267D02*
X024852Y002757D01*
X025041Y002757D02*
X025286Y002757D01*
X025368Y002675D01*
X025368Y002348D01*
X025286Y002267D01*
X025041Y002267D01*
X025041Y002757D01*
X024525Y002757D02*
X024852Y002267D01*
X025730Y002430D02*
X025893Y002267D01*
X026057Y002430D01*
X026057Y002757D01*
X026245Y002757D02*
X026409Y002757D01*
X026327Y002757D02*
X026327Y002267D01*
X026245Y002267D02*
X026409Y002267D01*
X026589Y002267D02*
X026589Y002757D01*
X026916Y002267D01*
X026916Y002757D01*
X027954Y002680D02*
X027954Y002517D01*
X028036Y002435D01*
X028363Y002435D01*
X028036Y002762D01*
X028363Y002762D01*
X028445Y002680D01*
X028445Y002517D01*
X028363Y002435D01*
X028854Y002598D02*
X029345Y002598D01*
X029345Y002435D02*
X029345Y002762D01*
X029018Y002435D02*
X028854Y002598D01*
X028036Y002762D02*
X027954Y002680D01*
X029954Y002680D02*
X029954Y002517D01*
X030036Y002435D01*
X030118Y002762D02*
X030445Y002435D01*
X030445Y002762D01*
X030118Y002762D02*
X030036Y002762D01*
X029954Y002680D01*
X030954Y002680D02*
X030954Y002517D01*
X031036Y002435D01*
X031200Y002598D02*
X031200Y002680D01*
X031281Y002762D01*
X031363Y002762D01*
X031445Y002680D01*
X031445Y002517D01*
X031363Y002435D01*
X031200Y002680D02*
X031118Y002762D01*
X031036Y002762D01*
X030954Y002680D01*
X031954Y002680D02*
X032200Y002435D01*
X032200Y002762D01*
X032445Y002680D02*
X031954Y002680D01*
X032904Y002762D02*
X032904Y002435D01*
X033150Y002435D01*
X033068Y002598D01*
X033068Y002680D01*
X033150Y002762D01*
X033313Y002762D01*
X033395Y002680D01*
X033395Y002517D01*
X033313Y002435D01*
X033904Y002762D02*
X033986Y002598D01*
X034150Y002435D01*
X034150Y002680D01*
X034231Y002762D01*
X034313Y002762D01*
X034395Y002680D01*
X034395Y002517D01*
X034313Y002435D01*
X034150Y002435D01*
X034954Y002435D02*
X034954Y002762D01*
X035036Y002762D01*
X035363Y002435D01*
X035445Y002435D01*
X036954Y002517D02*
X037036Y002435D01*
X037118Y002435D01*
X037200Y002517D01*
X037200Y002680D01*
X037281Y002762D01*
X037363Y002762D01*
X037445Y002680D01*
X037445Y002517D01*
X037363Y002435D01*
X037281Y002435D01*
X037200Y002517D01*
X037200Y002680D02*
X037118Y002762D01*
X037036Y002762D01*
X036954Y002680D01*
X036954Y002517D01*
X037954Y002517D02*
X038036Y002435D01*
X038118Y002435D01*
X038200Y002517D01*
X038200Y002762D01*
X038363Y002762D02*
X038036Y002762D01*
X037954Y002680D01*
X037954Y002517D01*
X038363Y002435D02*
X038445Y002517D01*
X038445Y002680D01*
X038363Y002762D01*
X025730Y002757D02*
X025730Y002430D01*
X020383Y002423D02*
X020383Y002260D01*
X020383Y002342D02*
X019893Y002342D01*
X019893Y002423D02*
X019893Y002260D01*
X019974Y002604D02*
X020301Y002604D01*
X020383Y002685D01*
X020383Y002849D01*
X020301Y002931D01*
X019974Y002931D01*
X019893Y002849D01*
X019893Y002685D01*
X019974Y002604D01*
X019893Y003119D02*
X019893Y003364D01*
X019974Y003446D01*
X020138Y003446D01*
X020220Y003364D01*
X020220Y003119D01*
X020383Y003119D02*
X019893Y003119D01*
X020220Y003283D02*
X020383Y003446D01*
X020383Y003635D02*
X020383Y003962D01*
X020383Y004150D02*
X019893Y004150D01*
X019893Y004477D01*
X020138Y004314D02*
X020138Y004150D01*
X019893Y003962D02*
X019893Y003635D01*
X020383Y003635D01*
X020138Y003635D02*
X020138Y003798D01*
D14*
X017007Y001650D02*
X016604Y002044D01*
X016604Y001256D01*
X017007Y001650D01*
X012280Y006260D02*
X010880Y006260D01*
X010880Y008840D01*
X012280Y008840D01*
X012280Y006260D01*
X021983Y006497D02*
X022180Y006103D01*
X022377Y006497D01*
X021983Y006497D01*
X032356Y012385D02*
X032636Y012385D01*
X032496Y012385D02*
X032496Y012806D01*
X032356Y012665D01*
X036570Y014920D02*
X036650Y014840D01*
X036810Y014840D01*
X036890Y014920D01*
X036890Y015240D01*
X036810Y015320D01*
X036650Y015320D01*
X036570Y015240D01*
X036570Y014920D01*
X037085Y014840D02*
X037085Y015320D01*
X037406Y014840D01*
X037406Y015320D01*
X018356Y015220D02*
X018035Y014740D01*
X018356Y014740D02*
X018035Y015220D01*
X017840Y015220D02*
X017520Y015220D01*
X017680Y015220D02*
X017680Y014740D01*
X017760Y014320D02*
X017840Y014240D01*
X017840Y014080D01*
X017760Y014000D01*
X017520Y014000D01*
X017680Y014000D02*
X017840Y013840D01*
X018035Y013840D02*
X018356Y014320D01*
X018035Y014320D02*
X018356Y013840D01*
X017520Y013840D02*
X017520Y014320D01*
X017760Y014320D01*
X017904Y016930D02*
X018224Y016930D01*
X017904Y016930D02*
X017904Y017410D01*
X013527Y018947D02*
X013330Y018553D01*
X013133Y018947D01*
X013527Y018947D01*
D15*
X013880Y019500D02*
X013880Y018000D01*
X014130Y017750D01*
X014630Y017750D01*
X014880Y018000D01*
X014880Y019500D01*
X014630Y019750D01*
X014130Y019750D01*
X013880Y019500D01*
X014880Y019500D02*
X015130Y019750D01*
X015630Y019750D01*
X015880Y019500D01*
X015880Y018000D01*
X015630Y017750D01*
X015130Y017750D01*
X016630Y017750D01*
X016880Y017500D01*
X016880Y017000D01*
X016630Y016750D01*
X015130Y016750D01*
X014880Y017000D01*
X014880Y017500D01*
X015130Y017750D01*
X014880Y018000D01*
X015880Y018000D02*
X016130Y017750D01*
X016630Y017750D01*
X016880Y018000D01*
X016880Y019500D01*
X016630Y019750D01*
X016130Y019750D01*
X015880Y019500D01*
X015830Y020050D02*
X015330Y020050D01*
X015080Y020300D01*
X015080Y020800D01*
X015330Y021050D01*
X015830Y021050D01*
X016080Y020800D01*
X016330Y021050D01*
X016830Y021050D01*
X017080Y020800D01*
X017080Y020300D01*
X016830Y020050D01*
X016330Y020050D01*
X016080Y020300D01*
X015830Y020050D01*
X016080Y020300D02*
X016080Y020800D01*
X017080Y020800D02*
X017330Y021050D01*
X017830Y021050D01*
X018080Y020800D01*
X018330Y021050D01*
X018830Y021050D01*
X019080Y020800D01*
X019330Y021050D01*
X019830Y021050D01*
X020080Y020800D01*
X020080Y020300D01*
X019830Y020050D01*
X019330Y020050D01*
X019080Y020300D01*
X018830Y020050D01*
X018330Y020050D01*
X018080Y020300D01*
X017830Y020050D01*
X017330Y020050D01*
X017080Y020300D01*
X018080Y020300D02*
X018080Y020800D01*
X019080Y020800D02*
X019080Y020300D01*
X020080Y020300D02*
X020330Y020050D01*
X020830Y020050D01*
X021080Y020300D01*
X021330Y020050D01*
X021830Y020050D01*
X022080Y020300D01*
X022330Y020050D01*
X022830Y020050D01*
X023080Y020300D01*
X023080Y020800D01*
X022830Y021050D01*
X022330Y021050D01*
X022080Y020800D01*
X022080Y020300D01*
X022080Y020800D02*
X021830Y021050D01*
X021330Y021050D01*
X021080Y020800D01*
X021080Y020300D01*
X021080Y020800D02*
X020830Y021050D01*
X020330Y021050D01*
X020080Y020800D01*
X023080Y020800D02*
X023330Y021050D01*
X023830Y021050D01*
X024080Y020800D01*
X024330Y021050D01*
X024830Y021050D01*
X025080Y020800D01*
X025080Y020300D01*
X024830Y020050D01*
X024330Y020050D01*
X024080Y020300D01*
X023830Y020050D01*
X023330Y020050D01*
X023080Y020300D01*
X024080Y020300D02*
X024080Y020800D01*
X025680Y020800D02*
X025680Y020300D01*
X025930Y020050D01*
X026430Y020050D01*
X026680Y020300D01*
X026680Y020800D01*
X026430Y021050D01*
X025930Y021050D01*
X025680Y020800D01*
X026680Y020800D02*
X026930Y021050D01*
X027430Y021050D01*
X027680Y020800D01*
X027930Y021050D01*
X028430Y021050D01*
X028680Y020800D01*
X028930Y021050D01*
X029430Y021050D01*
X029680Y020800D01*
X029930Y021050D01*
X030430Y021050D01*
X030680Y020800D01*
X030930Y021050D01*
X031430Y021050D01*
X031680Y020800D01*
X031930Y021050D01*
X032430Y021050D01*
X032680Y020800D01*
X032930Y021050D01*
X033430Y021050D01*
X033680Y020800D01*
X033680Y020300D01*
X033430Y020050D01*
X032930Y020050D01*
X032680Y020300D01*
X032430Y020050D01*
X031930Y020050D01*
X031680Y020300D01*
X031680Y020800D01*
X031680Y020300D02*
X031430Y020050D01*
X030930Y020050D01*
X030680Y020300D01*
X030430Y020050D01*
X029930Y020050D01*
X029680Y020300D01*
X029430Y020050D01*
X028930Y020050D01*
X028680Y020300D01*
X028680Y020800D01*
X028680Y020300D02*
X028430Y020050D01*
X027930Y020050D01*
X027680Y020300D01*
X027430Y020050D01*
X026930Y020050D01*
X026680Y020300D01*
X027680Y020300D02*
X027680Y020800D01*
X029680Y020800D02*
X029680Y020300D01*
X030680Y020300D02*
X030680Y020800D01*
X032680Y020800D02*
X032680Y020300D01*
X034680Y020300D02*
X034930Y020050D01*
X035430Y020050D01*
X035680Y020300D01*
X035680Y020800D01*
X035430Y021050D01*
X034930Y021050D01*
X034680Y020800D01*
X034680Y020300D01*
X035680Y020300D02*
X035930Y020050D01*
X036430Y020050D01*
X036680Y020300D01*
X036680Y020800D01*
X036430Y021050D01*
X035930Y021050D01*
X035680Y020800D01*
X036680Y020800D02*
X036930Y021050D01*
X037430Y021050D01*
X037680Y020800D01*
X037930Y021050D01*
X038430Y021050D01*
X038680Y020800D01*
X038930Y021050D01*
X039430Y021050D01*
X039680Y020800D01*
X039930Y021050D01*
X040430Y021050D01*
X040680Y020800D01*
X040930Y021050D01*
X041430Y021050D01*
X041680Y020800D01*
X041930Y021050D01*
X042430Y021050D01*
X042680Y020800D01*
X042680Y020300D01*
X042430Y020050D01*
X041930Y020050D01*
X041680Y020300D01*
X041430Y020050D01*
X040930Y020050D01*
X040680Y020300D01*
X040680Y020800D01*
X040680Y020300D02*
X040430Y020050D01*
X039930Y020050D01*
X039680Y020300D01*
X039430Y020050D01*
X038930Y020050D01*
X038680Y020300D01*
X038430Y020050D01*
X037930Y020050D01*
X037680Y020300D01*
X037680Y020800D01*
X037680Y020300D02*
X037430Y020050D01*
X036930Y020050D01*
X036680Y020300D01*
X038680Y020300D02*
X038680Y020800D01*
X039680Y020800D02*
X039680Y020300D01*
X041680Y020300D02*
X041680Y020800D01*
X044680Y020800D02*
X044680Y020300D01*
X044930Y020050D01*
X046430Y020050D01*
X046680Y019800D01*
X046680Y019300D01*
X046430Y019050D01*
X044930Y019050D01*
X044680Y018800D01*
X044680Y018300D01*
X044930Y018050D01*
X046430Y018050D01*
X046680Y017800D01*
X046680Y017300D01*
X046430Y017050D01*
X044930Y017050D01*
X044680Y016800D01*
X044680Y016300D01*
X044930Y016050D01*
X046430Y016050D01*
X046680Y015800D01*
X046680Y015300D01*
X046430Y015050D01*
X044930Y015050D01*
X044680Y014800D01*
X044680Y014300D01*
X044930Y014050D01*
X046430Y014050D01*
X046680Y013800D01*
X046680Y013300D01*
X046430Y013050D01*
X044930Y013050D01*
X044680Y013300D01*
X044680Y013800D01*
X044930Y014050D01*
X046430Y014050D02*
X046680Y014300D01*
X046680Y014800D01*
X046430Y015050D01*
X044930Y015050D02*
X044680Y015300D01*
X044680Y015800D01*
X044930Y016050D01*
X046430Y016050D02*
X046680Y016300D01*
X046680Y016800D01*
X046430Y017050D01*
X044930Y017050D02*
X044680Y017300D01*
X044680Y017800D01*
X044930Y018050D01*
X046430Y018050D02*
X046680Y018300D01*
X046680Y018800D01*
X046430Y019050D01*
X044930Y019050D02*
X044680Y019300D01*
X044680Y019800D01*
X044930Y020050D01*
X044680Y020800D02*
X044930Y021050D01*
X046430Y021050D01*
X046680Y020800D01*
X046680Y020300D01*
X046430Y020050D01*
X038229Y014049D02*
X038002Y014049D01*
X038115Y014049D02*
X038115Y013708D01*
X037861Y013708D02*
X037634Y013708D01*
X037634Y014049D01*
X037861Y014049D01*
X037747Y013878D02*
X037634Y013878D01*
X037492Y013822D02*
X037492Y013765D01*
X037435Y013708D01*
X037322Y013708D01*
X037265Y013765D01*
X037322Y013878D02*
X037435Y013878D01*
X037492Y013822D01*
X037492Y013992D02*
X037435Y014049D01*
X037322Y014049D01*
X037265Y013992D01*
X037265Y013935D01*
X037322Y013878D01*
X037124Y013708D02*
X036897Y013708D01*
X036897Y014049D01*
X037124Y014049D01*
X037010Y013878D02*
X036897Y013878D01*
X036756Y013878D02*
X036699Y013822D01*
X036529Y013822D01*
X036642Y013822D02*
X036756Y013708D01*
X036756Y013878D02*
X036756Y013992D01*
X036699Y014049D01*
X036529Y014049D01*
X036529Y013708D01*
X034730Y012800D02*
X034730Y012300D01*
X034480Y012050D01*
X032980Y012050D01*
X032730Y011800D01*
X032730Y011300D01*
X032980Y011050D01*
X032730Y010800D01*
X032730Y010300D01*
X032980Y010050D01*
X034480Y010050D01*
X034730Y010300D01*
X034730Y010800D01*
X034480Y011050D01*
X032980Y011050D01*
X034480Y011050D02*
X034730Y011300D01*
X034730Y011800D01*
X034480Y012050D01*
X034730Y012800D02*
X034480Y013050D01*
X032980Y013050D01*
X032730Y012800D01*
X032730Y012300D01*
X032980Y012050D01*
X034121Y007745D02*
X034121Y007638D01*
X034121Y007424D02*
X034121Y006997D01*
X034015Y006997D02*
X034228Y006997D01*
X034444Y006997D02*
X034444Y007424D01*
X034765Y007424D01*
X034871Y007318D01*
X034871Y006997D01*
X035089Y007104D02*
X035089Y007318D01*
X035196Y007424D01*
X035516Y007424D01*
X035516Y007638D02*
X035516Y006997D01*
X035196Y006997D01*
X035089Y007104D01*
X035733Y006997D02*
X035947Y006997D01*
X035840Y006997D02*
X035840Y007424D01*
X035733Y007424D01*
X035840Y007638D02*
X035840Y007745D01*
X036270Y007424D02*
X036483Y007424D01*
X036590Y007318D01*
X036590Y006997D01*
X036270Y006997D01*
X036163Y007104D01*
X036270Y007211D01*
X036590Y007211D01*
X036808Y007104D02*
X036914Y007104D01*
X036914Y006997D01*
X036808Y006997D01*
X036808Y007104D01*
X037130Y007104D02*
X037237Y006997D01*
X037557Y006997D01*
X037775Y007104D02*
X037881Y006997D01*
X038095Y006997D01*
X038202Y007104D01*
X038202Y007318D01*
X038095Y007424D01*
X037881Y007424D01*
X037775Y007318D01*
X037775Y007104D01*
X037557Y007424D02*
X037237Y007424D01*
X037130Y007318D01*
X037130Y007104D01*
X038419Y006997D02*
X038419Y007424D01*
X038526Y007424D01*
X038633Y007318D01*
X038739Y007424D01*
X038846Y007318D01*
X038846Y006997D01*
X038633Y006997D02*
X038633Y007318D01*
X034121Y007424D02*
X034015Y007424D01*
X033797Y007318D02*
X033370Y007318D01*
X033153Y007318D02*
X033153Y007104D01*
X033046Y006997D01*
X032726Y006997D01*
X032726Y006784D02*
X032726Y007424D01*
X033046Y007424D01*
X033153Y007318D01*
X032508Y007318D02*
X032508Y006997D01*
X032188Y006997D01*
X032081Y007104D01*
X032188Y007211D01*
X032508Y007211D01*
X032508Y007318D02*
X032401Y007424D01*
X032188Y007424D01*
X031864Y007424D02*
X031757Y007424D01*
X031544Y007211D01*
X031544Y007424D02*
X031544Y006997D01*
X031326Y007104D02*
X031220Y006997D01*
X030899Y006997D01*
X030899Y006784D02*
X030899Y007424D01*
X031220Y007424D01*
X031326Y007318D01*
X031326Y007104D01*
X030682Y007211D02*
X030682Y007318D01*
X030575Y007424D01*
X030362Y007424D01*
X030255Y007318D01*
X030255Y007104D01*
X030362Y006997D01*
X030575Y006997D01*
X030682Y007211D02*
X030255Y007211D01*
X030038Y007424D02*
X029931Y007424D01*
X029718Y007211D01*
X029718Y007424D02*
X029718Y006997D01*
X029502Y006997D02*
X029502Y007104D01*
X029395Y007104D01*
X029395Y006997D01*
X029502Y006997D01*
X029178Y007104D02*
X029178Y007424D01*
X029178Y007104D02*
X029071Y006997D01*
X028964Y007104D01*
X028858Y006997D01*
X028751Y007104D01*
X028751Y007424D01*
X028533Y007424D02*
X028533Y007104D01*
X028427Y006997D01*
X028320Y007104D01*
X028213Y006997D01*
X028106Y007104D01*
X028106Y007424D01*
X027889Y007424D02*
X027889Y007104D01*
X027782Y006997D01*
X027675Y007104D01*
X027569Y006997D01*
X027462Y007104D01*
X027462Y007424D01*
X019830Y007050D02*
X019830Y006450D01*
X019828Y006433D01*
X019824Y006416D01*
X019817Y006400D01*
X019807Y006386D01*
X019794Y006373D01*
X019780Y006363D01*
X019764Y006356D01*
X019747Y006352D01*
X019730Y006350D01*
X018630Y006350D01*
X018613Y006352D01*
X018596Y006356D01*
X018580Y006363D01*
X018566Y006373D01*
X018553Y006386D01*
X018543Y006400D01*
X018536Y006416D01*
X018532Y006433D01*
X018530Y006450D01*
X018530Y007050D01*
X018532Y007067D01*
X018536Y007084D01*
X018543Y007100D01*
X018553Y007114D01*
X018566Y007127D01*
X018580Y007137D01*
X018596Y007144D01*
X018613Y007148D01*
X018630Y007150D01*
X019730Y007150D01*
X019747Y007148D01*
X019764Y007144D01*
X019780Y007137D01*
X019794Y007127D01*
X019807Y007114D01*
X019817Y007100D01*
X019824Y007084D01*
X019828Y007067D01*
X019830Y007050D01*
X016070Y008422D02*
X016070Y008476D01*
X016070Y008438D02*
X016068Y008418D01*
X016064Y008398D01*
X016056Y008380D01*
X016046Y008363D01*
X016033Y008347D01*
X016017Y008334D01*
X016000Y008324D01*
X015982Y008316D01*
X015962Y008312D01*
X015942Y008310D01*
X014918Y008310D01*
X014898Y008312D01*
X014878Y008316D01*
X014860Y008324D01*
X014843Y008334D01*
X014827Y008347D01*
X014814Y008363D01*
X014804Y008380D01*
X014796Y008398D01*
X014792Y008418D01*
X014790Y008438D01*
X014790Y008476D01*
X014790Y008656D02*
X014790Y008732D01*
X014790Y008912D02*
X014790Y008988D01*
X014790Y009168D02*
X014790Y009244D01*
X014790Y009424D02*
X014790Y009461D01*
X014792Y009481D01*
X014796Y009501D01*
X014804Y009519D01*
X014814Y009536D01*
X014827Y009552D01*
X014843Y009565D01*
X014860Y009575D01*
X014878Y009583D01*
X014898Y009587D01*
X014918Y009589D01*
X015942Y009589D01*
X015962Y009587D01*
X015982Y009583D01*
X016000Y009575D01*
X016017Y009565D01*
X016033Y009552D01*
X016046Y009536D01*
X016056Y009519D01*
X016064Y009501D01*
X016068Y009481D01*
X016070Y009461D01*
X016070Y009424D01*
X016070Y009244D02*
X016070Y009168D01*
X016070Y008988D02*
X016070Y008912D01*
X016070Y008732D02*
X016070Y008656D01*
X016780Y009900D02*
X014080Y009900D01*
X014021Y009902D01*
X013963Y009908D01*
X013904Y009917D01*
X013847Y009931D01*
X013791Y009948D01*
X013736Y009969D01*
X013682Y009993D01*
X013630Y010021D01*
X013580Y010052D01*
X013532Y010086D01*
X013487Y010123D01*
X013444Y010164D01*
X013403Y010207D01*
X013366Y010252D01*
X013332Y010300D01*
X013301Y010350D01*
X013273Y010402D01*
X013249Y010456D01*
X013228Y010511D01*
X013211Y010567D01*
X013197Y010624D01*
X013188Y010683D01*
X013182Y010741D01*
X013180Y010800D01*
X013182Y010859D01*
X013188Y010917D01*
X013197Y010976D01*
X013211Y011033D01*
X013228Y011089D01*
X013249Y011144D01*
X013273Y011198D01*
X013301Y011250D01*
X013332Y011300D01*
X013366Y011348D01*
X013403Y011393D01*
X013444Y011436D01*
X013487Y011477D01*
X013532Y011514D01*
X013580Y011548D01*
X013630Y011579D01*
X013682Y011607D01*
X013736Y011631D01*
X013791Y011652D01*
X013847Y011669D01*
X013904Y011683D01*
X013963Y011692D01*
X014021Y011698D01*
X014080Y011700D01*
X016780Y011700D01*
X016839Y011698D01*
X016897Y011692D01*
X016956Y011683D01*
X017013Y011669D01*
X017069Y011652D01*
X017124Y011631D01*
X017178Y011607D01*
X017230Y011579D01*
X017280Y011548D01*
X017328Y011514D01*
X017373Y011477D01*
X017416Y011436D01*
X017457Y011393D01*
X017494Y011348D01*
X017528Y011300D01*
X017559Y011250D01*
X017587Y011198D01*
X017611Y011144D01*
X017632Y011089D01*
X017649Y011033D01*
X017663Y010976D01*
X017672Y010917D01*
X017678Y010859D01*
X017680Y010800D01*
X017678Y010741D01*
X017672Y010683D01*
X017663Y010624D01*
X017649Y010567D01*
X017632Y010511D01*
X017611Y010456D01*
X017587Y010402D01*
X017559Y010350D01*
X017528Y010300D01*
X017494Y010252D01*
X017457Y010207D01*
X017416Y010164D01*
X017373Y010123D01*
X017328Y010086D01*
X017280Y010052D01*
X017230Y010021D01*
X017178Y009993D01*
X017124Y009969D01*
X017069Y009948D01*
X017013Y009931D01*
X016956Y009917D01*
X016897Y009908D01*
X016839Y009902D01*
X016780Y009900D01*
X018620Y010141D02*
X018620Y010779D01*
X018657Y010779D01*
X018974Y010779D02*
X019011Y010779D01*
X019348Y010779D02*
X019385Y010779D01*
X019703Y010779D02*
X019740Y010779D01*
X019740Y010141D01*
X019703Y010141D01*
X019385Y010141D02*
X018974Y010141D01*
X018657Y010141D02*
X018620Y010141D01*
X011930Y010170D02*
X011630Y010170D01*
X011630Y011310D01*
X011930Y011310D01*
X011930Y010170D01*
X015130Y015750D02*
X014880Y016000D01*
X014880Y016500D01*
X015130Y016750D01*
X016630Y016750D02*
X016880Y016500D01*
X016880Y016000D01*
X016630Y015750D01*
X015130Y015750D01*
X038949Y003196D02*
X039033Y003279D01*
X039366Y002946D01*
X039450Y003029D01*
X039450Y003196D01*
X039366Y003279D01*
X039033Y003279D01*
X038949Y003196D02*
X038949Y003029D01*
X039033Y002946D01*
X039366Y002946D01*
X039450Y002764D02*
X039450Y002430D01*
X039450Y002597D02*
X038949Y002597D01*
X039116Y002430D01*
X038930Y002050D02*
X039430Y002050D01*
X039680Y001800D01*
X039930Y002050D01*
X040430Y002050D01*
X040680Y001800D01*
X040930Y002050D01*
X041430Y002050D01*
X041680Y001800D01*
X041680Y001300D01*
X041430Y001050D01*
X040930Y001050D01*
X040680Y001300D01*
X040430Y001050D01*
X039930Y001050D01*
X039680Y001300D01*
X039430Y001050D01*
X038930Y001050D01*
X038680Y001300D01*
X038430Y001050D01*
X037930Y001050D01*
X037680Y001300D01*
X037430Y001050D01*
X036930Y001050D01*
X036680Y001300D01*
X036680Y001800D01*
X036930Y002050D01*
X037430Y002050D01*
X037680Y001800D01*
X037930Y002050D01*
X038430Y002050D01*
X038680Y001800D01*
X038680Y001300D01*
X038680Y001800D02*
X038930Y002050D01*
X039680Y001800D02*
X039680Y001300D01*
X040680Y001300D02*
X040680Y001800D01*
X041680Y001800D02*
X041930Y002050D01*
X042430Y002050D01*
X042680Y001800D01*
X042930Y002050D01*
X043430Y002050D01*
X043680Y001800D01*
X043930Y002050D01*
X044430Y002050D01*
X044680Y001800D01*
X044680Y001300D01*
X044430Y001050D01*
X043930Y001050D01*
X043680Y001300D01*
X043430Y001050D01*
X042930Y001050D01*
X042680Y001300D01*
X042430Y001050D01*
X041930Y001050D01*
X041680Y001300D01*
X042680Y001300D02*
X042680Y001800D01*
X043680Y001800D02*
X043680Y001300D01*
X044930Y003050D02*
X046430Y003050D01*
X046680Y003300D01*
X046680Y003800D01*
X046430Y004050D01*
X044930Y004050D01*
X044680Y004300D01*
X044680Y004800D01*
X044930Y005050D01*
X046430Y005050D01*
X046680Y004800D01*
X046680Y004300D01*
X046430Y004050D01*
X044930Y004050D02*
X044680Y003800D01*
X044680Y003300D01*
X044930Y003050D01*
X044930Y005050D02*
X044680Y005300D01*
X044680Y005800D01*
X044930Y006050D01*
X046430Y006050D01*
X046680Y005800D01*
X046680Y005300D01*
X046430Y005050D01*
X046430Y006050D02*
X046680Y006300D01*
X046680Y006800D01*
X046430Y007050D01*
X044930Y007050D01*
X044680Y007300D01*
X044680Y007800D01*
X044930Y008050D01*
X046430Y008050D01*
X046680Y007800D01*
X046680Y007300D01*
X046430Y007050D01*
X044930Y007050D02*
X044680Y006800D01*
X044680Y006300D01*
X044930Y006050D01*
X044930Y008050D02*
X044680Y008300D01*
X044680Y008800D01*
X044930Y009050D01*
X046430Y009050D01*
X046680Y008800D01*
X046680Y008300D01*
X046430Y008050D01*
X046430Y009050D02*
X046680Y009300D01*
X046680Y009800D01*
X046430Y010050D01*
X044930Y010050D01*
X044680Y010300D01*
X044680Y010800D01*
X044930Y011050D01*
X046430Y011050D01*
X046680Y010800D01*
X046680Y010300D01*
X046430Y010050D01*
X044930Y010050D02*
X044680Y009800D01*
X044680Y009300D01*
X044930Y009050D01*
X044930Y011050D02*
X044680Y011300D01*
X044680Y011800D01*
X044930Y012050D01*
X046430Y012050D01*
X046680Y011800D01*
X046680Y011300D01*
X046430Y011050D01*
X046430Y012050D02*
X046680Y012300D01*
X046680Y012800D01*
X046430Y013050D01*
X044930Y013050D02*
X044680Y012800D01*
X044680Y012300D01*
X044930Y012050D01*
X035430Y002050D02*
X034930Y002050D01*
X034680Y001800D01*
X034680Y001300D01*
X034930Y001050D01*
X035430Y001050D01*
X035680Y001300D01*
X035680Y001800D01*
X035430Y002050D01*
X034680Y001800D02*
X034430Y002050D01*
X033930Y002050D01*
X033680Y001800D01*
X033680Y001300D01*
X033930Y001050D01*
X034430Y001050D01*
X034680Y001300D01*
X033680Y001300D02*
X033430Y001050D01*
X032930Y001050D01*
X032680Y001300D01*
X032430Y001050D01*
X031930Y001050D01*
X031680Y001300D01*
X031430Y001050D01*
X030930Y001050D01*
X030680Y001300D01*
X030430Y001050D01*
X029930Y001050D01*
X029680Y001300D01*
X029430Y001050D01*
X028930Y001050D01*
X028680Y001300D01*
X028430Y001050D01*
X027930Y001050D01*
X027680Y001300D01*
X027680Y001800D01*
X027930Y002050D01*
X028430Y002050D01*
X028680Y001800D01*
X028930Y002050D01*
X029430Y002050D01*
X029680Y001800D01*
X029680Y001300D01*
X029680Y001800D02*
X029930Y002050D01*
X030430Y002050D01*
X030680Y001800D01*
X030930Y002050D01*
X031430Y002050D01*
X031680Y001800D01*
X031930Y002050D01*
X032430Y002050D01*
X032680Y001800D01*
X032680Y001300D01*
X032680Y001800D02*
X032930Y002050D01*
X033430Y002050D01*
X033680Y001800D01*
X031680Y001800D02*
X031680Y001300D01*
X030680Y001300D02*
X030680Y001800D01*
X028680Y001800D02*
X028680Y001300D01*
X026680Y001300D02*
X026430Y001050D01*
X025930Y001050D01*
X025680Y001300D01*
X025430Y001050D01*
X024930Y001050D01*
X024680Y001300D01*
X024430Y001050D01*
X023930Y001050D01*
X023680Y001300D01*
X023430Y001050D01*
X022930Y001050D01*
X022680Y001300D01*
X022430Y001050D01*
X021930Y001050D01*
X021680Y001300D01*
X021430Y001050D01*
X020930Y001050D01*
X020680Y001300D01*
X020430Y001050D01*
X019930Y001050D01*
X019680Y001300D01*
X019430Y001050D01*
X018930Y001050D01*
X018680Y001300D01*
X018680Y001800D01*
X018930Y002050D01*
X019430Y002050D01*
X019680Y001800D01*
X019930Y002050D01*
X020430Y002050D01*
X020680Y001800D01*
X020680Y001300D01*
X020680Y001800D02*
X020930Y002050D01*
X021430Y002050D01*
X021680Y001800D01*
X021930Y002050D01*
X022430Y002050D01*
X022680Y001800D01*
X022930Y002050D01*
X023430Y002050D01*
X023680Y001800D01*
X023680Y001300D01*
X023680Y001800D02*
X023930Y002050D01*
X024430Y002050D01*
X024680Y001800D01*
X024930Y002050D01*
X025430Y002050D01*
X025680Y001800D01*
X025930Y002050D01*
X026430Y002050D01*
X026680Y001800D01*
X026680Y001300D01*
X025680Y001300D02*
X025680Y001800D01*
X024680Y001800D02*
X024680Y001300D01*
X022680Y001300D02*
X022680Y001800D01*
X021680Y001800D02*
X021680Y001300D01*
X019680Y001300D02*
X019680Y001800D01*
X037680Y001800D02*
X037680Y001300D01*
D16*
X012116Y019227D02*
X012116Y019621D01*
X011919Y019818D01*
X011722Y019621D01*
X011722Y019227D01*
X011489Y019227D02*
X011292Y019227D01*
X011391Y019227D02*
X011391Y019818D01*
X011489Y019818D02*
X011292Y019818D01*
X011041Y019719D02*
X010943Y019818D01*
X010648Y019818D01*
X010648Y019227D01*
X010943Y019227D01*
X011041Y019325D01*
X011041Y019719D01*
X010397Y019818D02*
X010397Y019227D01*
X010003Y019818D01*
X010003Y019227D01*
X009770Y019227D02*
X009573Y019227D01*
X009672Y019227D02*
X009672Y019818D01*
X009770Y019818D02*
X009573Y019818D01*
X009479Y020405D02*
X009479Y020799D01*
X009676Y020996D01*
X009873Y020799D01*
X009873Y020405D01*
X010124Y020405D02*
X010419Y020405D01*
X010518Y020503D01*
X010518Y020897D01*
X010419Y020996D01*
X010124Y020996D01*
X010124Y020405D01*
X009228Y020405D02*
X009228Y020996D01*
X009032Y020799D01*
X008835Y020996D01*
X008835Y020405D01*
X009479Y020700D02*
X009873Y020700D01*
X010768Y020700D02*
X010965Y020700D01*
X010768Y020405D02*
X010768Y020996D01*
X011162Y020996D01*
X012058Y020996D02*
X012254Y020996D01*
X012156Y020996D02*
X012156Y020405D01*
X012058Y020405D02*
X012254Y020405D01*
X012487Y020405D02*
X012487Y020996D01*
X012881Y020405D01*
X012881Y020996D01*
X011162Y020405D02*
X010768Y020405D01*
X011722Y019522D02*
X012116Y019522D01*
D17*
X044215Y021063D02*
X044273Y021005D01*
X044390Y021005D01*
X044448Y021063D01*
X044448Y021180D01*
X044390Y021239D01*
X044331Y021239D01*
X044215Y021180D01*
X044215Y021355D01*
X044448Y021355D01*
X044620Y021355D02*
X044620Y021122D01*
X044736Y021005D01*
X044853Y021122D01*
X044853Y021355D01*
D18*
X019509Y004760D02*
X018840Y005430D01*
X018604Y005430D01*
X017856Y005430D02*
X017620Y005430D01*
X016950Y004760D01*
X016950Y002870D01*
X017856Y002870D01*
X017570Y002400D02*
X015790Y002400D01*
X015804Y002870D02*
X016709Y002870D01*
X016709Y004760D01*
X016040Y005430D01*
X015804Y005430D01*
X015056Y005430D02*
X014820Y005430D01*
X014150Y004760D01*
X014150Y002870D01*
X015056Y002870D01*
X015804Y002989D02*
X015868Y003011D01*
X015931Y003038D01*
X015993Y003068D01*
X016052Y003101D01*
X016110Y003137D01*
X016166Y003177D01*
X016219Y003220D01*
X016270Y003265D01*
X016318Y003313D01*
X016363Y003364D01*
X016406Y003418D01*
X016445Y003474D01*
X016482Y003531D01*
X016515Y003591D01*
X016544Y003653D01*
X016570Y003716D01*
X016593Y003780D01*
X016612Y003846D01*
X016627Y003913D01*
X016638Y003980D01*
X016646Y004048D01*
X016650Y004116D01*
X016650Y004184D01*
X016646Y004252D01*
X016638Y004320D01*
X016627Y004387D01*
X016612Y004454D01*
X016593Y004520D01*
X016570Y004584D01*
X016544Y004647D01*
X016515Y004709D01*
X016482Y004769D01*
X016445Y004826D01*
X016406Y004882D01*
X016363Y004936D01*
X016318Y004987D01*
X016270Y005035D01*
X016219Y005080D01*
X016166Y005123D01*
X016110Y005163D01*
X016052Y005199D01*
X015993Y005232D01*
X015931Y005262D01*
X015868Y005289D01*
X015804Y005311D01*
X015056Y005311D02*
X014992Y005289D01*
X014929Y005262D01*
X014867Y005232D01*
X014808Y005199D01*
X014750Y005163D01*
X014694Y005123D01*
X014641Y005080D01*
X014590Y005035D01*
X014542Y004987D01*
X014497Y004936D01*
X014454Y004882D01*
X014415Y004826D01*
X014378Y004769D01*
X014345Y004709D01*
X014316Y004647D01*
X014290Y004584D01*
X014267Y004520D01*
X014248Y004454D01*
X014233Y004387D01*
X014222Y004320D01*
X014214Y004252D01*
X014210Y004184D01*
X014210Y004116D01*
X014214Y004048D01*
X014222Y003980D01*
X014233Y003913D01*
X014248Y003846D01*
X014267Y003780D01*
X014290Y003716D01*
X014316Y003653D01*
X014345Y003591D01*
X014378Y003531D01*
X014415Y003474D01*
X014454Y003418D01*
X014497Y003364D01*
X014542Y003313D01*
X014590Y003265D01*
X014641Y003220D01*
X014694Y003177D01*
X014750Y003137D01*
X014808Y003101D01*
X014867Y003068D01*
X014929Y003038D01*
X014992Y003011D01*
X015056Y002989D01*
X018604Y002989D02*
X018668Y003011D01*
X018731Y003038D01*
X018793Y003068D01*
X018852Y003101D01*
X018910Y003137D01*
X018966Y003177D01*
X019019Y003220D01*
X019070Y003265D01*
X019118Y003313D01*
X019163Y003364D01*
X019206Y003418D01*
X019245Y003474D01*
X019282Y003531D01*
X019315Y003591D01*
X019344Y003653D01*
X019370Y003716D01*
X019393Y003780D01*
X019412Y003846D01*
X019427Y003913D01*
X019438Y003980D01*
X019446Y004048D01*
X019450Y004116D01*
X019450Y004184D01*
X019446Y004252D01*
X019438Y004320D01*
X019427Y004387D01*
X019412Y004454D01*
X019393Y004520D01*
X019370Y004584D01*
X019344Y004647D01*
X019315Y004709D01*
X019282Y004769D01*
X019245Y004826D01*
X019206Y004882D01*
X019163Y004936D01*
X019118Y004987D01*
X019070Y005035D01*
X019019Y005080D01*
X018966Y005123D01*
X018910Y005163D01*
X018852Y005199D01*
X018793Y005232D01*
X018731Y005262D01*
X018668Y005289D01*
X018604Y005311D01*
X019509Y004760D02*
X019509Y002870D01*
X018604Y002870D01*
X017856Y002989D02*
X017792Y003011D01*
X017729Y003038D01*
X017667Y003068D01*
X017608Y003101D01*
X017550Y003137D01*
X017494Y003177D01*
X017441Y003220D01*
X017390Y003265D01*
X017342Y003313D01*
X017297Y003364D01*
X017254Y003418D01*
X017215Y003474D01*
X017178Y003531D01*
X017145Y003591D01*
X017116Y003653D01*
X017090Y003716D01*
X017067Y003780D01*
X017048Y003846D01*
X017033Y003913D01*
X017022Y003980D01*
X017014Y004048D01*
X017010Y004116D01*
X017010Y004184D01*
X017014Y004252D01*
X017022Y004320D01*
X017033Y004387D01*
X017048Y004454D01*
X017067Y004520D01*
X017090Y004584D01*
X017116Y004647D01*
X017145Y004709D01*
X017178Y004769D01*
X017215Y004826D01*
X017254Y004882D01*
X017297Y004936D01*
X017342Y004987D01*
X017390Y005035D01*
X017441Y005080D01*
X017494Y005123D01*
X017550Y005163D01*
X017608Y005199D01*
X017667Y005232D01*
X017729Y005262D01*
X017792Y005289D01*
X017856Y005311D01*
X013260Y006211D02*
X013260Y006398D01*
X013260Y006304D02*
X012980Y006304D01*
X013073Y006211D01*
X013030Y007062D02*
X012983Y007109D01*
X012983Y007202D01*
X013030Y007249D01*
X013077Y007249D01*
X013264Y007062D01*
X013264Y007249D01*
X013213Y007972D02*
X013260Y008019D01*
X013260Y008112D01*
X013213Y008159D01*
X013166Y008159D01*
X013120Y008112D01*
X013120Y008065D01*
X013120Y008112D02*
X013073Y008159D01*
X013026Y008159D01*
X012980Y008112D01*
X012980Y008019D01*
X013026Y007972D01*
X010560Y008460D02*
X010280Y008460D01*
X010420Y008320D01*
X010420Y008507D01*
X009660Y015149D02*
X009199Y015456D01*
X009276Y015610D02*
X009199Y015686D01*
X009199Y015840D01*
X009276Y015917D01*
X009353Y015917D01*
X009660Y015610D01*
X009660Y015917D01*
X009660Y015456D02*
X009199Y015149D01*
X015790Y000900D02*
X017570Y000900D01*
D19*
X019121Y013814D03*
X019121Y014286D03*
X019121Y014714D03*
X019121Y015186D03*
X019121Y016914D03*
X019121Y017386D03*
X038121Y015286D03*
X038121Y014814D03*
D20*
X038121Y015050D03*
X019121Y014950D03*
X019121Y014050D03*
X019121Y017150D03*
D21*
X010530Y001850D02*
X007470Y001850D01*
X007470Y005390D01*
X008840Y005390D01*
X008840Y001860D01*
X012655Y001850D02*
X012780Y001850D01*
X012780Y002725D01*
X012780Y004850D02*
X012780Y005390D01*
X008840Y005390D01*
X018065Y007225D02*
X018065Y007495D01*
X018200Y007495D01*
X018245Y007450D01*
X018245Y007360D01*
X018200Y007315D01*
X018065Y007315D01*
X018155Y007315D02*
X018245Y007225D01*
X018359Y007225D02*
X018540Y007225D01*
X018654Y007270D02*
X018699Y007225D01*
X018789Y007225D01*
X018834Y007270D01*
X018834Y007315D01*
X018789Y007360D01*
X018699Y007360D01*
X018654Y007405D01*
X018654Y007450D01*
X018699Y007495D01*
X018789Y007495D01*
X018834Y007450D01*
X018949Y007495D02*
X018949Y007225D01*
X019129Y007225D01*
X019039Y007360D02*
X018949Y007360D01*
X018949Y007495D02*
X019129Y007495D01*
X019243Y007495D02*
X019424Y007495D01*
X019333Y007495D02*
X019333Y007225D01*
X019538Y007360D02*
X019718Y007360D01*
X019833Y007360D02*
X019923Y007360D01*
X019833Y007225D02*
X020013Y007225D01*
X020127Y007225D02*
X020127Y007495D01*
X020308Y007225D01*
X020308Y007495D01*
X020013Y007495D02*
X019833Y007495D01*
X019833Y007225D01*
X018540Y007495D02*
X018359Y007495D01*
X018359Y007225D01*
X018359Y007360D02*
X018450Y007360D01*
X024225Y003745D02*
X024450Y003745D01*
X024525Y003670D01*
X024525Y003520D01*
X024450Y003445D01*
X024225Y003445D01*
X024225Y003295D02*
X024225Y003745D01*
X024685Y003670D02*
X024685Y003370D01*
X024760Y003295D01*
X024910Y003295D01*
X024985Y003370D01*
X024985Y003670D01*
X024910Y003745D01*
X024760Y003745D01*
X024685Y003670D01*
X025146Y003745D02*
X025146Y003295D01*
X025296Y003445D01*
X025446Y003295D01*
X025446Y003745D01*
X025606Y003745D02*
X025606Y003295D01*
X025906Y003295D01*
X026066Y003295D02*
X026066Y003745D01*
X026292Y003745D01*
X026367Y003670D01*
X026367Y003520D01*
X026292Y003445D01*
X026066Y003445D01*
X026216Y003445D02*
X026367Y003295D01*
X025756Y003520D02*
X025606Y003520D01*
X025606Y003745D02*
X025906Y003745D01*
X036592Y010428D02*
X036592Y011156D01*
X036671Y011156D01*
X036671Y011944D01*
X036592Y011944D01*
X036592Y012672D01*
X038167Y012672D01*
X038167Y011944D01*
X038088Y011944D01*
X038088Y011156D01*
X038167Y011156D01*
X038167Y010428D01*
X037577Y010428D01*
X037577Y010330D01*
X037183Y010330D01*
X037183Y010428D01*
X036592Y010428D01*
X036592Y011156D02*
X036514Y011156D01*
X036514Y011944D01*
X036592Y011944D01*
X036908Y011550D02*
X036910Y011593D01*
X036916Y011635D01*
X036926Y011677D01*
X036939Y011718D01*
X036956Y011758D01*
X036977Y011795D01*
X037001Y011831D01*
X037028Y011864D01*
X037058Y011895D01*
X037091Y011923D01*
X037126Y011948D01*
X037163Y011969D01*
X037202Y011987D01*
X037242Y012001D01*
X037284Y012012D01*
X037326Y012019D01*
X037369Y012022D01*
X037412Y012021D01*
X037455Y012016D01*
X037497Y012007D01*
X037538Y011995D01*
X037578Y011979D01*
X037616Y011959D01*
X037652Y011936D01*
X037686Y011909D01*
X037718Y011880D01*
X037746Y011848D01*
X037772Y011813D01*
X037794Y011777D01*
X037813Y011738D01*
X037828Y011698D01*
X037840Y011657D01*
X037848Y011614D01*
X037852Y011571D01*
X037852Y011529D01*
X037848Y011486D01*
X037840Y011443D01*
X037828Y011402D01*
X037813Y011362D01*
X037794Y011323D01*
X037772Y011287D01*
X037746Y011252D01*
X037718Y011220D01*
X037686Y011191D01*
X037652Y011164D01*
X037616Y011141D01*
X037578Y011121D01*
X037538Y011105D01*
X037497Y011093D01*
X037455Y011084D01*
X037412Y011079D01*
X037369Y011078D01*
X037326Y011081D01*
X037284Y011088D01*
X037242Y011099D01*
X037202Y011113D01*
X037163Y011131D01*
X037126Y011152D01*
X037091Y011177D01*
X037058Y011205D01*
X037028Y011236D01*
X037001Y011269D01*
X036977Y011305D01*
X036956Y011342D01*
X036939Y011382D01*
X036926Y011423D01*
X036916Y011465D01*
X036910Y011507D01*
X036908Y011550D01*
X036789Y011550D02*
X036791Y011598D01*
X036797Y011646D01*
X036807Y011693D01*
X036820Y011739D01*
X036838Y011784D01*
X036858Y011828D01*
X036883Y011870D01*
X036911Y011909D01*
X036941Y011946D01*
X036975Y011980D01*
X037012Y012012D01*
X037050Y012041D01*
X037091Y012066D01*
X037134Y012088D01*
X037179Y012106D01*
X037225Y012120D01*
X037272Y012131D01*
X037320Y012138D01*
X037368Y012141D01*
X037416Y012140D01*
X037464Y012135D01*
X037512Y012126D01*
X037558Y012114D01*
X037603Y012097D01*
X037647Y012077D01*
X037689Y012054D01*
X037729Y012027D01*
X037767Y011997D01*
X037802Y011964D01*
X037834Y011928D01*
X037864Y011890D01*
X037890Y011849D01*
X037912Y011806D01*
X037932Y011762D01*
X037947Y011717D01*
X037959Y011670D01*
X037967Y011622D01*
X037971Y011574D01*
X037971Y011526D01*
X037967Y011478D01*
X037959Y011430D01*
X037947Y011383D01*
X037932Y011338D01*
X037912Y011294D01*
X037890Y011251D01*
X037864Y011210D01*
X037834Y011172D01*
X037802Y011136D01*
X037767Y011103D01*
X037729Y011073D01*
X037689Y011046D01*
X037647Y011023D01*
X037603Y011003D01*
X037558Y010986D01*
X037512Y010974D01*
X037464Y010965D01*
X037416Y010960D01*
X037368Y010959D01*
X037320Y010962D01*
X037272Y010969D01*
X037225Y010980D01*
X037179Y010994D01*
X037134Y011012D01*
X037091Y011034D01*
X037050Y011059D01*
X037012Y011088D01*
X036975Y011120D01*
X036941Y011154D01*
X036911Y011191D01*
X036883Y011230D01*
X036858Y011272D01*
X036838Y011316D01*
X036820Y011361D01*
X036807Y011407D01*
X036797Y011454D01*
X036791Y011502D01*
X036789Y011550D01*
X038167Y011156D02*
X038246Y011156D01*
X038246Y011944D01*
X038167Y011944D01*
X046954Y019847D02*
X047405Y020148D01*
X047405Y020308D02*
X047405Y020458D01*
X047405Y020383D02*
X046954Y020383D01*
X046954Y020308D02*
X046954Y020458D01*
X047029Y020615D02*
X047330Y020615D01*
X047405Y020690D01*
X047405Y020840D01*
X047330Y020915D01*
X047029Y020915D01*
X046954Y020840D01*
X046954Y020690D01*
X047029Y020615D01*
X046954Y020148D02*
X047405Y019847D01*
X017014Y015234D02*
X017014Y013266D01*
X015171Y013266D01*
X015046Y013391D01*
X015046Y015234D01*
X017014Y015234D01*
X014605Y015850D02*
X014605Y015925D01*
X014530Y016000D01*
X014154Y016000D01*
X014154Y015925D02*
X014154Y016075D01*
X014154Y016235D02*
X014154Y016461D01*
X014229Y016536D01*
X014380Y016536D01*
X014455Y016461D01*
X014455Y016235D01*
X014605Y016235D02*
X014154Y016235D01*
X014605Y015850D02*
X014530Y015775D01*
X014530Y016696D02*
X014605Y016771D01*
X014605Y016921D01*
X014530Y016996D01*
X014380Y016996D01*
X014305Y016921D01*
X014305Y016846D01*
X014380Y016696D01*
X014154Y016696D01*
X014154Y016996D01*
X011942Y018350D02*
X010957Y018350D01*
X015075Y021370D02*
X015150Y021295D01*
X015225Y021295D01*
X015300Y021370D01*
X015300Y021745D01*
X015225Y021745D02*
X015375Y021745D01*
X015535Y021745D02*
X015760Y021745D01*
X015835Y021670D01*
X015835Y021520D01*
X015760Y021445D01*
X015535Y021445D01*
X015535Y021295D02*
X015535Y021745D01*
X015996Y021520D02*
X016221Y021520D01*
X016296Y021445D01*
X016296Y021370D01*
X016221Y021295D01*
X016071Y021295D01*
X015996Y021370D01*
X015996Y021520D01*
X016146Y021670D01*
X016296Y021745D01*
X015276Y013620D02*
X015278Y013642D01*
X015283Y013662D01*
X015293Y013682D01*
X015305Y013700D01*
X015320Y013715D01*
X015338Y013727D01*
X015358Y013737D01*
X015378Y013742D01*
X015400Y013744D01*
X015422Y013742D01*
X015442Y013737D01*
X015462Y013727D01*
X015480Y013715D01*
X015495Y013700D01*
X015507Y013682D01*
X015517Y013662D01*
X015522Y013642D01*
X015524Y013620D01*
X015522Y013598D01*
X015517Y013578D01*
X015507Y013558D01*
X015495Y013540D01*
X015480Y013525D01*
X015462Y013513D01*
X015442Y013503D01*
X015422Y013498D01*
X015400Y013496D01*
X015378Y013498D01*
X015358Y013503D01*
X015338Y013513D01*
X015320Y013525D01*
X015305Y013540D01*
X015293Y013558D01*
X015283Y013578D01*
X015278Y013598D01*
X015276Y013620D01*
D22*
X015227Y013238D02*
X015227Y013045D01*
X015227Y013141D02*
X014937Y013141D01*
X015034Y013045D01*
D23*
X011824Y018104D02*
X011036Y018104D01*
X011036Y018596D02*
X011824Y018596D01*
D24*
X011430Y018350D03*
D25*
X022965Y006930D02*
X023595Y006930D01*
X023595Y005670D02*
X022965Y005670D01*
D26*
X015544Y008578D02*
X015546Y008605D01*
X015552Y008632D01*
X015561Y008658D01*
X015574Y008682D01*
X015590Y008705D01*
X015609Y008724D01*
X015631Y008741D01*
X015655Y008755D01*
X015680Y008765D01*
X015707Y008772D01*
X015734Y008775D01*
X015762Y008774D01*
X015789Y008769D01*
X015815Y008761D01*
X015839Y008749D01*
X015862Y008733D01*
X015883Y008715D01*
X015900Y008694D01*
X015915Y008670D01*
X015926Y008645D01*
X015934Y008619D01*
X015938Y008592D01*
X015938Y008564D01*
X015934Y008537D01*
X015926Y008511D01*
X015915Y008486D01*
X015900Y008462D01*
X015883Y008441D01*
X015862Y008423D01*
X015840Y008407D01*
X015815Y008395D01*
X015789Y008387D01*
X015762Y008382D01*
X015734Y008381D01*
X015707Y008384D01*
X015680Y008391D01*
X015655Y008401D01*
X015631Y008415D01*
X015609Y008432D01*
X015590Y008451D01*
X015574Y008474D01*
X015561Y008498D01*
X015552Y008524D01*
X015546Y008551D01*
X015544Y008578D01*
X016780Y010100D02*
X014080Y010100D01*
X014029Y010102D01*
X013978Y010107D01*
X013928Y010117D01*
X013878Y010130D01*
X013830Y010146D01*
X013783Y010166D01*
X013737Y010190D01*
X013694Y010216D01*
X013652Y010246D01*
X013613Y010279D01*
X013576Y010314D01*
X013542Y010352D01*
X013511Y010393D01*
X013482Y010435D01*
X013457Y010480D01*
X013436Y010526D01*
X013417Y010574D01*
X013403Y010623D01*
X013392Y010673D01*
X013384Y010723D01*
X013380Y010774D01*
X013380Y010826D01*
X013384Y010877D01*
X013392Y010927D01*
X013403Y010977D01*
X013417Y011026D01*
X013436Y011074D01*
X013457Y011120D01*
X013482Y011165D01*
X013511Y011207D01*
X013542Y011248D01*
X013576Y011286D01*
X013613Y011321D01*
X013652Y011354D01*
X013694Y011384D01*
X013737Y011410D01*
X013783Y011434D01*
X013830Y011454D01*
X013878Y011470D01*
X013928Y011483D01*
X013978Y011493D01*
X014029Y011498D01*
X014080Y011500D01*
X016780Y011500D01*
X016831Y011498D01*
X016882Y011493D01*
X016932Y011483D01*
X016982Y011470D01*
X017030Y011454D01*
X017077Y011434D01*
X017123Y011410D01*
X017166Y011384D01*
X017208Y011354D01*
X017247Y011321D01*
X017284Y011286D01*
X017318Y011248D01*
X017349Y011207D01*
X017378Y011165D01*
X017403Y011120D01*
X017424Y011074D01*
X017443Y011026D01*
X017457Y010977D01*
X017468Y010927D01*
X017476Y010877D01*
X017480Y010826D01*
X017480Y010774D01*
X017476Y010723D01*
X017468Y010673D01*
X017457Y010623D01*
X017443Y010574D01*
X017424Y010526D01*
X017403Y010480D01*
X017378Y010435D01*
X017349Y010393D01*
X017318Y010352D01*
X017284Y010314D01*
X017247Y010279D01*
X017208Y010246D01*
X017166Y010216D01*
X017123Y010190D01*
X017077Y010166D01*
X017030Y010146D01*
X016982Y010130D01*
X016932Y010117D01*
X016882Y010107D01*
X016831Y010102D01*
X016780Y010100D01*
D27*
X022180Y006080D03*
X013330Y018530D03*
M02*
