G75*
G70*
%OFA0B0*%
%FSLAX24Y24*%
%IPPOS*%
%LPD*%
%AMOC8*
5,1,8,0,0,1.08239X$1,22.5*
%
%ADD10C,0.1300*%
%ADD11OC8,0.0650*%
%ADD12C,0.0600*%
%ADD13OC8,0.1940*%
%ADD14C,0.0867*%
%ADD15OC8,0.0700*%
%ADD16C,0.1306*%
%ADD17C,0.0050*%
%ADD18R,0.0060X0.0720*%
D10*
X013680Y001550D03*
X034180Y003550D03*
X046180Y001550D03*
X034180Y014550D03*
X043680Y020550D03*
X014180Y020550D03*
D11*
X014380Y019250D03*
X015380Y019250D03*
X016380Y019250D03*
X016380Y018250D03*
X015380Y018250D03*
X014380Y018250D03*
X033230Y012550D03*
X034230Y012550D03*
X034230Y011550D03*
X033230Y011550D03*
X033230Y010550D03*
X034230Y010550D03*
D12*
X034180Y001718D02*
X034180Y001382D01*
X035180Y001382D02*
X035180Y001718D01*
X037180Y001718D02*
X037180Y001382D01*
X038180Y001382D02*
X038180Y001718D01*
X039180Y001718D02*
X039180Y001382D01*
X040180Y001382D02*
X040180Y001718D01*
X041180Y001718D02*
X041180Y001382D01*
X042180Y001382D02*
X042180Y001718D01*
X043180Y001718D02*
X043180Y001382D01*
X044180Y001382D02*
X044180Y001718D01*
X033180Y001718D02*
X033180Y001382D01*
X032180Y001382D02*
X032180Y001718D01*
X031180Y001718D02*
X031180Y001382D01*
X030180Y001382D02*
X030180Y001718D01*
X029180Y001718D02*
X029180Y001382D01*
X028180Y001382D02*
X028180Y001718D01*
X026180Y001718D02*
X026180Y001382D01*
X025180Y001382D02*
X025180Y001718D01*
X024180Y001718D02*
X024180Y001382D01*
X023180Y001382D02*
X023180Y001718D01*
X022180Y001718D02*
X022180Y001382D01*
X021180Y001382D02*
X021180Y001718D01*
X020180Y001718D02*
X020180Y001382D01*
X019180Y001382D02*
X019180Y001718D01*
X019580Y020382D02*
X019580Y020718D01*
X020580Y020718D02*
X020580Y020382D01*
X021580Y020382D02*
X021580Y020718D01*
X022580Y020718D02*
X022580Y020382D01*
X023580Y020382D02*
X023580Y020718D01*
X024580Y020718D02*
X024580Y020382D01*
X026180Y020382D02*
X026180Y020718D01*
X027180Y020718D02*
X027180Y020382D01*
X028180Y020382D02*
X028180Y020718D01*
X029180Y020718D02*
X029180Y020382D01*
X030180Y020382D02*
X030180Y020718D01*
X031180Y020718D02*
X031180Y020382D01*
X032180Y020382D02*
X032180Y020718D01*
X033180Y020718D02*
X033180Y020382D01*
X035180Y020382D02*
X035180Y020718D01*
X036180Y020718D02*
X036180Y020382D01*
X037180Y020382D02*
X037180Y020718D01*
X038180Y020718D02*
X038180Y020382D01*
X039180Y020382D02*
X039180Y020718D01*
X040180Y020718D02*
X040180Y020382D01*
X041180Y020382D02*
X041180Y020718D01*
X042180Y020718D02*
X042180Y020382D01*
X018580Y020382D02*
X018580Y020718D01*
X017580Y020718D02*
X017580Y020382D01*
X016580Y020382D02*
X016580Y020718D01*
X015580Y020718D02*
X015580Y020382D01*
D13*
X012780Y003820D03*
X010420Y003820D03*
X011600Y001850D03*
D14*
X010420Y003520D03*
X010420Y004120D03*
X012780Y004120D03*
X012780Y003520D03*
X011900Y001850D03*
X011300Y001850D03*
D15*
X014430Y010800D03*
X016430Y010800D03*
X011534Y015058D03*
X010747Y015058D03*
X010747Y016042D03*
X011534Y016042D03*
X015380Y016250D03*
X016380Y016250D03*
X016380Y017250D03*
X015380Y017250D03*
X045180Y017550D03*
X046180Y017550D03*
X046180Y018550D03*
X045180Y018550D03*
X045180Y019550D03*
X046180Y019550D03*
X046180Y020550D03*
X045180Y020550D03*
X045180Y016550D03*
X046180Y016550D03*
X046180Y015550D03*
X045180Y015550D03*
X045180Y014550D03*
X046180Y014550D03*
X046180Y013550D03*
X045180Y013550D03*
X045180Y012550D03*
X046180Y012550D03*
X046180Y011550D03*
X045180Y011550D03*
X045180Y010550D03*
X046180Y010550D03*
X046180Y009550D03*
X045180Y009550D03*
X045180Y008550D03*
X046180Y008550D03*
X046180Y007550D03*
X045180Y007550D03*
X045180Y006550D03*
X046180Y006550D03*
X046180Y005550D03*
X045180Y005550D03*
X045180Y004550D03*
X046180Y004550D03*
X046180Y003550D03*
X045180Y003550D03*
D16*
X009680Y013188D03*
X009680Y017912D03*
D17*
X011905Y013240D02*
X012355Y013240D01*
X011905Y013240D02*
X011905Y013860D01*
X012355Y013860D01*
X012355Y013240D01*
X012355Y013289D02*
X011905Y013289D01*
X011905Y013338D02*
X012355Y013338D01*
X012355Y013387D02*
X011905Y013387D01*
X011905Y013436D02*
X012355Y013436D01*
X012355Y013485D02*
X011905Y013485D01*
X011905Y013534D02*
X012355Y013534D01*
X012355Y013583D02*
X011905Y013583D01*
X011905Y013632D02*
X012355Y013632D01*
X012355Y013681D02*
X011905Y013681D01*
X011905Y013730D02*
X012355Y013730D01*
X012355Y013779D02*
X011905Y013779D01*
X011905Y013828D02*
X012355Y013828D01*
X012505Y013240D02*
X012955Y013240D01*
X012505Y013240D02*
X012505Y013860D01*
X012955Y013860D01*
X012955Y013240D01*
X012955Y013289D02*
X012505Y013289D01*
X012505Y013338D02*
X012955Y013338D01*
X012955Y013387D02*
X012505Y013387D01*
X012505Y013436D02*
X012955Y013436D01*
X012955Y013485D02*
X012505Y013485D01*
X012505Y013534D02*
X012955Y013534D01*
X012955Y013583D02*
X012505Y013583D01*
X012505Y013632D02*
X012955Y013632D01*
X012955Y013681D02*
X012505Y013681D01*
X012505Y013730D02*
X012955Y013730D01*
X012955Y013779D02*
X012505Y013779D01*
X012505Y013828D02*
X012955Y013828D01*
D18*
X012430Y013550D03*
M02*
